%TF.GenerationSoftware,KiCad,Pcbnew,(6.0.5)*%
%TF.CreationDate,2025-04-13T13:17:39+02:00*%
%TF.ProjectId,LandShark,4c616e64-5368-4617-926b-2e6b69636164,rev?*%
%TF.SameCoordinates,Original*%
%TF.FileFunction,Legend,Bot*%
%TF.FilePolarity,Positive*%
%FSLAX46Y46*%
G04 Gerber Fmt 4.6, Leading zero omitted, Abs format (unit mm)*
G04 Created by KiCad (PCBNEW (6.0.5)) date 2025-04-13 13:17:39*
%MOMM*%
%LPD*%
G01*
G04 APERTURE LIST*
G04 Aperture macros list*
%AMRoundRect*
0 Rectangle with rounded corners*
0 $1 Rounding radius*
0 $2 $3 $4 $5 $6 $7 $8 $9 X,Y pos of 4 corners*
0 Add a 4 corners polygon primitive as box body*
4,1,4,$2,$3,$4,$5,$6,$7,$8,$9,$2,$3,0*
0 Add four circle primitives for the rounded corners*
1,1,$1+$1,$2,$3*
1,1,$1+$1,$4,$5*
1,1,$1+$1,$6,$7*
1,1,$1+$1,$8,$9*
0 Add four rect primitives between the rounded corners*
20,1,$1+$1,$2,$3,$4,$5,0*
20,1,$1+$1,$4,$5,$6,$7,0*
20,1,$1+$1,$6,$7,$8,$9,0*
20,1,$1+$1,$8,$9,$2,$3,0*%
G04 Aperture macros list end*
%ADD10C,0.150000*%
%ADD11C,0.120000*%
%ADD12C,2.000000*%
%ADD13R,1.700000X1.700000*%
%ADD14O,1.700000X1.700000*%
%ADD15RoundRect,0.250000X0.600000X-0.600000X0.600000X0.600000X-0.600000X0.600000X-0.600000X-0.600000X0*%
%ADD16C,1.700000*%
%ADD17C,6.400000*%
%ADD18C,1.524000*%
%ADD19RoundRect,0.250000X-0.475000X0.250000X-0.475000X-0.250000X0.475000X-0.250000X0.475000X0.250000X0*%
%ADD20R,1.500000X1.500000*%
%ADD21RoundRect,0.250000X0.250000X0.475000X-0.250000X0.475000X-0.250000X-0.475000X0.250000X-0.475000X0*%
%ADD22RoundRect,0.250000X-0.250000X-0.475000X0.250000X-0.475000X0.250000X0.475000X-0.250000X0.475000X0*%
%ADD23RoundRect,0.250000X0.475000X-0.250000X0.475000X0.250000X-0.475000X0.250000X-0.475000X-0.250000X0*%
%ADD24RoundRect,0.218750X-0.381250X0.218750X-0.381250X-0.218750X0.381250X-0.218750X0.381250X0.218750X0*%
%ADD25RoundRect,0.250000X-0.262500X-0.450000X0.262500X-0.450000X0.262500X0.450000X-0.262500X0.450000X0*%
%ADD26RoundRect,0.250000X0.262500X0.450000X-0.262500X0.450000X-0.262500X-0.450000X0.262500X-0.450000X0*%
%ADD27RoundRect,0.218750X0.218750X0.381250X-0.218750X0.381250X-0.218750X-0.381250X0.218750X-0.381250X0*%
%ADD28RoundRect,0.218750X-0.218750X-0.381250X0.218750X-0.381250X0.218750X0.381250X-0.218750X0.381250X0*%
G04 APERTURE END LIST*
D10*
X139542857Y-141252380D02*
X140019047Y-141252380D01*
X140019047Y-140252380D01*
X138780952Y-141252380D02*
X138780952Y-140728571D01*
X138828571Y-140633333D01*
X138923809Y-140585714D01*
X139114285Y-140585714D01*
X139209523Y-140633333D01*
X138780952Y-141204761D02*
X138876190Y-141252380D01*
X139114285Y-141252380D01*
X139209523Y-141204761D01*
X139257142Y-141109523D01*
X139257142Y-141014285D01*
X139209523Y-140919047D01*
X139114285Y-140871428D01*
X138876190Y-140871428D01*
X138780952Y-140823809D01*
X138304761Y-140585714D02*
X138304761Y-141252380D01*
X138304761Y-140680952D02*
X138257142Y-140633333D01*
X138161904Y-140585714D01*
X138019047Y-140585714D01*
X137923809Y-140633333D01*
X137876190Y-140728571D01*
X137876190Y-141252380D01*
X136971428Y-141252380D02*
X136971428Y-140252380D01*
X136971428Y-141204761D02*
X137066666Y-141252380D01*
X137257142Y-141252380D01*
X137352380Y-141204761D01*
X137400000Y-141157142D01*
X137447619Y-141061904D01*
X137447619Y-140776190D01*
X137400000Y-140680952D01*
X137352380Y-140633333D01*
X137257142Y-140585714D01*
X137066666Y-140585714D01*
X136971428Y-140633333D01*
X136542857Y-141204761D02*
X136400000Y-141252380D01*
X136161904Y-141252380D01*
X136066666Y-141204761D01*
X136019047Y-141157142D01*
X135971428Y-141061904D01*
X135971428Y-140966666D01*
X136019047Y-140871428D01*
X136066666Y-140823809D01*
X136161904Y-140776190D01*
X136352380Y-140728571D01*
X136447619Y-140680952D01*
X136495238Y-140633333D01*
X136542857Y-140538095D01*
X136542857Y-140442857D01*
X136495238Y-140347619D01*
X136447619Y-140300000D01*
X136352380Y-140252380D01*
X136114285Y-140252380D01*
X135971428Y-140300000D01*
X135542857Y-141252380D02*
X135542857Y-140252380D01*
X135114285Y-141252380D02*
X135114285Y-140728571D01*
X135161904Y-140633333D01*
X135257142Y-140585714D01*
X135400000Y-140585714D01*
X135495238Y-140633333D01*
X135542857Y-140680952D01*
X134209523Y-141252380D02*
X134209523Y-140728571D01*
X134257142Y-140633333D01*
X134352380Y-140585714D01*
X134542857Y-140585714D01*
X134638095Y-140633333D01*
X134209523Y-141204761D02*
X134304761Y-141252380D01*
X134542857Y-141252380D01*
X134638095Y-141204761D01*
X134685714Y-141109523D01*
X134685714Y-141014285D01*
X134638095Y-140919047D01*
X134542857Y-140871428D01*
X134304761Y-140871428D01*
X134209523Y-140823809D01*
X133733333Y-141252380D02*
X133733333Y-140585714D01*
X133733333Y-140776190D02*
X133685714Y-140680952D01*
X133638095Y-140633333D01*
X133542857Y-140585714D01*
X133447619Y-140585714D01*
X133114285Y-141252380D02*
X133114285Y-140252380D01*
X133019047Y-140871428D02*
X132733333Y-141252380D01*
X132733333Y-140585714D02*
X133114285Y-140966666D01*
X131685714Y-140252380D02*
X131352380Y-141252380D01*
X131019047Y-140252380D01*
X130161904Y-141252380D02*
X130733333Y-141252380D01*
X130447619Y-141252380D02*
X130447619Y-140252380D01*
X130542857Y-140395238D01*
X130638095Y-140490476D01*
X130733333Y-140538095D01*
X129733333Y-141157142D02*
X129685714Y-141204761D01*
X129733333Y-141252380D01*
X129780952Y-141204761D01*
X129733333Y-141157142D01*
X129733333Y-141252380D01*
X129066666Y-140252380D02*
X128971428Y-140252380D01*
X128876190Y-140300000D01*
X128828571Y-140347619D01*
X128780952Y-140442857D01*
X128733333Y-140633333D01*
X128733333Y-140871428D01*
X128780952Y-141061904D01*
X128828571Y-141157142D01*
X128876190Y-141204761D01*
X128971428Y-141252380D01*
X129066666Y-141252380D01*
X129161904Y-141204761D01*
X129209523Y-141157142D01*
X129257142Y-141061904D01*
X129304761Y-140871428D01*
X129304761Y-140633333D01*
X129257142Y-140442857D01*
X129209523Y-140347619D01*
X129161904Y-140300000D01*
X129066666Y-140252380D01*
%TO.C,C30*%
X129757142Y-94557142D02*
X129804761Y-94509523D01*
X129852380Y-94366666D01*
X129852380Y-94271428D01*
X129804761Y-94128571D01*
X129709523Y-94033333D01*
X129614285Y-93985714D01*
X129423809Y-93938095D01*
X129280952Y-93938095D01*
X129090476Y-93985714D01*
X128995238Y-94033333D01*
X128900000Y-94128571D01*
X128852380Y-94271428D01*
X128852380Y-94366666D01*
X128900000Y-94509523D01*
X128947619Y-94557142D01*
X128852380Y-94890476D02*
X128852380Y-95509523D01*
X129233333Y-95176190D01*
X129233333Y-95319047D01*
X129280952Y-95414285D01*
X129328571Y-95461904D01*
X129423809Y-95509523D01*
X129661904Y-95509523D01*
X129757142Y-95461904D01*
X129804761Y-95414285D01*
X129852380Y-95319047D01*
X129852380Y-95033333D01*
X129804761Y-94938095D01*
X129757142Y-94890476D01*
X128852380Y-96128571D02*
X128852380Y-96223809D01*
X128900000Y-96319047D01*
X128947619Y-96366666D01*
X129042857Y-96414285D01*
X129233333Y-96461904D01*
X129471428Y-96461904D01*
X129661904Y-96414285D01*
X129757142Y-96366666D01*
X129804761Y-96319047D01*
X129852380Y-96223809D01*
X129852380Y-96128571D01*
X129804761Y-96033333D01*
X129757142Y-95985714D01*
X129661904Y-95938095D01*
X129471428Y-95890476D01*
X129233333Y-95890476D01*
X129042857Y-95938095D01*
X128947619Y-95985714D01*
X128900000Y-96033333D01*
X128852380Y-96128571D01*
%TO.C,TP10*%
X122338095Y-119052380D02*
X121766666Y-119052380D01*
X122052380Y-120052380D02*
X122052380Y-119052380D01*
X121433333Y-120052380D02*
X121433333Y-119052380D01*
X121052380Y-119052380D01*
X120957142Y-119100000D01*
X120909523Y-119147619D01*
X120861904Y-119242857D01*
X120861904Y-119385714D01*
X120909523Y-119480952D01*
X120957142Y-119528571D01*
X121052380Y-119576190D01*
X121433333Y-119576190D01*
X119909523Y-120052380D02*
X120480952Y-120052380D01*
X120195238Y-120052380D02*
X120195238Y-119052380D01*
X120290476Y-119195238D01*
X120385714Y-119290476D01*
X120480952Y-119338095D01*
X119290476Y-119052380D02*
X119195238Y-119052380D01*
X119100000Y-119100000D01*
X119052380Y-119147619D01*
X119004761Y-119242857D01*
X118957142Y-119433333D01*
X118957142Y-119671428D01*
X119004761Y-119861904D01*
X119052380Y-119957142D01*
X119100000Y-120004761D01*
X119195238Y-120052380D01*
X119290476Y-120052380D01*
X119385714Y-120004761D01*
X119433333Y-119957142D01*
X119480952Y-119861904D01*
X119528571Y-119671428D01*
X119528571Y-119433333D01*
X119480952Y-119242857D01*
X119433333Y-119147619D01*
X119385714Y-119100000D01*
X119290476Y-119052380D01*
%TO.C,TP5*%
X122261904Y-117652380D02*
X121690476Y-117652380D01*
X121976190Y-118652380D02*
X121976190Y-117652380D01*
X121357142Y-118652380D02*
X121357142Y-117652380D01*
X120976190Y-117652380D01*
X120880952Y-117700000D01*
X120833333Y-117747619D01*
X120785714Y-117842857D01*
X120785714Y-117985714D01*
X120833333Y-118080952D01*
X120880952Y-118128571D01*
X120976190Y-118176190D01*
X121357142Y-118176190D01*
X119880952Y-117652380D02*
X120357142Y-117652380D01*
X120404761Y-118128571D01*
X120357142Y-118080952D01*
X120261904Y-118033333D01*
X120023809Y-118033333D01*
X119928571Y-118080952D01*
X119880952Y-118128571D01*
X119833333Y-118223809D01*
X119833333Y-118461904D01*
X119880952Y-118557142D01*
X119928571Y-118604761D01*
X120023809Y-118652380D01*
X120261904Y-118652380D01*
X120357142Y-118604761D01*
X120404761Y-118557142D01*
%TO.C,C21*%
X140242857Y-103357142D02*
X140290476Y-103404761D01*
X140433333Y-103452380D01*
X140528571Y-103452380D01*
X140671428Y-103404761D01*
X140766666Y-103309523D01*
X140814285Y-103214285D01*
X140861904Y-103023809D01*
X140861904Y-102880952D01*
X140814285Y-102690476D01*
X140766666Y-102595238D01*
X140671428Y-102500000D01*
X140528571Y-102452380D01*
X140433333Y-102452380D01*
X140290476Y-102500000D01*
X140242857Y-102547619D01*
X139861904Y-102547619D02*
X139814285Y-102500000D01*
X139719047Y-102452380D01*
X139480952Y-102452380D01*
X139385714Y-102500000D01*
X139338095Y-102547619D01*
X139290476Y-102642857D01*
X139290476Y-102738095D01*
X139338095Y-102880952D01*
X139909523Y-103452380D01*
X139290476Y-103452380D01*
X138338095Y-103452380D02*
X138909523Y-103452380D01*
X138623809Y-103452380D02*
X138623809Y-102452380D01*
X138719047Y-102595238D01*
X138814285Y-102690476D01*
X138909523Y-102738095D01*
%TO.C,C34*%
X145642857Y-95637142D02*
X145690476Y-95684761D01*
X145833333Y-95732380D01*
X145928571Y-95732380D01*
X146071428Y-95684761D01*
X146166666Y-95589523D01*
X146214285Y-95494285D01*
X146261904Y-95303809D01*
X146261904Y-95160952D01*
X146214285Y-94970476D01*
X146166666Y-94875238D01*
X146071428Y-94780000D01*
X145928571Y-94732380D01*
X145833333Y-94732380D01*
X145690476Y-94780000D01*
X145642857Y-94827619D01*
X145309523Y-94732380D02*
X144690476Y-94732380D01*
X145023809Y-95113333D01*
X144880952Y-95113333D01*
X144785714Y-95160952D01*
X144738095Y-95208571D01*
X144690476Y-95303809D01*
X144690476Y-95541904D01*
X144738095Y-95637142D01*
X144785714Y-95684761D01*
X144880952Y-95732380D01*
X145166666Y-95732380D01*
X145261904Y-95684761D01*
X145309523Y-95637142D01*
X143833333Y-95065714D02*
X143833333Y-95732380D01*
X144071428Y-94684761D02*
X144309523Y-95399047D01*
X143690476Y-95399047D01*
%TO.C,C33*%
X124157142Y-104957142D02*
X124204761Y-104909523D01*
X124252380Y-104766666D01*
X124252380Y-104671428D01*
X124204761Y-104528571D01*
X124109523Y-104433333D01*
X124014285Y-104385714D01*
X123823809Y-104338095D01*
X123680952Y-104338095D01*
X123490476Y-104385714D01*
X123395238Y-104433333D01*
X123300000Y-104528571D01*
X123252380Y-104671428D01*
X123252380Y-104766666D01*
X123300000Y-104909523D01*
X123347619Y-104957142D01*
X123252380Y-105290476D02*
X123252380Y-105909523D01*
X123633333Y-105576190D01*
X123633333Y-105719047D01*
X123680952Y-105814285D01*
X123728571Y-105861904D01*
X123823809Y-105909523D01*
X124061904Y-105909523D01*
X124157142Y-105861904D01*
X124204761Y-105814285D01*
X124252380Y-105719047D01*
X124252380Y-105433333D01*
X124204761Y-105338095D01*
X124157142Y-105290476D01*
X123252380Y-106242857D02*
X123252380Y-106861904D01*
X123633333Y-106528571D01*
X123633333Y-106671428D01*
X123680952Y-106766666D01*
X123728571Y-106814285D01*
X123823809Y-106861904D01*
X124061904Y-106861904D01*
X124157142Y-106814285D01*
X124204761Y-106766666D01*
X124252380Y-106671428D01*
X124252380Y-106385714D01*
X124204761Y-106290476D01*
X124157142Y-106242857D01*
%TO.C,C29*%
X127442857Y-88677142D02*
X127490476Y-88724761D01*
X127633333Y-88772380D01*
X127728571Y-88772380D01*
X127871428Y-88724761D01*
X127966666Y-88629523D01*
X128014285Y-88534285D01*
X128061904Y-88343809D01*
X128061904Y-88200952D01*
X128014285Y-88010476D01*
X127966666Y-87915238D01*
X127871428Y-87820000D01*
X127728571Y-87772380D01*
X127633333Y-87772380D01*
X127490476Y-87820000D01*
X127442857Y-87867619D01*
X127061904Y-87867619D02*
X127014285Y-87820000D01*
X126919047Y-87772380D01*
X126680952Y-87772380D01*
X126585714Y-87820000D01*
X126538095Y-87867619D01*
X126490476Y-87962857D01*
X126490476Y-88058095D01*
X126538095Y-88200952D01*
X127109523Y-88772380D01*
X126490476Y-88772380D01*
X126014285Y-88772380D02*
X125823809Y-88772380D01*
X125728571Y-88724761D01*
X125680952Y-88677142D01*
X125585714Y-88534285D01*
X125538095Y-88343809D01*
X125538095Y-87962857D01*
X125585714Y-87867619D01*
X125633333Y-87820000D01*
X125728571Y-87772380D01*
X125919047Y-87772380D01*
X126014285Y-87820000D01*
X126061904Y-87867619D01*
X126109523Y-87962857D01*
X126109523Y-88200952D01*
X126061904Y-88296190D01*
X126014285Y-88343809D01*
X125919047Y-88391428D01*
X125728571Y-88391428D01*
X125633333Y-88343809D01*
X125585714Y-88296190D01*
X125538095Y-88200952D01*
%TO.C,C32*%
X125437142Y-94357142D02*
X125484761Y-94309523D01*
X125532380Y-94166666D01*
X125532380Y-94071428D01*
X125484761Y-93928571D01*
X125389523Y-93833333D01*
X125294285Y-93785714D01*
X125103809Y-93738095D01*
X124960952Y-93738095D01*
X124770476Y-93785714D01*
X124675238Y-93833333D01*
X124580000Y-93928571D01*
X124532380Y-94071428D01*
X124532380Y-94166666D01*
X124580000Y-94309523D01*
X124627619Y-94357142D01*
X124532380Y-94690476D02*
X124532380Y-95309523D01*
X124913333Y-94976190D01*
X124913333Y-95119047D01*
X124960952Y-95214285D01*
X125008571Y-95261904D01*
X125103809Y-95309523D01*
X125341904Y-95309523D01*
X125437142Y-95261904D01*
X125484761Y-95214285D01*
X125532380Y-95119047D01*
X125532380Y-94833333D01*
X125484761Y-94738095D01*
X125437142Y-94690476D01*
X124627619Y-95690476D02*
X124580000Y-95738095D01*
X124532380Y-95833333D01*
X124532380Y-96071428D01*
X124580000Y-96166666D01*
X124627619Y-96214285D01*
X124722857Y-96261904D01*
X124818095Y-96261904D01*
X124960952Y-96214285D01*
X125532380Y-95642857D01*
X125532380Y-96261904D01*
%TO.C,L4*%
X122252380Y-106233333D02*
X122252380Y-105757142D01*
X121252380Y-105757142D01*
X121585714Y-106995238D02*
X122252380Y-106995238D01*
X121204761Y-106757142D02*
X121919047Y-106519047D01*
X121919047Y-107138095D01*
%TO.C,C23*%
X133242857Y-105037142D02*
X133290476Y-105084761D01*
X133433333Y-105132380D01*
X133528571Y-105132380D01*
X133671428Y-105084761D01*
X133766666Y-104989523D01*
X133814285Y-104894285D01*
X133861904Y-104703809D01*
X133861904Y-104560952D01*
X133814285Y-104370476D01*
X133766666Y-104275238D01*
X133671428Y-104180000D01*
X133528571Y-104132380D01*
X133433333Y-104132380D01*
X133290476Y-104180000D01*
X133242857Y-104227619D01*
X132861904Y-104227619D02*
X132814285Y-104180000D01*
X132719047Y-104132380D01*
X132480952Y-104132380D01*
X132385714Y-104180000D01*
X132338095Y-104227619D01*
X132290476Y-104322857D01*
X132290476Y-104418095D01*
X132338095Y-104560952D01*
X132909523Y-105132380D01*
X132290476Y-105132380D01*
X131957142Y-104132380D02*
X131338095Y-104132380D01*
X131671428Y-104513333D01*
X131528571Y-104513333D01*
X131433333Y-104560952D01*
X131385714Y-104608571D01*
X131338095Y-104703809D01*
X131338095Y-104941904D01*
X131385714Y-105037142D01*
X131433333Y-105084761D01*
X131528571Y-105132380D01*
X131814285Y-105132380D01*
X131909523Y-105084761D01*
X131957142Y-105037142D01*
%TO.C,C39*%
X127842857Y-109877142D02*
X127890476Y-109924761D01*
X128033333Y-109972380D01*
X128128571Y-109972380D01*
X128271428Y-109924761D01*
X128366666Y-109829523D01*
X128414285Y-109734285D01*
X128461904Y-109543809D01*
X128461904Y-109400952D01*
X128414285Y-109210476D01*
X128366666Y-109115238D01*
X128271428Y-109020000D01*
X128128571Y-108972380D01*
X128033333Y-108972380D01*
X127890476Y-109020000D01*
X127842857Y-109067619D01*
X127509523Y-108972380D02*
X126890476Y-108972380D01*
X127223809Y-109353333D01*
X127080952Y-109353333D01*
X126985714Y-109400952D01*
X126938095Y-109448571D01*
X126890476Y-109543809D01*
X126890476Y-109781904D01*
X126938095Y-109877142D01*
X126985714Y-109924761D01*
X127080952Y-109972380D01*
X127366666Y-109972380D01*
X127461904Y-109924761D01*
X127509523Y-109877142D01*
X126414285Y-109972380D02*
X126223809Y-109972380D01*
X126128571Y-109924761D01*
X126080952Y-109877142D01*
X125985714Y-109734285D01*
X125938095Y-109543809D01*
X125938095Y-109162857D01*
X125985714Y-109067619D01*
X126033333Y-109020000D01*
X126128571Y-108972380D01*
X126319047Y-108972380D01*
X126414285Y-109020000D01*
X126461904Y-109067619D01*
X126509523Y-109162857D01*
X126509523Y-109400952D01*
X126461904Y-109496190D01*
X126414285Y-109543809D01*
X126319047Y-109591428D01*
X126128571Y-109591428D01*
X126033333Y-109543809D01*
X125985714Y-109496190D01*
X125938095Y-109400952D01*
%TO.C,C35*%
X139242857Y-100357142D02*
X139290476Y-100404761D01*
X139433333Y-100452380D01*
X139528571Y-100452380D01*
X139671428Y-100404761D01*
X139766666Y-100309523D01*
X139814285Y-100214285D01*
X139861904Y-100023809D01*
X139861904Y-99880952D01*
X139814285Y-99690476D01*
X139766666Y-99595238D01*
X139671428Y-99500000D01*
X139528571Y-99452380D01*
X139433333Y-99452380D01*
X139290476Y-99500000D01*
X139242857Y-99547619D01*
X138909523Y-99452380D02*
X138290476Y-99452380D01*
X138623809Y-99833333D01*
X138480952Y-99833333D01*
X138385714Y-99880952D01*
X138338095Y-99928571D01*
X138290476Y-100023809D01*
X138290476Y-100261904D01*
X138338095Y-100357142D01*
X138385714Y-100404761D01*
X138480952Y-100452380D01*
X138766666Y-100452380D01*
X138861904Y-100404761D01*
X138909523Y-100357142D01*
X137385714Y-99452380D02*
X137861904Y-99452380D01*
X137909523Y-99928571D01*
X137861904Y-99880952D01*
X137766666Y-99833333D01*
X137528571Y-99833333D01*
X137433333Y-99880952D01*
X137385714Y-99928571D01*
X137338095Y-100023809D01*
X137338095Y-100261904D01*
X137385714Y-100357142D01*
X137433333Y-100404761D01*
X137528571Y-100452380D01*
X137766666Y-100452380D01*
X137861904Y-100404761D01*
X137909523Y-100357142D01*
%TO.C,C24*%
X138842857Y-92877142D02*
X138890476Y-92924761D01*
X139033333Y-92972380D01*
X139128571Y-92972380D01*
X139271428Y-92924761D01*
X139366666Y-92829523D01*
X139414285Y-92734285D01*
X139461904Y-92543809D01*
X139461904Y-92400952D01*
X139414285Y-92210476D01*
X139366666Y-92115238D01*
X139271428Y-92020000D01*
X139128571Y-91972380D01*
X139033333Y-91972380D01*
X138890476Y-92020000D01*
X138842857Y-92067619D01*
X138461904Y-92067619D02*
X138414285Y-92020000D01*
X138319047Y-91972380D01*
X138080952Y-91972380D01*
X137985714Y-92020000D01*
X137938095Y-92067619D01*
X137890476Y-92162857D01*
X137890476Y-92258095D01*
X137938095Y-92400952D01*
X138509523Y-92972380D01*
X137890476Y-92972380D01*
X137033333Y-92305714D02*
X137033333Y-92972380D01*
X137271428Y-91924761D02*
X137509523Y-92639047D01*
X136890476Y-92639047D01*
%TO.C,C25*%
X139042857Y-109877142D02*
X139090476Y-109924761D01*
X139233333Y-109972380D01*
X139328571Y-109972380D01*
X139471428Y-109924761D01*
X139566666Y-109829523D01*
X139614285Y-109734285D01*
X139661904Y-109543809D01*
X139661904Y-109400952D01*
X139614285Y-109210476D01*
X139566666Y-109115238D01*
X139471428Y-109020000D01*
X139328571Y-108972380D01*
X139233333Y-108972380D01*
X139090476Y-109020000D01*
X139042857Y-109067619D01*
X138661904Y-109067619D02*
X138614285Y-109020000D01*
X138519047Y-108972380D01*
X138280952Y-108972380D01*
X138185714Y-109020000D01*
X138138095Y-109067619D01*
X138090476Y-109162857D01*
X138090476Y-109258095D01*
X138138095Y-109400952D01*
X138709523Y-109972380D01*
X138090476Y-109972380D01*
X137185714Y-108972380D02*
X137661904Y-108972380D01*
X137709523Y-109448571D01*
X137661904Y-109400952D01*
X137566666Y-109353333D01*
X137328571Y-109353333D01*
X137233333Y-109400952D01*
X137185714Y-109448571D01*
X137138095Y-109543809D01*
X137138095Y-109781904D01*
X137185714Y-109877142D01*
X137233333Y-109924761D01*
X137328571Y-109972380D01*
X137566666Y-109972380D01*
X137661904Y-109924761D01*
X137709523Y-109877142D01*
%TO.C,TP8*%
X122261904Y-114852380D02*
X121690476Y-114852380D01*
X121976190Y-115852380D02*
X121976190Y-114852380D01*
X121357142Y-115852380D02*
X121357142Y-114852380D01*
X120976190Y-114852380D01*
X120880952Y-114900000D01*
X120833333Y-114947619D01*
X120785714Y-115042857D01*
X120785714Y-115185714D01*
X120833333Y-115280952D01*
X120880952Y-115328571D01*
X120976190Y-115376190D01*
X121357142Y-115376190D01*
X120214285Y-115280952D02*
X120309523Y-115233333D01*
X120357142Y-115185714D01*
X120404761Y-115090476D01*
X120404761Y-115042857D01*
X120357142Y-114947619D01*
X120309523Y-114900000D01*
X120214285Y-114852380D01*
X120023809Y-114852380D01*
X119928571Y-114900000D01*
X119880952Y-114947619D01*
X119833333Y-115042857D01*
X119833333Y-115090476D01*
X119880952Y-115185714D01*
X119928571Y-115233333D01*
X120023809Y-115280952D01*
X120214285Y-115280952D01*
X120309523Y-115328571D01*
X120357142Y-115376190D01*
X120404761Y-115471428D01*
X120404761Y-115661904D01*
X120357142Y-115757142D01*
X120309523Y-115804761D01*
X120214285Y-115852380D01*
X120023809Y-115852380D01*
X119928571Y-115804761D01*
X119880952Y-115757142D01*
X119833333Y-115661904D01*
X119833333Y-115471428D01*
X119880952Y-115376190D01*
X119928571Y-115328571D01*
X120023809Y-115280952D01*
%TO.C,C27*%
X139157142Y-88957142D02*
X139204761Y-88909523D01*
X139252380Y-88766666D01*
X139252380Y-88671428D01*
X139204761Y-88528571D01*
X139109523Y-88433333D01*
X139014285Y-88385714D01*
X138823809Y-88338095D01*
X138680952Y-88338095D01*
X138490476Y-88385714D01*
X138395238Y-88433333D01*
X138300000Y-88528571D01*
X138252380Y-88671428D01*
X138252380Y-88766666D01*
X138300000Y-88909523D01*
X138347619Y-88957142D01*
X138347619Y-89338095D02*
X138300000Y-89385714D01*
X138252380Y-89480952D01*
X138252380Y-89719047D01*
X138300000Y-89814285D01*
X138347619Y-89861904D01*
X138442857Y-89909523D01*
X138538095Y-89909523D01*
X138680952Y-89861904D01*
X139252380Y-89290476D01*
X139252380Y-89909523D01*
X138252380Y-90242857D02*
X138252380Y-90909523D01*
X139252380Y-90480952D01*
%TO.C,R29*%
X104442857Y-106052380D02*
X104776190Y-105576190D01*
X105014285Y-106052380D02*
X105014285Y-105052380D01*
X104633333Y-105052380D01*
X104538095Y-105100000D01*
X104490476Y-105147619D01*
X104442857Y-105242857D01*
X104442857Y-105385714D01*
X104490476Y-105480952D01*
X104538095Y-105528571D01*
X104633333Y-105576190D01*
X105014285Y-105576190D01*
X104061904Y-105147619D02*
X104014285Y-105100000D01*
X103919047Y-105052380D01*
X103680952Y-105052380D01*
X103585714Y-105100000D01*
X103538095Y-105147619D01*
X103490476Y-105242857D01*
X103490476Y-105338095D01*
X103538095Y-105480952D01*
X104109523Y-106052380D01*
X103490476Y-106052380D01*
X103014285Y-106052380D02*
X102823809Y-106052380D01*
X102728571Y-106004761D01*
X102680952Y-105957142D01*
X102585714Y-105814285D01*
X102538095Y-105623809D01*
X102538095Y-105242857D01*
X102585714Y-105147619D01*
X102633333Y-105100000D01*
X102728571Y-105052380D01*
X102919047Y-105052380D01*
X103014285Y-105100000D01*
X103061904Y-105147619D01*
X103109523Y-105242857D01*
X103109523Y-105480952D01*
X103061904Y-105576190D01*
X103014285Y-105623809D01*
X102919047Y-105671428D01*
X102728571Y-105671428D01*
X102633333Y-105623809D01*
X102585714Y-105576190D01*
X102538095Y-105480952D01*
%TO.C,C38*%
X149842857Y-109957142D02*
X149890476Y-110004761D01*
X150033333Y-110052380D01*
X150128571Y-110052380D01*
X150271428Y-110004761D01*
X150366666Y-109909523D01*
X150414285Y-109814285D01*
X150461904Y-109623809D01*
X150461904Y-109480952D01*
X150414285Y-109290476D01*
X150366666Y-109195238D01*
X150271428Y-109100000D01*
X150128571Y-109052380D01*
X150033333Y-109052380D01*
X149890476Y-109100000D01*
X149842857Y-109147619D01*
X149509523Y-109052380D02*
X148890476Y-109052380D01*
X149223809Y-109433333D01*
X149080952Y-109433333D01*
X148985714Y-109480952D01*
X148938095Y-109528571D01*
X148890476Y-109623809D01*
X148890476Y-109861904D01*
X148938095Y-109957142D01*
X148985714Y-110004761D01*
X149080952Y-110052380D01*
X149366666Y-110052380D01*
X149461904Y-110004761D01*
X149509523Y-109957142D01*
X148319047Y-109480952D02*
X148414285Y-109433333D01*
X148461904Y-109385714D01*
X148509523Y-109290476D01*
X148509523Y-109242857D01*
X148461904Y-109147619D01*
X148414285Y-109100000D01*
X148319047Y-109052380D01*
X148128571Y-109052380D01*
X148033333Y-109100000D01*
X147985714Y-109147619D01*
X147938095Y-109242857D01*
X147938095Y-109290476D01*
X147985714Y-109385714D01*
X148033333Y-109433333D01*
X148128571Y-109480952D01*
X148319047Y-109480952D01*
X148414285Y-109528571D01*
X148461904Y-109576190D01*
X148509523Y-109671428D01*
X148509523Y-109861904D01*
X148461904Y-109957142D01*
X148414285Y-110004761D01*
X148319047Y-110052380D01*
X148128571Y-110052380D01*
X148033333Y-110004761D01*
X147985714Y-109957142D01*
X147938095Y-109861904D01*
X147938095Y-109671428D01*
X147985714Y-109576190D01*
X148033333Y-109528571D01*
X148128571Y-109480952D01*
%TO.C,R31*%
X104442857Y-108052380D02*
X104776190Y-107576190D01*
X105014285Y-108052380D02*
X105014285Y-107052380D01*
X104633333Y-107052380D01*
X104538095Y-107100000D01*
X104490476Y-107147619D01*
X104442857Y-107242857D01*
X104442857Y-107385714D01*
X104490476Y-107480952D01*
X104538095Y-107528571D01*
X104633333Y-107576190D01*
X105014285Y-107576190D01*
X104109523Y-107052380D02*
X103490476Y-107052380D01*
X103823809Y-107433333D01*
X103680952Y-107433333D01*
X103585714Y-107480952D01*
X103538095Y-107528571D01*
X103490476Y-107623809D01*
X103490476Y-107861904D01*
X103538095Y-107957142D01*
X103585714Y-108004761D01*
X103680952Y-108052380D01*
X103966666Y-108052380D01*
X104061904Y-108004761D01*
X104109523Y-107957142D01*
X102538095Y-108052380D02*
X103109523Y-108052380D01*
X102823809Y-108052380D02*
X102823809Y-107052380D01*
X102919047Y-107195238D01*
X103014285Y-107290476D01*
X103109523Y-107338095D01*
%TO.C,C20*%
X133242857Y-96757142D02*
X133290476Y-96804761D01*
X133433333Y-96852380D01*
X133528571Y-96852380D01*
X133671428Y-96804761D01*
X133766666Y-96709523D01*
X133814285Y-96614285D01*
X133861904Y-96423809D01*
X133861904Y-96280952D01*
X133814285Y-96090476D01*
X133766666Y-95995238D01*
X133671428Y-95900000D01*
X133528571Y-95852380D01*
X133433333Y-95852380D01*
X133290476Y-95900000D01*
X133242857Y-95947619D01*
X132861904Y-95947619D02*
X132814285Y-95900000D01*
X132719047Y-95852380D01*
X132480952Y-95852380D01*
X132385714Y-95900000D01*
X132338095Y-95947619D01*
X132290476Y-96042857D01*
X132290476Y-96138095D01*
X132338095Y-96280952D01*
X132909523Y-96852380D01*
X132290476Y-96852380D01*
X131671428Y-95852380D02*
X131576190Y-95852380D01*
X131480952Y-95900000D01*
X131433333Y-95947619D01*
X131385714Y-96042857D01*
X131338095Y-96233333D01*
X131338095Y-96471428D01*
X131385714Y-96661904D01*
X131433333Y-96757142D01*
X131480952Y-96804761D01*
X131576190Y-96852380D01*
X131671428Y-96852380D01*
X131766666Y-96804761D01*
X131814285Y-96757142D01*
X131861904Y-96661904D01*
X131909523Y-96471428D01*
X131909523Y-96233333D01*
X131861904Y-96042857D01*
X131814285Y-95947619D01*
X131766666Y-95900000D01*
X131671428Y-95852380D01*
%TO.C,C31*%
X149642857Y-107157142D02*
X149690476Y-107204761D01*
X149833333Y-107252380D01*
X149928571Y-107252380D01*
X150071428Y-107204761D01*
X150166666Y-107109523D01*
X150214285Y-107014285D01*
X150261904Y-106823809D01*
X150261904Y-106680952D01*
X150214285Y-106490476D01*
X150166666Y-106395238D01*
X150071428Y-106300000D01*
X149928571Y-106252380D01*
X149833333Y-106252380D01*
X149690476Y-106300000D01*
X149642857Y-106347619D01*
X149309523Y-106252380D02*
X148690476Y-106252380D01*
X149023809Y-106633333D01*
X148880952Y-106633333D01*
X148785714Y-106680952D01*
X148738095Y-106728571D01*
X148690476Y-106823809D01*
X148690476Y-107061904D01*
X148738095Y-107157142D01*
X148785714Y-107204761D01*
X148880952Y-107252380D01*
X149166666Y-107252380D01*
X149261904Y-107204761D01*
X149309523Y-107157142D01*
X147738095Y-107252380D02*
X148309523Y-107252380D01*
X148023809Y-107252380D02*
X148023809Y-106252380D01*
X148119047Y-106395238D01*
X148214285Y-106490476D01*
X148309523Y-106538095D01*
%TO.C,TP6*%
X122261904Y-112052380D02*
X121690476Y-112052380D01*
X121976190Y-113052380D02*
X121976190Y-112052380D01*
X121357142Y-113052380D02*
X121357142Y-112052380D01*
X120976190Y-112052380D01*
X120880952Y-112100000D01*
X120833333Y-112147619D01*
X120785714Y-112242857D01*
X120785714Y-112385714D01*
X120833333Y-112480952D01*
X120880952Y-112528571D01*
X120976190Y-112576190D01*
X121357142Y-112576190D01*
X119928571Y-112052380D02*
X120119047Y-112052380D01*
X120214285Y-112100000D01*
X120261904Y-112147619D01*
X120357142Y-112290476D01*
X120404761Y-112480952D01*
X120404761Y-112861904D01*
X120357142Y-112957142D01*
X120309523Y-113004761D01*
X120214285Y-113052380D01*
X120023809Y-113052380D01*
X119928571Y-113004761D01*
X119880952Y-112957142D01*
X119833333Y-112861904D01*
X119833333Y-112623809D01*
X119880952Y-112528571D01*
X119928571Y-112480952D01*
X120023809Y-112433333D01*
X120214285Y-112433333D01*
X120309523Y-112480952D01*
X120357142Y-112528571D01*
X120404761Y-112623809D01*
%TO.C,C22*%
X137042857Y-96677142D02*
X137090476Y-96724761D01*
X137233333Y-96772380D01*
X137328571Y-96772380D01*
X137471428Y-96724761D01*
X137566666Y-96629523D01*
X137614285Y-96534285D01*
X137661904Y-96343809D01*
X137661904Y-96200952D01*
X137614285Y-96010476D01*
X137566666Y-95915238D01*
X137471428Y-95820000D01*
X137328571Y-95772380D01*
X137233333Y-95772380D01*
X137090476Y-95820000D01*
X137042857Y-95867619D01*
X136661904Y-95867619D02*
X136614285Y-95820000D01*
X136519047Y-95772380D01*
X136280952Y-95772380D01*
X136185714Y-95820000D01*
X136138095Y-95867619D01*
X136090476Y-95962857D01*
X136090476Y-96058095D01*
X136138095Y-96200952D01*
X136709523Y-96772380D01*
X136090476Y-96772380D01*
X135709523Y-95867619D02*
X135661904Y-95820000D01*
X135566666Y-95772380D01*
X135328571Y-95772380D01*
X135233333Y-95820000D01*
X135185714Y-95867619D01*
X135138095Y-95962857D01*
X135138095Y-96058095D01*
X135185714Y-96200952D01*
X135757142Y-96772380D01*
X135138095Y-96772380D01*
%TO.C,L2*%
X123166666Y-91102380D02*
X123642857Y-91102380D01*
X123642857Y-90102380D01*
X122880952Y-90197619D02*
X122833333Y-90150000D01*
X122738095Y-90102380D01*
X122500000Y-90102380D01*
X122404761Y-90150000D01*
X122357142Y-90197619D01*
X122309523Y-90292857D01*
X122309523Y-90388095D01*
X122357142Y-90530952D01*
X122928571Y-91102380D01*
X122309523Y-91102380D01*
%TO.C,C37*%
X118877142Y-91357142D02*
X118924761Y-91309523D01*
X118972380Y-91166666D01*
X118972380Y-91071428D01*
X118924761Y-90928571D01*
X118829523Y-90833333D01*
X118734285Y-90785714D01*
X118543809Y-90738095D01*
X118400952Y-90738095D01*
X118210476Y-90785714D01*
X118115238Y-90833333D01*
X118020000Y-90928571D01*
X117972380Y-91071428D01*
X117972380Y-91166666D01*
X118020000Y-91309523D01*
X118067619Y-91357142D01*
X117972380Y-91690476D02*
X117972380Y-92309523D01*
X118353333Y-91976190D01*
X118353333Y-92119047D01*
X118400952Y-92214285D01*
X118448571Y-92261904D01*
X118543809Y-92309523D01*
X118781904Y-92309523D01*
X118877142Y-92261904D01*
X118924761Y-92214285D01*
X118972380Y-92119047D01*
X118972380Y-91833333D01*
X118924761Y-91738095D01*
X118877142Y-91690476D01*
X117972380Y-92642857D02*
X117972380Y-93309523D01*
X118972380Y-92880952D01*
%TO.C,TP7*%
X122261904Y-113452380D02*
X121690476Y-113452380D01*
X121976190Y-114452380D02*
X121976190Y-113452380D01*
X121357142Y-114452380D02*
X121357142Y-113452380D01*
X120976190Y-113452380D01*
X120880952Y-113500000D01*
X120833333Y-113547619D01*
X120785714Y-113642857D01*
X120785714Y-113785714D01*
X120833333Y-113880952D01*
X120880952Y-113928571D01*
X120976190Y-113976190D01*
X121357142Y-113976190D01*
X120452380Y-113452380D02*
X119785714Y-113452380D01*
X120214285Y-114452380D01*
%TO.C,TP9*%
X122261904Y-116252380D02*
X121690476Y-116252380D01*
X121976190Y-117252380D02*
X121976190Y-116252380D01*
X121357142Y-117252380D02*
X121357142Y-116252380D01*
X120976190Y-116252380D01*
X120880952Y-116300000D01*
X120833333Y-116347619D01*
X120785714Y-116442857D01*
X120785714Y-116585714D01*
X120833333Y-116680952D01*
X120880952Y-116728571D01*
X120976190Y-116776190D01*
X121357142Y-116776190D01*
X120309523Y-117252380D02*
X120119047Y-117252380D01*
X120023809Y-117204761D01*
X119976190Y-117157142D01*
X119880952Y-117014285D01*
X119833333Y-116823809D01*
X119833333Y-116442857D01*
X119880952Y-116347619D01*
X119928571Y-116300000D01*
X120023809Y-116252380D01*
X120214285Y-116252380D01*
X120309523Y-116300000D01*
X120357142Y-116347619D01*
X120404761Y-116442857D01*
X120404761Y-116680952D01*
X120357142Y-116776190D01*
X120309523Y-116823809D01*
X120214285Y-116871428D01*
X120023809Y-116871428D01*
X119928571Y-116823809D01*
X119880952Y-116776190D01*
X119833333Y-116680952D01*
%TO.C,C26*%
X137242857Y-107557142D02*
X137290476Y-107604761D01*
X137433333Y-107652380D01*
X137528571Y-107652380D01*
X137671428Y-107604761D01*
X137766666Y-107509523D01*
X137814285Y-107414285D01*
X137861904Y-107223809D01*
X137861904Y-107080952D01*
X137814285Y-106890476D01*
X137766666Y-106795238D01*
X137671428Y-106700000D01*
X137528571Y-106652380D01*
X137433333Y-106652380D01*
X137290476Y-106700000D01*
X137242857Y-106747619D01*
X136861904Y-106747619D02*
X136814285Y-106700000D01*
X136719047Y-106652380D01*
X136480952Y-106652380D01*
X136385714Y-106700000D01*
X136338095Y-106747619D01*
X136290476Y-106842857D01*
X136290476Y-106938095D01*
X136338095Y-107080952D01*
X136909523Y-107652380D01*
X136290476Y-107652380D01*
X135433333Y-106652380D02*
X135623809Y-106652380D01*
X135719047Y-106700000D01*
X135766666Y-106747619D01*
X135861904Y-106890476D01*
X135909523Y-107080952D01*
X135909523Y-107461904D01*
X135861904Y-107557142D01*
X135814285Y-107604761D01*
X135719047Y-107652380D01*
X135528571Y-107652380D01*
X135433333Y-107604761D01*
X135385714Y-107557142D01*
X135338095Y-107461904D01*
X135338095Y-107223809D01*
X135385714Y-107128571D01*
X135433333Y-107080952D01*
X135528571Y-107033333D01*
X135719047Y-107033333D01*
X135814285Y-107080952D01*
X135861904Y-107128571D01*
X135909523Y-107223809D01*
%TO.C,C36*%
X147042857Y-87157142D02*
X147090476Y-87204761D01*
X147233333Y-87252380D01*
X147328571Y-87252380D01*
X147471428Y-87204761D01*
X147566666Y-87109523D01*
X147614285Y-87014285D01*
X147661904Y-86823809D01*
X147661904Y-86680952D01*
X147614285Y-86490476D01*
X147566666Y-86395238D01*
X147471428Y-86300000D01*
X147328571Y-86252380D01*
X147233333Y-86252380D01*
X147090476Y-86300000D01*
X147042857Y-86347619D01*
X146709523Y-86252380D02*
X146090476Y-86252380D01*
X146423809Y-86633333D01*
X146280952Y-86633333D01*
X146185714Y-86680952D01*
X146138095Y-86728571D01*
X146090476Y-86823809D01*
X146090476Y-87061904D01*
X146138095Y-87157142D01*
X146185714Y-87204761D01*
X146280952Y-87252380D01*
X146566666Y-87252380D01*
X146661904Y-87204761D01*
X146709523Y-87157142D01*
X145233333Y-86252380D02*
X145423809Y-86252380D01*
X145519047Y-86300000D01*
X145566666Y-86347619D01*
X145661904Y-86490476D01*
X145709523Y-86680952D01*
X145709523Y-87061904D01*
X145661904Y-87157142D01*
X145614285Y-87204761D01*
X145519047Y-87252380D01*
X145328571Y-87252380D01*
X145233333Y-87204761D01*
X145185714Y-87157142D01*
X145138095Y-87061904D01*
X145138095Y-86823809D01*
X145185714Y-86728571D01*
X145233333Y-86680952D01*
X145328571Y-86633333D01*
X145519047Y-86633333D01*
X145614285Y-86680952D01*
X145661904Y-86728571D01*
X145709523Y-86823809D01*
%TO.C,L3*%
X141566666Y-107452380D02*
X142042857Y-107452380D01*
X142042857Y-106452380D01*
X141328571Y-106452380D02*
X140709523Y-106452380D01*
X141042857Y-106833333D01*
X140900000Y-106833333D01*
X140804761Y-106880952D01*
X140757142Y-106928571D01*
X140709523Y-107023809D01*
X140709523Y-107261904D01*
X140757142Y-107357142D01*
X140804761Y-107404761D01*
X140900000Y-107452380D01*
X141185714Y-107452380D01*
X141280952Y-107404761D01*
X141328571Y-107357142D01*
%TO.C,R27*%
X104442857Y-104052380D02*
X104776190Y-103576190D01*
X105014285Y-104052380D02*
X105014285Y-103052380D01*
X104633333Y-103052380D01*
X104538095Y-103100000D01*
X104490476Y-103147619D01*
X104442857Y-103242857D01*
X104442857Y-103385714D01*
X104490476Y-103480952D01*
X104538095Y-103528571D01*
X104633333Y-103576190D01*
X105014285Y-103576190D01*
X104061904Y-103147619D02*
X104014285Y-103100000D01*
X103919047Y-103052380D01*
X103680952Y-103052380D01*
X103585714Y-103100000D01*
X103538095Y-103147619D01*
X103490476Y-103242857D01*
X103490476Y-103338095D01*
X103538095Y-103480952D01*
X104109523Y-104052380D01*
X103490476Y-104052380D01*
X103157142Y-103052380D02*
X102490476Y-103052380D01*
X102919047Y-104052380D01*
%TO.C,L1*%
X143366666Y-91802380D02*
X143842857Y-91802380D01*
X143842857Y-90802380D01*
X142509523Y-91802380D02*
X143080952Y-91802380D01*
X142795238Y-91802380D02*
X142795238Y-90802380D01*
X142890476Y-90945238D01*
X142985714Y-91040476D01*
X143080952Y-91088095D01*
%TO.C,C28*%
X128242857Y-104077142D02*
X128290476Y-104124761D01*
X128433333Y-104172380D01*
X128528571Y-104172380D01*
X128671428Y-104124761D01*
X128766666Y-104029523D01*
X128814285Y-103934285D01*
X128861904Y-103743809D01*
X128861904Y-103600952D01*
X128814285Y-103410476D01*
X128766666Y-103315238D01*
X128671428Y-103220000D01*
X128528571Y-103172380D01*
X128433333Y-103172380D01*
X128290476Y-103220000D01*
X128242857Y-103267619D01*
X127861904Y-103267619D02*
X127814285Y-103220000D01*
X127719047Y-103172380D01*
X127480952Y-103172380D01*
X127385714Y-103220000D01*
X127338095Y-103267619D01*
X127290476Y-103362857D01*
X127290476Y-103458095D01*
X127338095Y-103600952D01*
X127909523Y-104172380D01*
X127290476Y-104172380D01*
X126719047Y-103600952D02*
X126814285Y-103553333D01*
X126861904Y-103505714D01*
X126909523Y-103410476D01*
X126909523Y-103362857D01*
X126861904Y-103267619D01*
X126814285Y-103220000D01*
X126719047Y-103172380D01*
X126528571Y-103172380D01*
X126433333Y-103220000D01*
X126385714Y-103267619D01*
X126338095Y-103362857D01*
X126338095Y-103410476D01*
X126385714Y-103505714D01*
X126433333Y-103553333D01*
X126528571Y-103600952D01*
X126719047Y-103600952D01*
X126814285Y-103648571D01*
X126861904Y-103696190D01*
X126909523Y-103791428D01*
X126909523Y-103981904D01*
X126861904Y-104077142D01*
X126814285Y-104124761D01*
X126719047Y-104172380D01*
X126528571Y-104172380D01*
X126433333Y-104124761D01*
X126385714Y-104077142D01*
X126338095Y-103981904D01*
X126338095Y-103791428D01*
X126385714Y-103696190D01*
X126433333Y-103648571D01*
X126528571Y-103600952D01*
D11*
%TO.C,C30*%
X126865000Y-94938748D02*
X126865000Y-95461252D01*
X128335000Y-94938748D02*
X128335000Y-95461252D01*
%TO.C,TP10*%
X114250000Y-118650000D02*
X114250000Y-120550000D01*
X114250000Y-120550000D02*
X116150000Y-120550000D01*
X116150000Y-118650000D02*
X114250000Y-118650000D01*
X116150000Y-120550000D02*
X116150000Y-118650000D01*
%TO.C,TP5*%
X116850000Y-117250000D02*
X116850000Y-119150000D01*
X118750000Y-119150000D02*
X118750000Y-117250000D01*
X116850000Y-119150000D02*
X118750000Y-119150000D01*
X118750000Y-117250000D02*
X116850000Y-117250000D01*
%TO.C,C21*%
X136661252Y-103735000D02*
X136138748Y-103735000D01*
X136661252Y-102265000D02*
X136138748Y-102265000D01*
%TO.C,C34*%
X144738748Y-94335000D02*
X145261252Y-94335000D01*
X144738748Y-92865000D02*
X145261252Y-92865000D01*
%TO.C,C33*%
X123065000Y-108738748D02*
X123065000Y-109261252D01*
X124535000Y-108738748D02*
X124535000Y-109261252D01*
%TO.C,C29*%
X127061252Y-90735000D02*
X126538748Y-90735000D01*
X127061252Y-89265000D02*
X126538748Y-89265000D01*
%TO.C,C32*%
X122665000Y-95261252D02*
X122665000Y-94738748D01*
X124135000Y-95261252D02*
X124135000Y-94738748D01*
%TO.C,L4*%
X121240000Y-108800378D02*
X121240000Y-109599622D01*
X122360000Y-108800378D02*
X122360000Y-109599622D01*
%TO.C,C23*%
X132338748Y-102265000D02*
X132861252Y-102265000D01*
X132338748Y-103735000D02*
X132861252Y-103735000D01*
%TO.C,C39*%
X127461252Y-111935000D02*
X126938748Y-111935000D01*
X127461252Y-110465000D02*
X126938748Y-110465000D01*
%TO.C,C35*%
X135661252Y-99265000D02*
X135138748Y-99265000D01*
X135661252Y-100735000D02*
X135138748Y-100735000D01*
%TO.C,C24*%
X138461252Y-94935000D02*
X137938748Y-94935000D01*
X138461252Y-93465000D02*
X137938748Y-93465000D01*
%TO.C,C25*%
X138661252Y-110465000D02*
X138138748Y-110465000D01*
X138661252Y-111935000D02*
X138138748Y-111935000D01*
%TO.C,TP8*%
X118750000Y-114450000D02*
X116850000Y-114450000D01*
X116850000Y-114450000D02*
X116850000Y-116350000D01*
X116850000Y-116350000D02*
X118750000Y-116350000D01*
X118750000Y-116350000D02*
X118750000Y-114450000D01*
%TO.C,C27*%
X141135000Y-89861252D02*
X141135000Y-89338748D01*
X139665000Y-89861252D02*
X139665000Y-89338748D01*
%TO.C,R29*%
X106772936Y-106335000D02*
X107227064Y-106335000D01*
X106772936Y-104865000D02*
X107227064Y-104865000D01*
%TO.C,C38*%
X145738748Y-108865000D02*
X146261252Y-108865000D01*
X145738748Y-110335000D02*
X146261252Y-110335000D01*
%TO.C,R31*%
X107227064Y-106865000D02*
X106772936Y-106865000D01*
X107227064Y-108335000D02*
X106772936Y-108335000D01*
%TO.C,C20*%
X132338748Y-97265000D02*
X132861252Y-97265000D01*
X132338748Y-98735000D02*
X132861252Y-98735000D01*
%TO.C,C31*%
X145538748Y-107535000D02*
X146061252Y-107535000D01*
X145538748Y-106065000D02*
X146061252Y-106065000D01*
%TO.C,TP6*%
X118750000Y-111650000D02*
X116850000Y-111650000D01*
X116850000Y-111650000D02*
X116850000Y-113550000D01*
X118750000Y-113550000D02*
X118750000Y-111650000D01*
X116850000Y-113550000D02*
X118750000Y-113550000D01*
%TO.C,C22*%
X136661252Y-98735000D02*
X136138748Y-98735000D01*
X136661252Y-97265000D02*
X136138748Y-97265000D01*
%TO.C,L2*%
X123399622Y-91640000D02*
X122600378Y-91640000D01*
X123399622Y-92760000D02*
X122600378Y-92760000D01*
%TO.C,C37*%
X119465000Y-91738748D02*
X119465000Y-92261252D01*
X120935000Y-91738748D02*
X120935000Y-92261252D01*
%TO.C,TP7*%
X116150000Y-114950000D02*
X116150000Y-113050000D01*
X114250000Y-113050000D02*
X114250000Y-114950000D01*
X114250000Y-114950000D02*
X116150000Y-114950000D01*
X116150000Y-113050000D02*
X114250000Y-113050000D01*
%TO.C,TP9*%
X116150000Y-117750000D02*
X116150000Y-115850000D01*
X114250000Y-115850000D02*
X114250000Y-117750000D01*
X116150000Y-115850000D02*
X114250000Y-115850000D01*
X114250000Y-117750000D02*
X116150000Y-117750000D01*
%TO.C,C26*%
X136861252Y-106135000D02*
X136338748Y-106135000D01*
X136861252Y-104665000D02*
X136338748Y-104665000D01*
%TO.C,C36*%
X143261252Y-86065000D02*
X142738748Y-86065000D01*
X143261252Y-87535000D02*
X142738748Y-87535000D01*
%TO.C,L3*%
X141000378Y-108040000D02*
X141799622Y-108040000D01*
X141000378Y-109160000D02*
X141799622Y-109160000D01*
%TO.C,R27*%
X107227064Y-102865000D02*
X106772936Y-102865000D01*
X107227064Y-104335000D02*
X106772936Y-104335000D01*
%TO.C,L1*%
X142800378Y-89240000D02*
X143599622Y-89240000D01*
X142800378Y-90360000D02*
X143599622Y-90360000D01*
%TO.C,C28*%
X127861252Y-106135000D02*
X127338748Y-106135000D01*
X127861252Y-104665000D02*
X127338748Y-104665000D01*
%TD*%
%LPC*%
D12*
%TO.C,TP2*%
X173000000Y-69600000D03*
%TD*%
D13*
%TO.C,J2*%
X170420000Y-76370000D03*
D14*
X172960000Y-76370000D03*
X170420000Y-78910000D03*
X172960000Y-78910000D03*
X170420000Y-81450000D03*
X172960000Y-81450000D03*
X170420000Y-83990000D03*
X172960000Y-83990000D03*
X170420000Y-86530000D03*
X172960000Y-86530000D03*
X170420000Y-89070000D03*
X172960000Y-89070000D03*
X170420000Y-91610000D03*
X172960000Y-91610000D03*
X170420000Y-94150000D03*
X172960000Y-94150000D03*
X170420000Y-96690000D03*
X172960000Y-96690000D03*
X170420000Y-99230000D03*
X172960000Y-99230000D03*
X170420000Y-101770000D03*
X172960000Y-101770000D03*
X170420000Y-104310000D03*
X172960000Y-104310000D03*
X170420000Y-106850000D03*
X172960000Y-106850000D03*
X170420000Y-109390000D03*
X172960000Y-109390000D03*
X170420000Y-111930000D03*
X172960000Y-111930000D03*
X170420000Y-114470000D03*
X172960000Y-114470000D03*
X170420000Y-117010000D03*
X172960000Y-117010000D03*
X170420000Y-119550000D03*
X172960000Y-119550000D03*
X170420000Y-122090000D03*
X172960000Y-122090000D03*
X170420000Y-124630000D03*
X172960000Y-124630000D03*
%TD*%
D12*
%TO.C,TP3*%
X96000000Y-131400000D03*
%TD*%
D15*
%TO.C,J4*%
X129420000Y-64300000D03*
D16*
X129420000Y-61760000D03*
X131960000Y-64300000D03*
X131960000Y-61760000D03*
X134500000Y-64300000D03*
X134500000Y-61760000D03*
X137040000Y-64300000D03*
X137040000Y-61760000D03*
X139580000Y-64300000D03*
X139580000Y-61760000D03*
%TD*%
D12*
%TO.C,TP1*%
X96000000Y-69600000D03*
%TD*%
D17*
%TO.C,H3*%
X96000000Y-139000000D03*
%TD*%
%TO.C,H4*%
X173000000Y-139000000D03*
%TD*%
%TO.C,H2*%
X173000000Y-62000000D03*
%TD*%
D13*
%TO.C,J6*%
X106525000Y-91000000D03*
D14*
X109065000Y-91000000D03*
X111605000Y-91000000D03*
X114145000Y-91000000D03*
X116685000Y-91000000D03*
%TD*%
D13*
%TO.C,J1*%
X98500000Y-76370000D03*
D14*
X95960000Y-76370000D03*
X98500000Y-78910000D03*
X95960000Y-78910000D03*
X98500000Y-81450000D03*
X95960000Y-81450000D03*
X98500000Y-83990000D03*
X95960000Y-83990000D03*
X98500000Y-86530000D03*
X95960000Y-86530000D03*
X98500000Y-89070000D03*
X95960000Y-89070000D03*
X98500000Y-91610000D03*
X95960000Y-91610000D03*
X98500000Y-94150000D03*
X95960000Y-94150000D03*
X98500000Y-96690000D03*
X95960000Y-96690000D03*
X98500000Y-99230000D03*
X95960000Y-99230000D03*
X98500000Y-101770000D03*
X95960000Y-101770000D03*
X98500000Y-104310000D03*
X95960000Y-104310000D03*
X98500000Y-106850000D03*
X95960000Y-106850000D03*
X98500000Y-109390000D03*
X95960000Y-109390000D03*
X98500000Y-111930000D03*
X95960000Y-111930000D03*
X98500000Y-114470000D03*
X95960000Y-114470000D03*
X98500000Y-117010000D03*
X95960000Y-117010000D03*
X98500000Y-119550000D03*
X95960000Y-119550000D03*
X98500000Y-122090000D03*
X95960000Y-122090000D03*
X98500000Y-124630000D03*
X95960000Y-124630000D03*
%TD*%
D12*
%TO.C,TP4*%
X173000000Y-131400000D03*
%TD*%
D17*
%TO.C,H1*%
X96000000Y-62000000D03*
%TD*%
D13*
%TO.C,J5*%
X120000000Y-130500000D03*
D14*
X117460000Y-130500000D03*
X114920000Y-130500000D03*
X112380000Y-130500000D03*
X109840000Y-130500000D03*
X107300000Y-130500000D03*
X120000000Y-133040000D03*
X117460000Y-133040000D03*
X114920000Y-133040000D03*
X112380000Y-133040000D03*
X109840000Y-133040000D03*
X107300000Y-133040000D03*
%TD*%
D15*
%TO.C,J3*%
X152900000Y-64300000D03*
D16*
X152900000Y-61760000D03*
X155440000Y-64300000D03*
X155440000Y-61760000D03*
X157980000Y-64300000D03*
X157980000Y-61760000D03*
X160520000Y-64300000D03*
X160520000Y-61760000D03*
X163060000Y-64300000D03*
X163060000Y-61760000D03*
%TD*%
D18*
%TO.C,U4*%
X143250000Y-126610000D03*
X145790000Y-126610000D03*
X148330000Y-126610000D03*
X150870000Y-126610000D03*
X153410000Y-126610000D03*
X155950000Y-126610000D03*
X155950000Y-118990000D03*
X153410000Y-118990000D03*
X150870000Y-118990000D03*
X148330000Y-118990000D03*
X145790000Y-118990000D03*
X143250000Y-118990000D03*
%TD*%
D13*
%TO.C,J7*%
X165400000Y-70380000D03*
D14*
X165400000Y-72920000D03*
X165400000Y-75460000D03*
X165400000Y-78000000D03*
X165400000Y-80540000D03*
%TD*%
D19*
%TO.C,C30*%
X127600000Y-94250000D03*
X127600000Y-96150000D03*
%TD*%
D20*
%TO.C,TP10*%
X115200000Y-119600000D03*
%TD*%
%TO.C,TP5*%
X117800000Y-118200000D03*
%TD*%
D21*
%TO.C,C21*%
X137350000Y-103000000D03*
X135450000Y-103000000D03*
%TD*%
D22*
%TO.C,C34*%
X144050000Y-93600000D03*
X145950000Y-93600000D03*
%TD*%
D19*
%TO.C,C33*%
X123800000Y-108050000D03*
X123800000Y-109950000D03*
%TD*%
D21*
%TO.C,C29*%
X127750000Y-90000000D03*
X125850000Y-90000000D03*
%TD*%
D23*
%TO.C,C32*%
X123400000Y-95950000D03*
X123400000Y-94050000D03*
%TD*%
D24*
%TO.C,L4*%
X121800000Y-108137500D03*
X121800000Y-110262500D03*
%TD*%
D22*
%TO.C,C23*%
X131650000Y-103000000D03*
X133550000Y-103000000D03*
%TD*%
D21*
%TO.C,C39*%
X128150000Y-111200000D03*
X126250000Y-111200000D03*
%TD*%
%TO.C,C35*%
X136350000Y-100000000D03*
X134450000Y-100000000D03*
%TD*%
%TO.C,C24*%
X139150000Y-94200000D03*
X137250000Y-94200000D03*
%TD*%
%TO.C,C25*%
X139350000Y-111200000D03*
X137450000Y-111200000D03*
%TD*%
D20*
%TO.C,TP8*%
X117800000Y-115400000D03*
%TD*%
D23*
%TO.C,C27*%
X140400000Y-90550000D03*
X140400000Y-88650000D03*
%TD*%
D25*
%TO.C,R29*%
X106087500Y-105600000D03*
X107912500Y-105600000D03*
%TD*%
D22*
%TO.C,C38*%
X145050000Y-109600000D03*
X146950000Y-109600000D03*
%TD*%
D26*
%TO.C,R31*%
X107912500Y-107600000D03*
X106087500Y-107600000D03*
%TD*%
D22*
%TO.C,C20*%
X131650000Y-98000000D03*
X133550000Y-98000000D03*
%TD*%
%TO.C,C31*%
X144850000Y-106800000D03*
X146750000Y-106800000D03*
%TD*%
D20*
%TO.C,TP6*%
X117800000Y-112600000D03*
%TD*%
D21*
%TO.C,C22*%
X137350000Y-98000000D03*
X135450000Y-98000000D03*
%TD*%
D27*
%TO.C,L2*%
X124062500Y-92200000D03*
X121937500Y-92200000D03*
%TD*%
D19*
%TO.C,C37*%
X120200000Y-91050000D03*
X120200000Y-92950000D03*
%TD*%
D20*
%TO.C,TP7*%
X115200000Y-114000000D03*
%TD*%
%TO.C,TP9*%
X115200000Y-116800000D03*
%TD*%
D21*
%TO.C,C26*%
X137550000Y-105400000D03*
X135650000Y-105400000D03*
%TD*%
%TO.C,C36*%
X143950000Y-86800000D03*
X142050000Y-86800000D03*
%TD*%
D28*
%TO.C,L3*%
X140337500Y-108600000D03*
X142462500Y-108600000D03*
%TD*%
D26*
%TO.C,R27*%
X107912500Y-103600000D03*
X106087500Y-103600000D03*
%TD*%
D28*
%TO.C,L1*%
X142137500Y-89800000D03*
X144262500Y-89800000D03*
%TD*%
D21*
%TO.C,C28*%
X128550000Y-105400000D03*
X126650000Y-105400000D03*
%TD*%
M02*
