%TF.GenerationSoftware,KiCad,Pcbnew,(6.0.5)*%
%TF.CreationDate,2025-04-13T13:17:39+02:00*%
%TF.ProjectId,LandShark,4c616e64-5368-4617-926b-2e6b69636164,rev?*%
%TF.SameCoordinates,Original*%
%TF.FileFunction,Paste,Bot*%
%TF.FilePolarity,Positive*%
%FSLAX46Y46*%
G04 Gerber Fmt 4.6, Leading zero omitted, Abs format (unit mm)*
G04 Created by KiCad (PCBNEW (6.0.5)) date 2025-04-13 13:17:39*
%MOMM*%
%LPD*%
G01*
G04 APERTURE LIST*
G04 Aperture macros list*
%AMRoundRect*
0 Rectangle with rounded corners*
0 $1 Rounding radius*
0 $2 $3 $4 $5 $6 $7 $8 $9 X,Y pos of 4 corners*
0 Add a 4 corners polygon primitive as box body*
4,1,4,$2,$3,$4,$5,$6,$7,$8,$9,$2,$3,0*
0 Add four circle primitives for the rounded corners*
1,1,$1+$1,$2,$3*
1,1,$1+$1,$4,$5*
1,1,$1+$1,$6,$7*
1,1,$1+$1,$8,$9*
0 Add four rect primitives between the rounded corners*
20,1,$1+$1,$2,$3,$4,$5,0*
20,1,$1+$1,$4,$5,$6,$7,0*
20,1,$1+$1,$6,$7,$8,$9,0*
20,1,$1+$1,$8,$9,$2,$3,0*%
G04 Aperture macros list end*
%ADD10RoundRect,0.250000X-0.475000X0.250000X-0.475000X-0.250000X0.475000X-0.250000X0.475000X0.250000X0*%
%ADD11RoundRect,0.250000X0.250000X0.475000X-0.250000X0.475000X-0.250000X-0.475000X0.250000X-0.475000X0*%
%ADD12RoundRect,0.250000X-0.250000X-0.475000X0.250000X-0.475000X0.250000X0.475000X-0.250000X0.475000X0*%
%ADD13RoundRect,0.250000X0.475000X-0.250000X0.475000X0.250000X-0.475000X0.250000X-0.475000X-0.250000X0*%
%ADD14RoundRect,0.218750X-0.381250X0.218750X-0.381250X-0.218750X0.381250X-0.218750X0.381250X0.218750X0*%
%ADD15RoundRect,0.250000X-0.262500X-0.450000X0.262500X-0.450000X0.262500X0.450000X-0.262500X0.450000X0*%
%ADD16RoundRect,0.250000X0.262500X0.450000X-0.262500X0.450000X-0.262500X-0.450000X0.262500X-0.450000X0*%
%ADD17RoundRect,0.218750X0.218750X0.381250X-0.218750X0.381250X-0.218750X-0.381250X0.218750X-0.381250X0*%
%ADD18RoundRect,0.218750X-0.218750X-0.381250X0.218750X-0.381250X0.218750X0.381250X-0.218750X0.381250X0*%
G04 APERTURE END LIST*
D10*
%TO.C,C30*%
X127600000Y-94250000D03*
X127600000Y-96150000D03*
%TD*%
D11*
%TO.C,C21*%
X137350000Y-103000000D03*
X135450000Y-103000000D03*
%TD*%
D12*
%TO.C,C34*%
X144050000Y-93600000D03*
X145950000Y-93600000D03*
%TD*%
D10*
%TO.C,C33*%
X123800000Y-108050000D03*
X123800000Y-109950000D03*
%TD*%
D11*
%TO.C,C29*%
X127750000Y-90000000D03*
X125850000Y-90000000D03*
%TD*%
D13*
%TO.C,C32*%
X123400000Y-95950000D03*
X123400000Y-94050000D03*
%TD*%
D14*
%TO.C,L4*%
X121800000Y-108137500D03*
X121800000Y-110262500D03*
%TD*%
D12*
%TO.C,C23*%
X131650000Y-103000000D03*
X133550000Y-103000000D03*
%TD*%
D11*
%TO.C,C39*%
X128150000Y-111200000D03*
X126250000Y-111200000D03*
%TD*%
%TO.C,C35*%
X136350000Y-100000000D03*
X134450000Y-100000000D03*
%TD*%
%TO.C,C24*%
X139150000Y-94200000D03*
X137250000Y-94200000D03*
%TD*%
%TO.C,C25*%
X139350000Y-111200000D03*
X137450000Y-111200000D03*
%TD*%
D13*
%TO.C,C27*%
X140400000Y-90550000D03*
X140400000Y-88650000D03*
%TD*%
D15*
%TO.C,R29*%
X106087500Y-105600000D03*
X107912500Y-105600000D03*
%TD*%
D12*
%TO.C,C38*%
X145050000Y-109600000D03*
X146950000Y-109600000D03*
%TD*%
D16*
%TO.C,R31*%
X107912500Y-107600000D03*
X106087500Y-107600000D03*
%TD*%
D12*
%TO.C,C20*%
X131650000Y-98000000D03*
X133550000Y-98000000D03*
%TD*%
%TO.C,C31*%
X144850000Y-106800000D03*
X146750000Y-106800000D03*
%TD*%
D11*
%TO.C,C22*%
X137350000Y-98000000D03*
X135450000Y-98000000D03*
%TD*%
D17*
%TO.C,L2*%
X124062500Y-92200000D03*
X121937500Y-92200000D03*
%TD*%
D10*
%TO.C,C37*%
X120200000Y-91050000D03*
X120200000Y-92950000D03*
%TD*%
D11*
%TO.C,C26*%
X137550000Y-105400000D03*
X135650000Y-105400000D03*
%TD*%
%TO.C,C36*%
X143950000Y-86800000D03*
X142050000Y-86800000D03*
%TD*%
D18*
%TO.C,L3*%
X140337500Y-108600000D03*
X142462500Y-108600000D03*
%TD*%
D16*
%TO.C,R27*%
X107912500Y-103600000D03*
X106087500Y-103600000D03*
%TD*%
D18*
%TO.C,L1*%
X142137500Y-89800000D03*
X144262500Y-89800000D03*
%TD*%
D11*
%TO.C,C28*%
X128550000Y-105400000D03*
X126650000Y-105400000D03*
%TD*%
M02*
