%FSLAX45Y45*%
G04 Gerber Fmt 4.5, Leading zero omitted, Abs format (unit mm)*
G04 Created by KiCad (PCBNEW (6.0.5)) date 2025-04-13 13:18:47*
%MOMM*%
%LPD*%
G01*
G04 APERTURE LIST*
%TA.AperFunction,Profile*%
%ADD10C,0.100000*%
%TD*%
%ADD11C,0.200000*%
%ADD12C,0.040000*%
%ADD13C,0.076200*%
%ADD14C,0.100000*%
%ADD15C,0.320000*%
G04 APERTURE END LIST*
D10*
X9200000Y-13900000D02*
X9200000Y-6200000D01*
X17300000Y-14300000D02*
G75*
G03*
X17700000Y-13900000I0J400000D01*
G01*
X9600000Y-5800000D02*
X17300000Y-5800000D01*
X17700000Y-6200000D02*
X17700000Y-13900000D01*
X17700000Y-6200000D02*
G75*
G03*
X17300000Y-5800000I-400000J0D01*
G01*
X9600000Y-5800000D02*
G75*
G03*
X9200000Y-6200000I0J-400000D01*
G01*
X17300000Y-14300000D02*
X9600000Y-14300000D01*
X9200000Y-13900000D02*
G75*
G03*
X9600000Y-14300000I400000J0D01*
G01*
D11*
D12*
X10220000Y-11820000D02*
X10260000Y-11860000D01*
X10260000Y-11820000D02*
X10220000Y-11860000D01*
X10280000Y-12280000D02*
X10320000Y-12320000D01*
X10320000Y-12280000D02*
X10280000Y-12320000D01*
X10520000Y-6900000D02*
X10560000Y-6940000D01*
X10560000Y-6900000D02*
X10520000Y-6940000D01*
X10680000Y-7720000D02*
X10720000Y-7760000D01*
X10720000Y-7720000D02*
X10680000Y-7760000D01*
X10680000Y-11140000D02*
X10720000Y-11180000D01*
X10720000Y-11140000D02*
X10680000Y-11180000D01*
X10820000Y-11020000D02*
X10860000Y-11060000D01*
X10860000Y-11020000D02*
X10820000Y-11060000D01*
X10820000Y-11440000D02*
X10860000Y-11480000D01*
X10860000Y-11440000D02*
X10820000Y-11480000D01*
X10820000Y-12540000D02*
X10860000Y-12580000D01*
X10860000Y-12540000D02*
X10820000Y-12580000D01*
X10900000Y-6220000D02*
X10940000Y-6260000D01*
X10940000Y-6220000D02*
X10900000Y-6260000D01*
X10900000Y-6620000D02*
X10940000Y-6660000D01*
X10940000Y-6620000D02*
X10900000Y-6660000D01*
X10940000Y-10100000D02*
X10980000Y-10140000D01*
X10980000Y-10100000D02*
X10940000Y-10140000D01*
X10980000Y-11480000D02*
X11020000Y-11520000D01*
X11020000Y-11480000D02*
X10980000Y-11520000D01*
X11000000Y-11300000D02*
X11040000Y-11340000D01*
X11040000Y-11300000D02*
X11000000Y-11340000D01*
X11000000Y-11620000D02*
X11040000Y-11660000D01*
X11040000Y-11620000D02*
X11000000Y-11660000D01*
X11020000Y-10020000D02*
X11060000Y-10060000D01*
X11060000Y-10020000D02*
X11020000Y-10060000D01*
X11020000Y-11120000D02*
X11060000Y-11160000D01*
X11060000Y-11120000D02*
X11020000Y-11160000D01*
X11100000Y-9940000D02*
X11140000Y-9980000D01*
X11140000Y-9940000D02*
X11100000Y-9980000D01*
X11140000Y-8700000D02*
X11180000Y-8740000D01*
X11180000Y-8700000D02*
X11140000Y-8740000D01*
X11180000Y-6420000D02*
X11220000Y-6460000D01*
X11220000Y-6420000D02*
X11180000Y-6460000D01*
X11180000Y-8100000D02*
X11220000Y-8140000D01*
X11220000Y-8100000D02*
X11180000Y-8140000D01*
X11200000Y-10640000D02*
X11240000Y-10680000D01*
X11240000Y-10640000D02*
X11200000Y-10680000D01*
X11220000Y-11040000D02*
X11260000Y-11080000D01*
X11260000Y-11040000D02*
X11220000Y-11080000D01*
X11280000Y-8100000D02*
X11320000Y-8140000D01*
X11320000Y-8100000D02*
X11280000Y-8140000D01*
X11380000Y-8100000D02*
X11420000Y-8140000D01*
X11420000Y-8100000D02*
X11380000Y-8140000D01*
X11420000Y-10720000D02*
X11460000Y-10760000D01*
X11460000Y-10720000D02*
X11420000Y-10760000D01*
X11440000Y-6220000D02*
X11480000Y-6260000D01*
X11480000Y-6220000D02*
X11440000Y-6260000D01*
X11440000Y-6620000D02*
X11480000Y-6660000D01*
X11480000Y-6620000D02*
X11440000Y-6660000D01*
X11440000Y-10860000D02*
X11480000Y-10900000D01*
X11480000Y-10860000D02*
X11440000Y-10900000D01*
X11620000Y-10640000D02*
X11660000Y-10680000D01*
X11660000Y-10640000D02*
X11620000Y-10680000D01*
X11900000Y-7720000D02*
X11940000Y-7760000D01*
X11940000Y-7720000D02*
X11900000Y-7760000D01*
X12020000Y-7340000D02*
X12060000Y-7380000D01*
X12060000Y-7340000D02*
X12020000Y-7380000D01*
X12040000Y-11220000D02*
X12080000Y-11260000D01*
X12080000Y-11220000D02*
X12040000Y-11260000D01*
X12040000Y-11500000D02*
X12080000Y-11540000D01*
X12080000Y-11500000D02*
X12040000Y-11540000D01*
X12140000Y-11160000D02*
X12180000Y-11200000D01*
X12180000Y-11160000D02*
X12140000Y-11200000D01*
X12180000Y-9329950D02*
X12220000Y-9369950D01*
X12220000Y-9329950D02*
X12180000Y-9369950D01*
X12180000Y-10100000D02*
X12220000Y-10140000D01*
X12220000Y-10100000D02*
X12180000Y-10140000D01*
X12180000Y-11500000D02*
X12220000Y-11540000D01*
X12220000Y-11500000D02*
X12180000Y-11540000D01*
X12215000Y-7060000D02*
X12255000Y-7100000D01*
X12255000Y-7060000D02*
X12215000Y-7100000D01*
X12215000Y-7165000D02*
X12255000Y-7205000D01*
X12255000Y-7165000D02*
X12215000Y-7205000D01*
X12215000Y-7265000D02*
X12255000Y-7305000D01*
X12255000Y-7265000D02*
X12215000Y-7305000D01*
X12220000Y-9080000D02*
X12260000Y-9120000D01*
X12260000Y-9080000D02*
X12220000Y-9120000D01*
X12260000Y-6240000D02*
X12300000Y-6280000D01*
X12300000Y-6240000D02*
X12260000Y-6280000D01*
X12260000Y-6360000D02*
X12300000Y-6400000D01*
X12300000Y-6360000D02*
X12260000Y-6400000D01*
X12260000Y-6480000D02*
X12300000Y-6520000D01*
X12300000Y-6480000D02*
X12260000Y-6520000D01*
X12260000Y-6600000D02*
X12300000Y-6640000D01*
X12300000Y-6600000D02*
X12260000Y-6640000D01*
X12320000Y-11500000D02*
X12360000Y-11540000D01*
X12360000Y-11500000D02*
X12320000Y-11540000D01*
X12340000Y-8700000D02*
X12380000Y-8740000D01*
X12380000Y-8700000D02*
X12340000Y-8740000D01*
X12380000Y-13420000D02*
X12420000Y-13460000D01*
X12420000Y-13420000D02*
X12380000Y-13460000D01*
X12380000Y-13660000D02*
X12420000Y-13700000D01*
X12420000Y-13660000D02*
X12380000Y-13700000D01*
X12440000Y-8960000D02*
X12480000Y-9000000D01*
X12480000Y-8960000D02*
X12440000Y-9000000D01*
X12440000Y-11500000D02*
X12480000Y-11540000D01*
X12480000Y-11500000D02*
X12440000Y-11540000D01*
X12460000Y-11100000D02*
X12500000Y-11140000D01*
X12500000Y-11100000D02*
X12460000Y-11140000D01*
X12500000Y-9200000D02*
X12540000Y-9240000D01*
X12540000Y-9200000D02*
X12500000Y-9240000D01*
X12500000Y-9540000D02*
X12540000Y-9580000D01*
X12540000Y-9540000D02*
X12500000Y-9580000D01*
X12500000Y-9729950D02*
X12540000Y-9769950D01*
X12540000Y-9729950D02*
X12500000Y-9769950D01*
X12500000Y-10180000D02*
X12540000Y-10220000D01*
X12540000Y-10180000D02*
X12500000Y-10220000D01*
X12500000Y-10800000D02*
X12540000Y-10840000D01*
X12540000Y-10800000D02*
X12500000Y-10840000D01*
X12520000Y-10500000D02*
X12560000Y-10540000D01*
X12560000Y-10500000D02*
X12520000Y-10540000D01*
X12560000Y-10960000D02*
X12600000Y-11000000D01*
X12600000Y-10960000D02*
X12560000Y-11000000D01*
X12600000Y-8420000D02*
X12640000Y-8460000D01*
X12640000Y-8420000D02*
X12600000Y-8460000D01*
X12620000Y-8200000D02*
X12660000Y-8240000D01*
X12660000Y-8200000D02*
X12620000Y-8240000D01*
X12690000Y-8270000D02*
X12730000Y-8310000D01*
X12730000Y-8270000D02*
X12690000Y-8310000D01*
X12700000Y-7620000D02*
X12740000Y-7660000D01*
X12740000Y-7620000D02*
X12700000Y-7660000D01*
X12720000Y-8660000D02*
X12760000Y-8700000D01*
X12760000Y-8660000D02*
X12720000Y-8700000D01*
X12720000Y-9120000D02*
X12760000Y-9160000D01*
X12760000Y-9120000D02*
X12720000Y-9160000D01*
X12760000Y-8340000D02*
X12800000Y-8380000D01*
X12800000Y-8340000D02*
X12760000Y-8380000D01*
X12800000Y-8560000D02*
X12840000Y-8600000D01*
X12840000Y-8560000D02*
X12800000Y-8600000D01*
X12800000Y-10940000D02*
X12840000Y-10980000D01*
X12840000Y-10940000D02*
X12800000Y-10980000D01*
X12820000Y-10660000D02*
X12860000Y-10700000D01*
X12860000Y-10660000D02*
X12820000Y-10700000D01*
X12840000Y-7940000D02*
X12880000Y-7980000D01*
X12880000Y-7940000D02*
X12840000Y-7980000D01*
X12840000Y-11300000D02*
X12880000Y-11340000D01*
X12880000Y-11300000D02*
X12840000Y-11340000D01*
X12880000Y-9400000D02*
X12920000Y-9440000D01*
X12920000Y-9400000D02*
X12880000Y-9440000D01*
X12880000Y-10860000D02*
X12920000Y-10900000D01*
X12920000Y-10860000D02*
X12880000Y-10900000D01*
X12920000Y-7300000D02*
X12960000Y-7340000D01*
X12960000Y-7300000D02*
X12920000Y-7340000D01*
X12920000Y-9120000D02*
X12960000Y-9160000D01*
X12960000Y-9120000D02*
X12920000Y-9160000D01*
X12920000Y-9260000D02*
X12960000Y-9300000D01*
X12960000Y-9260000D02*
X12920000Y-9300000D01*
X12940000Y-11380000D02*
X12980000Y-11420000D01*
X12980000Y-11380000D02*
X12940000Y-11420000D01*
X13040000Y-7940000D02*
X13080000Y-7980000D01*
X13080000Y-7940000D02*
X13040000Y-7980000D01*
X13040000Y-8180000D02*
X13080000Y-8220000D01*
X13080000Y-8180000D02*
X13040000Y-8220000D01*
X13040000Y-9780000D02*
X13080000Y-9820000D01*
X13080000Y-9780000D02*
X13040000Y-9820000D01*
X13040000Y-10280000D02*
X13080000Y-10320000D01*
X13080000Y-10280000D02*
X13040000Y-10320000D01*
X13040000Y-10860000D02*
X13080000Y-10900000D01*
X13080000Y-10860000D02*
X13040000Y-10900000D01*
X13100000Y-10040000D02*
X13140000Y-10080000D01*
X13140000Y-10040000D02*
X13100000Y-10080000D01*
X13100000Y-10960000D02*
X13140000Y-11000000D01*
X13140000Y-10960000D02*
X13100000Y-11000000D01*
X13120000Y-8100000D02*
X13160000Y-8140000D01*
X13160000Y-8100000D02*
X13120000Y-8140000D01*
X13160000Y-9460000D02*
X13200000Y-9500000D01*
X13200000Y-9460000D02*
X13160000Y-9500000D01*
X13180000Y-6860000D02*
X13220000Y-6900000D01*
X13220000Y-6860000D02*
X13180000Y-6900000D01*
X13180000Y-7300000D02*
X13220000Y-7340000D01*
X13220000Y-7300000D02*
X13180000Y-7340000D01*
X13200000Y-8020000D02*
X13240000Y-8060000D01*
X13240000Y-8020000D02*
X13200000Y-8060000D01*
X13220000Y-13080000D02*
X13260000Y-13120000D01*
X13260000Y-13080000D02*
X13220000Y-13120000D01*
X13240000Y-9100000D02*
X13280000Y-9140000D01*
X13280000Y-9100000D02*
X13240000Y-9140000D01*
X13260000Y-9460000D02*
X13300000Y-9500000D01*
X13300000Y-9460000D02*
X13260000Y-9500000D01*
X13260000Y-11500000D02*
X13300000Y-11540000D01*
X13300000Y-11500000D02*
X13260000Y-11540000D01*
X13280000Y-7580000D02*
X13320000Y-7620000D01*
X13320000Y-7580000D02*
X13280000Y-7620000D01*
X13380000Y-11500000D02*
X13420000Y-11540000D01*
X13420000Y-11500000D02*
X13380000Y-11540000D01*
X13420000Y-9100000D02*
X13460000Y-9140000D01*
X13460000Y-9100000D02*
X13420000Y-9140000D01*
X13420000Y-9640000D02*
X13460000Y-9680000D01*
X13460000Y-9640000D02*
X13420000Y-9680000D01*
X13440000Y-10420000D02*
X13480000Y-10460000D01*
X13480000Y-10420000D02*
X13440000Y-10460000D01*
X13460000Y-10920000D02*
X13500000Y-10960000D01*
X13500000Y-10920000D02*
X13460000Y-10960000D01*
X13500000Y-11340000D02*
X13540000Y-11380000D01*
X13540000Y-11340000D02*
X13500000Y-11380000D01*
X13500000Y-11460000D02*
X13540000Y-11500000D01*
X13540000Y-11460000D02*
X13500000Y-11500000D01*
X13620000Y-11260000D02*
X13660000Y-11300000D01*
X13660000Y-11260000D02*
X13620000Y-11300000D01*
X13700000Y-13080000D02*
X13740000Y-13120000D01*
X13740000Y-13080000D02*
X13700000Y-13120000D01*
X13720000Y-10660000D02*
X13760000Y-10700000D01*
X13760000Y-10660000D02*
X13720000Y-10700000D01*
X13720000Y-11260000D02*
X13760000Y-11300000D01*
X13760000Y-11260000D02*
X13720000Y-11300000D01*
X13760000Y-10020000D02*
X13800000Y-10060000D01*
X13800000Y-10020000D02*
X13760000Y-10060000D01*
X13760000Y-11920000D02*
X13800000Y-11960000D01*
X13800000Y-11920000D02*
X13760000Y-11960000D01*
X13800000Y-13740000D02*
X13840000Y-13780000D01*
X13840000Y-13740000D02*
X13800000Y-13780000D01*
X13820000Y-9780000D02*
X13860000Y-9820000D01*
X13860000Y-9780000D02*
X13820000Y-9820000D01*
X13820000Y-10280000D02*
X13860000Y-10320000D01*
X13860000Y-10280000D02*
X13820000Y-10320000D01*
X13840000Y-6840000D02*
X13880000Y-6880000D01*
X13880000Y-6840000D02*
X13840000Y-6880000D01*
X13840000Y-7280000D02*
X13880000Y-7320000D01*
X13880000Y-7280000D02*
X13840000Y-7320000D01*
X14000000Y-10960000D02*
X14040000Y-11000000D01*
X14040000Y-10960000D02*
X14000000Y-11000000D01*
X14020000Y-9400000D02*
X14060000Y-9440000D01*
X14060000Y-9400000D02*
X14020000Y-9440000D01*
X14040000Y-8540000D02*
X14080000Y-8580000D01*
X14080000Y-8540000D02*
X14040000Y-8580000D01*
X14040000Y-10660000D02*
X14080000Y-10700000D01*
X14080000Y-10660000D02*
X14040000Y-10700000D01*
X14080000Y-13080000D02*
X14120000Y-13120000D01*
X14120000Y-13080000D02*
X14080000Y-13120000D01*
X14100000Y-7280000D02*
X14140000Y-7320000D01*
X14140000Y-7280000D02*
X14100000Y-7320000D01*
X14100000Y-9140000D02*
X14140000Y-9180000D01*
X14140000Y-9140000D02*
X14100000Y-9180000D01*
X14160000Y-8800000D02*
X14200000Y-8840000D01*
X14200000Y-8800000D02*
X14160000Y-8840000D01*
X14280000Y-9100000D02*
X14320000Y-9140000D01*
X14320000Y-9100000D02*
X14280000Y-9140000D01*
X14340000Y-9760000D02*
X14380000Y-9800000D01*
X14380000Y-9760000D02*
X14340000Y-9800000D01*
X14340000Y-10580000D02*
X14380000Y-10620000D01*
X14380000Y-10580000D02*
X14340000Y-10620000D01*
X14340000Y-10900000D02*
X14380000Y-10940000D01*
X14380000Y-10900000D02*
X14340000Y-10940000D01*
X14360000Y-8820000D02*
X14400000Y-8860000D01*
X14400000Y-8820000D02*
X14360000Y-8860000D01*
X14360000Y-9480000D02*
X14400000Y-9520000D01*
X14400000Y-9480000D02*
X14360000Y-9520000D01*
X14360000Y-10160000D02*
X14400000Y-10200000D01*
X14400000Y-10160000D02*
X14360000Y-10200000D01*
X14400000Y-11100000D02*
X14440000Y-11140000D01*
X14440000Y-11100000D02*
X14400000Y-11140000D01*
X14440000Y-11620000D02*
X14480000Y-11660000D01*
X14480000Y-11620000D02*
X14440000Y-11660000D01*
X14460000Y-8360000D02*
X14500000Y-8400000D01*
X14500000Y-8360000D02*
X14460000Y-8400000D01*
X14540000Y-13080000D02*
X14580000Y-13120000D01*
X14580000Y-13080000D02*
X14540000Y-13120000D01*
X14560000Y-6960000D02*
X14600000Y-7000000D01*
X14600000Y-6960000D02*
X14560000Y-7000000D01*
X14660000Y-7160000D02*
X14700000Y-7200000D01*
X14700000Y-7160000D02*
X14660000Y-7200000D01*
X14660000Y-10200000D02*
X14700000Y-10240000D01*
X14700000Y-10200000D02*
X14660000Y-10240000D01*
X14660000Y-10520000D02*
X14700000Y-10560000D01*
X14700000Y-10520000D02*
X14660000Y-10560000D01*
X14660000Y-11080000D02*
X14700000Y-11120000D01*
X14700000Y-11080000D02*
X14660000Y-11120000D01*
X14680000Y-9420000D02*
X14720000Y-9460000D01*
X14720000Y-9420000D02*
X14680000Y-9460000D01*
X14680000Y-13740000D02*
X14720000Y-13780000D01*
X14720000Y-13740000D02*
X14680000Y-13780000D01*
X14800000Y-8940000D02*
X14840000Y-8980000D01*
X14840000Y-8940000D02*
X14800000Y-8980000D01*
X14800000Y-9060000D02*
X14840000Y-9100000D01*
X14840000Y-9060000D02*
X14800000Y-9100000D01*
X14840000Y-9840000D02*
X14880000Y-9880000D01*
X14880000Y-9840000D02*
X14840000Y-9880000D01*
X14900000Y-11640000D02*
X14940000Y-11680000D01*
X14940000Y-11640000D02*
X14900000Y-11680000D01*
X14940000Y-13080000D02*
X14980000Y-13120000D01*
X14980000Y-13080000D02*
X14940000Y-13120000D01*
X14980000Y-7640000D02*
X15020000Y-7680000D01*
X15020000Y-7640000D02*
X14980000Y-7680000D01*
X14980000Y-7880000D02*
X15020000Y-7920000D01*
X15020000Y-7880000D02*
X14980000Y-7920000D01*
X14980000Y-9840000D02*
X15020000Y-9880000D01*
X15020000Y-9840000D02*
X14980000Y-9880000D01*
X15020000Y-6960000D02*
X15060000Y-7000000D01*
X15060000Y-6960000D02*
X15020000Y-7000000D01*
X15120000Y-9840000D02*
X15160000Y-9880000D01*
X15160000Y-9840000D02*
X15120000Y-9880000D01*
X15180000Y-9000000D02*
X15220000Y-9040000D01*
X15220000Y-9000000D02*
X15180000Y-9040000D01*
X15200000Y-8760000D02*
X15240000Y-8800000D01*
X15240000Y-8760000D02*
X15200000Y-8800000D01*
X15260000Y-9840000D02*
X15300000Y-9880000D01*
X15300000Y-9840000D02*
X15260000Y-9880000D01*
X15260000Y-11640000D02*
X15300000Y-11680000D01*
X15300000Y-11640000D02*
X15260000Y-11680000D01*
X15280000Y-8000000D02*
X15320000Y-8040000D01*
X15320000Y-8000000D02*
X15280000Y-8040000D01*
X15280000Y-8940000D02*
X15320000Y-8980000D01*
X15320000Y-8940000D02*
X15280000Y-8980000D01*
X15280000Y-9060000D02*
X15320000Y-9100000D01*
X15320000Y-9060000D02*
X15280000Y-9100000D01*
X15380000Y-8480000D02*
X15420000Y-8520000D01*
X15420000Y-8480000D02*
X15380000Y-8520000D01*
X15400000Y-7520000D02*
X15440000Y-7560000D01*
X15440000Y-7520000D02*
X15400000Y-7560000D01*
X15400000Y-13080000D02*
X15440000Y-13120000D01*
X15440000Y-13080000D02*
X15400000Y-13120000D01*
X15540000Y-13740000D02*
X15580000Y-13780000D01*
X15580000Y-13740000D02*
X15540000Y-13780000D01*
X15580000Y-7440000D02*
X15620000Y-7480000D01*
X15620000Y-7440000D02*
X15580000Y-7480000D01*
X15620000Y-11640000D02*
X15660000Y-11680000D01*
X15660000Y-11640000D02*
X15620000Y-11680000D01*
X15660000Y-9000000D02*
X15700000Y-9040000D01*
X15700000Y-9000000D02*
X15660000Y-9040000D01*
X15680000Y-8760000D02*
X15720000Y-8800000D01*
X15720000Y-8760000D02*
X15680000Y-8800000D01*
X15760000Y-8940000D02*
X15800000Y-8980000D01*
X15800000Y-8940000D02*
X15760000Y-8980000D01*
X15760000Y-9060000D02*
X15800000Y-9100000D01*
X15800000Y-9060000D02*
X15760000Y-9100000D01*
X15760000Y-9840000D02*
X15800000Y-9880000D01*
X15800000Y-9840000D02*
X15760000Y-9880000D01*
X15780000Y-7140000D02*
X15820000Y-7180000D01*
X15820000Y-7140000D02*
X15780000Y-7180000D01*
X15800000Y-13080000D02*
X15840000Y-13120000D01*
X15840000Y-13080000D02*
X15800000Y-13120000D01*
X15849500Y-8010500D02*
X15889500Y-8050500D01*
X15889500Y-8010500D02*
X15849500Y-8050500D01*
X15880000Y-7580000D02*
X15920000Y-7620000D01*
X15920000Y-7580000D02*
X15880000Y-7620000D01*
X16060000Y-10020000D02*
X16100000Y-10060000D01*
X16100000Y-10020000D02*
X16060000Y-10060000D01*
X16140000Y-6840000D02*
X16180000Y-6880000D01*
X16180000Y-6840000D02*
X16140000Y-6880000D01*
X16140000Y-7280000D02*
X16180000Y-7320000D01*
X16180000Y-7280000D02*
X16140000Y-7320000D01*
X16140000Y-9000000D02*
X16180000Y-9040000D01*
X16180000Y-9000000D02*
X16140000Y-9040000D01*
X16160000Y-8760000D02*
X16200000Y-8800000D01*
X16200000Y-8760000D02*
X16160000Y-8800000D01*
D13*
X14363100Y-11899000D02*
G75*
G03*
X14363100Y-11899000I-38100J0D01*
G01*
X14363100Y-12661000D02*
G75*
G03*
X14363100Y-12661000I-38100J0D01*
G01*
X14617100Y-11899000D02*
G75*
G03*
X14617100Y-11899000I-38100J0D01*
G01*
X14617100Y-12661000D02*
G75*
G03*
X14617100Y-12661000I-38100J0D01*
G01*
X14871100Y-11899000D02*
G75*
G03*
X14871100Y-11899000I-38100J0D01*
G01*
X14871100Y-12661000D02*
G75*
G03*
X14871100Y-12661000I-38100J0D01*
G01*
X15125100Y-11899000D02*
G75*
G03*
X15125100Y-11899000I-38100J0D01*
G01*
X15125100Y-12661000D02*
G75*
G03*
X15125100Y-12661000I-38100J0D01*
G01*
X15379100Y-11899000D02*
G75*
G03*
X15379100Y-11899000I-38100J0D01*
G01*
X15379100Y-12661000D02*
G75*
G03*
X15379100Y-12661000I-38100J0D01*
G01*
X15633100Y-11899000D02*
G75*
G03*
X15633100Y-11899000I-38100J0D01*
G01*
X15633100Y-12661000D02*
G75*
G03*
X15633100Y-12661000I-38100J0D01*
G01*
D14*
X9596000Y-7587000D02*
X9596000Y-7687000D01*
X9546000Y-7637000D02*
X9646000Y-7637000D01*
X9596000Y-7841000D02*
X9596000Y-7941000D01*
X9546000Y-7891000D02*
X9646000Y-7891000D01*
X9596000Y-8095000D02*
X9596000Y-8195000D01*
X9546000Y-8145000D02*
X9646000Y-8145000D01*
X9596000Y-8349000D02*
X9596000Y-8449000D01*
X9546000Y-8399000D02*
X9646000Y-8399000D01*
X9596000Y-8603000D02*
X9596000Y-8703000D01*
X9546000Y-8653000D02*
X9646000Y-8653000D01*
X9596000Y-8857000D02*
X9596000Y-8957000D01*
X9546000Y-8907000D02*
X9646000Y-8907000D01*
X9596000Y-9111000D02*
X9596000Y-9211000D01*
X9546000Y-9161000D02*
X9646000Y-9161000D01*
X9596000Y-9365000D02*
X9596000Y-9465000D01*
X9546000Y-9415000D02*
X9646000Y-9415000D01*
X9596000Y-9619000D02*
X9596000Y-9719000D01*
X9546000Y-9669000D02*
X9646000Y-9669000D01*
X9596000Y-9873000D02*
X9596000Y-9973000D01*
X9546000Y-9923000D02*
X9646000Y-9923000D01*
X9596000Y-10127000D02*
X9596000Y-10227000D01*
X9546000Y-10177000D02*
X9646000Y-10177000D01*
X9596000Y-10381000D02*
X9596000Y-10481000D01*
X9546000Y-10431000D02*
X9646000Y-10431000D01*
X9596000Y-10635000D02*
X9596000Y-10735000D01*
X9546000Y-10685000D02*
X9646000Y-10685000D01*
X9596000Y-10889000D02*
X9596000Y-10989000D01*
X9546000Y-10939000D02*
X9646000Y-10939000D01*
X9596000Y-11143000D02*
X9596000Y-11243000D01*
X9546000Y-11193000D02*
X9646000Y-11193000D01*
X9596000Y-11397000D02*
X9596000Y-11497000D01*
X9546000Y-11447000D02*
X9646000Y-11447000D01*
X9596000Y-11651000D02*
X9596000Y-11751000D01*
X9546000Y-11701000D02*
X9646000Y-11701000D01*
X9596000Y-11905000D02*
X9596000Y-12005000D01*
X9546000Y-11955000D02*
X9646000Y-11955000D01*
X9596000Y-12159000D02*
X9596000Y-12259000D01*
X9546000Y-12209000D02*
X9646000Y-12209000D01*
X9596000Y-12413000D02*
X9596000Y-12513000D01*
X9546000Y-12463000D02*
X9646000Y-12463000D01*
X9600000Y-6910000D02*
X9600000Y-7010000D01*
X9550000Y-6960000D02*
X9650000Y-6960000D01*
X9600000Y-13090000D02*
X9600000Y-13190000D01*
X9550000Y-13140000D02*
X9650000Y-13140000D01*
X9850000Y-7587000D02*
X9850000Y-7687000D01*
X9800000Y-7637000D02*
X9900000Y-7637000D01*
X9850000Y-7841000D02*
X9850000Y-7941000D01*
X9800000Y-7891000D02*
X9900000Y-7891000D01*
X9850000Y-8095000D02*
X9850000Y-8195000D01*
X9800000Y-8145000D02*
X9900000Y-8145000D01*
X9850000Y-8349000D02*
X9850000Y-8449000D01*
X9800000Y-8399000D02*
X9900000Y-8399000D01*
X9850000Y-8603000D02*
X9850000Y-8703000D01*
X9800000Y-8653000D02*
X9900000Y-8653000D01*
X9850000Y-8857000D02*
X9850000Y-8957000D01*
X9800000Y-8907000D02*
X9900000Y-8907000D01*
X9850000Y-9111000D02*
X9850000Y-9211000D01*
X9800000Y-9161000D02*
X9900000Y-9161000D01*
X9850000Y-9365000D02*
X9850000Y-9465000D01*
X9800000Y-9415000D02*
X9900000Y-9415000D01*
X9850000Y-9619000D02*
X9850000Y-9719000D01*
X9800000Y-9669000D02*
X9900000Y-9669000D01*
X9850000Y-9873000D02*
X9850000Y-9973000D01*
X9800000Y-9923000D02*
X9900000Y-9923000D01*
X9850000Y-10127000D02*
X9850000Y-10227000D01*
X9800000Y-10177000D02*
X9900000Y-10177000D01*
X9850000Y-10381000D02*
X9850000Y-10481000D01*
X9800000Y-10431000D02*
X9900000Y-10431000D01*
X9850000Y-10635000D02*
X9850000Y-10735000D01*
X9800000Y-10685000D02*
X9900000Y-10685000D01*
X9850000Y-10889000D02*
X9850000Y-10989000D01*
X9800000Y-10939000D02*
X9900000Y-10939000D01*
X9850000Y-11143000D02*
X9850000Y-11243000D01*
X9800000Y-11193000D02*
X9900000Y-11193000D01*
X9850000Y-11397000D02*
X9850000Y-11497000D01*
X9800000Y-11447000D02*
X9900000Y-11447000D01*
X9850000Y-11651000D02*
X9850000Y-11751000D01*
X9800000Y-11701000D02*
X9900000Y-11701000D01*
X9850000Y-11905000D02*
X9850000Y-12005000D01*
X9800000Y-11955000D02*
X9900000Y-11955000D01*
X9850000Y-12159000D02*
X9850000Y-12259000D01*
X9800000Y-12209000D02*
X9900000Y-12209000D01*
X9850000Y-12413000D02*
X9850000Y-12513000D01*
X9800000Y-12463000D02*
X9900000Y-12463000D01*
X10652500Y-9050000D02*
X10652500Y-9150000D01*
X10602500Y-9100000D02*
X10702500Y-9100000D01*
X10730000Y-13000000D02*
X10730000Y-13100000D01*
X10680000Y-13050000D02*
X10780000Y-13050000D01*
X10730000Y-13254000D02*
X10730000Y-13354000D01*
X10680000Y-13304000D02*
X10780000Y-13304000D01*
X10906500Y-9050000D02*
X10906500Y-9150000D01*
X10856500Y-9100000D02*
X10956500Y-9100000D01*
X10984000Y-13000000D02*
X10984000Y-13100000D01*
X10934000Y-13050000D02*
X11034000Y-13050000D01*
X10984000Y-13254000D02*
X10984000Y-13354000D01*
X10934000Y-13304000D02*
X11034000Y-13304000D01*
X11160500Y-9050000D02*
X11160500Y-9150000D01*
X11110500Y-9100000D02*
X11210500Y-9100000D01*
X11238000Y-13000000D02*
X11238000Y-13100000D01*
X11188000Y-13050000D02*
X11288000Y-13050000D01*
X11238000Y-13254000D02*
X11238000Y-13354000D01*
X11188000Y-13304000D02*
X11288000Y-13304000D01*
X11414500Y-9050000D02*
X11414500Y-9150000D01*
X11364500Y-9100000D02*
X11464500Y-9100000D01*
X11492000Y-13000000D02*
X11492000Y-13100000D01*
X11442000Y-13050000D02*
X11542000Y-13050000D01*
X11492000Y-13254000D02*
X11492000Y-13354000D01*
X11442000Y-13304000D02*
X11542000Y-13304000D01*
X11668500Y-9050000D02*
X11668500Y-9150000D01*
X11618500Y-9100000D02*
X11718500Y-9100000D01*
X11746000Y-13000000D02*
X11746000Y-13100000D01*
X11696000Y-13050000D02*
X11796000Y-13050000D01*
X11746000Y-13254000D02*
X11746000Y-13354000D01*
X11696000Y-13304000D02*
X11796000Y-13304000D01*
X12000000Y-13000000D02*
X12000000Y-13100000D01*
X11950000Y-13050000D02*
X12050000Y-13050000D01*
X12000000Y-13254000D02*
X12000000Y-13354000D01*
X11950000Y-13304000D02*
X12050000Y-13304000D01*
X12942000Y-6126000D02*
X12942000Y-6226000D01*
X12892000Y-6176000D02*
X12992000Y-6176000D01*
X12942000Y-6380000D02*
X12942000Y-6480000D01*
X12892000Y-6430000D02*
X12992000Y-6430000D01*
X13196000Y-6126000D02*
X13196000Y-6226000D01*
X13146000Y-6176000D02*
X13246000Y-6176000D01*
X13196000Y-6380000D02*
X13196000Y-6480000D01*
X13146000Y-6430000D02*
X13246000Y-6430000D01*
X13450000Y-6126000D02*
X13450000Y-6226000D01*
X13400000Y-6176000D02*
X13500000Y-6176000D01*
X13450000Y-6380000D02*
X13450000Y-6480000D01*
X13400000Y-6430000D02*
X13500000Y-6430000D01*
X13704000Y-6126000D02*
X13704000Y-6226000D01*
X13654000Y-6176000D02*
X13754000Y-6176000D01*
X13704000Y-6380000D02*
X13704000Y-6480000D01*
X13654000Y-6430000D02*
X13754000Y-6430000D01*
X13958000Y-6126000D02*
X13958000Y-6226000D01*
X13908000Y-6176000D02*
X14008000Y-6176000D01*
X13958000Y-6380000D02*
X13958000Y-6480000D01*
X13908000Y-6430000D02*
X14008000Y-6430000D01*
X15290000Y-6126000D02*
X15290000Y-6226000D01*
X15240000Y-6176000D02*
X15340000Y-6176000D01*
X15290000Y-6380000D02*
X15290000Y-6480000D01*
X15240000Y-6430000D02*
X15340000Y-6430000D01*
X15544000Y-6126000D02*
X15544000Y-6226000D01*
X15494000Y-6176000D02*
X15594000Y-6176000D01*
X15544000Y-6380000D02*
X15544000Y-6480000D01*
X15494000Y-6430000D02*
X15594000Y-6430000D01*
X15798000Y-6126000D02*
X15798000Y-6226000D01*
X15748000Y-6176000D02*
X15848000Y-6176000D01*
X15798000Y-6380000D02*
X15798000Y-6480000D01*
X15748000Y-6430000D02*
X15848000Y-6430000D01*
X16052000Y-6126000D02*
X16052000Y-6226000D01*
X16002000Y-6176000D02*
X16102000Y-6176000D01*
X16052000Y-6380000D02*
X16052000Y-6480000D01*
X16002000Y-6430000D02*
X16102000Y-6430000D01*
X16306000Y-6126000D02*
X16306000Y-6226000D01*
X16256000Y-6176000D02*
X16356000Y-6176000D01*
X16306000Y-6380000D02*
X16306000Y-6480000D01*
X16256000Y-6430000D02*
X16356000Y-6430000D01*
X16540000Y-6988000D02*
X16540000Y-7088000D01*
X16490000Y-7038000D02*
X16590000Y-7038000D01*
X16540000Y-7242000D02*
X16540000Y-7342000D01*
X16490000Y-7292000D02*
X16590000Y-7292000D01*
X16540000Y-7496000D02*
X16540000Y-7596000D01*
X16490000Y-7546000D02*
X16590000Y-7546000D01*
X16540000Y-7750000D02*
X16540000Y-7850000D01*
X16490000Y-7800000D02*
X16590000Y-7800000D01*
X16540000Y-8004000D02*
X16540000Y-8104000D01*
X16490000Y-8054000D02*
X16590000Y-8054000D01*
X17042000Y-7587000D02*
X17042000Y-7687000D01*
X16992000Y-7637000D02*
X17092000Y-7637000D01*
X17042000Y-7841000D02*
X17042000Y-7941000D01*
X16992000Y-7891000D02*
X17092000Y-7891000D01*
X17042000Y-8095000D02*
X17042000Y-8195000D01*
X16992000Y-8145000D02*
X17092000Y-8145000D01*
X17042000Y-8349000D02*
X17042000Y-8449000D01*
X16992000Y-8399000D02*
X17092000Y-8399000D01*
X17042000Y-8603000D02*
X17042000Y-8703000D01*
X16992000Y-8653000D02*
X17092000Y-8653000D01*
X17042000Y-8857000D02*
X17042000Y-8957000D01*
X16992000Y-8907000D02*
X17092000Y-8907000D01*
X17042000Y-9111000D02*
X17042000Y-9211000D01*
X16992000Y-9161000D02*
X17092000Y-9161000D01*
X17042000Y-9365000D02*
X17042000Y-9465000D01*
X16992000Y-9415000D02*
X17092000Y-9415000D01*
X17042000Y-9619000D02*
X17042000Y-9719000D01*
X16992000Y-9669000D02*
X17092000Y-9669000D01*
X17042000Y-9873000D02*
X17042000Y-9973000D01*
X16992000Y-9923000D02*
X17092000Y-9923000D01*
X17042000Y-10127000D02*
X17042000Y-10227000D01*
X16992000Y-10177000D02*
X17092000Y-10177000D01*
X17042000Y-10381000D02*
X17042000Y-10481000D01*
X16992000Y-10431000D02*
X17092000Y-10431000D01*
X17042000Y-10635000D02*
X17042000Y-10735000D01*
X16992000Y-10685000D02*
X17092000Y-10685000D01*
X17042000Y-10889000D02*
X17042000Y-10989000D01*
X16992000Y-10939000D02*
X17092000Y-10939000D01*
X17042000Y-11143000D02*
X17042000Y-11243000D01*
X16992000Y-11193000D02*
X17092000Y-11193000D01*
X17042000Y-11397000D02*
X17042000Y-11497000D01*
X16992000Y-11447000D02*
X17092000Y-11447000D01*
X17042000Y-11651000D02*
X17042000Y-11751000D01*
X16992000Y-11701000D02*
X17092000Y-11701000D01*
X17042000Y-11905000D02*
X17042000Y-12005000D01*
X16992000Y-11955000D02*
X17092000Y-11955000D01*
X17042000Y-12159000D02*
X17042000Y-12259000D01*
X16992000Y-12209000D02*
X17092000Y-12209000D01*
X17042000Y-12413000D02*
X17042000Y-12513000D01*
X16992000Y-12463000D02*
X17092000Y-12463000D01*
X17296000Y-7587000D02*
X17296000Y-7687000D01*
X17246000Y-7637000D02*
X17346000Y-7637000D01*
X17296000Y-7841000D02*
X17296000Y-7941000D01*
X17246000Y-7891000D02*
X17346000Y-7891000D01*
X17296000Y-8095000D02*
X17296000Y-8195000D01*
X17246000Y-8145000D02*
X17346000Y-8145000D01*
X17296000Y-8349000D02*
X17296000Y-8449000D01*
X17246000Y-8399000D02*
X17346000Y-8399000D01*
X17296000Y-8603000D02*
X17296000Y-8703000D01*
X17246000Y-8653000D02*
X17346000Y-8653000D01*
X17296000Y-8857000D02*
X17296000Y-8957000D01*
X17246000Y-8907000D02*
X17346000Y-8907000D01*
X17296000Y-9111000D02*
X17296000Y-9211000D01*
X17246000Y-9161000D02*
X17346000Y-9161000D01*
X17296000Y-9365000D02*
X17296000Y-9465000D01*
X17246000Y-9415000D02*
X17346000Y-9415000D01*
X17296000Y-9619000D02*
X17296000Y-9719000D01*
X17246000Y-9669000D02*
X17346000Y-9669000D01*
X17296000Y-9873000D02*
X17296000Y-9973000D01*
X17246000Y-9923000D02*
X17346000Y-9923000D01*
X17296000Y-10127000D02*
X17296000Y-10227000D01*
X17246000Y-10177000D02*
X17346000Y-10177000D01*
X17296000Y-10381000D02*
X17296000Y-10481000D01*
X17246000Y-10431000D02*
X17346000Y-10431000D01*
X17296000Y-10635000D02*
X17296000Y-10735000D01*
X17246000Y-10685000D02*
X17346000Y-10685000D01*
X17296000Y-10889000D02*
X17296000Y-10989000D01*
X17246000Y-10939000D02*
X17346000Y-10939000D01*
X17296000Y-11143000D02*
X17296000Y-11243000D01*
X17246000Y-11193000D02*
X17346000Y-11193000D01*
X17296000Y-11397000D02*
X17296000Y-11497000D01*
X17246000Y-11447000D02*
X17346000Y-11447000D01*
X17296000Y-11651000D02*
X17296000Y-11751000D01*
X17246000Y-11701000D02*
X17346000Y-11701000D01*
X17296000Y-11905000D02*
X17296000Y-12005000D01*
X17246000Y-11955000D02*
X17346000Y-11955000D01*
X17296000Y-12159000D02*
X17296000Y-12259000D01*
X17246000Y-12209000D02*
X17346000Y-12209000D01*
X17296000Y-12413000D02*
X17296000Y-12513000D01*
X17246000Y-12463000D02*
X17346000Y-12463000D01*
X17300000Y-6910000D02*
X17300000Y-7010000D01*
X17250000Y-6960000D02*
X17350000Y-6960000D01*
X17300000Y-13090000D02*
X17300000Y-13190000D01*
X17250000Y-13140000D02*
X17350000Y-13140000D01*
D15*
X9713138Y-6313138D02*
X9713138Y-6086862D01*
X9486862Y-6086862D01*
X9486862Y-6313138D01*
X9713138Y-6313138D01*
X9713138Y-14013138D02*
X9713138Y-13786862D01*
X9486862Y-13786862D01*
X9486862Y-14013138D01*
X9713138Y-14013138D01*
X17413138Y-6313138D02*
X17413138Y-6086862D01*
X17186862Y-6086862D01*
X17186862Y-6313138D01*
X17413138Y-6313138D01*
X17413138Y-14013138D02*
X17413138Y-13786862D01*
X17186862Y-13786862D01*
X17186862Y-14013138D01*
X17413138Y-14013138D01*
D11*
X9452619Y-14615476D02*
X9452619Y-14415476D01*
X9500238Y-14415476D01*
X9528810Y-14425000D01*
X9547857Y-14444048D01*
X9557381Y-14463095D01*
X9566905Y-14501190D01*
X9566905Y-14529762D01*
X9557381Y-14567857D01*
X9547857Y-14586905D01*
X9528810Y-14605952D01*
X9500238Y-14615476D01*
X9452619Y-14615476D01*
X9652619Y-14615476D02*
X9652619Y-14482143D01*
X9652619Y-14520238D02*
X9662143Y-14501190D01*
X9671667Y-14491667D01*
X9690714Y-14482143D01*
X9709762Y-14482143D01*
X9776429Y-14615476D02*
X9776429Y-14482143D01*
X9776429Y-14415476D02*
X9766905Y-14425000D01*
X9776429Y-14434524D01*
X9785952Y-14425000D01*
X9776429Y-14415476D01*
X9776429Y-14434524D01*
X9900238Y-14615476D02*
X9881190Y-14605952D01*
X9871667Y-14586905D01*
X9871667Y-14415476D01*
X10005000Y-14615476D02*
X9985952Y-14605952D01*
X9976429Y-14586905D01*
X9976429Y-14415476D01*
X10233571Y-14615476D02*
X10233571Y-14415476D01*
X10300238Y-14558333D01*
X10366905Y-14415476D01*
X10366905Y-14615476D01*
X10547857Y-14615476D02*
X10547857Y-14510714D01*
X10538333Y-14491667D01*
X10519286Y-14482143D01*
X10481190Y-14482143D01*
X10462143Y-14491667D01*
X10547857Y-14605952D02*
X10528810Y-14615476D01*
X10481190Y-14615476D01*
X10462143Y-14605952D01*
X10452619Y-14586905D01*
X10452619Y-14567857D01*
X10462143Y-14548809D01*
X10481190Y-14539286D01*
X10528810Y-14539286D01*
X10547857Y-14529762D01*
X10643095Y-14482143D02*
X10643095Y-14682143D01*
X10643095Y-14491667D02*
X10662143Y-14482143D01*
X10700238Y-14482143D01*
X10719286Y-14491667D01*
X10728810Y-14501190D01*
X10738333Y-14520238D01*
X10738333Y-14577381D01*
X10728810Y-14596428D01*
X10719286Y-14605952D01*
X10700238Y-14615476D01*
X10662143Y-14615476D01*
X10643095Y-14605952D01*
X10824048Y-14596428D02*
X10833571Y-14605952D01*
X10824048Y-14615476D01*
X10814524Y-14605952D01*
X10824048Y-14596428D01*
X10824048Y-14615476D01*
X10824048Y-14491667D02*
X10833571Y-14501190D01*
X10824048Y-14510714D01*
X10814524Y-14501190D01*
X10824048Y-14491667D01*
X10824048Y-14510714D01*
D12*
X9155000Y-14925000D02*
X9195000Y-14965000D01*
X9195000Y-14925000D02*
X9155000Y-14965000D01*
D11*
X9490714Y-14835476D02*
X9509762Y-14835476D01*
X9528810Y-14845000D01*
X9538333Y-14854524D01*
X9547857Y-14873571D01*
X9557381Y-14911667D01*
X9557381Y-14959286D01*
X9547857Y-14997381D01*
X9538333Y-15016428D01*
X9528810Y-15025952D01*
X9509762Y-15035476D01*
X9490714Y-15035476D01*
X9471667Y-15025952D01*
X9462143Y-15016428D01*
X9452619Y-14997381D01*
X9443095Y-14959286D01*
X9443095Y-14911667D01*
X9452619Y-14873571D01*
X9462143Y-14854524D01*
X9471667Y-14845000D01*
X9490714Y-14835476D01*
X9643095Y-15016428D02*
X9652619Y-15025952D01*
X9643095Y-15035476D01*
X9633571Y-15025952D01*
X9643095Y-15016428D01*
X9643095Y-15035476D01*
X9824048Y-14902143D02*
X9824048Y-15035476D01*
X9776429Y-14825952D02*
X9728810Y-14968809D01*
X9852619Y-14968809D01*
X9966905Y-14835476D02*
X9985952Y-14835476D01*
X10005000Y-14845000D01*
X10014524Y-14854524D01*
X10024048Y-14873571D01*
X10033571Y-14911667D01*
X10033571Y-14959286D01*
X10024048Y-14997381D01*
X10014524Y-15016428D01*
X10005000Y-15025952D01*
X9985952Y-15035476D01*
X9966905Y-15035476D01*
X9947857Y-15025952D01*
X9938333Y-15016428D01*
X9928810Y-14997381D01*
X9919286Y-14959286D01*
X9919286Y-14911667D01*
X9928810Y-14873571D01*
X9938333Y-14854524D01*
X9947857Y-14845000D01*
X9966905Y-14835476D01*
X10157381Y-14835476D02*
X10176429Y-14835476D01*
X10195476Y-14845000D01*
X10205000Y-14854524D01*
X10214524Y-14873571D01*
X10224048Y-14911667D01*
X10224048Y-14959286D01*
X10214524Y-14997381D01*
X10205000Y-15016428D01*
X10195476Y-15025952D01*
X10176429Y-15035476D01*
X10157381Y-15035476D01*
X10138333Y-15025952D01*
X10128810Y-15016428D01*
X10119286Y-14997381D01*
X10109762Y-14959286D01*
X10109762Y-14911667D01*
X10119286Y-14873571D01*
X10128810Y-14854524D01*
X10138333Y-14845000D01*
X10157381Y-14835476D01*
X10309762Y-15035476D02*
X10309762Y-14902143D01*
X10309762Y-14921190D02*
X10319286Y-14911667D01*
X10338333Y-14902143D01*
X10366905Y-14902143D01*
X10385952Y-14911667D01*
X10395476Y-14930714D01*
X10395476Y-15035476D01*
X10395476Y-14930714D02*
X10405000Y-14911667D01*
X10424048Y-14902143D01*
X10452619Y-14902143D01*
X10471667Y-14911667D01*
X10481190Y-14930714D01*
X10481190Y-15035476D01*
X10576429Y-15035476D02*
X10576429Y-14902143D01*
X10576429Y-14921190D02*
X10585952Y-14911667D01*
X10605000Y-14902143D01*
X10633571Y-14902143D01*
X10652619Y-14911667D01*
X10662143Y-14930714D01*
X10662143Y-15035476D01*
X10662143Y-14930714D02*
X10671667Y-14911667D01*
X10690714Y-14902143D01*
X10719286Y-14902143D01*
X10738333Y-14911667D01*
X10747857Y-14930714D01*
X10747857Y-15035476D01*
X11138333Y-14825952D02*
X10966905Y-15083095D01*
X11395476Y-14835476D02*
X11414524Y-14835476D01*
X11433571Y-14845000D01*
X11443095Y-14854524D01*
X11452619Y-14873571D01*
X11462143Y-14911667D01*
X11462143Y-14959286D01*
X11452619Y-14997381D01*
X11443095Y-15016428D01*
X11433571Y-15025952D01*
X11414524Y-15035476D01*
X11395476Y-15035476D01*
X11376428Y-15025952D01*
X11366905Y-15016428D01*
X11357381Y-14997381D01*
X11347857Y-14959286D01*
X11347857Y-14911667D01*
X11357381Y-14873571D01*
X11366905Y-14854524D01*
X11376428Y-14845000D01*
X11395476Y-14835476D01*
X11547857Y-15016428D02*
X11557381Y-15025952D01*
X11547857Y-15035476D01*
X11538333Y-15025952D01*
X11547857Y-15016428D01*
X11547857Y-15035476D01*
X11681190Y-14835476D02*
X11700238Y-14835476D01*
X11719286Y-14845000D01*
X11728809Y-14854524D01*
X11738333Y-14873571D01*
X11747857Y-14911667D01*
X11747857Y-14959286D01*
X11738333Y-14997381D01*
X11728809Y-15016428D01*
X11719286Y-15025952D01*
X11700238Y-15035476D01*
X11681190Y-15035476D01*
X11662143Y-15025952D01*
X11652619Y-15016428D01*
X11643095Y-14997381D01*
X11633571Y-14959286D01*
X11633571Y-14911667D01*
X11643095Y-14873571D01*
X11652619Y-14854524D01*
X11662143Y-14845000D01*
X11681190Y-14835476D01*
X11938333Y-15035476D02*
X11824048Y-15035476D01*
X11881190Y-15035476D02*
X11881190Y-14835476D01*
X11862143Y-14864048D01*
X11843095Y-14883095D01*
X11824048Y-14892619D01*
X12119286Y-14835476D02*
X12024048Y-14835476D01*
X12014524Y-14930714D01*
X12024048Y-14921190D01*
X12043095Y-14911667D01*
X12090714Y-14911667D01*
X12109762Y-14921190D01*
X12119286Y-14930714D01*
X12128809Y-14949762D01*
X12128809Y-14997381D01*
X12119286Y-15016428D01*
X12109762Y-15025952D01*
X12090714Y-15035476D01*
X12043095Y-15035476D01*
X12024048Y-15025952D01*
X12014524Y-15016428D01*
X12195476Y-14835476D02*
X12328809Y-14835476D01*
X12243095Y-15035476D01*
X12395476Y-14835476D02*
X12395476Y-14873571D01*
X12471667Y-14835476D02*
X12471667Y-14873571D01*
X12766905Y-15111667D02*
X12757381Y-15102143D01*
X12738333Y-15073571D01*
X12728809Y-15054524D01*
X12719286Y-15025952D01*
X12709762Y-14978333D01*
X12709762Y-14940238D01*
X12719286Y-14892619D01*
X12728809Y-14864048D01*
X12738333Y-14845000D01*
X12757381Y-14816428D01*
X12766905Y-14806905D01*
X12947857Y-15035476D02*
X12833571Y-15035476D01*
X12890714Y-15035476D02*
X12890714Y-14835476D01*
X12871667Y-14864048D01*
X12852619Y-14883095D01*
X12833571Y-14892619D01*
X13014524Y-14835476D02*
X13147857Y-14835476D01*
X13062143Y-15035476D01*
X13319286Y-14835476D02*
X13224048Y-14835476D01*
X13214524Y-14930714D01*
X13224048Y-14921190D01*
X13243095Y-14911667D01*
X13290714Y-14911667D01*
X13309762Y-14921190D01*
X13319286Y-14930714D01*
X13328809Y-14949762D01*
X13328809Y-14997381D01*
X13319286Y-15016428D01*
X13309762Y-15025952D01*
X13290714Y-15035476D01*
X13243095Y-15035476D01*
X13224048Y-15025952D01*
X13214524Y-15016428D01*
X13566905Y-15035476D02*
X13566905Y-14835476D01*
X13652619Y-15035476D02*
X13652619Y-14930714D01*
X13643095Y-14911667D01*
X13624048Y-14902143D01*
X13595476Y-14902143D01*
X13576428Y-14911667D01*
X13566905Y-14921190D01*
X13776428Y-15035476D02*
X13757381Y-15025952D01*
X13747857Y-15016428D01*
X13738333Y-14997381D01*
X13738333Y-14940238D01*
X13747857Y-14921190D01*
X13757381Y-14911667D01*
X13776428Y-14902143D01*
X13805000Y-14902143D01*
X13824048Y-14911667D01*
X13833571Y-14921190D01*
X13843095Y-14940238D01*
X13843095Y-14997381D01*
X13833571Y-15016428D01*
X13824048Y-15025952D01*
X13805000Y-15035476D01*
X13776428Y-15035476D01*
X13957381Y-15035476D02*
X13938333Y-15025952D01*
X13928809Y-15006905D01*
X13928809Y-14835476D01*
X14109762Y-15025952D02*
X14090714Y-15035476D01*
X14052619Y-15035476D01*
X14033571Y-15025952D01*
X14024048Y-15006905D01*
X14024048Y-14930714D01*
X14033571Y-14911667D01*
X14052619Y-14902143D01*
X14090714Y-14902143D01*
X14109762Y-14911667D01*
X14119286Y-14930714D01*
X14119286Y-14949762D01*
X14024048Y-14968809D01*
X14195476Y-15025952D02*
X14214524Y-15035476D01*
X14252619Y-15035476D01*
X14271667Y-15025952D01*
X14281190Y-15006905D01*
X14281190Y-14997381D01*
X14271667Y-14978333D01*
X14252619Y-14968809D01*
X14224048Y-14968809D01*
X14205000Y-14959286D01*
X14195476Y-14940238D01*
X14195476Y-14930714D01*
X14205000Y-14911667D01*
X14224048Y-14902143D01*
X14252619Y-14902143D01*
X14271667Y-14911667D01*
X14347857Y-15111667D02*
X14357381Y-15102143D01*
X14376428Y-15073571D01*
X14385952Y-15054524D01*
X14395476Y-15025952D01*
X14405000Y-14978333D01*
X14405000Y-14940238D01*
X14395476Y-14892619D01*
X14385952Y-14864048D01*
X14376428Y-14845000D01*
X14357381Y-14816428D01*
X14347857Y-14806905D01*
D13*
X9195000Y-15209000D02*
G75*
G03*
X9195000Y-15209000I-38100J0D01*
G01*
D11*
X9490714Y-15099476D02*
X9509762Y-15099476D01*
X9528810Y-15109000D01*
X9538333Y-15118524D01*
X9547857Y-15137571D01*
X9557381Y-15175667D01*
X9557381Y-15223286D01*
X9547857Y-15261381D01*
X9538333Y-15280428D01*
X9528810Y-15289952D01*
X9509762Y-15299476D01*
X9490714Y-15299476D01*
X9471667Y-15289952D01*
X9462143Y-15280428D01*
X9452619Y-15261381D01*
X9443095Y-15223286D01*
X9443095Y-15175667D01*
X9452619Y-15137571D01*
X9462143Y-15118524D01*
X9471667Y-15109000D01*
X9490714Y-15099476D01*
X9643095Y-15280428D02*
X9652619Y-15289952D01*
X9643095Y-15299476D01*
X9633571Y-15289952D01*
X9643095Y-15280428D01*
X9643095Y-15299476D01*
X9719286Y-15099476D02*
X9852619Y-15099476D01*
X9766905Y-15299476D01*
X10014524Y-15099476D02*
X9976429Y-15099476D01*
X9957381Y-15109000D01*
X9947857Y-15118524D01*
X9928810Y-15147095D01*
X9919286Y-15185190D01*
X9919286Y-15261381D01*
X9928810Y-15280428D01*
X9938333Y-15289952D01*
X9957381Y-15299476D01*
X9995476Y-15299476D01*
X10014524Y-15289952D01*
X10024048Y-15280428D01*
X10033571Y-15261381D01*
X10033571Y-15213762D01*
X10024048Y-15194714D01*
X10014524Y-15185190D01*
X9995476Y-15175667D01*
X9957381Y-15175667D01*
X9938333Y-15185190D01*
X9928810Y-15194714D01*
X9919286Y-15213762D01*
X10109762Y-15118524D02*
X10119286Y-15109000D01*
X10138333Y-15099476D01*
X10185952Y-15099476D01*
X10205000Y-15109000D01*
X10214524Y-15118524D01*
X10224048Y-15137571D01*
X10224048Y-15156619D01*
X10214524Y-15185190D01*
X10100238Y-15299476D01*
X10224048Y-15299476D01*
X10309762Y-15299476D02*
X10309762Y-15166143D01*
X10309762Y-15185190D02*
X10319286Y-15175667D01*
X10338333Y-15166143D01*
X10366905Y-15166143D01*
X10385952Y-15175667D01*
X10395476Y-15194714D01*
X10395476Y-15299476D01*
X10395476Y-15194714D02*
X10405000Y-15175667D01*
X10424048Y-15166143D01*
X10452619Y-15166143D01*
X10471667Y-15175667D01*
X10481190Y-15194714D01*
X10481190Y-15299476D01*
X10576429Y-15299476D02*
X10576429Y-15166143D01*
X10576429Y-15185190D02*
X10585952Y-15175667D01*
X10605000Y-15166143D01*
X10633571Y-15166143D01*
X10652619Y-15175667D01*
X10662143Y-15194714D01*
X10662143Y-15299476D01*
X10662143Y-15194714D02*
X10671667Y-15175667D01*
X10690714Y-15166143D01*
X10719286Y-15166143D01*
X10738333Y-15175667D01*
X10747857Y-15194714D01*
X10747857Y-15299476D01*
X11138333Y-15089952D02*
X10966905Y-15347095D01*
X11395476Y-15099476D02*
X11414524Y-15099476D01*
X11433571Y-15109000D01*
X11443095Y-15118524D01*
X11452619Y-15137571D01*
X11462143Y-15175667D01*
X11462143Y-15223286D01*
X11452619Y-15261381D01*
X11443095Y-15280428D01*
X11433571Y-15289952D01*
X11414524Y-15299476D01*
X11395476Y-15299476D01*
X11376428Y-15289952D01*
X11366905Y-15280428D01*
X11357381Y-15261381D01*
X11347857Y-15223286D01*
X11347857Y-15175667D01*
X11357381Y-15137571D01*
X11366905Y-15118524D01*
X11376428Y-15109000D01*
X11395476Y-15099476D01*
X11547857Y-15280428D02*
X11557381Y-15289952D01*
X11547857Y-15299476D01*
X11538333Y-15289952D01*
X11547857Y-15280428D01*
X11547857Y-15299476D01*
X11681190Y-15099476D02*
X11700238Y-15099476D01*
X11719286Y-15109000D01*
X11728809Y-15118524D01*
X11738333Y-15137571D01*
X11747857Y-15175667D01*
X11747857Y-15223286D01*
X11738333Y-15261381D01*
X11728809Y-15280428D01*
X11719286Y-15289952D01*
X11700238Y-15299476D01*
X11681190Y-15299476D01*
X11662143Y-15289952D01*
X11652619Y-15280428D01*
X11643095Y-15261381D01*
X11633571Y-15223286D01*
X11633571Y-15175667D01*
X11643095Y-15137571D01*
X11652619Y-15118524D01*
X11662143Y-15109000D01*
X11681190Y-15099476D01*
X11814524Y-15099476D02*
X11938333Y-15099476D01*
X11871667Y-15175667D01*
X11900238Y-15175667D01*
X11919286Y-15185190D01*
X11928809Y-15194714D01*
X11938333Y-15213762D01*
X11938333Y-15261381D01*
X11928809Y-15280428D01*
X11919286Y-15289952D01*
X11900238Y-15299476D01*
X11843095Y-15299476D01*
X11824048Y-15289952D01*
X11814524Y-15280428D01*
X12062143Y-15099476D02*
X12081190Y-15099476D01*
X12100238Y-15109000D01*
X12109762Y-15118524D01*
X12119286Y-15137571D01*
X12128809Y-15175667D01*
X12128809Y-15223286D01*
X12119286Y-15261381D01*
X12109762Y-15280428D01*
X12100238Y-15289952D01*
X12081190Y-15299476D01*
X12062143Y-15299476D01*
X12043095Y-15289952D01*
X12033571Y-15280428D01*
X12024048Y-15261381D01*
X12014524Y-15223286D01*
X12014524Y-15175667D01*
X12024048Y-15137571D01*
X12033571Y-15118524D01*
X12043095Y-15109000D01*
X12062143Y-15099476D01*
X12252619Y-15099476D02*
X12271667Y-15099476D01*
X12290714Y-15109000D01*
X12300238Y-15118524D01*
X12309762Y-15137571D01*
X12319286Y-15175667D01*
X12319286Y-15223286D01*
X12309762Y-15261381D01*
X12300238Y-15280428D01*
X12290714Y-15289952D01*
X12271667Y-15299476D01*
X12252619Y-15299476D01*
X12233571Y-15289952D01*
X12224048Y-15280428D01*
X12214524Y-15261381D01*
X12205000Y-15223286D01*
X12205000Y-15175667D01*
X12214524Y-15137571D01*
X12224048Y-15118524D01*
X12233571Y-15109000D01*
X12252619Y-15099476D01*
X12395476Y-15099476D02*
X12395476Y-15137571D01*
X12471667Y-15099476D02*
X12471667Y-15137571D01*
X12766905Y-15375667D02*
X12757381Y-15366143D01*
X12738333Y-15337571D01*
X12728809Y-15318524D01*
X12719286Y-15289952D01*
X12709762Y-15242333D01*
X12709762Y-15204238D01*
X12719286Y-15156619D01*
X12728809Y-15128048D01*
X12738333Y-15109000D01*
X12757381Y-15080428D01*
X12766905Y-15070905D01*
X12947857Y-15299476D02*
X12833571Y-15299476D01*
X12890714Y-15299476D02*
X12890714Y-15099476D01*
X12871667Y-15128048D01*
X12852619Y-15147095D01*
X12833571Y-15156619D01*
X13024048Y-15118524D02*
X13033571Y-15109000D01*
X13052619Y-15099476D01*
X13100238Y-15099476D01*
X13119286Y-15109000D01*
X13128809Y-15118524D01*
X13138333Y-15137571D01*
X13138333Y-15156619D01*
X13128809Y-15185190D01*
X13014524Y-15299476D01*
X13138333Y-15299476D01*
X13376428Y-15299476D02*
X13376428Y-15099476D01*
X13462143Y-15299476D02*
X13462143Y-15194714D01*
X13452619Y-15175667D01*
X13433571Y-15166143D01*
X13405000Y-15166143D01*
X13385952Y-15175667D01*
X13376428Y-15185190D01*
X13585952Y-15299476D02*
X13566905Y-15289952D01*
X13557381Y-15280428D01*
X13547857Y-15261381D01*
X13547857Y-15204238D01*
X13557381Y-15185190D01*
X13566905Y-15175667D01*
X13585952Y-15166143D01*
X13614524Y-15166143D01*
X13633571Y-15175667D01*
X13643095Y-15185190D01*
X13652619Y-15204238D01*
X13652619Y-15261381D01*
X13643095Y-15280428D01*
X13633571Y-15289952D01*
X13614524Y-15299476D01*
X13585952Y-15299476D01*
X13766905Y-15299476D02*
X13747857Y-15289952D01*
X13738333Y-15270905D01*
X13738333Y-15099476D01*
X13919286Y-15289952D02*
X13900238Y-15299476D01*
X13862143Y-15299476D01*
X13843095Y-15289952D01*
X13833571Y-15270905D01*
X13833571Y-15194714D01*
X13843095Y-15175667D01*
X13862143Y-15166143D01*
X13900238Y-15166143D01*
X13919286Y-15175667D01*
X13928809Y-15194714D01*
X13928809Y-15213762D01*
X13833571Y-15232809D01*
X14005000Y-15289952D02*
X14024048Y-15299476D01*
X14062143Y-15299476D01*
X14081190Y-15289952D01*
X14090714Y-15270905D01*
X14090714Y-15261381D01*
X14081190Y-15242333D01*
X14062143Y-15232809D01*
X14033571Y-15232809D01*
X14014524Y-15223286D01*
X14005000Y-15204238D01*
X14005000Y-15194714D01*
X14014524Y-15175667D01*
X14033571Y-15166143D01*
X14062143Y-15166143D01*
X14081190Y-15175667D01*
X14157381Y-15375667D02*
X14166905Y-15366143D01*
X14185952Y-15337571D01*
X14195476Y-15318524D01*
X14205000Y-15289952D01*
X14214524Y-15242333D01*
X14214524Y-15204238D01*
X14205000Y-15156619D01*
X14195476Y-15128048D01*
X14185952Y-15109000D01*
X14166905Y-15080428D01*
X14157381Y-15070905D01*
D14*
X9145000Y-15423000D02*
X9145000Y-15523000D01*
X9095000Y-15473000D02*
X9195000Y-15473000D01*
D11*
X9557381Y-15563476D02*
X9443095Y-15563476D01*
X9500238Y-15563476D02*
X9500238Y-15363476D01*
X9481190Y-15392048D01*
X9462143Y-15411095D01*
X9443095Y-15420619D01*
X9643095Y-15544428D02*
X9652619Y-15553952D01*
X9643095Y-15563476D01*
X9633571Y-15553952D01*
X9643095Y-15544428D01*
X9643095Y-15563476D01*
X9776429Y-15363476D02*
X9795476Y-15363476D01*
X9814524Y-15373000D01*
X9824048Y-15382524D01*
X9833571Y-15401571D01*
X9843095Y-15439667D01*
X9843095Y-15487286D01*
X9833571Y-15525381D01*
X9824048Y-15544428D01*
X9814524Y-15553952D01*
X9795476Y-15563476D01*
X9776429Y-15563476D01*
X9757381Y-15553952D01*
X9747857Y-15544428D01*
X9738333Y-15525381D01*
X9728810Y-15487286D01*
X9728810Y-15439667D01*
X9738333Y-15401571D01*
X9747857Y-15382524D01*
X9757381Y-15373000D01*
X9776429Y-15363476D01*
X9966905Y-15363476D02*
X9985952Y-15363476D01*
X10005000Y-15373000D01*
X10014524Y-15382524D01*
X10024048Y-15401571D01*
X10033571Y-15439667D01*
X10033571Y-15487286D01*
X10024048Y-15525381D01*
X10014524Y-15544428D01*
X10005000Y-15553952D01*
X9985952Y-15563476D01*
X9966905Y-15563476D01*
X9947857Y-15553952D01*
X9938333Y-15544428D01*
X9928810Y-15525381D01*
X9919286Y-15487286D01*
X9919286Y-15439667D01*
X9928810Y-15401571D01*
X9938333Y-15382524D01*
X9947857Y-15373000D01*
X9966905Y-15363476D01*
X10157381Y-15363476D02*
X10176429Y-15363476D01*
X10195476Y-15373000D01*
X10205000Y-15382524D01*
X10214524Y-15401571D01*
X10224048Y-15439667D01*
X10224048Y-15487286D01*
X10214524Y-15525381D01*
X10205000Y-15544428D01*
X10195476Y-15553952D01*
X10176429Y-15563476D01*
X10157381Y-15563476D01*
X10138333Y-15553952D01*
X10128810Y-15544428D01*
X10119286Y-15525381D01*
X10109762Y-15487286D01*
X10109762Y-15439667D01*
X10119286Y-15401571D01*
X10128810Y-15382524D01*
X10138333Y-15373000D01*
X10157381Y-15363476D01*
X10309762Y-15563476D02*
X10309762Y-15430143D01*
X10309762Y-15449190D02*
X10319286Y-15439667D01*
X10338333Y-15430143D01*
X10366905Y-15430143D01*
X10385952Y-15439667D01*
X10395476Y-15458714D01*
X10395476Y-15563476D01*
X10395476Y-15458714D02*
X10405000Y-15439667D01*
X10424048Y-15430143D01*
X10452619Y-15430143D01*
X10471667Y-15439667D01*
X10481190Y-15458714D01*
X10481190Y-15563476D01*
X10576429Y-15563476D02*
X10576429Y-15430143D01*
X10576429Y-15449190D02*
X10585952Y-15439667D01*
X10605000Y-15430143D01*
X10633571Y-15430143D01*
X10652619Y-15439667D01*
X10662143Y-15458714D01*
X10662143Y-15563476D01*
X10662143Y-15458714D02*
X10671667Y-15439667D01*
X10690714Y-15430143D01*
X10719286Y-15430143D01*
X10738333Y-15439667D01*
X10747857Y-15458714D01*
X10747857Y-15563476D01*
X11138333Y-15353952D02*
X10966905Y-15611095D01*
X11395476Y-15363476D02*
X11414524Y-15363476D01*
X11433571Y-15373000D01*
X11443095Y-15382524D01*
X11452619Y-15401571D01*
X11462143Y-15439667D01*
X11462143Y-15487286D01*
X11452619Y-15525381D01*
X11443095Y-15544428D01*
X11433571Y-15553952D01*
X11414524Y-15563476D01*
X11395476Y-15563476D01*
X11376428Y-15553952D01*
X11366905Y-15544428D01*
X11357381Y-15525381D01*
X11347857Y-15487286D01*
X11347857Y-15439667D01*
X11357381Y-15401571D01*
X11366905Y-15382524D01*
X11376428Y-15373000D01*
X11395476Y-15363476D01*
X11547857Y-15544428D02*
X11557381Y-15553952D01*
X11547857Y-15563476D01*
X11538333Y-15553952D01*
X11547857Y-15544428D01*
X11547857Y-15563476D01*
X11681190Y-15363476D02*
X11700238Y-15363476D01*
X11719286Y-15373000D01*
X11728809Y-15382524D01*
X11738333Y-15401571D01*
X11747857Y-15439667D01*
X11747857Y-15487286D01*
X11738333Y-15525381D01*
X11728809Y-15544428D01*
X11719286Y-15553952D01*
X11700238Y-15563476D01*
X11681190Y-15563476D01*
X11662143Y-15553952D01*
X11652619Y-15544428D01*
X11643095Y-15525381D01*
X11633571Y-15487286D01*
X11633571Y-15439667D01*
X11643095Y-15401571D01*
X11652619Y-15382524D01*
X11662143Y-15373000D01*
X11681190Y-15363476D01*
X11814524Y-15363476D02*
X11938333Y-15363476D01*
X11871667Y-15439667D01*
X11900238Y-15439667D01*
X11919286Y-15449190D01*
X11928809Y-15458714D01*
X11938333Y-15477762D01*
X11938333Y-15525381D01*
X11928809Y-15544428D01*
X11919286Y-15553952D01*
X11900238Y-15563476D01*
X11843095Y-15563476D01*
X11824048Y-15553952D01*
X11814524Y-15544428D01*
X12033571Y-15563476D02*
X12071667Y-15563476D01*
X12090714Y-15553952D01*
X12100238Y-15544428D01*
X12119286Y-15515857D01*
X12128809Y-15477762D01*
X12128809Y-15401571D01*
X12119286Y-15382524D01*
X12109762Y-15373000D01*
X12090714Y-15363476D01*
X12052619Y-15363476D01*
X12033571Y-15373000D01*
X12024048Y-15382524D01*
X12014524Y-15401571D01*
X12014524Y-15449190D01*
X12024048Y-15468238D01*
X12033571Y-15477762D01*
X12052619Y-15487286D01*
X12090714Y-15487286D01*
X12109762Y-15477762D01*
X12119286Y-15468238D01*
X12128809Y-15449190D01*
X12300238Y-15430143D02*
X12300238Y-15563476D01*
X12252619Y-15353952D02*
X12205000Y-15496809D01*
X12328809Y-15496809D01*
X12395476Y-15363476D02*
X12395476Y-15401571D01*
X12471667Y-15363476D02*
X12471667Y-15401571D01*
X12766905Y-15639667D02*
X12757381Y-15630143D01*
X12738333Y-15601571D01*
X12728809Y-15582524D01*
X12719286Y-15553952D01*
X12709762Y-15506333D01*
X12709762Y-15468238D01*
X12719286Y-15420619D01*
X12728809Y-15392048D01*
X12738333Y-15373000D01*
X12757381Y-15344428D01*
X12766905Y-15334905D01*
X12947857Y-15563476D02*
X12833571Y-15563476D01*
X12890714Y-15563476D02*
X12890714Y-15363476D01*
X12871667Y-15392048D01*
X12852619Y-15411095D01*
X12833571Y-15420619D01*
X13024048Y-15382524D02*
X13033571Y-15373000D01*
X13052619Y-15363476D01*
X13100238Y-15363476D01*
X13119286Y-15373000D01*
X13128809Y-15382524D01*
X13138333Y-15401571D01*
X13138333Y-15420619D01*
X13128809Y-15449190D01*
X13014524Y-15563476D01*
X13138333Y-15563476D01*
X13309762Y-15363476D02*
X13271667Y-15363476D01*
X13252619Y-15373000D01*
X13243095Y-15382524D01*
X13224048Y-15411095D01*
X13214524Y-15449190D01*
X13214524Y-15525381D01*
X13224048Y-15544428D01*
X13233571Y-15553952D01*
X13252619Y-15563476D01*
X13290714Y-15563476D01*
X13309762Y-15553952D01*
X13319286Y-15544428D01*
X13328809Y-15525381D01*
X13328809Y-15477762D01*
X13319286Y-15458714D01*
X13309762Y-15449190D01*
X13290714Y-15439667D01*
X13252619Y-15439667D01*
X13233571Y-15449190D01*
X13224048Y-15458714D01*
X13214524Y-15477762D01*
X13566905Y-15563476D02*
X13566905Y-15363476D01*
X13652619Y-15563476D02*
X13652619Y-15458714D01*
X13643095Y-15439667D01*
X13624048Y-15430143D01*
X13595476Y-15430143D01*
X13576428Y-15439667D01*
X13566905Y-15449190D01*
X13776428Y-15563476D02*
X13757381Y-15553952D01*
X13747857Y-15544428D01*
X13738333Y-15525381D01*
X13738333Y-15468238D01*
X13747857Y-15449190D01*
X13757381Y-15439667D01*
X13776428Y-15430143D01*
X13805000Y-15430143D01*
X13824048Y-15439667D01*
X13833571Y-15449190D01*
X13843095Y-15468238D01*
X13843095Y-15525381D01*
X13833571Y-15544428D01*
X13824048Y-15553952D01*
X13805000Y-15563476D01*
X13776428Y-15563476D01*
X13957381Y-15563476D02*
X13938333Y-15553952D01*
X13928809Y-15534905D01*
X13928809Y-15363476D01*
X14109762Y-15553952D02*
X14090714Y-15563476D01*
X14052619Y-15563476D01*
X14033571Y-15553952D01*
X14024048Y-15534905D01*
X14024048Y-15458714D01*
X14033571Y-15439667D01*
X14052619Y-15430143D01*
X14090714Y-15430143D01*
X14109762Y-15439667D01*
X14119286Y-15458714D01*
X14119286Y-15477762D01*
X14024048Y-15496809D01*
X14195476Y-15553952D02*
X14214524Y-15563476D01*
X14252619Y-15563476D01*
X14271667Y-15553952D01*
X14281190Y-15534905D01*
X14281190Y-15525381D01*
X14271667Y-15506333D01*
X14252619Y-15496809D01*
X14224048Y-15496809D01*
X14205000Y-15487286D01*
X14195476Y-15468238D01*
X14195476Y-15458714D01*
X14205000Y-15439667D01*
X14224048Y-15430143D01*
X14252619Y-15430143D01*
X14271667Y-15439667D01*
X14347857Y-15639667D02*
X14357381Y-15630143D01*
X14376428Y-15601571D01*
X14385952Y-15582524D01*
X14395476Y-15553952D01*
X14405000Y-15506333D01*
X14405000Y-15468238D01*
X14395476Y-15420619D01*
X14385952Y-15392048D01*
X14376428Y-15373000D01*
X14357381Y-15344428D01*
X14347857Y-15334905D01*
X9165711Y-15807711D02*
X9165711Y-15666289D01*
X9024289Y-15666289D01*
X9024289Y-15807711D01*
X9165711Y-15807711D01*
X9433571Y-15627476D02*
X9557381Y-15627476D01*
X9490714Y-15703667D01*
X9519286Y-15703667D01*
X9538333Y-15713190D01*
X9547857Y-15722714D01*
X9557381Y-15741762D01*
X9557381Y-15789381D01*
X9547857Y-15808428D01*
X9538333Y-15817952D01*
X9519286Y-15827476D01*
X9462143Y-15827476D01*
X9443095Y-15817952D01*
X9433571Y-15808428D01*
X9643095Y-15808428D02*
X9652619Y-15817952D01*
X9643095Y-15827476D01*
X9633571Y-15817952D01*
X9643095Y-15808428D01*
X9643095Y-15827476D01*
X9728810Y-15646524D02*
X9738333Y-15637000D01*
X9757381Y-15627476D01*
X9805000Y-15627476D01*
X9824048Y-15637000D01*
X9833571Y-15646524D01*
X9843095Y-15665571D01*
X9843095Y-15684619D01*
X9833571Y-15713190D01*
X9719286Y-15827476D01*
X9843095Y-15827476D01*
X9966905Y-15627476D02*
X9985952Y-15627476D01*
X10005000Y-15637000D01*
X10014524Y-15646524D01*
X10024048Y-15665571D01*
X10033571Y-15703667D01*
X10033571Y-15751286D01*
X10024048Y-15789381D01*
X10014524Y-15808428D01*
X10005000Y-15817952D01*
X9985952Y-15827476D01*
X9966905Y-15827476D01*
X9947857Y-15817952D01*
X9938333Y-15808428D01*
X9928810Y-15789381D01*
X9919286Y-15751286D01*
X9919286Y-15703667D01*
X9928810Y-15665571D01*
X9938333Y-15646524D01*
X9947857Y-15637000D01*
X9966905Y-15627476D01*
X10157381Y-15627476D02*
X10176429Y-15627476D01*
X10195476Y-15637000D01*
X10205000Y-15646524D01*
X10214524Y-15665571D01*
X10224048Y-15703667D01*
X10224048Y-15751286D01*
X10214524Y-15789381D01*
X10205000Y-15808428D01*
X10195476Y-15817952D01*
X10176429Y-15827476D01*
X10157381Y-15827476D01*
X10138333Y-15817952D01*
X10128810Y-15808428D01*
X10119286Y-15789381D01*
X10109762Y-15751286D01*
X10109762Y-15703667D01*
X10119286Y-15665571D01*
X10128810Y-15646524D01*
X10138333Y-15637000D01*
X10157381Y-15627476D01*
X10309762Y-15827476D02*
X10309762Y-15694143D01*
X10309762Y-15713190D02*
X10319286Y-15703667D01*
X10338333Y-15694143D01*
X10366905Y-15694143D01*
X10385952Y-15703667D01*
X10395476Y-15722714D01*
X10395476Y-15827476D01*
X10395476Y-15722714D02*
X10405000Y-15703667D01*
X10424048Y-15694143D01*
X10452619Y-15694143D01*
X10471667Y-15703667D01*
X10481190Y-15722714D01*
X10481190Y-15827476D01*
X10576429Y-15827476D02*
X10576429Y-15694143D01*
X10576429Y-15713190D02*
X10585952Y-15703667D01*
X10605000Y-15694143D01*
X10633571Y-15694143D01*
X10652619Y-15703667D01*
X10662143Y-15722714D01*
X10662143Y-15827476D01*
X10662143Y-15722714D02*
X10671667Y-15703667D01*
X10690714Y-15694143D01*
X10719286Y-15694143D01*
X10738333Y-15703667D01*
X10747857Y-15722714D01*
X10747857Y-15827476D01*
X11138333Y-15617952D02*
X10966905Y-15875095D01*
X11395476Y-15627476D02*
X11414524Y-15627476D01*
X11433571Y-15637000D01*
X11443095Y-15646524D01*
X11452619Y-15665571D01*
X11462143Y-15703667D01*
X11462143Y-15751286D01*
X11452619Y-15789381D01*
X11443095Y-15808428D01*
X11433571Y-15817952D01*
X11414524Y-15827476D01*
X11395476Y-15827476D01*
X11376428Y-15817952D01*
X11366905Y-15808428D01*
X11357381Y-15789381D01*
X11347857Y-15751286D01*
X11347857Y-15703667D01*
X11357381Y-15665571D01*
X11366905Y-15646524D01*
X11376428Y-15637000D01*
X11395476Y-15627476D01*
X11547857Y-15808428D02*
X11557381Y-15817952D01*
X11547857Y-15827476D01*
X11538333Y-15817952D01*
X11547857Y-15808428D01*
X11547857Y-15827476D01*
X11747857Y-15827476D02*
X11633571Y-15827476D01*
X11690714Y-15827476D02*
X11690714Y-15627476D01*
X11671667Y-15656048D01*
X11652619Y-15675095D01*
X11633571Y-15684619D01*
X11824048Y-15646524D02*
X11833571Y-15637000D01*
X11852619Y-15627476D01*
X11900238Y-15627476D01*
X11919286Y-15637000D01*
X11928809Y-15646524D01*
X11938333Y-15665571D01*
X11938333Y-15684619D01*
X11928809Y-15713190D01*
X11814524Y-15827476D01*
X11938333Y-15827476D01*
X12109762Y-15627476D02*
X12071667Y-15627476D01*
X12052619Y-15637000D01*
X12043095Y-15646524D01*
X12024048Y-15675095D01*
X12014524Y-15713190D01*
X12014524Y-15789381D01*
X12024048Y-15808428D01*
X12033571Y-15817952D01*
X12052619Y-15827476D01*
X12090714Y-15827476D01*
X12109762Y-15817952D01*
X12119286Y-15808428D01*
X12128809Y-15789381D01*
X12128809Y-15741762D01*
X12119286Y-15722714D01*
X12109762Y-15713190D01*
X12090714Y-15703667D01*
X12052619Y-15703667D01*
X12033571Y-15713190D01*
X12024048Y-15722714D01*
X12014524Y-15741762D01*
X12252619Y-15627476D02*
X12271667Y-15627476D01*
X12290714Y-15637000D01*
X12300238Y-15646524D01*
X12309762Y-15665571D01*
X12319286Y-15703667D01*
X12319286Y-15751286D01*
X12309762Y-15789381D01*
X12300238Y-15808428D01*
X12290714Y-15817952D01*
X12271667Y-15827476D01*
X12252619Y-15827476D01*
X12233571Y-15817952D01*
X12224048Y-15808428D01*
X12214524Y-15789381D01*
X12205000Y-15751286D01*
X12205000Y-15703667D01*
X12214524Y-15665571D01*
X12224048Y-15646524D01*
X12233571Y-15637000D01*
X12252619Y-15627476D01*
X12395476Y-15627476D02*
X12395476Y-15665571D01*
X12471667Y-15627476D02*
X12471667Y-15665571D01*
X12766905Y-15903667D02*
X12757381Y-15894143D01*
X12738333Y-15865571D01*
X12728809Y-15846524D01*
X12719286Y-15817952D01*
X12709762Y-15770333D01*
X12709762Y-15732238D01*
X12719286Y-15684619D01*
X12728809Y-15656048D01*
X12738333Y-15637000D01*
X12757381Y-15608428D01*
X12766905Y-15598905D01*
X12928809Y-15694143D02*
X12928809Y-15827476D01*
X12881190Y-15617952D02*
X12833571Y-15760809D01*
X12957381Y-15760809D01*
X13185952Y-15827476D02*
X13185952Y-15627476D01*
X13271667Y-15827476D02*
X13271667Y-15722714D01*
X13262143Y-15703667D01*
X13243095Y-15694143D01*
X13214524Y-15694143D01*
X13195476Y-15703667D01*
X13185952Y-15713190D01*
X13395476Y-15827476D02*
X13376428Y-15817952D01*
X13366905Y-15808428D01*
X13357381Y-15789381D01*
X13357381Y-15732238D01*
X13366905Y-15713190D01*
X13376428Y-15703667D01*
X13395476Y-15694143D01*
X13424048Y-15694143D01*
X13443095Y-15703667D01*
X13452619Y-15713190D01*
X13462143Y-15732238D01*
X13462143Y-15789381D01*
X13452619Y-15808428D01*
X13443095Y-15817952D01*
X13424048Y-15827476D01*
X13395476Y-15827476D01*
X13576428Y-15827476D02*
X13557381Y-15817952D01*
X13547857Y-15798905D01*
X13547857Y-15627476D01*
X13728809Y-15817952D02*
X13709762Y-15827476D01*
X13671667Y-15827476D01*
X13652619Y-15817952D01*
X13643095Y-15798905D01*
X13643095Y-15722714D01*
X13652619Y-15703667D01*
X13671667Y-15694143D01*
X13709762Y-15694143D01*
X13728809Y-15703667D01*
X13738333Y-15722714D01*
X13738333Y-15741762D01*
X13643095Y-15760809D01*
X13814524Y-15817952D02*
X13833571Y-15827476D01*
X13871667Y-15827476D01*
X13890714Y-15817952D01*
X13900238Y-15798905D01*
X13900238Y-15789381D01*
X13890714Y-15770333D01*
X13871667Y-15760809D01*
X13843095Y-15760809D01*
X13824048Y-15751286D01*
X13814524Y-15732238D01*
X13814524Y-15722714D01*
X13824048Y-15703667D01*
X13843095Y-15694143D01*
X13871667Y-15694143D01*
X13890714Y-15703667D01*
X13966905Y-15903667D02*
X13976428Y-15894143D01*
X13995476Y-15865571D01*
X14005000Y-15846524D01*
X14014524Y-15817952D01*
X14024048Y-15770333D01*
X14024048Y-15732238D01*
X14014524Y-15684619D01*
X14005000Y-15656048D01*
X13995476Y-15637000D01*
X13976428Y-15608428D01*
X13966905Y-15598905D01*
M02*
