M48
; DRILL file {KiCad (6.0.5)} date Sun Apr 13 13:18:36 2025
; FORMAT={-:-/ absolute / metric / decimal}
; #@! TF.CreationDate,2025-04-13T13:18:36+02:00
; #@! TF.GenerationSoftware,Kicad,Pcbnew,(6.0.5)
; #@! TF.FileFunction,Plated,1,4,PTH
FMAT,2
METRIC
; #@! TA.AperFunction,Plated,PTH,ViaDrill
T1C0.400
; #@! TA.AperFunction,Plated,PTH,ComponentDrill
T2C0.762
; #@! TA.AperFunction,Plated,PTH,ComponentDrill
T3C1.000
; #@! TA.AperFunction,Plated,PTH,ComponentDrill
T4C3.200
%
G90
G05
T1
X102.4Y-118.4
X103.0Y-123.0
X105.4Y-69.2
X107.0Y-77.4
X107.0Y-111.6
X108.4Y-110.4
X108.4Y-114.6
X108.4Y-125.6
X109.2Y-62.4
X109.2Y-66.4
X109.6Y-101.2
X110.0Y-115.0
X110.2Y-113.2
X110.2Y-116.4
X110.4Y-100.4
X110.4Y-111.4
X111.2Y-99.6
X111.6Y-87.2
X112.0Y-64.4
X112.0Y-81.2
X112.2Y-106.6
X112.4Y-110.6
X113.0Y-81.2
X114.0Y-81.2
X114.4Y-107.4
X114.6Y-62.4
X114.6Y-66.4
X114.6Y-108.8
X116.4Y-106.6
X119.2Y-77.4
X120.4Y-73.6
X120.6Y-112.4
X120.6Y-115.2
X121.6Y-111.8
X122.0Y-93.499
X122.0Y-101.2
X122.0Y-115.2
X122.35Y-70.8
X122.35Y-71.85
X122.35Y-72.85
X122.4Y-91.0
X122.8Y-62.6
X122.8Y-63.8
X122.8Y-65.0
X122.8Y-66.2
X123.4Y-115.2
X123.6Y-87.2
X124.0Y-134.4
X124.0Y-136.8
X124.6Y-89.8
X124.6Y-115.2
X124.8Y-111.2
X125.2Y-92.2
X125.2Y-95.6
X125.2Y-97.499
X125.2Y-102.0
X125.2Y-108.2
X125.4Y-105.2
X125.8Y-109.8
X126.2Y-84.4
X126.4Y-82.2
X127.1Y-82.9
X127.2Y-76.4
X127.4Y-86.8
X127.4Y-91.4
X127.8Y-83.6
X128.2Y-85.8
X128.2Y-109.6
X128.4Y-106.8
X128.6Y-79.6
X128.6Y-113.2
X129.0Y-94.2
X129.0Y-108.8
X129.4Y-73.2
X129.4Y-91.4
X129.4Y-92.8
X129.6Y-114.0
X130.6Y-79.6
X130.6Y-82.0
X130.6Y-98.0
X130.6Y-103.0
X130.6Y-108.8
X131.2Y-100.6
X131.2Y-109.8
X131.4Y-81.2
X131.8Y-94.8
X132.0Y-68.8
X132.0Y-73.2
X132.2Y-80.4
X132.4Y-131.0
X132.6Y-91.2
X132.8Y-94.8
X132.8Y-115.2
X133.0Y-76.0
X134.0Y-115.2
X134.4Y-91.2
X134.4Y-96.6
X134.6Y-104.4
X134.8Y-109.4
X135.2Y-113.6
X135.2Y-114.8
X136.4Y-112.8
X137.2Y-131.0
X137.4Y-106.8
X137.4Y-112.8
X137.8Y-100.4
X137.8Y-119.4
X138.2Y-137.6
X138.4Y-98.0
X138.4Y-103.0
X138.6Y-68.6
X138.6Y-73.0
X140.2Y-109.8
X140.4Y-94.2
X140.6Y-85.6
X140.6Y-106.8
X141.0Y-131.0
X141.2Y-73.0
X141.2Y-91.6
X141.8Y-88.2
X143.0Y-91.2
X143.6Y-97.8
X143.6Y-106.0
X143.6Y-109.2
X143.8Y-88.4
X143.8Y-95.0
X143.8Y-101.8
X144.2Y-111.2
X144.6Y-116.4
X144.8Y-83.8
X145.6Y-131.0
X145.8Y-69.8
X146.8Y-71.8
X146.8Y-102.2
X146.8Y-105.4
X146.8Y-111.0
X147.0Y-94.4
X147.0Y-137.6
X148.2Y-89.6
X148.2Y-90.8
X148.6Y-98.6
X149.2Y-116.6
X149.6Y-131.0
X150.0Y-76.6
X150.0Y-79.0
X150.0Y-98.6
X150.4Y-69.8
X151.4Y-98.6
X152.0Y-90.2
X152.2Y-87.8
X152.8Y-98.6
X152.8Y-116.6
X153.0Y-80.2
X153.0Y-89.6
X153.0Y-90.8
X154.0Y-85.0
X154.2Y-75.4
X154.2Y-131.0
X155.6Y-137.6
X156.0Y-74.6
X156.4Y-116.6
X156.8Y-90.2
X157.0Y-87.8
X157.8Y-89.6
X157.8Y-90.8
X157.8Y-98.6
X158.0Y-71.6
X158.2Y-131.0
X158.695Y-80.305
X159.0Y-76.0
X160.8Y-100.4
X161.6Y-68.6
X161.6Y-73.0
X161.6Y-90.2
X161.8Y-87.8
T2
X143.25Y-118.99
X143.25Y-126.61
X145.79Y-118.99
X145.79Y-126.61
X148.33Y-118.99
X148.33Y-126.61
X150.87Y-118.99
X150.87Y-126.61
X153.41Y-118.99
X153.41Y-126.61
X155.95Y-118.99
X155.95Y-126.61
T3
X95.96Y-76.37
X95.96Y-78.91
X95.96Y-81.45
X95.96Y-83.99
X95.96Y-86.53
X95.96Y-89.07
X95.96Y-91.61
X95.96Y-94.15
X95.96Y-96.69
X95.96Y-99.23
X95.96Y-101.77
X95.96Y-104.31
X95.96Y-106.85
X95.96Y-109.39
X95.96Y-111.93
X95.96Y-114.47
X95.96Y-117.01
X95.96Y-119.55
X95.96Y-122.09
X95.96Y-124.63
X96.0Y-69.6
X96.0Y-131.4
X98.5Y-76.37
X98.5Y-78.91
X98.5Y-81.45
X98.5Y-83.99
X98.5Y-86.53
X98.5Y-89.07
X98.5Y-91.61
X98.5Y-94.15
X98.5Y-96.69
X98.5Y-99.23
X98.5Y-101.77
X98.5Y-104.31
X98.5Y-106.85
X98.5Y-109.39
X98.5Y-111.93
X98.5Y-114.47
X98.5Y-117.01
X98.5Y-119.55
X98.5Y-122.09
X98.5Y-124.63
X106.525Y-91.0
X107.3Y-130.5
X107.3Y-133.04
X109.065Y-91.0
X109.84Y-130.5
X109.84Y-133.04
X111.605Y-91.0
X112.38Y-130.5
X112.38Y-133.04
X114.145Y-91.0
X114.92Y-130.5
X114.92Y-133.04
X116.685Y-91.0
X117.46Y-130.5
X117.46Y-133.04
X120.0Y-130.5
X120.0Y-133.04
X129.42Y-61.76
X129.42Y-64.3
X131.96Y-61.76
X131.96Y-64.3
X134.5Y-61.76
X134.5Y-64.3
X137.04Y-61.76
X137.04Y-64.3
X139.58Y-61.76
X139.58Y-64.3
X152.9Y-61.76
X152.9Y-64.3
X155.44Y-61.76
X155.44Y-64.3
X157.98Y-61.76
X157.98Y-64.3
X160.52Y-61.76
X160.52Y-64.3
X163.06Y-61.76
X163.06Y-64.3
X165.4Y-70.38
X165.4Y-72.92
X165.4Y-75.46
X165.4Y-78.0
X165.4Y-80.54
X170.42Y-76.37
X170.42Y-78.91
X170.42Y-81.45
X170.42Y-83.99
X170.42Y-86.53
X170.42Y-89.07
X170.42Y-91.61
X170.42Y-94.15
X170.42Y-96.69
X170.42Y-99.23
X170.42Y-101.77
X170.42Y-104.31
X170.42Y-106.85
X170.42Y-109.39
X170.42Y-111.93
X170.42Y-114.47
X170.42Y-117.01
X170.42Y-119.55
X170.42Y-122.09
X170.42Y-124.63
X172.96Y-76.37
X172.96Y-78.91
X172.96Y-81.45
X172.96Y-83.99
X172.96Y-86.53
X172.96Y-89.07
X172.96Y-91.61
X172.96Y-94.15
X172.96Y-96.69
X172.96Y-99.23
X172.96Y-101.77
X172.96Y-104.31
X172.96Y-106.85
X172.96Y-109.39
X172.96Y-111.93
X172.96Y-114.47
X172.96Y-117.01
X172.96Y-119.55
X172.96Y-122.09
X172.96Y-124.63
X173.0Y-69.6
X173.0Y-131.4
T4
X96.0Y-62.0
X96.0Y-139.0
X173.0Y-62.0
X173.0Y-139.0
T0
M30
