%TF.GenerationSoftware,KiCad,Pcbnew,(6.0.5)*%
%TF.CreationDate,2025-04-13T13:17:39+02:00*%
%TF.ProjectId,LandShark,4c616e64-5368-4617-926b-2e6b69636164,rev?*%
%TF.SameCoordinates,Original*%
%TF.FileFunction,Soldermask,Bot*%
%TF.FilePolarity,Negative*%
%FSLAX46Y46*%
G04 Gerber Fmt 4.6, Leading zero omitted, Abs format (unit mm)*
G04 Created by KiCad (PCBNEW (6.0.5)) date 2025-04-13 13:17:39*
%MOMM*%
%LPD*%
G01*
G04 APERTURE LIST*
G04 Aperture macros list*
%AMRoundRect*
0 Rectangle with rounded corners*
0 $1 Rounding radius*
0 $2 $3 $4 $5 $6 $7 $8 $9 X,Y pos of 4 corners*
0 Add a 4 corners polygon primitive as box body*
4,1,4,$2,$3,$4,$5,$6,$7,$8,$9,$2,$3,0*
0 Add four circle primitives for the rounded corners*
1,1,$1+$1,$2,$3*
1,1,$1+$1,$4,$5*
1,1,$1+$1,$6,$7*
1,1,$1+$1,$8,$9*
0 Add four rect primitives between the rounded corners*
20,1,$1+$1,$2,$3,$4,$5,0*
20,1,$1+$1,$4,$5,$6,$7,0*
20,1,$1+$1,$6,$7,$8,$9,0*
20,1,$1+$1,$8,$9,$2,$3,0*%
G04 Aperture macros list end*
%ADD10C,2.000000*%
%ADD11R,1.700000X1.700000*%
%ADD12O,1.700000X1.700000*%
%ADD13RoundRect,0.250000X0.600000X-0.600000X0.600000X0.600000X-0.600000X0.600000X-0.600000X-0.600000X0*%
%ADD14C,1.700000*%
%ADD15C,6.400000*%
%ADD16C,1.524000*%
%ADD17RoundRect,0.250000X-0.475000X0.250000X-0.475000X-0.250000X0.475000X-0.250000X0.475000X0.250000X0*%
%ADD18R,1.500000X1.500000*%
%ADD19RoundRect,0.250000X0.250000X0.475000X-0.250000X0.475000X-0.250000X-0.475000X0.250000X-0.475000X0*%
%ADD20RoundRect,0.250000X-0.250000X-0.475000X0.250000X-0.475000X0.250000X0.475000X-0.250000X0.475000X0*%
%ADD21RoundRect,0.250000X0.475000X-0.250000X0.475000X0.250000X-0.475000X0.250000X-0.475000X-0.250000X0*%
%ADD22RoundRect,0.218750X-0.381250X0.218750X-0.381250X-0.218750X0.381250X-0.218750X0.381250X0.218750X0*%
%ADD23RoundRect,0.250000X-0.262500X-0.450000X0.262500X-0.450000X0.262500X0.450000X-0.262500X0.450000X0*%
%ADD24RoundRect,0.250000X0.262500X0.450000X-0.262500X0.450000X-0.262500X-0.450000X0.262500X-0.450000X0*%
%ADD25RoundRect,0.218750X0.218750X0.381250X-0.218750X0.381250X-0.218750X-0.381250X0.218750X-0.381250X0*%
%ADD26RoundRect,0.218750X-0.218750X-0.381250X0.218750X-0.381250X0.218750X0.381250X-0.218750X0.381250X0*%
G04 APERTURE END LIST*
D10*
%TO.C,TP2*%
X173000000Y-69600000D03*
%TD*%
D11*
%TO.C,J2*%
X170420000Y-76370000D03*
D12*
X172960000Y-76370000D03*
X170420000Y-78910000D03*
X172960000Y-78910000D03*
X170420000Y-81450000D03*
X172960000Y-81450000D03*
X170420000Y-83990000D03*
X172960000Y-83990000D03*
X170420000Y-86530000D03*
X172960000Y-86530000D03*
X170420000Y-89070000D03*
X172960000Y-89070000D03*
X170420000Y-91610000D03*
X172960000Y-91610000D03*
X170420000Y-94150000D03*
X172960000Y-94150000D03*
X170420000Y-96690000D03*
X172960000Y-96690000D03*
X170420000Y-99230000D03*
X172960000Y-99230000D03*
X170420000Y-101770000D03*
X172960000Y-101770000D03*
X170420000Y-104310000D03*
X172960000Y-104310000D03*
X170420000Y-106850000D03*
X172960000Y-106850000D03*
X170420000Y-109390000D03*
X172960000Y-109390000D03*
X170420000Y-111930000D03*
X172960000Y-111930000D03*
X170420000Y-114470000D03*
X172960000Y-114470000D03*
X170420000Y-117010000D03*
X172960000Y-117010000D03*
X170420000Y-119550000D03*
X172960000Y-119550000D03*
X170420000Y-122090000D03*
X172960000Y-122090000D03*
X170420000Y-124630000D03*
X172960000Y-124630000D03*
%TD*%
D10*
%TO.C,TP3*%
X96000000Y-131400000D03*
%TD*%
D13*
%TO.C,J4*%
X129420000Y-64300000D03*
D14*
X129420000Y-61760000D03*
X131960000Y-64300000D03*
X131960000Y-61760000D03*
X134500000Y-64300000D03*
X134500000Y-61760000D03*
X137040000Y-64300000D03*
X137040000Y-61760000D03*
X139580000Y-64300000D03*
X139580000Y-61760000D03*
%TD*%
D10*
%TO.C,TP1*%
X96000000Y-69600000D03*
%TD*%
D15*
%TO.C,H3*%
X96000000Y-139000000D03*
%TD*%
%TO.C,H4*%
X173000000Y-139000000D03*
%TD*%
%TO.C,H2*%
X173000000Y-62000000D03*
%TD*%
D11*
%TO.C,J6*%
X106525000Y-91000000D03*
D12*
X109065000Y-91000000D03*
X111605000Y-91000000D03*
X114145000Y-91000000D03*
X116685000Y-91000000D03*
%TD*%
D11*
%TO.C,J1*%
X98500000Y-76370000D03*
D12*
X95960000Y-76370000D03*
X98500000Y-78910000D03*
X95960000Y-78910000D03*
X98500000Y-81450000D03*
X95960000Y-81450000D03*
X98500000Y-83990000D03*
X95960000Y-83990000D03*
X98500000Y-86530000D03*
X95960000Y-86530000D03*
X98500000Y-89070000D03*
X95960000Y-89070000D03*
X98500000Y-91610000D03*
X95960000Y-91610000D03*
X98500000Y-94150000D03*
X95960000Y-94150000D03*
X98500000Y-96690000D03*
X95960000Y-96690000D03*
X98500000Y-99230000D03*
X95960000Y-99230000D03*
X98500000Y-101770000D03*
X95960000Y-101770000D03*
X98500000Y-104310000D03*
X95960000Y-104310000D03*
X98500000Y-106850000D03*
X95960000Y-106850000D03*
X98500000Y-109390000D03*
X95960000Y-109390000D03*
X98500000Y-111930000D03*
X95960000Y-111930000D03*
X98500000Y-114470000D03*
X95960000Y-114470000D03*
X98500000Y-117010000D03*
X95960000Y-117010000D03*
X98500000Y-119550000D03*
X95960000Y-119550000D03*
X98500000Y-122090000D03*
X95960000Y-122090000D03*
X98500000Y-124630000D03*
X95960000Y-124630000D03*
%TD*%
D10*
%TO.C,TP4*%
X173000000Y-131400000D03*
%TD*%
D15*
%TO.C,H1*%
X96000000Y-62000000D03*
%TD*%
D11*
%TO.C,J5*%
X120000000Y-130500000D03*
D12*
X117460000Y-130500000D03*
X114920000Y-130500000D03*
X112380000Y-130500000D03*
X109840000Y-130500000D03*
X107300000Y-130500000D03*
X120000000Y-133040000D03*
X117460000Y-133040000D03*
X114920000Y-133040000D03*
X112380000Y-133040000D03*
X109840000Y-133040000D03*
X107300000Y-133040000D03*
%TD*%
D13*
%TO.C,J3*%
X152900000Y-64300000D03*
D14*
X152900000Y-61760000D03*
X155440000Y-64300000D03*
X155440000Y-61760000D03*
X157980000Y-64300000D03*
X157980000Y-61760000D03*
X160520000Y-64300000D03*
X160520000Y-61760000D03*
X163060000Y-64300000D03*
X163060000Y-61760000D03*
%TD*%
D16*
%TO.C,U4*%
X143250000Y-126610000D03*
X145790000Y-126610000D03*
X148330000Y-126610000D03*
X150870000Y-126610000D03*
X153410000Y-126610000D03*
X155950000Y-126610000D03*
X155950000Y-118990000D03*
X153410000Y-118990000D03*
X150870000Y-118990000D03*
X148330000Y-118990000D03*
X145790000Y-118990000D03*
X143250000Y-118990000D03*
%TD*%
D11*
%TO.C,J7*%
X165400000Y-70380000D03*
D12*
X165400000Y-72920000D03*
X165400000Y-75460000D03*
X165400000Y-78000000D03*
X165400000Y-80540000D03*
%TD*%
D17*
%TO.C,C30*%
X127600000Y-94250000D03*
X127600000Y-96150000D03*
%TD*%
D18*
%TO.C,TP10*%
X115200000Y-119600000D03*
%TD*%
%TO.C,TP5*%
X117800000Y-118200000D03*
%TD*%
D19*
%TO.C,C21*%
X137350000Y-103000000D03*
X135450000Y-103000000D03*
%TD*%
D20*
%TO.C,C34*%
X144050000Y-93600000D03*
X145950000Y-93600000D03*
%TD*%
D17*
%TO.C,C33*%
X123800000Y-108050000D03*
X123800000Y-109950000D03*
%TD*%
D19*
%TO.C,C29*%
X127750000Y-90000000D03*
X125850000Y-90000000D03*
%TD*%
D21*
%TO.C,C32*%
X123400000Y-95950000D03*
X123400000Y-94050000D03*
%TD*%
D22*
%TO.C,L4*%
X121800000Y-108137500D03*
X121800000Y-110262500D03*
%TD*%
D20*
%TO.C,C23*%
X131650000Y-103000000D03*
X133550000Y-103000000D03*
%TD*%
D19*
%TO.C,C39*%
X128150000Y-111200000D03*
X126250000Y-111200000D03*
%TD*%
%TO.C,C35*%
X136350000Y-100000000D03*
X134450000Y-100000000D03*
%TD*%
%TO.C,C24*%
X139150000Y-94200000D03*
X137250000Y-94200000D03*
%TD*%
%TO.C,C25*%
X139350000Y-111200000D03*
X137450000Y-111200000D03*
%TD*%
D18*
%TO.C,TP8*%
X117800000Y-115400000D03*
%TD*%
D21*
%TO.C,C27*%
X140400000Y-90550000D03*
X140400000Y-88650000D03*
%TD*%
D23*
%TO.C,R29*%
X106087500Y-105600000D03*
X107912500Y-105600000D03*
%TD*%
D20*
%TO.C,C38*%
X145050000Y-109600000D03*
X146950000Y-109600000D03*
%TD*%
D24*
%TO.C,R31*%
X107912500Y-107600000D03*
X106087500Y-107600000D03*
%TD*%
D20*
%TO.C,C20*%
X131650000Y-98000000D03*
X133550000Y-98000000D03*
%TD*%
%TO.C,C31*%
X144850000Y-106800000D03*
X146750000Y-106800000D03*
%TD*%
D18*
%TO.C,TP6*%
X117800000Y-112600000D03*
%TD*%
D19*
%TO.C,C22*%
X137350000Y-98000000D03*
X135450000Y-98000000D03*
%TD*%
D25*
%TO.C,L2*%
X124062500Y-92200000D03*
X121937500Y-92200000D03*
%TD*%
D17*
%TO.C,C37*%
X120200000Y-91050000D03*
X120200000Y-92950000D03*
%TD*%
D18*
%TO.C,TP7*%
X115200000Y-114000000D03*
%TD*%
%TO.C,TP9*%
X115200000Y-116800000D03*
%TD*%
D19*
%TO.C,C26*%
X137550000Y-105400000D03*
X135650000Y-105400000D03*
%TD*%
%TO.C,C36*%
X143950000Y-86800000D03*
X142050000Y-86800000D03*
%TD*%
D26*
%TO.C,L3*%
X140337500Y-108600000D03*
X142462500Y-108600000D03*
%TD*%
D24*
%TO.C,R27*%
X107912500Y-103600000D03*
X106087500Y-103600000D03*
%TD*%
D26*
%TO.C,L1*%
X142137500Y-89800000D03*
X144262500Y-89800000D03*
%TD*%
D19*
%TO.C,C28*%
X128550000Y-105400000D03*
X126650000Y-105400000D03*
%TD*%
M02*
