%TF.GenerationSoftware,KiCad,Pcbnew,(6.0.5)*%
%TF.CreationDate,2025-04-13T13:17:39+02:00*%
%TF.ProjectId,LandShark,4c616e64-5368-4617-926b-2e6b69636164,rev?*%
%TF.SameCoordinates,Original*%
%TF.FileFunction,Soldermask,Top*%
%TF.FilePolarity,Negative*%
%FSLAX46Y46*%
G04 Gerber Fmt 4.6, Leading zero omitted, Abs format (unit mm)*
G04 Created by KiCad (PCBNEW (6.0.5)) date 2025-04-13 13:17:39*
%MOMM*%
%LPD*%
G01*
G04 APERTURE LIST*
G04 Aperture macros list*
%AMRoundRect*
0 Rectangle with rounded corners*
0 $1 Rounding radius*
0 $2 $3 $4 $5 $6 $7 $8 $9 X,Y pos of 4 corners*
0 Add a 4 corners polygon primitive as box body*
4,1,4,$2,$3,$4,$5,$6,$7,$8,$9,$2,$3,0*
0 Add four circle primitives for the rounded corners*
1,1,$1+$1,$2,$3*
1,1,$1+$1,$4,$5*
1,1,$1+$1,$6,$7*
1,1,$1+$1,$8,$9*
0 Add four rect primitives between the rounded corners*
20,1,$1+$1,$2,$3,$4,$5,0*
20,1,$1+$1,$4,$5,$6,$7,0*
20,1,$1+$1,$6,$7,$8,$9,0*
20,1,$1+$1,$8,$9,$2,$3,0*%
G04 Aperture macros list end*
%ADD10C,2.000000*%
%ADD11RoundRect,0.250000X0.250000X0.475000X-0.250000X0.475000X-0.250000X-0.475000X0.250000X-0.475000X0*%
%ADD12R,1.700000X1.700000*%
%ADD13O,1.700000X1.700000*%
%ADD14RoundRect,0.250000X0.600000X-0.600000X0.600000X0.600000X-0.600000X0.600000X-0.600000X-0.600000X0*%
%ADD15C,1.700000*%
%ADD16RoundRect,0.250000X-0.325000X-0.650000X0.325000X-0.650000X0.325000X0.650000X-0.325000X0.650000X0*%
%ADD17RoundRect,0.250000X0.650000X-0.325000X0.650000X0.325000X-0.650000X0.325000X-0.650000X-0.325000X0*%
%ADD18RoundRect,0.250000X-0.450000X0.262500X-0.450000X-0.262500X0.450000X-0.262500X0.450000X0.262500X0*%
%ADD19RoundRect,0.250000X-0.262500X-0.450000X0.262500X-0.450000X0.262500X0.450000X-0.262500X0.450000X0*%
%ADD20RoundRect,0.250000X-0.250000X-0.475000X0.250000X-0.475000X0.250000X0.475000X-0.250000X0.475000X0*%
%ADD21RoundRect,0.150000X-0.150000X0.587500X-0.150000X-0.587500X0.150000X-0.587500X0.150000X0.587500X0*%
%ADD22R,1.400000X2.100000*%
%ADD23R,0.650000X0.400000*%
%ADD24RoundRect,0.250000X0.262500X0.450000X-0.262500X0.450000X-0.262500X-0.450000X0.262500X-0.450000X0*%
%ADD25C,6.400000*%
%ADD26R,1.000000X0.900000*%
%ADD27RoundRect,0.250000X0.450000X-0.262500X0.450000X0.262500X-0.450000X0.262500X-0.450000X-0.262500X0*%
%ADD28R,0.300000X1.475000*%
%ADD29R,1.475000X0.300000*%
%ADD30R,5.765000X6.760000*%
%ADD31RoundRect,0.250000X-0.650000X0.325000X-0.650000X-0.325000X0.650000X-0.325000X0.650000X0.325000X0*%
%ADD32R,2.200000X1.200000*%
%ADD33R,6.400000X5.800000*%
%ADD34RoundRect,0.250000X-0.475000X0.250000X-0.475000X-0.250000X0.475000X-0.250000X0.475000X0.250000X0*%
%ADD35RoundRect,0.250000X1.500000X0.550000X-1.500000X0.550000X-1.500000X-0.550000X1.500000X-0.550000X0*%
%ADD36RoundRect,0.250000X-1.500000X-0.550000X1.500000X-0.550000X1.500000X0.550000X-1.500000X0.550000X0*%
%ADD37RoundRect,0.150000X-0.587500X-0.150000X0.587500X-0.150000X0.587500X0.150000X-0.587500X0.150000X0*%
%ADD38C,1.524000*%
%ADD39R,2.000000X1.500000*%
%ADD40R,2.000000X3.800000*%
%ADD41R,1.500000X0.650000*%
G04 APERTURE END LIST*
D10*
%TO.C,TP2*%
X173000000Y-69600000D03*
%TD*%
D11*
%TO.C,C15*%
X111950000Y-109000000D03*
X110050000Y-109000000D03*
%TD*%
D12*
%TO.C,J2*%
X170420000Y-76370000D03*
D13*
X172960000Y-76370000D03*
X170420000Y-78910000D03*
X172960000Y-78910000D03*
X170420000Y-81450000D03*
X172960000Y-81450000D03*
X170420000Y-83990000D03*
X172960000Y-83990000D03*
X170420000Y-86530000D03*
X172960000Y-86530000D03*
X170420000Y-89070000D03*
X172960000Y-89070000D03*
X170420000Y-91610000D03*
X172960000Y-91610000D03*
X170420000Y-94150000D03*
X172960000Y-94150000D03*
X170420000Y-96690000D03*
X172960000Y-96690000D03*
X170420000Y-99230000D03*
X172960000Y-99230000D03*
X170420000Y-101770000D03*
X172960000Y-101770000D03*
X170420000Y-104310000D03*
X172960000Y-104310000D03*
X170420000Y-106850000D03*
X172960000Y-106850000D03*
X170420000Y-109390000D03*
X172960000Y-109390000D03*
X170420000Y-111930000D03*
X172960000Y-111930000D03*
X170420000Y-114470000D03*
X172960000Y-114470000D03*
X170420000Y-117010000D03*
X172960000Y-117010000D03*
X170420000Y-119550000D03*
X172960000Y-119550000D03*
X170420000Y-122090000D03*
X172960000Y-122090000D03*
X170420000Y-124630000D03*
X172960000Y-124630000D03*
%TD*%
D10*
%TO.C,TP3*%
X96000000Y-131400000D03*
%TD*%
D14*
%TO.C,J4*%
X129420000Y-64300000D03*
D15*
X129420000Y-61760000D03*
X131960000Y-64300000D03*
X131960000Y-61760000D03*
X134500000Y-64300000D03*
X134500000Y-61760000D03*
X137040000Y-64300000D03*
X137040000Y-61760000D03*
X139580000Y-64300000D03*
X139580000Y-61760000D03*
%TD*%
D16*
%TO.C,C8*%
X107125000Y-87200000D03*
X110075000Y-87200000D03*
%TD*%
D17*
%TO.C,C4*%
X105400000Y-73475000D03*
X105400000Y-70525000D03*
%TD*%
D18*
%TO.C,R13*%
X130600000Y-76487500D03*
X130600000Y-78312500D03*
%TD*%
D19*
%TO.C,R32*%
X168287500Y-69000000D03*
X170112500Y-69000000D03*
%TD*%
%TO.C,R24*%
X153487500Y-112600000D03*
X155312500Y-112600000D03*
%TD*%
D20*
%TO.C,C40*%
X157850000Y-100000000D03*
X159750000Y-100000000D03*
%TD*%
%TO.C,C44*%
X107650000Y-127400000D03*
X109550000Y-127400000D03*
%TD*%
D21*
%TO.C,Q1*%
X158950000Y-114662500D03*
X157050000Y-114662500D03*
X158000000Y-116537500D03*
%TD*%
D22*
%TO.C,S4*%
X164250000Y-131050000D03*
X164250000Y-140150000D03*
X159750000Y-131050000D03*
X159750000Y-140150000D03*
%TD*%
D23*
%TO.C,U10*%
X158850000Y-89550000D03*
X158850000Y-90200000D03*
X158850000Y-90850000D03*
X160750000Y-90850000D03*
X160750000Y-89550000D03*
%TD*%
D24*
%TO.C,R30*%
X170112500Y-73000000D03*
X168287500Y-73000000D03*
%TD*%
D11*
%TO.C,C14*%
X107950000Y-113000000D03*
X106050000Y-113000000D03*
%TD*%
D19*
%TO.C,R4*%
X128687500Y-135600000D03*
X130512500Y-135600000D03*
%TD*%
D10*
%TO.C,TP1*%
X96000000Y-69600000D03*
%TD*%
D25*
%TO.C,H3*%
X96000000Y-139000000D03*
%TD*%
D19*
%TO.C,R25*%
X149887500Y-112600000D03*
X151712500Y-112600000D03*
%TD*%
D11*
%TO.C,C6*%
X122350000Y-77400000D03*
X120450000Y-77400000D03*
%TD*%
D26*
%TO.C,X1*%
X156075000Y-98625000D03*
X153925000Y-98625000D03*
X153925000Y-100175000D03*
X156075000Y-100175000D03*
%TD*%
D23*
%TO.C,U7*%
X113450000Y-106750000D03*
X113450000Y-107400000D03*
X113450000Y-108050000D03*
X115350000Y-108050000D03*
X115350000Y-106750000D03*
%TD*%
D22*
%TO.C,S3*%
X155650000Y-131050000D03*
X155650000Y-140150000D03*
X151150000Y-131050000D03*
X151150000Y-140150000D03*
%TD*%
D23*
%TO.C,U5*%
X105450000Y-114750000D03*
X105450000Y-115400000D03*
X105450000Y-116050000D03*
X107350000Y-116050000D03*
X107350000Y-114750000D03*
%TD*%
D22*
%TO.C,S1*%
X138450000Y-131050000D03*
X138450000Y-140150000D03*
X133950000Y-131050000D03*
X133950000Y-140150000D03*
%TD*%
D20*
%TO.C,C13*%
X157050000Y-74600000D03*
X158950000Y-74600000D03*
%TD*%
D19*
%TO.C,R19*%
X129687500Y-126600000D03*
X131512500Y-126600000D03*
%TD*%
D27*
%TO.C,R12*%
X129400000Y-71712500D03*
X129400000Y-69887500D03*
%TD*%
D21*
%TO.C,Q3*%
X151750000Y-114662500D03*
X149850000Y-114662500D03*
X150800000Y-116537500D03*
%TD*%
D19*
%TO.C,R22*%
X129687500Y-124200000D03*
X131512500Y-124200000D03*
%TD*%
D25*
%TO.C,H4*%
X173000000Y-139000000D03*
%TD*%
D22*
%TO.C,S2*%
X147050000Y-131050000D03*
X147050000Y-140150000D03*
X142550000Y-131050000D03*
X142550000Y-140150000D03*
%TD*%
D18*
%TO.C,R11*%
X138600000Y-69887500D03*
X138600000Y-71712500D03*
%TD*%
D11*
%TO.C,C18*%
X155950000Y-87800000D03*
X154050000Y-87800000D03*
%TD*%
D25*
%TO.C,H2*%
X173000000Y-62000000D03*
%TD*%
D19*
%TO.C,R5*%
X125087500Y-136800000D03*
X126912500Y-136800000D03*
%TD*%
%TO.C,R9*%
X146887500Y-69800000D03*
X148712500Y-69800000D03*
%TD*%
%TO.C,R21*%
X129687500Y-121800000D03*
X131512500Y-121800000D03*
%TD*%
%TO.C,R28*%
X168287500Y-71000000D03*
X170112500Y-71000000D03*
%TD*%
%TO.C,R3*%
X125087500Y-134400000D03*
X126912500Y-134400000D03*
%TD*%
D12*
%TO.C,J6*%
X106525000Y-91000000D03*
D13*
X109065000Y-91000000D03*
X111605000Y-91000000D03*
X114145000Y-91000000D03*
X116685000Y-91000000D03*
%TD*%
D12*
%TO.C,J1*%
X98500000Y-76370000D03*
D13*
X95960000Y-76370000D03*
X98500000Y-78910000D03*
X95960000Y-78910000D03*
X98500000Y-81450000D03*
X95960000Y-81450000D03*
X98500000Y-83990000D03*
X95960000Y-83990000D03*
X98500000Y-86530000D03*
X95960000Y-86530000D03*
X98500000Y-89070000D03*
X95960000Y-89070000D03*
X98500000Y-91610000D03*
X95960000Y-91610000D03*
X98500000Y-94150000D03*
X95960000Y-94150000D03*
X98500000Y-96690000D03*
X95960000Y-96690000D03*
X98500000Y-99230000D03*
X95960000Y-99230000D03*
X98500000Y-101770000D03*
X95960000Y-101770000D03*
X98500000Y-104310000D03*
X95960000Y-104310000D03*
X98500000Y-106850000D03*
X95960000Y-106850000D03*
X98500000Y-109390000D03*
X95960000Y-109390000D03*
X98500000Y-111930000D03*
X95960000Y-111930000D03*
X98500000Y-114470000D03*
X95960000Y-114470000D03*
X98500000Y-117010000D03*
X95960000Y-117010000D03*
X98500000Y-119550000D03*
X95960000Y-119550000D03*
X98500000Y-122090000D03*
X95960000Y-122090000D03*
X98500000Y-124630000D03*
X95960000Y-124630000D03*
%TD*%
D28*
%TO.C,IC1*%
X143250000Y-89762000D03*
X142750000Y-89762000D03*
X142250000Y-89762000D03*
X141750000Y-89762000D03*
X141250000Y-89762000D03*
X140750000Y-89762000D03*
X140250000Y-89762000D03*
X139750000Y-89762000D03*
X139250000Y-89762000D03*
X138750000Y-89762000D03*
X138250000Y-89762000D03*
X137750000Y-89762000D03*
X137250000Y-89762000D03*
X136750000Y-89762000D03*
X136250000Y-89762000D03*
X135750000Y-89762000D03*
X135250000Y-89762000D03*
X134750000Y-89762000D03*
X134250000Y-89762000D03*
X133750000Y-89762000D03*
X133250000Y-89762000D03*
X132750000Y-89762000D03*
X132250000Y-89762000D03*
X131750000Y-89762000D03*
X131250000Y-89762000D03*
X130750000Y-89762000D03*
X130250000Y-89762000D03*
X129750000Y-89762000D03*
X129250000Y-89762000D03*
X128750000Y-89762000D03*
X128250000Y-89762000D03*
X127750000Y-89762000D03*
X127250000Y-89762000D03*
X126750000Y-89762000D03*
X126250000Y-89762000D03*
X125750000Y-89762000D03*
D29*
X123762000Y-91750000D03*
X123762000Y-92250000D03*
X123762000Y-92750000D03*
X123762000Y-93250000D03*
X123762000Y-93750000D03*
X123762000Y-94250000D03*
X123762000Y-94750000D03*
X123762000Y-95250000D03*
X123762000Y-95750000D03*
X123762000Y-96250000D03*
X123762000Y-96750000D03*
X123762000Y-97250000D03*
X123762000Y-97750000D03*
X123762000Y-98250000D03*
X123762000Y-98750000D03*
X123762000Y-99250000D03*
X123762000Y-99750000D03*
X123762000Y-100250000D03*
X123762000Y-100750000D03*
X123762000Y-101250000D03*
X123762000Y-101750000D03*
X123762000Y-102250000D03*
X123762000Y-102750000D03*
X123762000Y-103250000D03*
X123762000Y-103750000D03*
X123762000Y-104250000D03*
X123762000Y-104750000D03*
X123762000Y-105250000D03*
X123762000Y-105750000D03*
X123762000Y-106250000D03*
X123762000Y-106750000D03*
X123762000Y-107250000D03*
X123762000Y-107750000D03*
X123762000Y-108250000D03*
X123762000Y-108750000D03*
X123762000Y-109250000D03*
D28*
X125750000Y-111238000D03*
X126250000Y-111238000D03*
X126750000Y-111238000D03*
X127250000Y-111238000D03*
X127750000Y-111238000D03*
X128250000Y-111238000D03*
X128750000Y-111238000D03*
X129250000Y-111238000D03*
X129750000Y-111238000D03*
X130250000Y-111238000D03*
X130750000Y-111238000D03*
X131250000Y-111238000D03*
X131750000Y-111238000D03*
X132250000Y-111238000D03*
X132750000Y-111238000D03*
X133250000Y-111238000D03*
X133750000Y-111238000D03*
X134250000Y-111238000D03*
X134750000Y-111238000D03*
X135250000Y-111238000D03*
X135750000Y-111238000D03*
X136250000Y-111238000D03*
X136750000Y-111238000D03*
X137250000Y-111238000D03*
X137750000Y-111238000D03*
X138250000Y-111238000D03*
X138750000Y-111238000D03*
X139250000Y-111238000D03*
X139750000Y-111238000D03*
X140250000Y-111238000D03*
X140750000Y-111238000D03*
X141250000Y-111238000D03*
X141750000Y-111238000D03*
X142250000Y-111238000D03*
X142750000Y-111238000D03*
X143250000Y-111238000D03*
D29*
X145238000Y-109250000D03*
X145238000Y-108750000D03*
X145238000Y-108250000D03*
X145238000Y-107750000D03*
X145238000Y-107250000D03*
X145238000Y-106750000D03*
X145238000Y-106250000D03*
X145238000Y-105750000D03*
X145238000Y-105250000D03*
X145238000Y-104750000D03*
X145238000Y-104250000D03*
X145238000Y-103750000D03*
X145238000Y-103250000D03*
X145238000Y-102750000D03*
X145238000Y-102250000D03*
X145238000Y-101750000D03*
X145238000Y-101250000D03*
X145238000Y-100750000D03*
X145238000Y-100250000D03*
X145238000Y-99750000D03*
X145238000Y-99250000D03*
X145238000Y-98750000D03*
X145238000Y-98250000D03*
X145238000Y-97750000D03*
X145238000Y-97250000D03*
X145238000Y-96750000D03*
X145238000Y-96250000D03*
X145238000Y-95750000D03*
X145238000Y-95250000D03*
X145238000Y-94750000D03*
X145238000Y-94250000D03*
X145238000Y-93750000D03*
X145238000Y-93250000D03*
X145238000Y-92750000D03*
X145238000Y-92250000D03*
X145238000Y-91750000D03*
D30*
X134500000Y-100500000D03*
%TD*%
D27*
%TO.C,R8*%
X159400000Y-71712500D03*
X159400000Y-69887500D03*
%TD*%
D31*
%TO.C,C10*%
X120400000Y-69325000D03*
X120400000Y-72275000D03*
%TD*%
D32*
%TO.C,U1*%
X108800000Y-69720000D03*
D33*
X115100000Y-72000000D03*
D32*
X108800000Y-72000000D03*
X108800000Y-74280000D03*
%TD*%
D24*
%TO.C,R33*%
X106112500Y-122200000D03*
X104287500Y-122200000D03*
%TD*%
D23*
%TO.C,U9*%
X154050000Y-89550000D03*
X154050000Y-90200000D03*
X154050000Y-90850000D03*
X155950000Y-90850000D03*
X155950000Y-89550000D03*
%TD*%
D18*
%TO.C,R10*%
X141200000Y-69887500D03*
X141200000Y-71712500D03*
%TD*%
D10*
%TO.C,TP4*%
X173000000Y-131400000D03*
%TD*%
D34*
%TO.C,C1*%
X161600000Y-69850000D03*
X161600000Y-71750000D03*
%TD*%
D35*
%TO.C,C7*%
X120200000Y-64400000D03*
X114600000Y-64400000D03*
%TD*%
D23*
%TO.C,U6*%
X109450000Y-110750000D03*
X109450000Y-111400000D03*
X109450000Y-112050000D03*
X111350000Y-112050000D03*
X111350000Y-110750000D03*
%TD*%
D34*
%TO.C,C41*%
X103000000Y-124050000D03*
X103000000Y-125950000D03*
%TD*%
D19*
%TO.C,R2*%
X128687500Y-133200000D03*
X130512500Y-133200000D03*
%TD*%
%TO.C,R18*%
X126087500Y-125400000D03*
X127912500Y-125400000D03*
%TD*%
%TO.C,R26*%
X142287500Y-114600000D03*
X144112500Y-114600000D03*
%TD*%
D25*
%TO.C,H1*%
X96000000Y-62000000D03*
%TD*%
D19*
%TO.C,R23*%
X157087500Y-112600000D03*
X158912500Y-112600000D03*
%TD*%
D12*
%TO.C,J5*%
X120000000Y-130500000D03*
D13*
X117460000Y-130500000D03*
X114920000Y-130500000D03*
X112380000Y-130500000D03*
X109840000Y-130500000D03*
X107300000Y-130500000D03*
X120000000Y-133040000D03*
X117460000Y-133040000D03*
X114920000Y-133040000D03*
X112380000Y-133040000D03*
X109840000Y-133040000D03*
X107300000Y-133040000D03*
%TD*%
D36*
%TO.C,C3*%
X103600000Y-64400000D03*
X109200000Y-64400000D03*
%TD*%
D19*
%TO.C,R1*%
X150687500Y-74600000D03*
X152512500Y-74600000D03*
%TD*%
D11*
%TO.C,C5*%
X110150000Y-77400000D03*
X108250000Y-77400000D03*
%TD*%
D14*
%TO.C,J3*%
X152900000Y-64300000D03*
D15*
X152900000Y-61760000D03*
X155440000Y-64300000D03*
X155440000Y-61760000D03*
X157980000Y-64300000D03*
X157980000Y-61760000D03*
X160520000Y-64300000D03*
X160520000Y-61760000D03*
X163060000Y-64300000D03*
X163060000Y-61760000D03*
%TD*%
D19*
%TO.C,R20*%
X129687500Y-119400000D03*
X131512500Y-119400000D03*
%TD*%
D37*
%TO.C,Q4*%
X146062500Y-114650000D03*
X146062500Y-116550000D03*
X147937500Y-115600000D03*
%TD*%
D11*
%TO.C,C17*%
X151150000Y-87800000D03*
X149250000Y-87800000D03*
%TD*%
%TO.C,C19*%
X160750000Y-87800000D03*
X158850000Y-87800000D03*
%TD*%
D24*
%TO.C,R7*%
X153312500Y-69800000D03*
X151487500Y-69800000D03*
%TD*%
D34*
%TO.C,C12*%
X124800000Y-82450000D03*
X124800000Y-84350000D03*
%TD*%
%TO.C,C11*%
X112600000Y-82450000D03*
X112600000Y-84350000D03*
%TD*%
D19*
%TO.C,R16*%
X126087500Y-120600000D03*
X127912500Y-120600000D03*
%TD*%
D26*
%TO.C,X2*%
X104925000Y-125575000D03*
X107075000Y-125575000D03*
X107075000Y-124025000D03*
X104925000Y-124025000D03*
%TD*%
D38*
%TO.C,U4*%
X143250000Y-126610000D03*
X145790000Y-126610000D03*
X148330000Y-126610000D03*
X150870000Y-126610000D03*
X153410000Y-126610000D03*
X155950000Y-126610000D03*
X155950000Y-118990000D03*
X153410000Y-118990000D03*
X150870000Y-118990000D03*
X148330000Y-118990000D03*
X145790000Y-118990000D03*
X143250000Y-118990000D03*
%TD*%
D39*
%TO.C,U3*%
X122350000Y-84500000D03*
X122350000Y-82200000D03*
D40*
X116050000Y-82200000D03*
D39*
X122350000Y-79900000D03*
%TD*%
D21*
%TO.C,Q2*%
X155350000Y-114662500D03*
X153450000Y-114662500D03*
X154400000Y-116537500D03*
%TD*%
D16*
%TO.C,C9*%
X119325000Y-87200000D03*
X122275000Y-87200000D03*
%TD*%
D20*
%TO.C,C42*%
X171850000Y-73000000D03*
X173750000Y-73000000D03*
%TD*%
D19*
%TO.C,R17*%
X126087500Y-123000000D03*
X127912500Y-123000000D03*
%TD*%
D23*
%TO.C,U8*%
X149250000Y-89550000D03*
X149250000Y-90200000D03*
X149250000Y-90850000D03*
X151150000Y-90850000D03*
X151150000Y-89550000D03*
%TD*%
D18*
%TO.C,R15*%
X140200000Y-114887500D03*
X140200000Y-116712500D03*
%TD*%
D41*
%TO.C,IC2*%
X151500000Y-76495000D03*
X151500000Y-77765000D03*
X151500000Y-79035000D03*
X151500000Y-80305000D03*
X156900000Y-80305000D03*
X156900000Y-79035000D03*
X156900000Y-77765000D03*
X156900000Y-76495000D03*
%TD*%
D39*
%TO.C,U2*%
X110150000Y-84500000D03*
X110150000Y-82200000D03*
D40*
X103850000Y-82200000D03*
D39*
X110150000Y-79900000D03*
%TD*%
D11*
%TO.C,C16*%
X115950000Y-105000000D03*
X114050000Y-105000000D03*
%TD*%
D18*
%TO.C,R14*%
X128600000Y-76487500D03*
X128600000Y-78312500D03*
%TD*%
D12*
%TO.C,J7*%
X165400000Y-70380000D03*
D13*
X165400000Y-72920000D03*
X165400000Y-75460000D03*
X165400000Y-78000000D03*
X165400000Y-80540000D03*
%TD*%
D24*
%TO.C,R6*%
X143712500Y-83800000D03*
X141887500Y-83800000D03*
%TD*%
D34*
%TO.C,C2*%
X132000000Y-69850000D03*
X132000000Y-71750000D03*
%TD*%
M02*
