%FSLAX45Y45*%
G04 Gerber Fmt 4.5, Leading zero omitted, Abs format (unit mm)*
G04 Created by KiCad (PCBNEW (6.0.5)) date 2025-04-13 13:18:47*
%MOMM*%
%LPD*%
G01*
G04 APERTURE LIST*
%TA.AperFunction,Profile*%
%ADD10C,0.100000*%
%TD*%
%ADD11C,0.200000*%
G04 APERTURE END LIST*
D10*
X9200000Y-13900000D02*
X9200000Y-6200000D01*
X17300000Y-14300000D02*
G75*
G03*
X17700000Y-13900000I0J400000D01*
G01*
X9600000Y-5800000D02*
X17300000Y-5800000D01*
X17700000Y-6200000D02*
X17700000Y-13900000D01*
X17700000Y-6200000D02*
G75*
G03*
X17300000Y-5800000I-400000J0D01*
G01*
X9600000Y-5800000D02*
G75*
G03*
X9200000Y-6200000I0J-400000D01*
G01*
X17300000Y-14300000D02*
X9600000Y-14300000D01*
X9200000Y-13900000D02*
G75*
G03*
X9600000Y-14300000I400000J0D01*
G01*
D11*
X9452619Y-14615476D02*
X9452619Y-14415476D01*
X9500238Y-14415476D01*
X9528810Y-14425000D01*
X9547857Y-14444048D01*
X9557381Y-14463095D01*
X9566905Y-14501190D01*
X9566905Y-14529762D01*
X9557381Y-14567857D01*
X9547857Y-14586905D01*
X9528810Y-14605952D01*
X9500238Y-14615476D01*
X9452619Y-14615476D01*
X9652619Y-14615476D02*
X9652619Y-14482143D01*
X9652619Y-14520238D02*
X9662143Y-14501190D01*
X9671667Y-14491667D01*
X9690714Y-14482143D01*
X9709762Y-14482143D01*
X9776429Y-14615476D02*
X9776429Y-14482143D01*
X9776429Y-14415476D02*
X9766905Y-14425000D01*
X9776429Y-14434524D01*
X9785952Y-14425000D01*
X9776429Y-14415476D01*
X9776429Y-14434524D01*
X9900238Y-14615476D02*
X9881190Y-14605952D01*
X9871667Y-14586905D01*
X9871667Y-14415476D01*
X10005000Y-14615476D02*
X9985952Y-14605952D01*
X9976429Y-14586905D01*
X9976429Y-14415476D01*
X10233571Y-14615476D02*
X10233571Y-14415476D01*
X10300238Y-14558333D01*
X10366905Y-14415476D01*
X10366905Y-14615476D01*
X10547857Y-14615476D02*
X10547857Y-14510714D01*
X10538333Y-14491667D01*
X10519286Y-14482143D01*
X10481190Y-14482143D01*
X10462143Y-14491667D01*
X10547857Y-14605952D02*
X10528810Y-14615476D01*
X10481190Y-14615476D01*
X10462143Y-14605952D01*
X10452619Y-14586905D01*
X10452619Y-14567857D01*
X10462143Y-14548809D01*
X10481190Y-14539286D01*
X10528810Y-14539286D01*
X10547857Y-14529762D01*
X10643095Y-14482143D02*
X10643095Y-14682143D01*
X10643095Y-14491667D02*
X10662143Y-14482143D01*
X10700238Y-14482143D01*
X10719286Y-14491667D01*
X10728810Y-14501190D01*
X10738333Y-14520238D01*
X10738333Y-14577381D01*
X10728810Y-14596428D01*
X10719286Y-14605952D01*
X10700238Y-14615476D01*
X10662143Y-14615476D01*
X10643095Y-14605952D01*
X10824048Y-14596428D02*
X10833571Y-14605952D01*
X10824048Y-14615476D01*
X10814524Y-14605952D01*
X10824048Y-14596428D01*
X10824048Y-14615476D01*
X10824048Y-14491667D02*
X10833571Y-14501190D01*
X10824048Y-14510714D01*
X10814524Y-14501190D01*
X10824048Y-14491667D01*
X10824048Y-14510714D01*
M02*
