%TF.GenerationSoftware,KiCad,Pcbnew,(6.0.5)*%
%TF.CreationDate,2025-06-10T19:53:23+02:00*%
%TF.ProjectId,LandShark_ADC_Bridge,4c616e64-5368-4617-926b-5f4144435f42,rev?*%
%TF.SameCoordinates,Original*%
%TF.FileFunction,Copper,L3,Inr*%
%TF.FilePolarity,Positive*%
%FSLAX46Y46*%
G04 Gerber Fmt 4.6, Leading zero omitted, Abs format (unit mm)*
G04 Created by KiCad (PCBNEW (6.0.5)) date 2025-06-10 19:53:23*
%MOMM*%
%LPD*%
G01*
G04 APERTURE LIST*
%TA.AperFunction,ComponentPad*%
%ADD10R,1.000000X1.000000*%
%TD*%
%TA.AperFunction,ComponentPad*%
%ADD11O,1.000000X1.000000*%
%TD*%
%TA.AperFunction,ComponentPad*%
%ADD12R,1.700000X1.700000*%
%TD*%
%TA.AperFunction,ComponentPad*%
%ADD13O,1.700000X1.700000*%
%TD*%
%TA.AperFunction,ViaPad*%
%ADD14C,0.760000*%
%TD*%
%TA.AperFunction,Conductor*%
%ADD15C,0.400000*%
%TD*%
%TA.AperFunction,Conductor*%
%ADD16C,1.400000*%
%TD*%
G04 APERTURE END LIST*
D10*
%TO.N,+2V5*%
%TO.C,J3*%
X145800000Y-102400000D03*
D11*
%TO.N,VDDA*%
X144530000Y-102400000D03*
%TO.N,+3V3*%
X143260000Y-102400000D03*
%TD*%
D12*
%TO.N,/VM*%
%TO.C,J2*%
X163725000Y-126175000D03*
D13*
%TO.N,GND*%
X166265000Y-126175000D03*
X163725000Y-123635000D03*
%TO.N,unconnected-(J2-Pad4)*%
X166265000Y-123635000D03*
%TO.N,+5V*%
X163725000Y-121095000D03*
%TO.N,unconnected-(J2-Pad6)*%
X166265000Y-121095000D03*
%TO.N,/I2C2_SCL*%
X163725000Y-118555000D03*
%TO.N,unconnected-(J2-Pad8)*%
X166265000Y-118555000D03*
%TO.N,/ADC8*%
X163725000Y-116015000D03*
%TO.N,unconnected-(J2-Pad10)*%
X166265000Y-116015000D03*
%TO.N,/ADC9*%
X163725000Y-113475000D03*
%TO.N,/I_Y2_SENSE*%
X166265000Y-113475000D03*
%TO.N,unconnected-(J2-Pad13)*%
X163725000Y-110935000D03*
%TO.N,/I_X1_SENSE*%
X166265000Y-110935000D03*
%TO.N,/I_X2_SENSE*%
X163725000Y-108395000D03*
%TO.N,/I_Y1_SENSE*%
X166265000Y-108395000D03*
%TO.N,/Y2_H*%
X163725000Y-105855000D03*
%TO.N,/Y2_L*%
X166265000Y-105855000D03*
%TO.N,/Y1_H*%
X163725000Y-103315000D03*
%TO.N,/Y1_L*%
X166265000Y-103315000D03*
%TO.N,/X2_H*%
X163725000Y-100775000D03*
%TO.N,/X2_L*%
X166265000Y-100775000D03*
%TO.N,/X1_H*%
X163725000Y-98235000D03*
%TO.N,/SPI2_NCS*%
X166265000Y-98235000D03*
%TO.N,unconnected-(J2-Pad25)*%
X163725000Y-95695000D03*
%TO.N,/X1_L*%
X166265000Y-95695000D03*
%TO.N,/SPI2_SCK*%
X163725000Y-93155000D03*
%TO.N,/SPI2_MISO*%
X166265000Y-93155000D03*
%TO.N,/SPI2_MOSI*%
X163725000Y-90615000D03*
%TO.N,/I_Y2*%
X166265000Y-90615000D03*
%TO.N,/I_Y1*%
X163725000Y-88075000D03*
%TO.N,/I_X2*%
X166265000Y-88075000D03*
%TO.N,/I_X1*%
X163725000Y-85535000D03*
%TO.N,unconnected-(J2-Pad34)*%
X166265000Y-85535000D03*
%TO.N,unconnected-(J2-Pad35)*%
X163725000Y-82995000D03*
%TO.N,unconnected-(J2-Pad36)*%
X166265000Y-82995000D03*
%TO.N,unconnected-(J2-Pad37)*%
X163725000Y-80455000D03*
%TO.N,/I_Y2*%
X166265000Y-80455000D03*
%TO.N,unconnected-(J2-Pad39)*%
X163725000Y-77915000D03*
%TO.N,/I2C2_SDA*%
X166265000Y-77915000D03*
%TO.N,unconnected-(J2-Pad41)*%
X163725000Y-75375000D03*
%TO.N,+5V*%
X166265000Y-75375000D03*
%TO.N,GND*%
X163725000Y-72835000D03*
X166265000Y-72835000D03*
%TD*%
D12*
%TO.N,GND*%
%TO.C,J1*%
X135730000Y-75370000D03*
D13*
X138270000Y-75370000D03*
%TO.N,+5V*%
X135730000Y-77910000D03*
X138270000Y-77910000D03*
%TO.N,/X1_H*%
X135730000Y-80450000D03*
%TO.N,/X1_L*%
X138270000Y-80450000D03*
%TO.N,/X2_H*%
X135730000Y-82990000D03*
%TO.N,/X2_L*%
X138270000Y-82990000D03*
%TO.N,/Y1_H*%
X135730000Y-85530000D03*
%TO.N,/Y1_L*%
X138270000Y-85530000D03*
%TO.N,/Y2_H*%
X135730000Y-88070000D03*
%TO.N,/Y2_L*%
X138270000Y-88070000D03*
%TO.N,/SPI2_MOSI*%
X135730000Y-90610000D03*
%TO.N,/SPI2_MISO*%
X138270000Y-90610000D03*
%TO.N,/SPI2_SCK*%
X135730000Y-93150000D03*
%TO.N,/SPI2_NCS*%
X138270000Y-93150000D03*
%TO.N,/I2C2_SDA*%
X135730000Y-95690000D03*
%TO.N,/I2C2_SCL*%
X138270000Y-95690000D03*
%TO.N,GND*%
X135730000Y-98230000D03*
X138270000Y-98230000D03*
%TO.N,/I_X1*%
X135730000Y-100770000D03*
%TO.N,/I_X2*%
X138270000Y-100770000D03*
%TO.N,/I_Y1*%
X135730000Y-103310000D03*
%TO.N,/I_Y2*%
X138270000Y-103310000D03*
%TO.N,/V_X1*%
X135730000Y-105850000D03*
%TO.N,/V_X2*%
X138270000Y-105850000D03*
%TO.N,/V_Y1*%
X135730000Y-108390000D03*
%TO.N,/V_Y2*%
X138270000Y-108390000D03*
%TO.N,/ADC8*%
X135730000Y-110930000D03*
%TO.N,/ADC9*%
X138270000Y-110930000D03*
%TO.N,/PS_GPIO0*%
X135730000Y-113470000D03*
%TO.N,/PS_GPIO1*%
X138270000Y-113470000D03*
%TO.N,/PS_GPIO2*%
X135730000Y-116010000D03*
%TO.N,/PS_GPIO3*%
X138270000Y-116010000D03*
%TO.N,/PS_GPIO4*%
X135730000Y-118550000D03*
%TO.N,/PS_GPIO5*%
X138270000Y-118550000D03*
%TO.N,GND*%
X135730000Y-121090000D03*
X138270000Y-121090000D03*
%TO.N,/VM*%
X135730000Y-123630000D03*
X138270000Y-123630000D03*
%TD*%
D14*
%TO.N,GND*%
X156400000Y-113400000D03*
X156400000Y-118300000D03*
X152200000Y-123600000D03*
X149750000Y-77300000D03*
X146250000Y-74250000D03*
X146250000Y-83750000D03*
X141650000Y-101100000D03*
X151350000Y-83750000D03*
X152200000Y-118700000D03*
X152200000Y-108900000D03*
X156400000Y-109450000D03*
X151850000Y-105850000D03*
X147450000Y-101100000D03*
X156400000Y-123200000D03*
X152200000Y-113800000D03*
X144650000Y-77300000D03*
%TO.N,/I_X1*%
X155700000Y-95600000D03*
%TO.N,/I_X2*%
X157300000Y-95600000D03*
%TO.N,/I_Y1*%
X158900000Y-95600000D03*
%TO.N,/I_Y2*%
X160550000Y-95600000D03*
%TO.N,/V_Y1*%
X145500000Y-108550000D03*
X145500000Y-113400000D03*
%TO.N,/PS_GPIO3*%
X145500000Y-123300000D03*
X145500000Y-118300000D03*
%TO.N,+3V3*%
X148050000Y-85200000D03*
X143550000Y-98550000D03*
%TO.N,+2V5*%
X153250000Y-85200000D03*
X145550000Y-98550000D03*
%TO.N,VDDA*%
X153500000Y-118600000D03*
X153500000Y-123500000D03*
X153500000Y-113700000D03*
X153500000Y-108800000D03*
X147400000Y-103700000D03*
%TO.N,VDD*%
X148650000Y-110150000D03*
X148650000Y-115050000D03*
X148650000Y-119950000D03*
X150550000Y-123750000D03*
X147450000Y-105700000D03*
%TD*%
D15*
%TO.N,+5V*%
X164974511Y-122344511D02*
X166805489Y-122344511D01*
D16*
X168100000Y-72050000D02*
X168100000Y-73540000D01*
D15*
X167600000Y-121550000D02*
X167600000Y-119800000D01*
X167554511Y-119845489D02*
X167600000Y-119800000D01*
D16*
X168100000Y-73540000D02*
X166265000Y-75375000D01*
D15*
X164974511Y-119845489D02*
X167554511Y-119845489D01*
D16*
X168350000Y-77460000D02*
X168350000Y-119050000D01*
X146650000Y-70700000D02*
X166750000Y-70700000D01*
X168350000Y-119050000D02*
X167600000Y-119800000D01*
D15*
X163725000Y-121095000D02*
X164974511Y-122344511D01*
X163725000Y-121095000D02*
X164974511Y-119845489D01*
D16*
X166750000Y-70700000D02*
X168100000Y-72050000D01*
X166265000Y-75375000D02*
X168350000Y-77460000D01*
X138270000Y-77910000D02*
X139440000Y-77910000D01*
D15*
X166805489Y-122344511D02*
X167600000Y-121550000D01*
D16*
X139440000Y-77910000D02*
X146650000Y-70700000D01*
%TO.N,/VM*%
X142175000Y-126175000D02*
X163725000Y-126175000D01*
X135730000Y-123630000D02*
X138270000Y-123630000D01*
X138270000Y-123630000D02*
X139630000Y-123630000D01*
X139630000Y-123630000D02*
X142175000Y-126175000D01*
%TO.N,+3V3*%
X143550000Y-98550000D02*
X143550000Y-91950000D01*
X148050000Y-87450000D02*
X148050000Y-85200000D01*
X143550000Y-91950000D02*
X148050000Y-87450000D01*
%TO.N,+2V5*%
X145550000Y-92900000D02*
X153250000Y-85200000D01*
X145550000Y-98550000D02*
X145550000Y-92900000D01*
%TD*%
%TA.AperFunction,Conductor*%
%TO.N,GND*%
G36*
X145937064Y-69520502D02*
G01*
X145983557Y-69574158D01*
X145993661Y-69644432D01*
X145964167Y-69709012D01*
X145946950Y-69725449D01*
X145920372Y-69746402D01*
X145917769Y-69748399D01*
X145843267Y-69804033D01*
X145833468Y-69814634D01*
X145784570Y-69867531D01*
X145781140Y-69871097D01*
X138988694Y-76663543D01*
X138926382Y-76697569D01*
X138855567Y-76692504D01*
X138846350Y-76688643D01*
X138754298Y-76645719D01*
X138701012Y-76598802D01*
X138681551Y-76530525D01*
X138702092Y-76462565D01*
X138745981Y-76421589D01*
X138919124Y-76324625D01*
X138928596Y-76318115D01*
X139082219Y-76190348D01*
X139090348Y-76182219D01*
X139218115Y-76028596D01*
X139224625Y-76019124D01*
X139322258Y-75844786D01*
X139326934Y-75834283D01*
X139391160Y-75645078D01*
X139392396Y-75639933D01*
X139390694Y-75627993D01*
X139377126Y-75624000D01*
X138142000Y-75624000D01*
X138073879Y-75603998D01*
X138027386Y-75550342D01*
X138016000Y-75498000D01*
X138016000Y-75097885D01*
X138524000Y-75097885D01*
X138528475Y-75113124D01*
X138529865Y-75114329D01*
X138537548Y-75116000D01*
X139375196Y-75116000D01*
X139388727Y-75112027D01*
X139389896Y-75103893D01*
X139349785Y-74961670D01*
X139345663Y-74950931D01*
X139257292Y-74771733D01*
X139251282Y-74761925D01*
X139131731Y-74601827D01*
X139124041Y-74593287D01*
X138977315Y-74457654D01*
X138968190Y-74450653D01*
X138799209Y-74344034D01*
X138788965Y-74338814D01*
X138603377Y-74264772D01*
X138592356Y-74261507D01*
X138541770Y-74251445D01*
X138528894Y-74252597D01*
X138524000Y-74267753D01*
X138524000Y-75097885D01*
X138016000Y-75097885D01*
X138016000Y-74264823D01*
X138012194Y-74251861D01*
X137997278Y-74249925D01*
X137976780Y-74253447D01*
X137965660Y-74256427D01*
X137778207Y-74325582D01*
X137767829Y-74330532D01*
X137596119Y-74432688D01*
X137586807Y-74439453D01*
X137436587Y-74571194D01*
X137428670Y-74579537D01*
X137304975Y-74736443D01*
X137298704Y-74746100D01*
X137205679Y-74922912D01*
X137201273Y-74933549D01*
X137142025Y-75124356D01*
X137139632Y-75135614D01*
X137131127Y-75207473D01*
X137103257Y-75272770D01*
X137044508Y-75312634D01*
X136973534Y-75314408D01*
X136912867Y-75277529D01*
X136881770Y-75213706D01*
X136880000Y-75192663D01*
X136880000Y-74479160D01*
X136879558Y-74471714D01*
X136878006Y-74458664D01*
X136873048Y-74440626D01*
X136836245Y-74357769D01*
X136823287Y-74338915D01*
X136760658Y-74276396D01*
X136741788Y-74263475D01*
X136658875Y-74226820D01*
X136640798Y-74221892D01*
X136628213Y-74220424D01*
X136620912Y-74220000D01*
X136002115Y-74220000D01*
X135986876Y-74224475D01*
X135985671Y-74225865D01*
X135984000Y-74233548D01*
X135984000Y-75498000D01*
X135963998Y-75566121D01*
X135910342Y-75612614D01*
X135858000Y-75624000D01*
X134598115Y-75624000D01*
X134582876Y-75628475D01*
X134581671Y-75629865D01*
X134580000Y-75637548D01*
X134580000Y-76260840D01*
X134580442Y-76268286D01*
X134581994Y-76281336D01*
X134586952Y-76299374D01*
X134623755Y-76382231D01*
X134636713Y-76401085D01*
X134699342Y-76463604D01*
X134718212Y-76476525D01*
X134801125Y-76513180D01*
X134819202Y-76518108D01*
X134831787Y-76519576D01*
X134839088Y-76520000D01*
X134960981Y-76520000D01*
X135029102Y-76540002D01*
X135075595Y-76593658D01*
X135085699Y-76663932D01*
X135056205Y-76728512D01*
X135033252Y-76749212D01*
X134858599Y-76871505D01*
X134691505Y-77038599D01*
X134555965Y-77232171D01*
X134553644Y-77237149D01*
X134553642Y-77237152D01*
X134537789Y-77271149D01*
X134456097Y-77446337D01*
X134394937Y-77674592D01*
X134374341Y-77910000D01*
X134394937Y-78145408D01*
X134456097Y-78373663D01*
X134458419Y-78378643D01*
X134458420Y-78378645D01*
X134540121Y-78553851D01*
X134555965Y-78587829D01*
X134691505Y-78781401D01*
X134858599Y-78948495D01*
X134863107Y-78951652D01*
X134863110Y-78951654D01*
X135041820Y-79076788D01*
X135086148Y-79132245D01*
X135093457Y-79202865D01*
X135061426Y-79266225D01*
X135041822Y-79283211D01*
X134858599Y-79411505D01*
X134691505Y-79578599D01*
X134555965Y-79772171D01*
X134553644Y-79777149D01*
X134553642Y-79777152D01*
X134537789Y-79811149D01*
X134456097Y-79986337D01*
X134394937Y-80214592D01*
X134374341Y-80450000D01*
X134394937Y-80685408D01*
X134456097Y-80913663D01*
X134458419Y-80918643D01*
X134458420Y-80918645D01*
X134540121Y-81093851D01*
X134555965Y-81127829D01*
X134691505Y-81321401D01*
X134858599Y-81488495D01*
X134863107Y-81491652D01*
X134863110Y-81491654D01*
X135041820Y-81616788D01*
X135086148Y-81672245D01*
X135093457Y-81742865D01*
X135061426Y-81806225D01*
X135041822Y-81823211D01*
X134858599Y-81951505D01*
X134691505Y-82118599D01*
X134555965Y-82312171D01*
X134553644Y-82317149D01*
X134553642Y-82317152D01*
X134537789Y-82351149D01*
X134456097Y-82526337D01*
X134394937Y-82754592D01*
X134374341Y-82990000D01*
X134394937Y-83225408D01*
X134456097Y-83453663D01*
X134458419Y-83458643D01*
X134458420Y-83458645D01*
X134540121Y-83633851D01*
X134555965Y-83667829D01*
X134691505Y-83861401D01*
X134858599Y-84028495D01*
X134863107Y-84031652D01*
X134863110Y-84031654D01*
X135041820Y-84156788D01*
X135086148Y-84212245D01*
X135093457Y-84282865D01*
X135061426Y-84346225D01*
X135041822Y-84363211D01*
X134858599Y-84491505D01*
X134691505Y-84658599D01*
X134555965Y-84852171D01*
X134553644Y-84857149D01*
X134553642Y-84857152D01*
X134467151Y-85042632D01*
X134456097Y-85066337D01*
X134394937Y-85294592D01*
X134374341Y-85530000D01*
X134394937Y-85765408D01*
X134456097Y-85993663D01*
X134458419Y-85998643D01*
X134458420Y-85998645D01*
X134540121Y-86173851D01*
X134555965Y-86207829D01*
X134691505Y-86401401D01*
X134858599Y-86568495D01*
X134863107Y-86571652D01*
X134863110Y-86571654D01*
X135041820Y-86696788D01*
X135086148Y-86752245D01*
X135093457Y-86822865D01*
X135061426Y-86886225D01*
X135041822Y-86903211D01*
X134858599Y-87031505D01*
X134691505Y-87198599D01*
X134555965Y-87392171D01*
X134553644Y-87397149D01*
X134553642Y-87397152D01*
X134537789Y-87431149D01*
X134456097Y-87606337D01*
X134394937Y-87834592D01*
X134374341Y-88070000D01*
X134394937Y-88305408D01*
X134456097Y-88533663D01*
X134458419Y-88538643D01*
X134458420Y-88538645D01*
X134540121Y-88713851D01*
X134555965Y-88747829D01*
X134691505Y-88941401D01*
X134858599Y-89108495D01*
X134863107Y-89111652D01*
X134863110Y-89111654D01*
X135041820Y-89236788D01*
X135086148Y-89292245D01*
X135093457Y-89362865D01*
X135061426Y-89426225D01*
X135041822Y-89443211D01*
X134858599Y-89571505D01*
X134691505Y-89738599D01*
X134555965Y-89932171D01*
X134553644Y-89937149D01*
X134553642Y-89937152D01*
X134537789Y-89971149D01*
X134456097Y-90146337D01*
X134394937Y-90374592D01*
X134374341Y-90610000D01*
X134394937Y-90845408D01*
X134456097Y-91073663D01*
X134458419Y-91078643D01*
X134458420Y-91078645D01*
X134548718Y-91272287D01*
X134555965Y-91287829D01*
X134691505Y-91481401D01*
X134858599Y-91648495D01*
X134863107Y-91651652D01*
X134863110Y-91651654D01*
X135041820Y-91776788D01*
X135086148Y-91832245D01*
X135093457Y-91902865D01*
X135061426Y-91966225D01*
X135041822Y-91983211D01*
X134858599Y-92111505D01*
X134691505Y-92278599D01*
X134555965Y-92472171D01*
X134553644Y-92477149D01*
X134553642Y-92477152D01*
X134537789Y-92511149D01*
X134456097Y-92686337D01*
X134394937Y-92914592D01*
X134374341Y-93150000D01*
X134394937Y-93385408D01*
X134456097Y-93613663D01*
X134458419Y-93618643D01*
X134458420Y-93618645D01*
X134540121Y-93793851D01*
X134555965Y-93827829D01*
X134691505Y-94021401D01*
X134858599Y-94188495D01*
X134863107Y-94191652D01*
X134863110Y-94191654D01*
X135041820Y-94316788D01*
X135086148Y-94372245D01*
X135093457Y-94442865D01*
X135061426Y-94506225D01*
X135041822Y-94523211D01*
X134858599Y-94651505D01*
X134691505Y-94818599D01*
X134555965Y-95012171D01*
X134553644Y-95017149D01*
X134553642Y-95017152D01*
X134499391Y-95133493D01*
X134456097Y-95226337D01*
X134454675Y-95231645D01*
X134454674Y-95231647D01*
X134406979Y-95409649D01*
X134394937Y-95454592D01*
X134374341Y-95690000D01*
X134394937Y-95925408D01*
X134396361Y-95930722D01*
X134396361Y-95930723D01*
X134445651Y-96114676D01*
X134456097Y-96153663D01*
X134458419Y-96158643D01*
X134458420Y-96158645D01*
X134540121Y-96333851D01*
X134555965Y-96367829D01*
X134691505Y-96561401D01*
X134858599Y-96728495D01*
X134863107Y-96731652D01*
X134863110Y-96731654D01*
X134870251Y-96736654D01*
X135052170Y-96864035D01*
X135057152Y-96866358D01*
X135057157Y-96866361D01*
X135245325Y-96954105D01*
X135298610Y-97001022D01*
X135318071Y-97069300D01*
X135297529Y-97137260D01*
X135243506Y-97183325D01*
X135239612Y-97184912D01*
X135227829Y-97190532D01*
X135056119Y-97292688D01*
X135046807Y-97299453D01*
X134896587Y-97431194D01*
X134888670Y-97439537D01*
X134764975Y-97596443D01*
X134758704Y-97606100D01*
X134665679Y-97782912D01*
X134661273Y-97793549D01*
X134609993Y-97958698D01*
X134609774Y-97972799D01*
X134616506Y-97976000D01*
X135858000Y-97976000D01*
X135926121Y-97996002D01*
X135972614Y-98049658D01*
X135984000Y-98102000D01*
X135984000Y-98358000D01*
X135963998Y-98426121D01*
X135910342Y-98472614D01*
X135858000Y-98484000D01*
X134626030Y-98484000D01*
X134612499Y-98487973D01*
X134611207Y-98496962D01*
X134639897Y-98609928D01*
X134643735Y-98620766D01*
X134727386Y-98802218D01*
X134733137Y-98812179D01*
X134848455Y-98975350D01*
X134855921Y-98984092D01*
X134999047Y-99123520D01*
X135007981Y-99130754D01*
X135174112Y-99241760D01*
X135184224Y-99247251D01*
X135246210Y-99273881D01*
X135300903Y-99319148D01*
X135322441Y-99386799D01*
X135303985Y-99455355D01*
X135249723Y-99503844D01*
X135057152Y-99593642D01*
X135057149Y-99593644D01*
X135052171Y-99595965D01*
X134858599Y-99731505D01*
X134691505Y-99898599D01*
X134555965Y-100092171D01*
X134553644Y-100097149D01*
X134553642Y-100097152D01*
X134537789Y-100131149D01*
X134456097Y-100306337D01*
X134394937Y-100534592D01*
X134374341Y-100770000D01*
X134394937Y-101005408D01*
X134396361Y-101010722D01*
X134396361Y-101010723D01*
X134452712Y-101221028D01*
X134456097Y-101233663D01*
X134458419Y-101238643D01*
X134458420Y-101238645D01*
X134549790Y-101434586D01*
X134555965Y-101447829D01*
X134691505Y-101641401D01*
X134858599Y-101808495D01*
X134863107Y-101811652D01*
X134863110Y-101811654D01*
X135041820Y-101936788D01*
X135086148Y-101992245D01*
X135093457Y-102062865D01*
X135061426Y-102126225D01*
X135041822Y-102143211D01*
X134858599Y-102271505D01*
X134691505Y-102438599D01*
X134555965Y-102632171D01*
X134553644Y-102637149D01*
X134553642Y-102637152D01*
X134460000Y-102837967D01*
X134456097Y-102846337D01*
X134454675Y-102851645D01*
X134454674Y-102851647D01*
X134396361Y-103069277D01*
X134394937Y-103074592D01*
X134374341Y-103310000D01*
X134394937Y-103545408D01*
X134456097Y-103773663D01*
X134458419Y-103778643D01*
X134458420Y-103778645D01*
X134540121Y-103953851D01*
X134555965Y-103987829D01*
X134691505Y-104181401D01*
X134858599Y-104348495D01*
X134863107Y-104351652D01*
X134863110Y-104351654D01*
X135041820Y-104476788D01*
X135086148Y-104532245D01*
X135093457Y-104602865D01*
X135061426Y-104666225D01*
X135041822Y-104683211D01*
X134858599Y-104811505D01*
X134691505Y-104978599D01*
X134555965Y-105172171D01*
X134553644Y-105177149D01*
X134553642Y-105177152D01*
X134509110Y-105272651D01*
X134456097Y-105386337D01*
X134394937Y-105614592D01*
X134374341Y-105850000D01*
X134394937Y-106085408D01*
X134456097Y-106313663D01*
X134458419Y-106318643D01*
X134458420Y-106318645D01*
X134540121Y-106493851D01*
X134555965Y-106527829D01*
X134691505Y-106721401D01*
X134858599Y-106888495D01*
X134863107Y-106891652D01*
X134863110Y-106891654D01*
X135041820Y-107016788D01*
X135086148Y-107072245D01*
X135093457Y-107142865D01*
X135061426Y-107206225D01*
X135041822Y-107223211D01*
X134858599Y-107351505D01*
X134691505Y-107518599D01*
X134555965Y-107712171D01*
X134553644Y-107717149D01*
X134553642Y-107717152D01*
X134488336Y-107857200D01*
X134456097Y-107926337D01*
X134394937Y-108154592D01*
X134374341Y-108390000D01*
X134394937Y-108625408D01*
X134396361Y-108630722D01*
X134396361Y-108630723D01*
X134453415Y-108843652D01*
X134456097Y-108853663D01*
X134458419Y-108858643D01*
X134458420Y-108858645D01*
X134541111Y-109035974D01*
X134555965Y-109067829D01*
X134691505Y-109261401D01*
X134858599Y-109428495D01*
X134863107Y-109431652D01*
X134863110Y-109431654D01*
X135041820Y-109556788D01*
X135086148Y-109612245D01*
X135093457Y-109682865D01*
X135061426Y-109746225D01*
X135041822Y-109763211D01*
X134858599Y-109891505D01*
X134691505Y-110058599D01*
X134555965Y-110252171D01*
X134553644Y-110257149D01*
X134553642Y-110257152D01*
X134537789Y-110291149D01*
X134456097Y-110466337D01*
X134394937Y-110694592D01*
X134374341Y-110930000D01*
X134394937Y-111165408D01*
X134456097Y-111393663D01*
X134458419Y-111398643D01*
X134458420Y-111398645D01*
X134540121Y-111573851D01*
X134555965Y-111607829D01*
X134691505Y-111801401D01*
X134858599Y-111968495D01*
X134863107Y-111971652D01*
X134863110Y-111971654D01*
X135041820Y-112096788D01*
X135086148Y-112152245D01*
X135093457Y-112222865D01*
X135061426Y-112286225D01*
X135041822Y-112303211D01*
X134858599Y-112431505D01*
X134691505Y-112598599D01*
X134555965Y-112792171D01*
X134553644Y-112797149D01*
X134553642Y-112797152D01*
X134460000Y-112997967D01*
X134456097Y-113006337D01*
X134394937Y-113234592D01*
X134374341Y-113470000D01*
X134394937Y-113705408D01*
X134396361Y-113710722D01*
X134396361Y-113710723D01*
X134451010Y-113914676D01*
X134456097Y-113933663D01*
X134458419Y-113938643D01*
X134458420Y-113938645D01*
X134540121Y-114113851D01*
X134555965Y-114147829D01*
X134691505Y-114341401D01*
X134858599Y-114508495D01*
X134863107Y-114511652D01*
X134863110Y-114511654D01*
X135041820Y-114636788D01*
X135086148Y-114692245D01*
X135093457Y-114762865D01*
X135061426Y-114826225D01*
X135041822Y-114843211D01*
X134858599Y-114971505D01*
X134691505Y-115138599D01*
X134555965Y-115332171D01*
X134553644Y-115337149D01*
X134553642Y-115337152D01*
X134537789Y-115371149D01*
X134456097Y-115546337D01*
X134394937Y-115774592D01*
X134374341Y-116010000D01*
X134394937Y-116245408D01*
X134456097Y-116473663D01*
X134458419Y-116478643D01*
X134458420Y-116478645D01*
X134540121Y-116653851D01*
X134555965Y-116687829D01*
X134691505Y-116881401D01*
X134858599Y-117048495D01*
X134863107Y-117051652D01*
X134863110Y-117051654D01*
X135041820Y-117176788D01*
X135086148Y-117232245D01*
X135093457Y-117302865D01*
X135061426Y-117366225D01*
X135041822Y-117383211D01*
X134858599Y-117511505D01*
X134691505Y-117678599D01*
X134555965Y-117872171D01*
X134553644Y-117877149D01*
X134553642Y-117877152D01*
X134537789Y-117911149D01*
X134456097Y-118086337D01*
X134454675Y-118091645D01*
X134454674Y-118091647D01*
X134448169Y-118115925D01*
X134394937Y-118314592D01*
X134374341Y-118550000D01*
X134394937Y-118785408D01*
X134456097Y-119013663D01*
X134458419Y-119018643D01*
X134458420Y-119018645D01*
X134540121Y-119193851D01*
X134555965Y-119227829D01*
X134691505Y-119421401D01*
X134858599Y-119588495D01*
X134863107Y-119591652D01*
X134863110Y-119591654D01*
X135047661Y-119720878D01*
X135052170Y-119724035D01*
X135057152Y-119726358D01*
X135057157Y-119726361D01*
X135245325Y-119814105D01*
X135298610Y-119861022D01*
X135318071Y-119929300D01*
X135297529Y-119997260D01*
X135243506Y-120043325D01*
X135239612Y-120044912D01*
X135227829Y-120050532D01*
X135056119Y-120152688D01*
X135046807Y-120159453D01*
X134896587Y-120291194D01*
X134888670Y-120299537D01*
X134764975Y-120456443D01*
X134758704Y-120466100D01*
X134665679Y-120642912D01*
X134661273Y-120653549D01*
X134609993Y-120818698D01*
X134609774Y-120832799D01*
X134616506Y-120836000D01*
X135858000Y-120836000D01*
X135926121Y-120856002D01*
X135972614Y-120909658D01*
X135984000Y-120962000D01*
X135984000Y-121218000D01*
X135963998Y-121286121D01*
X135910342Y-121332614D01*
X135858000Y-121344000D01*
X134626030Y-121344000D01*
X134612499Y-121347973D01*
X134611207Y-121356962D01*
X134639897Y-121469928D01*
X134643735Y-121480766D01*
X134727386Y-121662218D01*
X134733137Y-121672179D01*
X134848455Y-121835350D01*
X134855921Y-121844092D01*
X134999047Y-121983520D01*
X135007981Y-121990754D01*
X135174112Y-122101760D01*
X135184224Y-122107251D01*
X135246210Y-122133881D01*
X135300903Y-122179148D01*
X135322441Y-122246799D01*
X135303985Y-122315355D01*
X135249723Y-122363844D01*
X135057152Y-122453642D01*
X135057149Y-122453644D01*
X135052171Y-122455965D01*
X134858599Y-122591505D01*
X134691505Y-122758599D01*
X134555965Y-122952171D01*
X134553644Y-122957149D01*
X134553642Y-122957152D01*
X134476545Y-123122486D01*
X134456097Y-123166337D01*
X134454675Y-123171645D01*
X134454674Y-123171647D01*
X134398579Y-123381000D01*
X134394937Y-123394592D01*
X134374341Y-123630000D01*
X134394937Y-123865408D01*
X134396361Y-123870722D01*
X134396361Y-123870723D01*
X134450425Y-124072493D01*
X134456097Y-124093663D01*
X134458419Y-124098643D01*
X134458420Y-124098645D01*
X134516875Y-124224000D01*
X134555965Y-124307829D01*
X134691505Y-124501401D01*
X134858599Y-124668495D01*
X134863107Y-124671652D01*
X134863110Y-124671654D01*
X135047661Y-124800878D01*
X135052170Y-124804035D01*
X135057152Y-124806358D01*
X135057157Y-124806361D01*
X135261355Y-124901580D01*
X135266337Y-124903903D01*
X135271645Y-124905325D01*
X135271647Y-124905326D01*
X135444843Y-124951733D01*
X135494592Y-124965063D01*
X135730000Y-124985659D01*
X135965408Y-124965063D01*
X136015157Y-124951733D01*
X136188353Y-124905326D01*
X136188355Y-124905325D01*
X136193663Y-124903903D01*
X136200228Y-124900842D01*
X136325760Y-124842305D01*
X136379010Y-124830500D01*
X137620990Y-124830500D01*
X137674240Y-124842305D01*
X137799773Y-124900842D01*
X137806337Y-124903903D01*
X137811645Y-124905325D01*
X137811647Y-124905326D01*
X137984843Y-124951733D01*
X138034592Y-124965063D01*
X138270000Y-124985659D01*
X138505408Y-124965063D01*
X138555157Y-124951733D01*
X138728353Y-124905326D01*
X138728355Y-124905325D01*
X138733663Y-124903903D01*
X138740228Y-124900842D01*
X138865760Y-124842305D01*
X138919010Y-124830500D01*
X139080546Y-124830500D01*
X139148667Y-124850502D01*
X139169641Y-124867405D01*
X141294487Y-126992251D01*
X141300124Y-126998269D01*
X141345090Y-127049543D01*
X141418083Y-127107085D01*
X141420619Y-127109138D01*
X141492117Y-127168602D01*
X141497161Y-127171427D01*
X141497287Y-127171498D01*
X141513709Y-127182471D01*
X141513824Y-127182562D01*
X141513829Y-127182565D01*
X141518360Y-127186137D01*
X141523473Y-127188827D01*
X141600617Y-127229415D01*
X141603498Y-127230979D01*
X141605204Y-127231934D01*
X141669290Y-127267824D01*
X141684621Y-127276410D01*
X141690220Y-127278310D01*
X141708387Y-127286116D01*
X141708508Y-127286180D01*
X141708515Y-127286183D01*
X141713620Y-127288869D01*
X141719134Y-127290581D01*
X141719136Y-127290582D01*
X141802382Y-127316431D01*
X141805518Y-127317450D01*
X141888080Y-127345476D01*
X141888085Y-127345477D01*
X141893549Y-127347332D01*
X141899268Y-127348161D01*
X141899267Y-127348161D01*
X141899409Y-127348182D01*
X141918678Y-127352542D01*
X141918807Y-127352582D01*
X141918816Y-127352584D01*
X141924333Y-127354297D01*
X141930070Y-127354976D01*
X142016652Y-127365224D01*
X142019925Y-127365655D01*
X142111902Y-127378991D01*
X142198286Y-127375597D01*
X142203233Y-127375500D01*
X162466077Y-127375500D01*
X162534198Y-127395502D01*
X162541642Y-127400674D01*
X162624994Y-127463144D01*
X162624997Y-127463146D01*
X162632176Y-127468526D01*
X162721561Y-127502034D01*
X162759025Y-127516079D01*
X162759027Y-127516079D01*
X162766420Y-127518851D01*
X162774270Y-127519704D01*
X162774271Y-127519704D01*
X162824217Y-127525130D01*
X162827623Y-127525500D01*
X163724868Y-127525500D01*
X164622376Y-127525499D01*
X164625770Y-127525130D01*
X164625776Y-127525130D01*
X164675722Y-127519705D01*
X164675726Y-127519704D01*
X164683580Y-127518851D01*
X164817824Y-127468526D01*
X164825003Y-127463146D01*
X164825006Y-127463144D01*
X164925365Y-127387928D01*
X164932546Y-127382546D01*
X164958301Y-127348182D01*
X165013144Y-127275006D01*
X165013146Y-127275003D01*
X165018526Y-127267824D01*
X165068851Y-127133580D01*
X165075500Y-127072377D01*
X165075500Y-126881206D01*
X165095502Y-126813085D01*
X165149158Y-126766592D01*
X165219432Y-126756488D01*
X165284012Y-126785982D01*
X165304397Y-126808486D01*
X165383455Y-126920350D01*
X165390921Y-126929092D01*
X165534047Y-127068520D01*
X165542981Y-127075754D01*
X165709112Y-127186760D01*
X165719225Y-127192251D01*
X165902805Y-127271123D01*
X165913738Y-127274675D01*
X165993331Y-127292685D01*
X166007405Y-127291796D01*
X166011000Y-127282397D01*
X166011000Y-127282165D01*
X166519000Y-127282165D01*
X166522966Y-127295671D01*
X166534964Y-127297388D01*
X166540078Y-127296160D01*
X166729283Y-127231934D01*
X166739786Y-127227258D01*
X166914124Y-127129625D01*
X166923596Y-127123115D01*
X167077219Y-126995348D01*
X167085348Y-126987219D01*
X167213115Y-126833596D01*
X167219625Y-126824124D01*
X167317258Y-126649786D01*
X167321934Y-126639283D01*
X167386160Y-126450078D01*
X167387396Y-126444933D01*
X167385694Y-126432993D01*
X167372126Y-126429000D01*
X166537115Y-126429000D01*
X166521876Y-126433475D01*
X166520671Y-126434865D01*
X166519000Y-126442548D01*
X166519000Y-127282165D01*
X166011000Y-127282165D01*
X166011000Y-126047000D01*
X166031002Y-125978879D01*
X166084658Y-125932386D01*
X166137000Y-125921000D01*
X167370196Y-125921000D01*
X167383727Y-125917027D01*
X167384896Y-125908893D01*
X167344785Y-125766670D01*
X167340663Y-125755931D01*
X167252292Y-125576733D01*
X167246282Y-125566925D01*
X167126731Y-125406827D01*
X167119041Y-125398287D01*
X166972315Y-125262654D01*
X166963190Y-125255653D01*
X166794209Y-125149034D01*
X166783965Y-125143814D01*
X166753436Y-125131634D01*
X166697577Y-125087812D01*
X166674277Y-125020748D01*
X166690933Y-124951733D01*
X166746876Y-124900410D01*
X166867959Y-124843948D01*
X166937843Y-124811361D01*
X166937848Y-124811358D01*
X166942830Y-124809035D01*
X166949971Y-124804035D01*
X167131890Y-124676654D01*
X167131893Y-124676652D01*
X167136401Y-124673495D01*
X167303495Y-124506401D01*
X167439035Y-124312829D01*
X167443690Y-124302848D01*
X167536580Y-124103645D01*
X167536581Y-124103643D01*
X167538903Y-124098663D01*
X167555711Y-124035936D01*
X167598639Y-123875723D01*
X167598639Y-123875722D01*
X167600063Y-123870408D01*
X167620659Y-123635000D01*
X167600063Y-123399592D01*
X167571619Y-123293435D01*
X167540326Y-123176647D01*
X167540325Y-123176645D01*
X167538903Y-123171337D01*
X167536580Y-123166355D01*
X167441361Y-122962158D01*
X167441358Y-122962153D01*
X167439035Y-122957171D01*
X167394432Y-122893471D01*
X167371744Y-122826198D01*
X167389029Y-122757338D01*
X167408550Y-122732106D01*
X168075067Y-122065589D01*
X168081333Y-122059735D01*
X168098654Y-122044625D01*
X168124396Y-122022169D01*
X168128761Y-122015958D01*
X168128764Y-122015955D01*
X168160705Y-121970507D01*
X168164638Y-121965212D01*
X168198893Y-121921524D01*
X168203583Y-121915543D01*
X168206711Y-121908616D01*
X168208486Y-121905685D01*
X168215903Y-121892682D01*
X168217519Y-121889668D01*
X168221887Y-121883453D01*
X168224646Y-121876377D01*
X168224648Y-121876373D01*
X168244819Y-121824636D01*
X168247375Y-121818555D01*
X168270231Y-121767935D01*
X168270231Y-121767934D01*
X168273355Y-121761016D01*
X168274739Y-121753550D01*
X168275757Y-121750301D01*
X168279877Y-121735836D01*
X168280717Y-121732563D01*
X168283476Y-121725487D01*
X168291716Y-121662894D01*
X168292748Y-121656377D01*
X168302868Y-121601775D01*
X168304252Y-121594308D01*
X168300709Y-121532856D01*
X168300500Y-121525604D01*
X168300500Y-120837675D01*
X168320502Y-120769554D01*
X168348491Y-120738728D01*
X168398307Y-120699457D01*
X169167251Y-119930512D01*
X169173270Y-119924875D01*
X169220196Y-119883722D01*
X169224543Y-119879910D01*
X169274551Y-119816474D01*
X169332431Y-119775362D01*
X169403351Y-119772068D01*
X169464794Y-119807639D01*
X169497251Y-119870782D01*
X169499500Y-119894481D01*
X169499500Y-125951259D01*
X169498000Y-125970643D01*
X169494391Y-125993823D01*
X169495555Y-126002725D01*
X169495555Y-126002728D01*
X169496858Y-126012694D01*
X169497770Y-126035214D01*
X169482953Y-126336828D01*
X169481742Y-126349129D01*
X169437144Y-126649786D01*
X169433167Y-126676594D01*
X169430758Y-126688709D01*
X169353993Y-126995172D01*
X169350316Y-127009852D01*
X169346726Y-127021684D01*
X169235204Y-127333364D01*
X169230473Y-127344788D01*
X169088929Y-127644059D01*
X169083100Y-127654964D01*
X168912908Y-127938912D01*
X168906038Y-127949193D01*
X168708837Y-128215087D01*
X168700993Y-128224645D01*
X168478677Y-128469933D01*
X168469933Y-128478677D01*
X168224645Y-128700993D01*
X168215087Y-128708837D01*
X167949193Y-128906038D01*
X167938912Y-128912908D01*
X167654964Y-129083100D01*
X167644059Y-129088929D01*
X167344788Y-129230473D01*
X167333364Y-129235204D01*
X167021684Y-129346726D01*
X167009858Y-129350314D01*
X166688709Y-129430758D01*
X166676603Y-129433165D01*
X166349129Y-129481742D01*
X166336835Y-129482952D01*
X166042488Y-129497413D01*
X166016923Y-129496064D01*
X166016307Y-129495968D01*
X166015049Y-129495772D01*
X166015047Y-129495772D01*
X166006177Y-129494391D01*
X165997275Y-129495555D01*
X165997272Y-129495555D01*
X165975244Y-129498436D01*
X165958907Y-129499500D01*
X136048741Y-129499500D01*
X136029357Y-129498000D01*
X136015048Y-129495772D01*
X136015047Y-129495772D01*
X136006177Y-129494391D01*
X135997275Y-129495555D01*
X135997272Y-129495555D01*
X135987306Y-129496858D01*
X135964790Y-129497770D01*
X135663167Y-129482952D01*
X135650871Y-129481742D01*
X135323397Y-129433165D01*
X135311291Y-129430758D01*
X134990142Y-129350314D01*
X134978316Y-129346726D01*
X134666636Y-129235204D01*
X134655212Y-129230473D01*
X134355941Y-129088929D01*
X134345036Y-129083100D01*
X134061088Y-128912908D01*
X134050807Y-128906038D01*
X133784913Y-128708837D01*
X133775355Y-128700993D01*
X133530067Y-128478677D01*
X133521323Y-128469933D01*
X133299007Y-128224645D01*
X133291163Y-128215087D01*
X133093962Y-127949193D01*
X133087092Y-127938912D01*
X132916900Y-127654964D01*
X132911071Y-127644059D01*
X132769527Y-127344788D01*
X132764796Y-127333364D01*
X132653274Y-127021684D01*
X132649684Y-127009852D01*
X132646007Y-126995172D01*
X132569242Y-126688709D01*
X132566833Y-126676594D01*
X132562857Y-126649786D01*
X132518258Y-126349129D01*
X132517047Y-126336828D01*
X132502769Y-126046177D01*
X132504362Y-126019098D01*
X132504689Y-126017156D01*
X132504690Y-126017145D01*
X132505496Y-126012354D01*
X132505647Y-126000000D01*
X132501773Y-125972949D01*
X132500500Y-125955087D01*
X132500500Y-75097885D01*
X134580000Y-75097885D01*
X134584475Y-75113124D01*
X134585865Y-75114329D01*
X134593548Y-75116000D01*
X135457885Y-75116000D01*
X135473124Y-75111525D01*
X135474329Y-75110135D01*
X135476000Y-75102452D01*
X135476000Y-74238115D01*
X135471525Y-74222876D01*
X135470135Y-74221671D01*
X135462452Y-74220000D01*
X134839160Y-74220000D01*
X134831714Y-74220442D01*
X134818664Y-74221994D01*
X134800626Y-74226952D01*
X134717769Y-74263755D01*
X134698915Y-74276713D01*
X134636396Y-74339342D01*
X134623475Y-74358212D01*
X134586820Y-74441125D01*
X134581892Y-74459202D01*
X134580424Y-74471787D01*
X134580000Y-74479088D01*
X134580000Y-75097885D01*
X132500500Y-75097885D01*
X132500500Y-73052576D01*
X132502246Y-73031671D01*
X132504689Y-73017148D01*
X132505496Y-73012354D01*
X132505647Y-73000000D01*
X132504763Y-72993823D01*
X132503529Y-72985208D01*
X132502408Y-72961162D01*
X132508788Y-72831305D01*
X132517048Y-72663167D01*
X132518259Y-72650866D01*
X132522990Y-72618971D01*
X132566835Y-72323397D01*
X132569242Y-72311291D01*
X132649686Y-71990142D01*
X132653274Y-71978316D01*
X132764796Y-71666636D01*
X132769527Y-71655212D01*
X132868647Y-71445640D01*
X132911073Y-71355937D01*
X132916900Y-71345036D01*
X133087092Y-71061088D01*
X133093962Y-71050807D01*
X133291163Y-70784913D01*
X133299007Y-70775355D01*
X133521323Y-70530067D01*
X133530067Y-70521323D01*
X133775355Y-70299007D01*
X133784913Y-70291163D01*
X134050807Y-70093962D01*
X134061088Y-70087092D01*
X134203843Y-70001528D01*
X134345040Y-69916898D01*
X134355941Y-69911071D01*
X134655212Y-69769527D01*
X134666636Y-69764796D01*
X134978316Y-69653274D01*
X134990142Y-69649686D01*
X135311291Y-69569242D01*
X135323397Y-69566835D01*
X135650871Y-69518258D01*
X135663165Y-69517048D01*
X135957512Y-69502587D01*
X135983077Y-69503936D01*
X135983693Y-69504032D01*
X135984951Y-69504228D01*
X135984953Y-69504228D01*
X135993823Y-69505609D01*
X136002725Y-69504445D01*
X136002728Y-69504445D01*
X136024756Y-69501564D01*
X136041093Y-69500500D01*
X145868943Y-69500500D01*
X145937064Y-69520502D01*
G37*
%TD.AperFunction*%
%TA.AperFunction,Conductor*%
G36*
X162805565Y-71920502D02*
G01*
X162852058Y-71974158D01*
X162862162Y-72044432D01*
X162836394Y-72104506D01*
X162759975Y-72201443D01*
X162753704Y-72211100D01*
X162660679Y-72387912D01*
X162656273Y-72398549D01*
X162604993Y-72563698D01*
X162604774Y-72577799D01*
X162611506Y-72581000D01*
X163853000Y-72581000D01*
X163921121Y-72601002D01*
X163967614Y-72654658D01*
X163979000Y-72707000D01*
X163979000Y-72963000D01*
X163958998Y-73031121D01*
X163905342Y-73077614D01*
X163853000Y-73089000D01*
X162621030Y-73089000D01*
X162607499Y-73092973D01*
X162606207Y-73101962D01*
X162634897Y-73214928D01*
X162638735Y-73225766D01*
X162722386Y-73407218D01*
X162728137Y-73417179D01*
X162843455Y-73580350D01*
X162850921Y-73589092D01*
X162994047Y-73728520D01*
X163002981Y-73735754D01*
X163169112Y-73846760D01*
X163179224Y-73852251D01*
X163241210Y-73878881D01*
X163295903Y-73924148D01*
X163317441Y-73991799D01*
X163298985Y-74060355D01*
X163244723Y-74108844D01*
X163052152Y-74198642D01*
X163052149Y-74198644D01*
X163047171Y-74200965D01*
X162853599Y-74336505D01*
X162686505Y-74503599D01*
X162550965Y-74697171D01*
X162548644Y-74702149D01*
X162548642Y-74702152D01*
X162532652Y-74736443D01*
X162451097Y-74911337D01*
X162449675Y-74916645D01*
X162449674Y-74916647D01*
X162399502Y-75103893D01*
X162389937Y-75139592D01*
X162369341Y-75375000D01*
X162389937Y-75610408D01*
X162391361Y-75615722D01*
X162391361Y-75615723D01*
X162430226Y-75760769D01*
X162451097Y-75838663D01*
X162453419Y-75843643D01*
X162453420Y-75843645D01*
X162535121Y-76018851D01*
X162550965Y-76052829D01*
X162686505Y-76246401D01*
X162853599Y-76413495D01*
X162858107Y-76416652D01*
X162858110Y-76416654D01*
X163036820Y-76541788D01*
X163081148Y-76597245D01*
X163088457Y-76667865D01*
X163056426Y-76731225D01*
X163036822Y-76748211D01*
X162853599Y-76876505D01*
X162686505Y-77043599D01*
X162550965Y-77237171D01*
X162548644Y-77242149D01*
X162548642Y-77242152D01*
X162453420Y-77446355D01*
X162451097Y-77451337D01*
X162389937Y-77679592D01*
X162369341Y-77915000D01*
X162389937Y-78150408D01*
X162451097Y-78378663D01*
X162453419Y-78383643D01*
X162453420Y-78383645D01*
X162546311Y-78582848D01*
X162550965Y-78592829D01*
X162686505Y-78786401D01*
X162853599Y-78953495D01*
X162858107Y-78956652D01*
X162858110Y-78956654D01*
X163036820Y-79081788D01*
X163081148Y-79137245D01*
X163088457Y-79207865D01*
X163056426Y-79271225D01*
X163036822Y-79288211D01*
X162853599Y-79416505D01*
X162686505Y-79583599D01*
X162550965Y-79777171D01*
X162548644Y-79782149D01*
X162548642Y-79782152D01*
X162453420Y-79986355D01*
X162451097Y-79991337D01*
X162389937Y-80219592D01*
X162369341Y-80455000D01*
X162389937Y-80690408D01*
X162451097Y-80918663D01*
X162453419Y-80923643D01*
X162453420Y-80923645D01*
X162546311Y-81122848D01*
X162550965Y-81132829D01*
X162686505Y-81326401D01*
X162853599Y-81493495D01*
X162858107Y-81496652D01*
X162858110Y-81496654D01*
X163036820Y-81621788D01*
X163081148Y-81677245D01*
X163088457Y-81747865D01*
X163056426Y-81811225D01*
X163036822Y-81828211D01*
X162853599Y-81956505D01*
X162686505Y-82123599D01*
X162550965Y-82317171D01*
X162548644Y-82322149D01*
X162548642Y-82322152D01*
X162453420Y-82526355D01*
X162451097Y-82531337D01*
X162389937Y-82759592D01*
X162369341Y-82995000D01*
X162389937Y-83230408D01*
X162451097Y-83458663D01*
X162453419Y-83463643D01*
X162453420Y-83463645D01*
X162546311Y-83662848D01*
X162550965Y-83672829D01*
X162686505Y-83866401D01*
X162853599Y-84033495D01*
X162858107Y-84036652D01*
X162858110Y-84036654D01*
X163036820Y-84161788D01*
X163081148Y-84217245D01*
X163088457Y-84287865D01*
X163056426Y-84351225D01*
X163036822Y-84368211D01*
X162853599Y-84496505D01*
X162686505Y-84663599D01*
X162550965Y-84857171D01*
X162548644Y-84862149D01*
X162548642Y-84862152D01*
X162453420Y-85066355D01*
X162451097Y-85071337D01*
X162389937Y-85299592D01*
X162369341Y-85535000D01*
X162389937Y-85770408D01*
X162391361Y-85775722D01*
X162391361Y-85775723D01*
X162418725Y-85877846D01*
X162451097Y-85998663D01*
X162453419Y-86003643D01*
X162453420Y-86003645D01*
X162546311Y-86202848D01*
X162550965Y-86212829D01*
X162686505Y-86406401D01*
X162853599Y-86573495D01*
X162858107Y-86576652D01*
X162858110Y-86576654D01*
X163036820Y-86701788D01*
X163081148Y-86757245D01*
X163088457Y-86827865D01*
X163056426Y-86891225D01*
X163036822Y-86908211D01*
X162853599Y-87036505D01*
X162686505Y-87203599D01*
X162550965Y-87397171D01*
X162548644Y-87402149D01*
X162548642Y-87402152D01*
X162453420Y-87606355D01*
X162451097Y-87611337D01*
X162389937Y-87839592D01*
X162369341Y-88075000D01*
X162389937Y-88310408D01*
X162451097Y-88538663D01*
X162453419Y-88543643D01*
X162453420Y-88543645D01*
X162546311Y-88742848D01*
X162550965Y-88752829D01*
X162686505Y-88946401D01*
X162853599Y-89113495D01*
X162858107Y-89116652D01*
X162858110Y-89116654D01*
X163036820Y-89241788D01*
X163081148Y-89297245D01*
X163088457Y-89367865D01*
X163056426Y-89431225D01*
X163036822Y-89448211D01*
X162853599Y-89576505D01*
X162686505Y-89743599D01*
X162550965Y-89937171D01*
X162548644Y-89942149D01*
X162548642Y-89942152D01*
X162453420Y-90146355D01*
X162451097Y-90151337D01*
X162389937Y-90379592D01*
X162369341Y-90615000D01*
X162389937Y-90850408D01*
X162451097Y-91078663D01*
X162453419Y-91083643D01*
X162453420Y-91083645D01*
X162546311Y-91282848D01*
X162550965Y-91292829D01*
X162686505Y-91486401D01*
X162853599Y-91653495D01*
X162858107Y-91656652D01*
X162858110Y-91656654D01*
X163036820Y-91781788D01*
X163081148Y-91837245D01*
X163088457Y-91907865D01*
X163056426Y-91971225D01*
X163036822Y-91988211D01*
X162853599Y-92116505D01*
X162686505Y-92283599D01*
X162550965Y-92477171D01*
X162548644Y-92482149D01*
X162548642Y-92482152D01*
X162453420Y-92686355D01*
X162451097Y-92691337D01*
X162389937Y-92919592D01*
X162369341Y-93155000D01*
X162389937Y-93390408D01*
X162451097Y-93618663D01*
X162453419Y-93623643D01*
X162453420Y-93623645D01*
X162546311Y-93822848D01*
X162550965Y-93832829D01*
X162686505Y-94026401D01*
X162853599Y-94193495D01*
X162858107Y-94196652D01*
X162858110Y-94196654D01*
X163036820Y-94321788D01*
X163081148Y-94377245D01*
X163088457Y-94447865D01*
X163056426Y-94511225D01*
X163036822Y-94528211D01*
X162853599Y-94656505D01*
X162686505Y-94823599D01*
X162550965Y-95017171D01*
X162548644Y-95022149D01*
X162548642Y-95022152D01*
X162453420Y-95226355D01*
X162451097Y-95231337D01*
X162449675Y-95236645D01*
X162449674Y-95236647D01*
X162435450Y-95289732D01*
X162389937Y-95459592D01*
X162369341Y-95695000D01*
X162389937Y-95930408D01*
X162391361Y-95935722D01*
X162391361Y-95935723D01*
X162442159Y-96125304D01*
X162451097Y-96158663D01*
X162453419Y-96163643D01*
X162453420Y-96163645D01*
X162548124Y-96366736D01*
X162550965Y-96372829D01*
X162686505Y-96566401D01*
X162853599Y-96733495D01*
X162858107Y-96736652D01*
X162858110Y-96736654D01*
X163036820Y-96861788D01*
X163081148Y-96917245D01*
X163088457Y-96987865D01*
X163056426Y-97051225D01*
X163036822Y-97068211D01*
X162853599Y-97196505D01*
X162686505Y-97363599D01*
X162550965Y-97557171D01*
X162548644Y-97562149D01*
X162548642Y-97562152D01*
X162532652Y-97596443D01*
X162451097Y-97771337D01*
X162449675Y-97776645D01*
X162449674Y-97776647D01*
X162445145Y-97793549D01*
X162389937Y-97999592D01*
X162369341Y-98235000D01*
X162389937Y-98470408D01*
X162451097Y-98698663D01*
X162453419Y-98703643D01*
X162453420Y-98703645D01*
X162535121Y-98878851D01*
X162550965Y-98912829D01*
X162686505Y-99106401D01*
X162853599Y-99273495D01*
X162858107Y-99276652D01*
X162858110Y-99276654D01*
X163036820Y-99401788D01*
X163081148Y-99457245D01*
X163088457Y-99527865D01*
X163056426Y-99591225D01*
X163036822Y-99608211D01*
X162853599Y-99736505D01*
X162686505Y-99903599D01*
X162550965Y-100097171D01*
X162548644Y-100102149D01*
X162548642Y-100102152D01*
X162453420Y-100306355D01*
X162451097Y-100311337D01*
X162389937Y-100539592D01*
X162369341Y-100775000D01*
X162389937Y-101010408D01*
X162391361Y-101015722D01*
X162391361Y-101015723D01*
X162447392Y-101224834D01*
X162451097Y-101238663D01*
X162453419Y-101243643D01*
X162453420Y-101243645D01*
X162546311Y-101442848D01*
X162550965Y-101452829D01*
X162686505Y-101646401D01*
X162853599Y-101813495D01*
X162858107Y-101816652D01*
X162858110Y-101816654D01*
X163036820Y-101941788D01*
X163081148Y-101997245D01*
X163088457Y-102067865D01*
X163056426Y-102131225D01*
X163036822Y-102148211D01*
X162853599Y-102276505D01*
X162686505Y-102443599D01*
X162550965Y-102637171D01*
X162548644Y-102642149D01*
X162548642Y-102642152D01*
X162453420Y-102846355D01*
X162451097Y-102851337D01*
X162389937Y-103079592D01*
X162369341Y-103315000D01*
X162389937Y-103550408D01*
X162451097Y-103778663D01*
X162453419Y-103783643D01*
X162453420Y-103783645D01*
X162546311Y-103982848D01*
X162550965Y-103992829D01*
X162686505Y-104186401D01*
X162853599Y-104353495D01*
X162858107Y-104356652D01*
X162858110Y-104356654D01*
X163036820Y-104481788D01*
X163081148Y-104537245D01*
X163088457Y-104607865D01*
X163056426Y-104671225D01*
X163036822Y-104688211D01*
X162853599Y-104816505D01*
X162686505Y-104983599D01*
X162550965Y-105177171D01*
X162548644Y-105182149D01*
X162548642Y-105182152D01*
X162453420Y-105386355D01*
X162451097Y-105391337D01*
X162389937Y-105619592D01*
X162369341Y-105855000D01*
X162389937Y-106090408D01*
X162451097Y-106318663D01*
X162453419Y-106323643D01*
X162453420Y-106323645D01*
X162546311Y-106522848D01*
X162550965Y-106532829D01*
X162686505Y-106726401D01*
X162853599Y-106893495D01*
X162858107Y-106896652D01*
X162858110Y-106896654D01*
X163036820Y-107021788D01*
X163081148Y-107077245D01*
X163088457Y-107147865D01*
X163056426Y-107211225D01*
X163036822Y-107228211D01*
X162853599Y-107356505D01*
X162686505Y-107523599D01*
X162550965Y-107717171D01*
X162548644Y-107722149D01*
X162548642Y-107722152D01*
X162453420Y-107926355D01*
X162451097Y-107931337D01*
X162389937Y-108159592D01*
X162369341Y-108395000D01*
X162389937Y-108630408D01*
X162391361Y-108635722D01*
X162391361Y-108635723D01*
X162444547Y-108834216D01*
X162451097Y-108858663D01*
X162453419Y-108863643D01*
X162453420Y-108863645D01*
X162546311Y-109062848D01*
X162550965Y-109072829D01*
X162686505Y-109266401D01*
X162853599Y-109433495D01*
X162858107Y-109436652D01*
X162858110Y-109436654D01*
X163036820Y-109561788D01*
X163081148Y-109617245D01*
X163088457Y-109687865D01*
X163056426Y-109751225D01*
X163036822Y-109768211D01*
X162853599Y-109896505D01*
X162686505Y-110063599D01*
X162550965Y-110257171D01*
X162548644Y-110262149D01*
X162548642Y-110262152D01*
X162453420Y-110466355D01*
X162451097Y-110471337D01*
X162389937Y-110699592D01*
X162369341Y-110935000D01*
X162389937Y-111170408D01*
X162451097Y-111398663D01*
X162453419Y-111403643D01*
X162453420Y-111403645D01*
X162546311Y-111602848D01*
X162550965Y-111612829D01*
X162686505Y-111806401D01*
X162853599Y-111973495D01*
X162858107Y-111976652D01*
X162858110Y-111976654D01*
X163036820Y-112101788D01*
X163081148Y-112157245D01*
X163088457Y-112227865D01*
X163056426Y-112291225D01*
X163036822Y-112308211D01*
X162853599Y-112436505D01*
X162686505Y-112603599D01*
X162550965Y-112797171D01*
X162548644Y-112802149D01*
X162548642Y-112802152D01*
X162453420Y-113006355D01*
X162451097Y-113011337D01*
X162449675Y-113016645D01*
X162449674Y-113016647D01*
X162443445Y-113039896D01*
X162389937Y-113239592D01*
X162369341Y-113475000D01*
X162389937Y-113710408D01*
X162391361Y-113715722D01*
X162391361Y-113715723D01*
X162447518Y-113925304D01*
X162451097Y-113938663D01*
X162453419Y-113943643D01*
X162453420Y-113943645D01*
X162546311Y-114142848D01*
X162550965Y-114152829D01*
X162686505Y-114346401D01*
X162853599Y-114513495D01*
X162858107Y-114516652D01*
X162858110Y-114516654D01*
X163036820Y-114641788D01*
X163081148Y-114697245D01*
X163088457Y-114767865D01*
X163056426Y-114831225D01*
X163036822Y-114848211D01*
X162853599Y-114976505D01*
X162686505Y-115143599D01*
X162550965Y-115337171D01*
X162548644Y-115342149D01*
X162548642Y-115342152D01*
X162453420Y-115546355D01*
X162451097Y-115551337D01*
X162389937Y-115779592D01*
X162369341Y-116015000D01*
X162389937Y-116250408D01*
X162451097Y-116478663D01*
X162453419Y-116483643D01*
X162453420Y-116483645D01*
X162546311Y-116682848D01*
X162550965Y-116692829D01*
X162686505Y-116886401D01*
X162853599Y-117053495D01*
X162858107Y-117056652D01*
X162858110Y-117056654D01*
X163036820Y-117181788D01*
X163081148Y-117237245D01*
X163088457Y-117307865D01*
X163056426Y-117371225D01*
X163036822Y-117388211D01*
X162853599Y-117516505D01*
X162686505Y-117683599D01*
X162550965Y-117877171D01*
X162548644Y-117882149D01*
X162548642Y-117882152D01*
X162453420Y-118086355D01*
X162451097Y-118091337D01*
X162449675Y-118096645D01*
X162449674Y-118096647D01*
X162392701Y-118309277D01*
X162389937Y-118319592D01*
X162369341Y-118555000D01*
X162389937Y-118790408D01*
X162391361Y-118795722D01*
X162391361Y-118795723D01*
X162435867Y-118961822D01*
X162451097Y-119018663D01*
X162453419Y-119023643D01*
X162453420Y-119023645D01*
X162546311Y-119222848D01*
X162550965Y-119232829D01*
X162686505Y-119426401D01*
X162853599Y-119593495D01*
X162858107Y-119596652D01*
X162858110Y-119596654D01*
X163036820Y-119721788D01*
X163081148Y-119777245D01*
X163088457Y-119847865D01*
X163056426Y-119911225D01*
X163036822Y-119928211D01*
X162853599Y-120056505D01*
X162686505Y-120223599D01*
X162550965Y-120417171D01*
X162451097Y-120631337D01*
X162449675Y-120636645D01*
X162449674Y-120636647D01*
X162391361Y-120854277D01*
X162389937Y-120859592D01*
X162369341Y-121095000D01*
X162389937Y-121330408D01*
X162451097Y-121558663D01*
X162453419Y-121563643D01*
X162453420Y-121563645D01*
X162533715Y-121735836D01*
X162550965Y-121772829D01*
X162686505Y-121966401D01*
X162853599Y-122133495D01*
X162858107Y-122136652D01*
X162858110Y-122136654D01*
X163042661Y-122265878D01*
X163047170Y-122269035D01*
X163052152Y-122271358D01*
X163052157Y-122271361D01*
X163240325Y-122359105D01*
X163293610Y-122406022D01*
X163313071Y-122474300D01*
X163292529Y-122542260D01*
X163238506Y-122588325D01*
X163234612Y-122589912D01*
X163222829Y-122595532D01*
X163051119Y-122697688D01*
X163041807Y-122704453D01*
X162891587Y-122836194D01*
X162883670Y-122844537D01*
X162759975Y-123001443D01*
X162753704Y-123011100D01*
X162660679Y-123187912D01*
X162656273Y-123198549D01*
X162604993Y-123363698D01*
X162604774Y-123377799D01*
X162611506Y-123381000D01*
X163853000Y-123381000D01*
X163921121Y-123401002D01*
X163967614Y-123454658D01*
X163979000Y-123507000D01*
X163979000Y-123763000D01*
X163958998Y-123831121D01*
X163905342Y-123877614D01*
X163853000Y-123889000D01*
X162621030Y-123889000D01*
X162607499Y-123892973D01*
X162606207Y-123901962D01*
X162634897Y-124014928D01*
X162638735Y-124025766D01*
X162722386Y-124207218D01*
X162728137Y-124217179D01*
X162843455Y-124380350D01*
X162850921Y-124389092D01*
X162994047Y-124528520D01*
X163002981Y-124535754D01*
X163089756Y-124593736D01*
X163135284Y-124648213D01*
X163144131Y-124718656D01*
X163113490Y-124782700D01*
X163053088Y-124820012D01*
X163019755Y-124824501D01*
X162827624Y-124824501D01*
X162824230Y-124824870D01*
X162824224Y-124824870D01*
X162774278Y-124830295D01*
X162774274Y-124830296D01*
X162766420Y-124831149D01*
X162632176Y-124881474D01*
X162624997Y-124886854D01*
X162624994Y-124886856D01*
X162541642Y-124949326D01*
X162475136Y-124974174D01*
X162466077Y-124974500D01*
X154941484Y-124974500D01*
X154873363Y-124954498D01*
X154826870Y-124900842D01*
X154816766Y-124830568D01*
X154846260Y-124765988D01*
X154873364Y-124742502D01*
X154903579Y-124723084D01*
X154907373Y-124720646D01*
X154961029Y-124674153D01*
X154983506Y-124648213D01*
X155049350Y-124572226D01*
X155049352Y-124572223D01*
X155055252Y-124565414D01*
X155115022Y-124434536D01*
X155126791Y-124394455D01*
X155133758Y-124370727D01*
X155133758Y-124370726D01*
X155135024Y-124366415D01*
X155139579Y-124334737D01*
X155154861Y-124228446D01*
X155154861Y-124228443D01*
X155155500Y-124224000D01*
X155155500Y-101776000D01*
X155143948Y-101668551D01*
X155132562Y-101616209D01*
X155098433Y-101513667D01*
X155020646Y-101392627D01*
X155007358Y-101377291D01*
X154977093Y-101342364D01*
X154974153Y-101338971D01*
X154908757Y-101282305D01*
X154872226Y-101250650D01*
X154872223Y-101250648D01*
X154865414Y-101244748D01*
X154840463Y-101233353D01*
X154817571Y-101222899D01*
X154734536Y-101184978D01*
X154666415Y-101164976D01*
X154661975Y-101164338D01*
X154661972Y-101164337D01*
X154528446Y-101145139D01*
X154528443Y-101145139D01*
X154524000Y-101144500D01*
X147897298Y-101144500D01*
X147832834Y-101154019D01*
X147755764Y-101165399D01*
X147755760Y-101165400D01*
X147751195Y-101166074D01*
X147746777Y-101167408D01*
X147746772Y-101167409D01*
X147734978Y-101170970D01*
X147684063Y-101186342D01*
X147659816Y-101195394D01*
X147629498Y-101206713D01*
X147629495Y-101206715D01*
X147623392Y-101208993D01*
X147617884Y-101212478D01*
X147612039Y-101215380D01*
X147611784Y-101214867D01*
X147602068Y-101219066D01*
X147602219Y-101219366D01*
X147523343Y-101259036D01*
X147494865Y-101269290D01*
X147483290Y-101271941D01*
X147453179Y-101275105D01*
X147445686Y-101274987D01*
X147441313Y-101274918D01*
X147411331Y-101270811D01*
X147399848Y-101267799D01*
X147371698Y-101256655D01*
X147306082Y-101221028D01*
X147219274Y-101187052D01*
X147192961Y-101176753D01*
X147192959Y-101176752D01*
X147189307Y-101175323D01*
X147185506Y-101174358D01*
X147185504Y-101174357D01*
X147132985Y-101161019D01*
X147132984Y-101161019D01*
X147129185Y-101160054D01*
X147004755Y-101144500D01*
X146711642Y-101144500D01*
X146642306Y-101149278D01*
X146608068Y-101154019D01*
X146540046Y-101168261D01*
X146533949Y-101170969D01*
X146533946Y-101170970D01*
X146497739Y-101187052D01*
X146408553Y-101226665D01*
X146404735Y-101229063D01*
X146404731Y-101229065D01*
X146389478Y-101238645D01*
X146348430Y-101264425D01*
X146345006Y-101267330D01*
X146345002Y-101267333D01*
X146260568Y-101338971D01*
X146238712Y-101357515D01*
X146237765Y-101358955D01*
X146180762Y-101394758D01*
X146146521Y-101399500D01*
X145782023Y-101399501D01*
X145448604Y-101399501D01*
X145380483Y-101379499D01*
X145353380Y-101356014D01*
X145341553Y-101342365D01*
X145341552Y-101342364D01*
X145338612Y-101338971D01*
X145273216Y-101282305D01*
X145236685Y-101250650D01*
X145236682Y-101250648D01*
X145229873Y-101244748D01*
X145204922Y-101233353D01*
X145182030Y-101222899D01*
X145098995Y-101184978D01*
X145030874Y-101164976D01*
X145026434Y-101164338D01*
X145026431Y-101164337D01*
X144892905Y-101145139D01*
X144892902Y-101145139D01*
X144888459Y-101144500D01*
X144076000Y-101144500D01*
X144072652Y-101144860D01*
X144072651Y-101144860D01*
X144046968Y-101147621D01*
X143968551Y-101156052D01*
X143965267Y-101156766D01*
X143965263Y-101156767D01*
X143945717Y-101161019D01*
X143916209Y-101167438D01*
X143813667Y-101201567D01*
X143692627Y-101279354D01*
X143638971Y-101325847D01*
X143594394Y-101377292D01*
X143534669Y-101415675D01*
X143473830Y-101418205D01*
X143468048Y-101417018D01*
X143462152Y-101415193D01*
X143302739Y-101398437D01*
X143273147Y-101395327D01*
X143273146Y-101395327D01*
X143267019Y-101394683D01*
X143144383Y-101405844D01*
X143077759Y-101411907D01*
X143077758Y-101411907D01*
X143071618Y-101412466D01*
X143065704Y-101414207D01*
X143065702Y-101414207D01*
X142951466Y-101447829D01*
X142883393Y-101467864D01*
X142877928Y-101470721D01*
X142714972Y-101555912D01*
X142714968Y-101555915D01*
X142709512Y-101558767D01*
X142556600Y-101681711D01*
X142430480Y-101832016D01*
X142427516Y-101837408D01*
X142427513Y-101837412D01*
X142372881Y-101936787D01*
X142335956Y-102003954D01*
X142276628Y-102190978D01*
X142254757Y-102385963D01*
X142271175Y-102581483D01*
X142325258Y-102770091D01*
X142328076Y-102775574D01*
X142412123Y-102939113D01*
X142412126Y-102939117D01*
X142414944Y-102944601D01*
X142536818Y-103098369D01*
X142686238Y-103225535D01*
X142857513Y-103321257D01*
X143044118Y-103381889D01*
X143238946Y-103405121D01*
X143245081Y-103404649D01*
X143245083Y-103404649D01*
X143265798Y-103403055D01*
X143308835Y-103399743D01*
X143378287Y-103414460D01*
X143428760Y-103464390D01*
X143444500Y-103525372D01*
X143444500Y-104174000D01*
X143456052Y-104281449D01*
X143467438Y-104333791D01*
X143501567Y-104436333D01*
X143579354Y-104557373D01*
X143625847Y-104611029D01*
X143629240Y-104613969D01*
X143727774Y-104699350D01*
X143727777Y-104699352D01*
X143734586Y-104705252D01*
X143865464Y-104765022D01*
X143933585Y-104785024D01*
X143938025Y-104785662D01*
X143938028Y-104785663D01*
X144071554Y-104804861D01*
X144071557Y-104804861D01*
X144076000Y-104805500D01*
X146207640Y-104805500D01*
X146275761Y-104825502D01*
X146322254Y-104879158D01*
X146332358Y-104949432D01*
X146322253Y-104983843D01*
X146284978Y-105065464D01*
X146264976Y-105133585D01*
X146264338Y-105138025D01*
X146264337Y-105138028D01*
X146259949Y-105168551D01*
X146244500Y-105276000D01*
X146244500Y-107755264D01*
X146224498Y-107823385D01*
X146170842Y-107869878D01*
X146100568Y-107879982D01*
X146044439Y-107857200D01*
X145948017Y-107787145D01*
X145948016Y-107787144D01*
X145942675Y-107783264D01*
X145936647Y-107780580D01*
X145936645Y-107780579D01*
X145779619Y-107710667D01*
X145779618Y-107710667D01*
X145773588Y-107707982D01*
X145683066Y-107688741D01*
X145599001Y-107670872D01*
X145598997Y-107670872D01*
X145592544Y-107669500D01*
X145407456Y-107669500D01*
X145401003Y-107670872D01*
X145400999Y-107670872D01*
X145316934Y-107688741D01*
X145226412Y-107707982D01*
X145220382Y-107710667D01*
X145220381Y-107710667D01*
X145063355Y-107780579D01*
X145063353Y-107780580D01*
X145057325Y-107783264D01*
X144907585Y-107892057D01*
X144903172Y-107896959D01*
X144903170Y-107896960D01*
X144881205Y-107921355D01*
X144783737Y-108029604D01*
X144780437Y-108035320D01*
X144780434Y-108035324D01*
X144755500Y-108078512D01*
X144691193Y-108189896D01*
X144633997Y-108365925D01*
X144633308Y-108372482D01*
X144633307Y-108372486D01*
X144615340Y-108543435D01*
X144614650Y-108550000D01*
X144615340Y-108556565D01*
X144627760Y-108674730D01*
X144633997Y-108734075D01*
X144636036Y-108740349D01*
X144636036Y-108740351D01*
X144676097Y-108863645D01*
X144691193Y-108910104D01*
X144694496Y-108915825D01*
X144780434Y-109064676D01*
X144780437Y-109064680D01*
X144783737Y-109070396D01*
X144907585Y-109207943D01*
X144912924Y-109211822D01*
X145014933Y-109285936D01*
X145057325Y-109316736D01*
X145063353Y-109319420D01*
X145063355Y-109319421D01*
X145120214Y-109344736D01*
X145226412Y-109392018D01*
X145316934Y-109411259D01*
X145400999Y-109429128D01*
X145401003Y-109429128D01*
X145407456Y-109430500D01*
X145592544Y-109430500D01*
X145598997Y-109429128D01*
X145599001Y-109429128D01*
X145683066Y-109411259D01*
X145773588Y-109392018D01*
X145879786Y-109344736D01*
X145936645Y-109319421D01*
X145936647Y-109319420D01*
X145942675Y-109316736D01*
X145948017Y-109312855D01*
X146044439Y-109242800D01*
X146111307Y-109218941D01*
X146180458Y-109235022D01*
X146229939Y-109285936D01*
X146244500Y-109344736D01*
X146244500Y-112605264D01*
X146224498Y-112673385D01*
X146170842Y-112719878D01*
X146100568Y-112729982D01*
X146044439Y-112707200D01*
X145948017Y-112637145D01*
X145948016Y-112637144D01*
X145942675Y-112633264D01*
X145936647Y-112630580D01*
X145936645Y-112630579D01*
X145779619Y-112560667D01*
X145779618Y-112560667D01*
X145773588Y-112557982D01*
X145683066Y-112538741D01*
X145599001Y-112520872D01*
X145598997Y-112520872D01*
X145592544Y-112519500D01*
X145407456Y-112519500D01*
X145401003Y-112520872D01*
X145400999Y-112520872D01*
X145316934Y-112538741D01*
X145226412Y-112557982D01*
X145220382Y-112560667D01*
X145220381Y-112560667D01*
X145063355Y-112630579D01*
X145063353Y-112630580D01*
X145057325Y-112633264D01*
X144907585Y-112742057D01*
X144783737Y-112879604D01*
X144780437Y-112885320D01*
X144780434Y-112885324D01*
X144712514Y-113002967D01*
X144691193Y-113039896D01*
X144633997Y-113215925D01*
X144633308Y-113222482D01*
X144633307Y-113222486D01*
X144615340Y-113393435D01*
X144614650Y-113400000D01*
X144615340Y-113406565D01*
X144633015Y-113574730D01*
X144633997Y-113584075D01*
X144636036Y-113590349D01*
X144636036Y-113590351D01*
X144679807Y-113725061D01*
X144691193Y-113760104D01*
X144694496Y-113765825D01*
X144780434Y-113914676D01*
X144780437Y-113914680D01*
X144783737Y-113920396D01*
X144788155Y-113925303D01*
X144788156Y-113925304D01*
X144881525Y-114029000D01*
X144907585Y-114057943D01*
X144912924Y-114061822D01*
X145045549Y-114158180D01*
X145057325Y-114166736D01*
X145063353Y-114169420D01*
X145063355Y-114169421D01*
X145120214Y-114194736D01*
X145226412Y-114242018D01*
X145316934Y-114261259D01*
X145400999Y-114279128D01*
X145401003Y-114279128D01*
X145407456Y-114280500D01*
X145592544Y-114280500D01*
X145598997Y-114279128D01*
X145599001Y-114279128D01*
X145683066Y-114261259D01*
X145773588Y-114242018D01*
X145879786Y-114194736D01*
X145936645Y-114169421D01*
X145936647Y-114169420D01*
X145942675Y-114166736D01*
X145948017Y-114162855D01*
X146044439Y-114092800D01*
X146111307Y-114068941D01*
X146180458Y-114085022D01*
X146229939Y-114135936D01*
X146244500Y-114194736D01*
X146244500Y-117505264D01*
X146224498Y-117573385D01*
X146170842Y-117619878D01*
X146100568Y-117629982D01*
X146044439Y-117607200D01*
X145948017Y-117537145D01*
X145948016Y-117537144D01*
X145942675Y-117533264D01*
X145936647Y-117530580D01*
X145936645Y-117530579D01*
X145779619Y-117460667D01*
X145779618Y-117460667D01*
X145773588Y-117457982D01*
X145683066Y-117438741D01*
X145599001Y-117420872D01*
X145598997Y-117420872D01*
X145592544Y-117419500D01*
X145407456Y-117419500D01*
X145401003Y-117420872D01*
X145400999Y-117420872D01*
X145316934Y-117438741D01*
X145226412Y-117457982D01*
X145220382Y-117460667D01*
X145220381Y-117460667D01*
X145063355Y-117530579D01*
X145063353Y-117530580D01*
X145057325Y-117533264D01*
X144907585Y-117642057D01*
X144903172Y-117646959D01*
X144903170Y-117646960D01*
X144788156Y-117774696D01*
X144783737Y-117779604D01*
X144780437Y-117785320D01*
X144780434Y-117785324D01*
X144710677Y-117906149D01*
X144691193Y-117939896D01*
X144689153Y-117946176D01*
X144689152Y-117946177D01*
X144645230Y-118081355D01*
X144633997Y-118115925D01*
X144614650Y-118300000D01*
X144615340Y-118306565D01*
X144633015Y-118474730D01*
X144633997Y-118484075D01*
X144636036Y-118490349D01*
X144636036Y-118490351D01*
X144674020Y-118607252D01*
X144691193Y-118660104D01*
X144694496Y-118665825D01*
X144780434Y-118814676D01*
X144780437Y-118814680D01*
X144783737Y-118820396D01*
X144788155Y-118825303D01*
X144788156Y-118825304D01*
X144881525Y-118929000D01*
X144907585Y-118957943D01*
X144912924Y-118961822D01*
X145014933Y-119035936D01*
X145057325Y-119066736D01*
X145063353Y-119069420D01*
X145063355Y-119069421D01*
X145120214Y-119094736D01*
X145226412Y-119142018D01*
X145316934Y-119161259D01*
X145400999Y-119179128D01*
X145401003Y-119179128D01*
X145407456Y-119180500D01*
X145592544Y-119180500D01*
X145598997Y-119179128D01*
X145599001Y-119179128D01*
X145683066Y-119161259D01*
X145773588Y-119142018D01*
X145879786Y-119094736D01*
X145936645Y-119069421D01*
X145936647Y-119069420D01*
X145942675Y-119066736D01*
X145948017Y-119062855D01*
X146044439Y-118992800D01*
X146111307Y-118968941D01*
X146180458Y-118985022D01*
X146229939Y-119035936D01*
X146244500Y-119094736D01*
X146244500Y-122505264D01*
X146224498Y-122573385D01*
X146170842Y-122619878D01*
X146100568Y-122629982D01*
X146044439Y-122607200D01*
X145948017Y-122537145D01*
X145948016Y-122537144D01*
X145942675Y-122533264D01*
X145936647Y-122530580D01*
X145936645Y-122530579D01*
X145779619Y-122460667D01*
X145779618Y-122460667D01*
X145773588Y-122457982D01*
X145683066Y-122438741D01*
X145599001Y-122420872D01*
X145598997Y-122420872D01*
X145592544Y-122419500D01*
X145407456Y-122419500D01*
X145401003Y-122420872D01*
X145400999Y-122420872D01*
X145316934Y-122438741D01*
X145226412Y-122457982D01*
X145220382Y-122460667D01*
X145220381Y-122460667D01*
X145063355Y-122530579D01*
X145063353Y-122530580D01*
X145057325Y-122533264D01*
X145051984Y-122537144D01*
X145051983Y-122537145D01*
X144971621Y-122595532D01*
X144907585Y-122642057D01*
X144903172Y-122646959D01*
X144903170Y-122646960D01*
X144851403Y-122704453D01*
X144783737Y-122779604D01*
X144780437Y-122785320D01*
X144780434Y-122785324D01*
X144764596Y-122812757D01*
X144691193Y-122939896D01*
X144689153Y-122946176D01*
X144689152Y-122946177D01*
X144655820Y-123048763D01*
X144633997Y-123115925D01*
X144633308Y-123122482D01*
X144633307Y-123122486D01*
X144628173Y-123171337D01*
X144614650Y-123300000D01*
X144615340Y-123306565D01*
X144631752Y-123462714D01*
X144633997Y-123484075D01*
X144636036Y-123490349D01*
X144636036Y-123490351D01*
X144681257Y-123629525D01*
X144691193Y-123660104D01*
X144694496Y-123665825D01*
X144780434Y-123814676D01*
X144780437Y-123814680D01*
X144783737Y-123820396D01*
X144788155Y-123825303D01*
X144788156Y-123825304D01*
X144849086Y-123892973D01*
X144907585Y-123957943D01*
X144912924Y-123961822D01*
X145014933Y-124035936D01*
X145057325Y-124066736D01*
X145063353Y-124069420D01*
X145063355Y-124069421D01*
X145220381Y-124139333D01*
X145226412Y-124142018D01*
X145316934Y-124161259D01*
X145400999Y-124179128D01*
X145401003Y-124179128D01*
X145407456Y-124180500D01*
X145592544Y-124180500D01*
X145598997Y-124179128D01*
X145599001Y-124179128D01*
X145683066Y-124161259D01*
X145773588Y-124142018D01*
X145779619Y-124139333D01*
X145936645Y-124069421D01*
X145936647Y-124069420D01*
X145942675Y-124066736D01*
X145969879Y-124046971D01*
X146044439Y-123992800D01*
X146111307Y-123968941D01*
X146180458Y-123985022D01*
X146229939Y-124035936D01*
X146244500Y-124094736D01*
X146244500Y-124224000D01*
X146256052Y-124331449D01*
X146267438Y-124383791D01*
X146301567Y-124486333D01*
X146379354Y-124607373D01*
X146425847Y-124661029D01*
X146532306Y-124753276D01*
X146570689Y-124813002D01*
X146570689Y-124883998D01*
X146532306Y-124943724D01*
X146467725Y-124973217D01*
X146449793Y-124974500D01*
X142724453Y-124974500D01*
X142656332Y-124954498D01*
X142635358Y-124937595D01*
X140510520Y-122812757D01*
X140504883Y-122806739D01*
X140463715Y-122759796D01*
X140459910Y-122755457D01*
X140455379Y-122751885D01*
X140386886Y-122697889D01*
X140384324Y-122695814D01*
X140317325Y-122640092D01*
X140317323Y-122640090D01*
X140312883Y-122636398D01*
X140307839Y-122633573D01*
X140307713Y-122633502D01*
X140291291Y-122622529D01*
X140291176Y-122622438D01*
X140291171Y-122622435D01*
X140286640Y-122618863D01*
X140242295Y-122595532D01*
X140204383Y-122575585D01*
X140201502Y-122574021D01*
X140157167Y-122549192D01*
X140125422Y-122531414D01*
X140125420Y-122531413D01*
X140120379Y-122528590D01*
X140114780Y-122526690D01*
X140096613Y-122518884D01*
X140096494Y-122518822D01*
X140091380Y-122516131D01*
X140002606Y-122488566D01*
X139999480Y-122487550D01*
X139916921Y-122459525D01*
X139916916Y-122459524D01*
X139911452Y-122457669D01*
X139905584Y-122456818D01*
X139886330Y-122452461D01*
X139886183Y-122452415D01*
X139886177Y-122452414D01*
X139880667Y-122450703D01*
X139874939Y-122450025D01*
X139874934Y-122450024D01*
X139801194Y-122441297D01*
X139788344Y-122439776D01*
X139785085Y-122439347D01*
X139768827Y-122436990D01*
X139698811Y-122426837D01*
X139698807Y-122426837D01*
X139693098Y-122426009D01*
X139606714Y-122429403D01*
X139601767Y-122429500D01*
X138919010Y-122429500D01*
X138865760Y-122417695D01*
X138840727Y-122406022D01*
X138754297Y-122365719D01*
X138701012Y-122318802D01*
X138681551Y-122250524D01*
X138702093Y-122182565D01*
X138745981Y-122141589D01*
X138919124Y-122044625D01*
X138928596Y-122038115D01*
X139082219Y-121910348D01*
X139090348Y-121902219D01*
X139218115Y-121748596D01*
X139224625Y-121739124D01*
X139322258Y-121564786D01*
X139326934Y-121554283D01*
X139391160Y-121365078D01*
X139392396Y-121359933D01*
X139390694Y-121347993D01*
X139377126Y-121344000D01*
X137166030Y-121344000D01*
X137152499Y-121347973D01*
X137151207Y-121356962D01*
X137179897Y-121469928D01*
X137183735Y-121480766D01*
X137267386Y-121662218D01*
X137273137Y-121672179D01*
X137388455Y-121835350D01*
X137395921Y-121844092D01*
X137539047Y-121983520D01*
X137547981Y-121990754D01*
X137714112Y-122101760D01*
X137724224Y-122107251D01*
X137786210Y-122133881D01*
X137840903Y-122179148D01*
X137862441Y-122246799D01*
X137843985Y-122315355D01*
X137789724Y-122363843D01*
X137674242Y-122417694D01*
X137620991Y-122429500D01*
X136379010Y-122429500D01*
X136325760Y-122417695D01*
X136300727Y-122406022D01*
X136214297Y-122365719D01*
X136161012Y-122318802D01*
X136141551Y-122250524D01*
X136162093Y-122182565D01*
X136205981Y-122141589D01*
X136379124Y-122044625D01*
X136388596Y-122038115D01*
X136542219Y-121910348D01*
X136550348Y-121902219D01*
X136678115Y-121748596D01*
X136684625Y-121739124D01*
X136782258Y-121564786D01*
X136786934Y-121554283D01*
X136851160Y-121365081D01*
X136853845Y-121353898D01*
X136882811Y-121154118D01*
X136883441Y-121146736D01*
X136884830Y-121093704D01*
X136884587Y-121086305D01*
X136866117Y-120885285D01*
X136864020Y-120873971D01*
X136809785Y-120681670D01*
X136805663Y-120670931D01*
X136717292Y-120491733D01*
X136711282Y-120481925D01*
X136591731Y-120321827D01*
X136584041Y-120313287D01*
X136437315Y-120177654D01*
X136428190Y-120170653D01*
X136259209Y-120064034D01*
X136248965Y-120058814D01*
X136218436Y-120046634D01*
X136162577Y-120002812D01*
X136139277Y-119935748D01*
X136155933Y-119866733D01*
X136211876Y-119815410D01*
X136318084Y-119765884D01*
X136402843Y-119726361D01*
X136402848Y-119726358D01*
X136407830Y-119724035D01*
X136412339Y-119720878D01*
X136596890Y-119591654D01*
X136596893Y-119591652D01*
X136601401Y-119588495D01*
X136768495Y-119421401D01*
X136896787Y-119238180D01*
X136952244Y-119193851D01*
X137022863Y-119186542D01*
X137086224Y-119218572D01*
X137103212Y-119238179D01*
X137231505Y-119421401D01*
X137398599Y-119588495D01*
X137403107Y-119591652D01*
X137403110Y-119591654D01*
X137587661Y-119720878D01*
X137592170Y-119724035D01*
X137597152Y-119726358D01*
X137597157Y-119726361D01*
X137785325Y-119814105D01*
X137838610Y-119861022D01*
X137858071Y-119929300D01*
X137837529Y-119997260D01*
X137783506Y-120043325D01*
X137779612Y-120044912D01*
X137767829Y-120050532D01*
X137596119Y-120152688D01*
X137586807Y-120159453D01*
X137436587Y-120291194D01*
X137428670Y-120299537D01*
X137304975Y-120456443D01*
X137298704Y-120466100D01*
X137205679Y-120642912D01*
X137201273Y-120653549D01*
X137149993Y-120818698D01*
X137149774Y-120832799D01*
X137156506Y-120836000D01*
X139375196Y-120836000D01*
X139388727Y-120832027D01*
X139389896Y-120823893D01*
X139349785Y-120681670D01*
X139345663Y-120670931D01*
X139257292Y-120491733D01*
X139251282Y-120481925D01*
X139131731Y-120321827D01*
X139124041Y-120313287D01*
X138977315Y-120177654D01*
X138968190Y-120170653D01*
X138799209Y-120064034D01*
X138788965Y-120058814D01*
X138758436Y-120046634D01*
X138702577Y-120002812D01*
X138679277Y-119935748D01*
X138695933Y-119866733D01*
X138751876Y-119815410D01*
X138858084Y-119765884D01*
X138942843Y-119726361D01*
X138942848Y-119726358D01*
X138947830Y-119724035D01*
X138952339Y-119720878D01*
X139136890Y-119591654D01*
X139136893Y-119591652D01*
X139141401Y-119588495D01*
X139308495Y-119421401D01*
X139444035Y-119227829D01*
X139459880Y-119193851D01*
X139541580Y-119018645D01*
X139541581Y-119018643D01*
X139543903Y-119013663D01*
X139605063Y-118785408D01*
X139625659Y-118550000D01*
X139605063Y-118314592D01*
X139551831Y-118115925D01*
X139545326Y-118091647D01*
X139545325Y-118091645D01*
X139543903Y-118086337D01*
X139462211Y-117911149D01*
X139446358Y-117877152D01*
X139446356Y-117877149D01*
X139444035Y-117872171D01*
X139308495Y-117678599D01*
X139141401Y-117511505D01*
X139136893Y-117508348D01*
X139136890Y-117508346D01*
X138965322Y-117388213D01*
X138958181Y-117383213D01*
X138913853Y-117327756D01*
X138906544Y-117257137D01*
X138938575Y-117193776D01*
X138958181Y-117176787D01*
X139136890Y-117051654D01*
X139136893Y-117051652D01*
X139141401Y-117048495D01*
X139308495Y-116881401D01*
X139444035Y-116687829D01*
X139459880Y-116653851D01*
X139541580Y-116478645D01*
X139541581Y-116478643D01*
X139543903Y-116473663D01*
X139605063Y-116245408D01*
X139625659Y-116010000D01*
X139605063Y-115774592D01*
X139543903Y-115546337D01*
X139462211Y-115371149D01*
X139446358Y-115337152D01*
X139446356Y-115337149D01*
X139444035Y-115332171D01*
X139308495Y-115138599D01*
X139141401Y-114971505D01*
X139136893Y-114968348D01*
X139136890Y-114968346D01*
X138965322Y-114848213D01*
X138958181Y-114843213D01*
X138913853Y-114787756D01*
X138906544Y-114717137D01*
X138938575Y-114653776D01*
X138958181Y-114636787D01*
X139136890Y-114511654D01*
X139136893Y-114511652D01*
X139141401Y-114508495D01*
X139308495Y-114341401D01*
X139444035Y-114147829D01*
X139459880Y-114113851D01*
X139541580Y-113938645D01*
X139541581Y-113938643D01*
X139543903Y-113933663D01*
X139548991Y-113914676D01*
X139603639Y-113710723D01*
X139603639Y-113710722D01*
X139605063Y-113705408D01*
X139625659Y-113470000D01*
X139605063Y-113234592D01*
X139543903Y-113006337D01*
X139540000Y-112997967D01*
X139446358Y-112797152D01*
X139446356Y-112797149D01*
X139444035Y-112792171D01*
X139308495Y-112598599D01*
X139141401Y-112431505D01*
X139136893Y-112428348D01*
X139136890Y-112428346D01*
X138965322Y-112308213D01*
X138958181Y-112303213D01*
X138913853Y-112247756D01*
X138906544Y-112177137D01*
X138938575Y-112113776D01*
X138958181Y-112096787D01*
X139136890Y-111971654D01*
X139136893Y-111971652D01*
X139141401Y-111968495D01*
X139308495Y-111801401D01*
X139444035Y-111607829D01*
X139459880Y-111573851D01*
X139541580Y-111398645D01*
X139541581Y-111398643D01*
X139543903Y-111393663D01*
X139605063Y-111165408D01*
X139625659Y-110930000D01*
X139605063Y-110694592D01*
X139543903Y-110466337D01*
X139462211Y-110291149D01*
X139446358Y-110257152D01*
X139446356Y-110257149D01*
X139444035Y-110252171D01*
X139308495Y-110058599D01*
X139141401Y-109891505D01*
X139136893Y-109888348D01*
X139136890Y-109888346D01*
X138965322Y-109768213D01*
X138958181Y-109763213D01*
X138913853Y-109707756D01*
X138906544Y-109637137D01*
X138938575Y-109573776D01*
X138958181Y-109556787D01*
X139136890Y-109431654D01*
X139136893Y-109431652D01*
X139141401Y-109428495D01*
X139308495Y-109261401D01*
X139444035Y-109067829D01*
X139458890Y-109035974D01*
X139541580Y-108858645D01*
X139541581Y-108858643D01*
X139543903Y-108853663D01*
X139546586Y-108843652D01*
X139603639Y-108630723D01*
X139603639Y-108630722D01*
X139605063Y-108625408D01*
X139625659Y-108390000D01*
X139605063Y-108154592D01*
X139543903Y-107926337D01*
X139511664Y-107857200D01*
X139446358Y-107717152D01*
X139446356Y-107717149D01*
X139444035Y-107712171D01*
X139308495Y-107518599D01*
X139141401Y-107351505D01*
X139136893Y-107348348D01*
X139136890Y-107348346D01*
X138965322Y-107228213D01*
X138958181Y-107223213D01*
X138913853Y-107167756D01*
X138906544Y-107097137D01*
X138938575Y-107033776D01*
X138958181Y-107016787D01*
X139136890Y-106891654D01*
X139136893Y-106891652D01*
X139141401Y-106888495D01*
X139308495Y-106721401D01*
X139444035Y-106527829D01*
X139459880Y-106493851D01*
X139541580Y-106318645D01*
X139541581Y-106318643D01*
X139543903Y-106313663D01*
X139605063Y-106085408D01*
X139625659Y-105850000D01*
X139605063Y-105614592D01*
X139543903Y-105386337D01*
X139490890Y-105272651D01*
X139446358Y-105177152D01*
X139446356Y-105177149D01*
X139444035Y-105172171D01*
X139308495Y-104978599D01*
X139141401Y-104811505D01*
X139136893Y-104808348D01*
X139136890Y-104808346D01*
X138965322Y-104688213D01*
X138958181Y-104683213D01*
X138913853Y-104627756D01*
X138906544Y-104557137D01*
X138938575Y-104493776D01*
X138958181Y-104476787D01*
X139136890Y-104351654D01*
X139136893Y-104351652D01*
X139141401Y-104348495D01*
X139308495Y-104181401D01*
X139444035Y-103987829D01*
X139459880Y-103953851D01*
X139541580Y-103778645D01*
X139541581Y-103778643D01*
X139543903Y-103773663D01*
X139605063Y-103545408D01*
X139625659Y-103310000D01*
X139605063Y-103074592D01*
X139603639Y-103069277D01*
X139545326Y-102851647D01*
X139545325Y-102851645D01*
X139543903Y-102846337D01*
X139540000Y-102837967D01*
X139446358Y-102637152D01*
X139446356Y-102637149D01*
X139444035Y-102632171D01*
X139308495Y-102438599D01*
X139141401Y-102271505D01*
X139136893Y-102268348D01*
X139136890Y-102268346D01*
X138965322Y-102148213D01*
X138958181Y-102143213D01*
X138913853Y-102087756D01*
X138906544Y-102017137D01*
X138938575Y-101953776D01*
X138958181Y-101936787D01*
X139136890Y-101811654D01*
X139136893Y-101811652D01*
X139141401Y-101808495D01*
X139308495Y-101641401D01*
X139444035Y-101447829D01*
X139450211Y-101434586D01*
X139541580Y-101238645D01*
X139541581Y-101238643D01*
X139543903Y-101233663D01*
X139547289Y-101221028D01*
X139603639Y-101010723D01*
X139603639Y-101010722D01*
X139605063Y-101005408D01*
X139625659Y-100770000D01*
X139605063Y-100534592D01*
X139543903Y-100306337D01*
X139462211Y-100131149D01*
X139446358Y-100097152D01*
X139446356Y-100097149D01*
X139444035Y-100092171D01*
X139308495Y-99898599D01*
X139141401Y-99731505D01*
X139136893Y-99728348D01*
X139136890Y-99728346D01*
X138952339Y-99599122D01*
X138952336Y-99599120D01*
X138947830Y-99595965D01*
X138942848Y-99593642D01*
X138942843Y-99593639D01*
X138788303Y-99521576D01*
X138754297Y-99505719D01*
X138701012Y-99458802D01*
X138681551Y-99390524D01*
X138702093Y-99322564D01*
X138745981Y-99281589D01*
X138919124Y-99184625D01*
X138928596Y-99178115D01*
X139082219Y-99050348D01*
X139090348Y-99042219D01*
X139218115Y-98888596D01*
X139224625Y-98879124D01*
X139322258Y-98704786D01*
X139326934Y-98694283D01*
X139391160Y-98505078D01*
X139392396Y-98499933D01*
X139390694Y-98487993D01*
X139377126Y-98484000D01*
X137166030Y-98484000D01*
X137152499Y-98487973D01*
X137151207Y-98496962D01*
X137179897Y-98609928D01*
X137183735Y-98620766D01*
X137267386Y-98802218D01*
X137273137Y-98812179D01*
X137388455Y-98975350D01*
X137395921Y-98984092D01*
X137539047Y-99123520D01*
X137547981Y-99130754D01*
X137714112Y-99241760D01*
X137724224Y-99247251D01*
X137786210Y-99273881D01*
X137840903Y-99319148D01*
X137862441Y-99386799D01*
X137843985Y-99455355D01*
X137789723Y-99503844D01*
X137597152Y-99593642D01*
X137597149Y-99593644D01*
X137592171Y-99595965D01*
X137398599Y-99731505D01*
X137231505Y-99898599D01*
X137228346Y-99903111D01*
X137103213Y-100081820D01*
X137047756Y-100126149D01*
X136977137Y-100133458D01*
X136913776Y-100101428D01*
X136896787Y-100081820D01*
X136771654Y-99903111D01*
X136768495Y-99898599D01*
X136601401Y-99731505D01*
X136596893Y-99728348D01*
X136596890Y-99728346D01*
X136412339Y-99599122D01*
X136412336Y-99599120D01*
X136407830Y-99595965D01*
X136402848Y-99593642D01*
X136402843Y-99593639D01*
X136248303Y-99521576D01*
X136214297Y-99505719D01*
X136161012Y-99458802D01*
X136141551Y-99390524D01*
X136162093Y-99322564D01*
X136205981Y-99281589D01*
X136379124Y-99184625D01*
X136388596Y-99178115D01*
X136542219Y-99050348D01*
X136550348Y-99042219D01*
X136678115Y-98888596D01*
X136684625Y-98879124D01*
X136782258Y-98704786D01*
X136786934Y-98694283D01*
X136851160Y-98505081D01*
X136853845Y-98493898D01*
X136882811Y-98294118D01*
X136883441Y-98286736D01*
X136884830Y-98233704D01*
X136884587Y-98226305D01*
X136866117Y-98025285D01*
X136864020Y-98013971D01*
X136809785Y-97821670D01*
X136805663Y-97810931D01*
X136717292Y-97631733D01*
X136711282Y-97621925D01*
X136591731Y-97461827D01*
X136584041Y-97453287D01*
X136437315Y-97317654D01*
X136428190Y-97310653D01*
X136259209Y-97204034D01*
X136248965Y-97198814D01*
X136218436Y-97186634D01*
X136162577Y-97142812D01*
X136139277Y-97075748D01*
X136155933Y-97006733D01*
X136211876Y-96955410D01*
X136318084Y-96905884D01*
X136402843Y-96866361D01*
X136402848Y-96866358D01*
X136407830Y-96864035D01*
X136589749Y-96736654D01*
X136596890Y-96731654D01*
X136596893Y-96731652D01*
X136601401Y-96728495D01*
X136768495Y-96561401D01*
X136896787Y-96378180D01*
X136952244Y-96333851D01*
X137022863Y-96326542D01*
X137086224Y-96358572D01*
X137103212Y-96378179D01*
X137231505Y-96561401D01*
X137398599Y-96728495D01*
X137403107Y-96731652D01*
X137403110Y-96731654D01*
X137410251Y-96736654D01*
X137592170Y-96864035D01*
X137597152Y-96866358D01*
X137597157Y-96866361D01*
X137785325Y-96954105D01*
X137838610Y-97001022D01*
X137858071Y-97069300D01*
X137837529Y-97137260D01*
X137783506Y-97183325D01*
X137779612Y-97184912D01*
X137767829Y-97190532D01*
X137596119Y-97292688D01*
X137586807Y-97299453D01*
X137436587Y-97431194D01*
X137428670Y-97439537D01*
X137304975Y-97596443D01*
X137298704Y-97606100D01*
X137205679Y-97782912D01*
X137201273Y-97793549D01*
X137149993Y-97958698D01*
X137149774Y-97972799D01*
X137156506Y-97976000D01*
X139375196Y-97976000D01*
X139388727Y-97972027D01*
X139389896Y-97963893D01*
X139349785Y-97821670D01*
X139345663Y-97810931D01*
X139257292Y-97631733D01*
X139251282Y-97621925D01*
X139131731Y-97461827D01*
X139124041Y-97453287D01*
X138977315Y-97317654D01*
X138968190Y-97310653D01*
X138799209Y-97204034D01*
X138788965Y-97198814D01*
X138758436Y-97186634D01*
X138702577Y-97142812D01*
X138679277Y-97075748D01*
X138695933Y-97006733D01*
X138751876Y-96955410D01*
X138858084Y-96905884D01*
X138942843Y-96866361D01*
X138942848Y-96866358D01*
X138947830Y-96864035D01*
X139129749Y-96736654D01*
X139136890Y-96731654D01*
X139136893Y-96731652D01*
X139141401Y-96728495D01*
X139308495Y-96561401D01*
X139444035Y-96367829D01*
X139459880Y-96333851D01*
X139541580Y-96158645D01*
X139541581Y-96158643D01*
X139543903Y-96153663D01*
X139554350Y-96114676D01*
X139603639Y-95930723D01*
X139603639Y-95930722D01*
X139605063Y-95925408D01*
X139625659Y-95690000D01*
X139605063Y-95454592D01*
X139593021Y-95409649D01*
X139545326Y-95231647D01*
X139545325Y-95231645D01*
X139543903Y-95226337D01*
X139500609Y-95133493D01*
X139446358Y-95017152D01*
X139446356Y-95017149D01*
X139444035Y-95012171D01*
X139308495Y-94818599D01*
X139141401Y-94651505D01*
X139136893Y-94648348D01*
X139136890Y-94648346D01*
X138965322Y-94528213D01*
X138958181Y-94523213D01*
X138913853Y-94467756D01*
X138906544Y-94397137D01*
X138938575Y-94333776D01*
X138958181Y-94316787D01*
X139136890Y-94191654D01*
X139136893Y-94191652D01*
X139141401Y-94188495D01*
X139308495Y-94021401D01*
X139444035Y-93827829D01*
X139459880Y-93793851D01*
X139541580Y-93618645D01*
X139541581Y-93618643D01*
X139543903Y-93613663D01*
X139605063Y-93385408D01*
X139625659Y-93150000D01*
X139605063Y-92914592D01*
X139543903Y-92686337D01*
X139462211Y-92511149D01*
X139446358Y-92477152D01*
X139446356Y-92477149D01*
X139444035Y-92472171D01*
X139308495Y-92278599D01*
X139141401Y-92111505D01*
X139136893Y-92108348D01*
X139136890Y-92108346D01*
X138965322Y-91988213D01*
X138958181Y-91983213D01*
X138913853Y-91927756D01*
X138909625Y-91886902D01*
X142346009Y-91886902D01*
X142346833Y-91907865D01*
X142349403Y-91973286D01*
X142349500Y-91978233D01*
X142349500Y-98605970D01*
X142364546Y-98769711D01*
X142424435Y-98982064D01*
X142522020Y-99179947D01*
X142525474Y-99184573D01*
X142525475Y-99184574D01*
X142582094Y-99260396D01*
X142654033Y-99356733D01*
X142710613Y-99409035D01*
X142764451Y-99458802D01*
X142816051Y-99506501D01*
X143002650Y-99624236D01*
X143207579Y-99705994D01*
X143213239Y-99707120D01*
X143213243Y-99707121D01*
X143418309Y-99747911D01*
X143418312Y-99747911D01*
X143423976Y-99749038D01*
X143429751Y-99749114D01*
X143429755Y-99749114D01*
X143540496Y-99750563D01*
X143644594Y-99751926D01*
X143650292Y-99750947D01*
X143856346Y-99715541D01*
X143856347Y-99715541D01*
X143862043Y-99714562D01*
X144069043Y-99638196D01*
X144119440Y-99608213D01*
X144253694Y-99528340D01*
X144253695Y-99528339D01*
X144258659Y-99525386D01*
X144424543Y-99379910D01*
X144449626Y-99348092D01*
X144507506Y-99306978D01*
X144578427Y-99303684D01*
X144639869Y-99339255D01*
X144649532Y-99350705D01*
X144654033Y-99356733D01*
X144710613Y-99409035D01*
X144764451Y-99458802D01*
X144816051Y-99506501D01*
X145002650Y-99624236D01*
X145207579Y-99705994D01*
X145213239Y-99707120D01*
X145213243Y-99707121D01*
X145418309Y-99747911D01*
X145418312Y-99747911D01*
X145423976Y-99749038D01*
X145429751Y-99749114D01*
X145429755Y-99749114D01*
X145540496Y-99750563D01*
X145644594Y-99751926D01*
X145650292Y-99750947D01*
X145856346Y-99715541D01*
X145856347Y-99715541D01*
X145862043Y-99714562D01*
X146069043Y-99638196D01*
X146119440Y-99608213D01*
X146253694Y-99528340D01*
X146253695Y-99528339D01*
X146258659Y-99525386D01*
X146424543Y-99379910D01*
X146561137Y-99206640D01*
X146663869Y-99011380D01*
X146729297Y-98800667D01*
X146733642Y-98763954D01*
X146750064Y-98625211D01*
X146750064Y-98625205D01*
X146750500Y-98621524D01*
X146750500Y-95600000D01*
X154814650Y-95600000D01*
X154833997Y-95784075D01*
X154891193Y-95960104D01*
X154894496Y-95965825D01*
X154980434Y-96114676D01*
X154980437Y-96114680D01*
X154983737Y-96120396D01*
X154988155Y-96125303D01*
X154988156Y-96125304D01*
X155022679Y-96163645D01*
X155107585Y-96257943D01*
X155112924Y-96261822D01*
X155251974Y-96362848D01*
X155257325Y-96366736D01*
X155263353Y-96369420D01*
X155263355Y-96369421D01*
X155420381Y-96439333D01*
X155426412Y-96442018D01*
X155516934Y-96461259D01*
X155600999Y-96479128D01*
X155601003Y-96479128D01*
X155607456Y-96480500D01*
X155792544Y-96480500D01*
X155798997Y-96479128D01*
X155799001Y-96479128D01*
X155883066Y-96461259D01*
X155973588Y-96442018D01*
X155979619Y-96439333D01*
X156136645Y-96369421D01*
X156136647Y-96369420D01*
X156142675Y-96366736D01*
X156148027Y-96362848D01*
X156287076Y-96261822D01*
X156292415Y-96257943D01*
X156377322Y-96163645D01*
X156406364Y-96131390D01*
X156466810Y-96094151D01*
X156537794Y-96095503D01*
X156593636Y-96131390D01*
X156622679Y-96163645D01*
X156707585Y-96257943D01*
X156712924Y-96261822D01*
X156851974Y-96362848D01*
X156857325Y-96366736D01*
X156863353Y-96369420D01*
X156863355Y-96369421D01*
X157020381Y-96439333D01*
X157026412Y-96442018D01*
X157116934Y-96461259D01*
X157200999Y-96479128D01*
X157201003Y-96479128D01*
X157207456Y-96480500D01*
X157392544Y-96480500D01*
X157398997Y-96479128D01*
X157399001Y-96479128D01*
X157483066Y-96461259D01*
X157573588Y-96442018D01*
X157579619Y-96439333D01*
X157736645Y-96369421D01*
X157736647Y-96369420D01*
X157742675Y-96366736D01*
X157748027Y-96362848D01*
X157887076Y-96261822D01*
X157892415Y-96257943D01*
X157977322Y-96163645D01*
X158006364Y-96131390D01*
X158066810Y-96094151D01*
X158137794Y-96095503D01*
X158193636Y-96131390D01*
X158222679Y-96163645D01*
X158307585Y-96257943D01*
X158312924Y-96261822D01*
X158451974Y-96362848D01*
X158457325Y-96366736D01*
X158463353Y-96369420D01*
X158463355Y-96369421D01*
X158620381Y-96439333D01*
X158626412Y-96442018D01*
X158716934Y-96461259D01*
X158800999Y-96479128D01*
X158801003Y-96479128D01*
X158807456Y-96480500D01*
X158992544Y-96480500D01*
X158998997Y-96479128D01*
X158999001Y-96479128D01*
X159083066Y-96461259D01*
X159173588Y-96442018D01*
X159179619Y-96439333D01*
X159336645Y-96369421D01*
X159336647Y-96369420D01*
X159342675Y-96366736D01*
X159348027Y-96362848D01*
X159487076Y-96261822D01*
X159492415Y-96257943D01*
X159577322Y-96163645D01*
X159611844Y-96125304D01*
X159611845Y-96125303D01*
X159616263Y-96120396D01*
X159619565Y-96114677D01*
X159623063Y-96109862D01*
X159679286Y-96066507D01*
X159750022Y-96060431D01*
X159812814Y-96093563D01*
X159826937Y-96109862D01*
X159830435Y-96114677D01*
X159833737Y-96120396D01*
X159838155Y-96125303D01*
X159838156Y-96125304D01*
X159872679Y-96163645D01*
X159957585Y-96257943D01*
X159962924Y-96261822D01*
X160101974Y-96362848D01*
X160107325Y-96366736D01*
X160113353Y-96369420D01*
X160113355Y-96369421D01*
X160270381Y-96439333D01*
X160276412Y-96442018D01*
X160366934Y-96461259D01*
X160450999Y-96479128D01*
X160451003Y-96479128D01*
X160457456Y-96480500D01*
X160642544Y-96480500D01*
X160648997Y-96479128D01*
X160649001Y-96479128D01*
X160733066Y-96461259D01*
X160823588Y-96442018D01*
X160829619Y-96439333D01*
X160986645Y-96369421D01*
X160986647Y-96369420D01*
X160992675Y-96366736D01*
X160998027Y-96362848D01*
X161137076Y-96261822D01*
X161142415Y-96257943D01*
X161227322Y-96163645D01*
X161261844Y-96125304D01*
X161261845Y-96125303D01*
X161266263Y-96120396D01*
X161269563Y-96114680D01*
X161269566Y-96114676D01*
X161355504Y-95965825D01*
X161358807Y-95960104D01*
X161416003Y-95784075D01*
X161435350Y-95600000D01*
X161420034Y-95454277D01*
X161416693Y-95422486D01*
X161416692Y-95422482D01*
X161416003Y-95415925D01*
X161358807Y-95239896D01*
X161354044Y-95231647D01*
X161269566Y-95085324D01*
X161269563Y-95085320D01*
X161266263Y-95079604D01*
X161142415Y-94942057D01*
X160992675Y-94833264D01*
X160986647Y-94830580D01*
X160986645Y-94830579D01*
X160829619Y-94760667D01*
X160829618Y-94760667D01*
X160823588Y-94757982D01*
X160733066Y-94738741D01*
X160649001Y-94720872D01*
X160648997Y-94720872D01*
X160642544Y-94719500D01*
X160457456Y-94719500D01*
X160451003Y-94720872D01*
X160450999Y-94720872D01*
X160366934Y-94738741D01*
X160276412Y-94757982D01*
X160270382Y-94760667D01*
X160270381Y-94760667D01*
X160113355Y-94830579D01*
X160113353Y-94830580D01*
X160107325Y-94833264D01*
X159957585Y-94942057D01*
X159833737Y-95079604D01*
X159830435Y-95085323D01*
X159826937Y-95090138D01*
X159770714Y-95133493D01*
X159699978Y-95139569D01*
X159637186Y-95106437D01*
X159623063Y-95090138D01*
X159619565Y-95085323D01*
X159616263Y-95079604D01*
X159492415Y-94942057D01*
X159342675Y-94833264D01*
X159336647Y-94830580D01*
X159336645Y-94830579D01*
X159179619Y-94760667D01*
X159179618Y-94760667D01*
X159173588Y-94757982D01*
X159083066Y-94738741D01*
X158999001Y-94720872D01*
X158998997Y-94720872D01*
X158992544Y-94719500D01*
X158807456Y-94719500D01*
X158801003Y-94720872D01*
X158800999Y-94720872D01*
X158716934Y-94738741D01*
X158626412Y-94757982D01*
X158620382Y-94760667D01*
X158620381Y-94760667D01*
X158463355Y-94830579D01*
X158463353Y-94830580D01*
X158457325Y-94833264D01*
X158307585Y-94942057D01*
X158303172Y-94946959D01*
X158303170Y-94946960D01*
X158193636Y-95068610D01*
X158133190Y-95105849D01*
X158062206Y-95104497D01*
X158006364Y-95068610D01*
X157896830Y-94946960D01*
X157896828Y-94946959D01*
X157892415Y-94942057D01*
X157742675Y-94833264D01*
X157736647Y-94830580D01*
X157736645Y-94830579D01*
X157579619Y-94760667D01*
X157579618Y-94760667D01*
X157573588Y-94757982D01*
X157483066Y-94738741D01*
X157399001Y-94720872D01*
X157398997Y-94720872D01*
X157392544Y-94719500D01*
X157207456Y-94719500D01*
X157201003Y-94720872D01*
X157200999Y-94720872D01*
X157116934Y-94738741D01*
X157026412Y-94757982D01*
X157020382Y-94760667D01*
X157020381Y-94760667D01*
X156863355Y-94830579D01*
X156863353Y-94830580D01*
X156857325Y-94833264D01*
X156707585Y-94942057D01*
X156703172Y-94946959D01*
X156703170Y-94946960D01*
X156593636Y-95068610D01*
X156533190Y-95105849D01*
X156462206Y-95104497D01*
X156406364Y-95068610D01*
X156296830Y-94946960D01*
X156296828Y-94946959D01*
X156292415Y-94942057D01*
X156142675Y-94833264D01*
X156136647Y-94830580D01*
X156136645Y-94830579D01*
X155979619Y-94760667D01*
X155979618Y-94760667D01*
X155973588Y-94757982D01*
X155883066Y-94738741D01*
X155799001Y-94720872D01*
X155798997Y-94720872D01*
X155792544Y-94719500D01*
X155607456Y-94719500D01*
X155601003Y-94720872D01*
X155600999Y-94720872D01*
X155516934Y-94738741D01*
X155426412Y-94757982D01*
X155420382Y-94760667D01*
X155420381Y-94760667D01*
X155263355Y-94830579D01*
X155263353Y-94830580D01*
X155257325Y-94833264D01*
X155107585Y-94942057D01*
X154983737Y-95079604D01*
X154980437Y-95085320D01*
X154980434Y-95085324D01*
X154895956Y-95231647D01*
X154891193Y-95239896D01*
X154833997Y-95415925D01*
X154833308Y-95422482D01*
X154833307Y-95422486D01*
X154829966Y-95454277D01*
X154814650Y-95600000D01*
X146750500Y-95600000D01*
X146750500Y-93449454D01*
X146770502Y-93381333D01*
X146787405Y-93360359D01*
X154136400Y-86011363D01*
X154138458Y-86009305D01*
X154140348Y-86007033D01*
X154239908Y-85887325D01*
X154239911Y-85887321D01*
X154243601Y-85882884D01*
X154246420Y-85877850D01*
X154246423Y-85877846D01*
X154348587Y-85695421D01*
X154348588Y-85695420D01*
X154351410Y-85690380D01*
X154353266Y-85684913D01*
X154353268Y-85684908D01*
X154420475Y-85486921D01*
X154420476Y-85486916D01*
X154422331Y-85481452D01*
X154453990Y-85263098D01*
X154448219Y-85116211D01*
X154445555Y-85048405D01*
X154445555Y-85048403D01*
X154445328Y-85042632D01*
X154444054Y-85037001D01*
X154444053Y-85036995D01*
X154404489Y-84862152D01*
X154396634Y-84827436D01*
X154368844Y-84762753D01*
X154311819Y-84630023D01*
X154311817Y-84630020D01*
X154309539Y-84624717D01*
X154223132Y-84495400D01*
X154190170Y-84446069D01*
X154186960Y-84441265D01*
X154033002Y-84283222D01*
X153976796Y-84243499D01*
X153857538Y-84159216D01*
X153852822Y-84155883D01*
X153652452Y-84063511D01*
X153438604Y-84009201D01*
X153218439Y-83994770D01*
X152999332Y-84020704D01*
X152788620Y-84086131D01*
X152739824Y-84111804D01*
X152598473Y-84186172D01*
X152598470Y-84186174D01*
X152593359Y-84188863D01*
X152548009Y-84224614D01*
X152468412Y-84287364D01*
X152451693Y-84300544D01*
X149465595Y-87286642D01*
X149403283Y-87320668D01*
X149332468Y-87315603D01*
X149275632Y-87273056D01*
X149250821Y-87206536D01*
X149250500Y-87197547D01*
X149250500Y-85144030D01*
X149235454Y-84980289D01*
X149175565Y-84767936D01*
X149077980Y-84570053D01*
X149032841Y-84509604D01*
X148949420Y-84397891D01*
X148949420Y-84397890D01*
X148945967Y-84393267D01*
X148783949Y-84243499D01*
X148597350Y-84125764D01*
X148392421Y-84044006D01*
X148386761Y-84042880D01*
X148386757Y-84042879D01*
X148181691Y-84002089D01*
X148181688Y-84002089D01*
X148176024Y-84000962D01*
X148170249Y-84000886D01*
X148170245Y-84000886D01*
X148059504Y-83999437D01*
X147955406Y-83998074D01*
X147949709Y-83999053D01*
X147949708Y-83999053D01*
X147743654Y-84034459D01*
X147743653Y-84034459D01*
X147737957Y-84035438D01*
X147530957Y-84111804D01*
X147525996Y-84114756D01*
X147525995Y-84114756D01*
X147418388Y-84178776D01*
X147341341Y-84224614D01*
X147175457Y-84370090D01*
X147038863Y-84543360D01*
X146936131Y-84738620D01*
X146870703Y-84949333D01*
X146870024Y-84955070D01*
X146856853Y-85066355D01*
X146849500Y-85128476D01*
X146849500Y-86900546D01*
X146829498Y-86968667D01*
X146812595Y-86989641D01*
X142732757Y-91069480D01*
X142726739Y-91075117D01*
X142675457Y-91120090D01*
X142671885Y-91124621D01*
X142617889Y-91193114D01*
X142615814Y-91195676D01*
X142563273Y-91258851D01*
X142556398Y-91267117D01*
X142553573Y-91272161D01*
X142553502Y-91272287D01*
X142542529Y-91288709D01*
X142542438Y-91288824D01*
X142542435Y-91288829D01*
X142538863Y-91293360D01*
X142536173Y-91298473D01*
X142495585Y-91375617D01*
X142494021Y-91378498D01*
X142448590Y-91459621D01*
X142446690Y-91465220D01*
X142438884Y-91483387D01*
X142436131Y-91488620D01*
X142434418Y-91494137D01*
X142408569Y-91577384D01*
X142407550Y-91580520D01*
X142382779Y-91653495D01*
X142377669Y-91668548D01*
X142376818Y-91674416D01*
X142372461Y-91693670D01*
X142372415Y-91693817D01*
X142372414Y-91693823D01*
X142370703Y-91699333D01*
X142370025Y-91705061D01*
X142370024Y-91705066D01*
X142359777Y-91791650D01*
X142359346Y-91794922D01*
X142347010Y-91880000D01*
X142346009Y-91886902D01*
X138909625Y-91886902D01*
X138906544Y-91857137D01*
X138938575Y-91793776D01*
X138958181Y-91776787D01*
X139136890Y-91651654D01*
X139136893Y-91651652D01*
X139141401Y-91648495D01*
X139308495Y-91481401D01*
X139444035Y-91287829D01*
X139451283Y-91272287D01*
X139541580Y-91078645D01*
X139541581Y-91078643D01*
X139543903Y-91073663D01*
X139605063Y-90845408D01*
X139625659Y-90610000D01*
X139605063Y-90374592D01*
X139543903Y-90146337D01*
X139462211Y-89971149D01*
X139446358Y-89937152D01*
X139446356Y-89937149D01*
X139444035Y-89932171D01*
X139308495Y-89738599D01*
X139141401Y-89571505D01*
X139136893Y-89568348D01*
X139136890Y-89568346D01*
X138965322Y-89448213D01*
X138958181Y-89443213D01*
X138913853Y-89387756D01*
X138906544Y-89317137D01*
X138938575Y-89253776D01*
X138958181Y-89236787D01*
X139136890Y-89111654D01*
X139136893Y-89111652D01*
X139141401Y-89108495D01*
X139308495Y-88941401D01*
X139444035Y-88747829D01*
X139459880Y-88713851D01*
X139541580Y-88538645D01*
X139541581Y-88538643D01*
X139543903Y-88533663D01*
X139605063Y-88305408D01*
X139625659Y-88070000D01*
X139605063Y-87834592D01*
X139543903Y-87606337D01*
X139462211Y-87431149D01*
X139446358Y-87397152D01*
X139446356Y-87397149D01*
X139444035Y-87392171D01*
X139308495Y-87198599D01*
X139141401Y-87031505D01*
X139136893Y-87028348D01*
X139136890Y-87028346D01*
X138965322Y-86908213D01*
X138958181Y-86903213D01*
X138913853Y-86847756D01*
X138906544Y-86777137D01*
X138938575Y-86713776D01*
X138958181Y-86696787D01*
X139136890Y-86571654D01*
X139136893Y-86571652D01*
X139141401Y-86568495D01*
X139308495Y-86401401D01*
X139444035Y-86207829D01*
X139459880Y-86173851D01*
X139541580Y-85998645D01*
X139541581Y-85998643D01*
X139543903Y-85993663D01*
X139605063Y-85765408D01*
X139625659Y-85530000D01*
X139605063Y-85294592D01*
X139543903Y-85066337D01*
X139532849Y-85042632D01*
X139446358Y-84857152D01*
X139446356Y-84857149D01*
X139444035Y-84852171D01*
X139308495Y-84658599D01*
X139141401Y-84491505D01*
X139136893Y-84488348D01*
X139136890Y-84488346D01*
X138974489Y-84374632D01*
X138958181Y-84363213D01*
X138913853Y-84307756D01*
X138906544Y-84237137D01*
X138938575Y-84173776D01*
X138958181Y-84156787D01*
X138962926Y-84153465D01*
X139055244Y-84088823D01*
X139136890Y-84031654D01*
X139136893Y-84031652D01*
X139141401Y-84028495D01*
X139308495Y-83861401D01*
X139444035Y-83667829D01*
X139459880Y-83633851D01*
X139541580Y-83458645D01*
X139541581Y-83458643D01*
X139543903Y-83453663D01*
X139605063Y-83225408D01*
X139625659Y-82990000D01*
X139605063Y-82754592D01*
X139543903Y-82526337D01*
X139462211Y-82351149D01*
X139446358Y-82317152D01*
X139446356Y-82317149D01*
X139444035Y-82312171D01*
X139308495Y-82118599D01*
X139141401Y-81951505D01*
X139136893Y-81948348D01*
X139136890Y-81948346D01*
X138965322Y-81828213D01*
X138958181Y-81823213D01*
X138913853Y-81767756D01*
X138906544Y-81697137D01*
X138938575Y-81633776D01*
X138958181Y-81616787D01*
X139136890Y-81491654D01*
X139136893Y-81491652D01*
X139141401Y-81488495D01*
X139308495Y-81321401D01*
X139444035Y-81127829D01*
X139459880Y-81093851D01*
X139541580Y-80918645D01*
X139541581Y-80918643D01*
X139543903Y-80913663D01*
X139605063Y-80685408D01*
X139625659Y-80450000D01*
X139605063Y-80214592D01*
X139543903Y-79986337D01*
X139462211Y-79811149D01*
X139446358Y-79777152D01*
X139446356Y-79777149D01*
X139444035Y-79772171D01*
X139308495Y-79578599D01*
X139141401Y-79411505D01*
X139136891Y-79408347D01*
X139136885Y-79408342D01*
X139038872Y-79339713D01*
X138994543Y-79284256D01*
X138987234Y-79213637D01*
X139019264Y-79150276D01*
X139080466Y-79114291D01*
X139111142Y-79110500D01*
X139395271Y-79110500D01*
X139403513Y-79110770D01*
X139471560Y-79115230D01*
X139563927Y-79104298D01*
X139567149Y-79103960D01*
X139659711Y-79095454D01*
X139665278Y-79093884D01*
X139665282Y-79093883D01*
X139665406Y-79093848D01*
X139684789Y-79089992D01*
X139684929Y-79089975D01*
X139690667Y-79089296D01*
X139779459Y-79061726D01*
X139782535Y-79060814D01*
X139872064Y-79035565D01*
X139877241Y-79033012D01*
X139877251Y-79033008D01*
X139877376Y-79032946D01*
X139895737Y-79025621D01*
X139895860Y-79025583D01*
X139895864Y-79025581D01*
X139901379Y-79023869D01*
X139983634Y-78980593D01*
X139986565Y-78979099D01*
X140069947Y-78937980D01*
X140074693Y-78934436D01*
X140091405Y-78923892D01*
X140096641Y-78921137D01*
X140169663Y-78863572D01*
X140172265Y-78861575D01*
X140242109Y-78809420D01*
X140246733Y-78805967D01*
X140305418Y-78742482D01*
X140308847Y-78738917D01*
X147110359Y-71937405D01*
X147172671Y-71903379D01*
X147199454Y-71900500D01*
X162737444Y-71900500D01*
X162805565Y-71920502D01*
G37*
%TD.AperFunction*%
%TA.AperFunction,Conductor*%
G36*
X152286621Y-104825502D02*
G01*
X152333114Y-104879158D01*
X152344500Y-104931500D01*
X152344500Y-108671896D01*
X152344757Y-108674730D01*
X152350700Y-108740351D01*
X152352725Y-108762714D01*
X152360859Y-108807252D01*
X152361617Y-108809979D01*
X152365807Y-108825061D01*
X152369492Y-108843652D01*
X152374541Y-108885376D01*
X152374197Y-108918268D01*
X152366666Y-108971179D01*
X152364348Y-108983227D01*
X152363636Y-108986151D01*
X152362784Y-108989042D01*
X152362598Y-108990004D01*
X152362694Y-108990022D01*
X152361500Y-108994926D01*
X152358711Y-108994247D01*
X152358542Y-108995328D01*
X152361459Y-108995892D01*
X152353704Y-109035974D01*
X152353417Y-109038968D01*
X152349740Y-109077334D01*
X152344500Y-109131997D01*
X152344500Y-113571896D01*
X152352725Y-113662714D01*
X152360859Y-113707252D01*
X152365807Y-113725061D01*
X152369492Y-113743652D01*
X152374541Y-113785376D01*
X152374197Y-113818268D01*
X152366666Y-113871179D01*
X152364348Y-113883227D01*
X152363636Y-113886151D01*
X152362784Y-113889042D01*
X152362598Y-113890004D01*
X152362694Y-113890022D01*
X152361500Y-113894926D01*
X152358711Y-113894247D01*
X152358542Y-113895328D01*
X152361459Y-113895892D01*
X152353704Y-113935974D01*
X152344500Y-114031997D01*
X152344500Y-118471896D01*
X152348612Y-118517305D01*
X152351574Y-118550000D01*
X152352725Y-118562714D01*
X152360859Y-118607252D01*
X152361617Y-118609979D01*
X152365807Y-118625061D01*
X152369492Y-118643652D01*
X152374541Y-118685376D01*
X152374197Y-118718268D01*
X152366666Y-118771179D01*
X152364348Y-118783227D01*
X152363636Y-118786151D01*
X152362784Y-118789042D01*
X152362598Y-118790004D01*
X152362694Y-118790022D01*
X152361500Y-118794926D01*
X152358711Y-118794247D01*
X152358542Y-118795328D01*
X152361459Y-118795892D01*
X152353704Y-118835974D01*
X152344500Y-118931997D01*
X152344500Y-123371896D01*
X152352725Y-123462714D01*
X152360859Y-123507252D01*
X152361617Y-123509979D01*
X152365807Y-123525061D01*
X152369492Y-123543652D01*
X152374541Y-123585376D01*
X152374197Y-123618268D01*
X152366666Y-123671179D01*
X152364348Y-123683227D01*
X152363636Y-123686151D01*
X152362784Y-123689042D01*
X152362598Y-123690004D01*
X152362694Y-123690022D01*
X152361500Y-123694926D01*
X152358711Y-123694247D01*
X152358542Y-123695328D01*
X152361459Y-123695892D01*
X152353704Y-123735974D01*
X152353417Y-123738968D01*
X152345142Y-123825304D01*
X152344500Y-123831997D01*
X152344500Y-124224000D01*
X152356052Y-124331449D01*
X152367438Y-124383791D01*
X152401567Y-124486333D01*
X152479354Y-124607373D01*
X152525847Y-124661029D01*
X152632306Y-124753276D01*
X152670689Y-124813002D01*
X152670689Y-124883998D01*
X152632306Y-124943724D01*
X152567725Y-124973217D01*
X152549793Y-124974500D01*
X151441484Y-124974500D01*
X151373363Y-124954498D01*
X151326870Y-124900842D01*
X151316766Y-124830568D01*
X151346260Y-124765988D01*
X151373364Y-124742502D01*
X151403579Y-124723084D01*
X151407373Y-124720646D01*
X151461029Y-124674153D01*
X151483506Y-124648213D01*
X151549350Y-124572226D01*
X151549352Y-124572223D01*
X151555252Y-124565414D01*
X151615022Y-124434536D01*
X151626791Y-124394455D01*
X151633758Y-124370727D01*
X151633758Y-124370726D01*
X151635024Y-124366415D01*
X151639579Y-124334737D01*
X151654861Y-124228446D01*
X151654861Y-124228443D01*
X151655500Y-124224000D01*
X151655500Y-105276000D01*
X151643948Y-105168551D01*
X151632562Y-105116209D01*
X151598433Y-105013667D01*
X151589404Y-104999617D01*
X151569404Y-104931497D01*
X151589408Y-104863377D01*
X151643064Y-104816885D01*
X151695404Y-104805500D01*
X152218500Y-104805500D01*
X152286621Y-104825502D01*
G37*
%TD.AperFunction*%
%TA.AperFunction,Conductor*%
G36*
X165345565Y-71920502D02*
G01*
X165392058Y-71974158D01*
X165402162Y-72044432D01*
X165376394Y-72104506D01*
X165299975Y-72201443D01*
X165293704Y-72211100D01*
X165200679Y-72387912D01*
X165196273Y-72398549D01*
X165144993Y-72563698D01*
X165144774Y-72577799D01*
X165151506Y-72581000D01*
X166393000Y-72581000D01*
X166461121Y-72601002D01*
X166507614Y-72654658D01*
X166519000Y-72707000D01*
X166519000Y-72963000D01*
X166498998Y-73031121D01*
X166445342Y-73077614D01*
X166393000Y-73089000D01*
X165161030Y-73089000D01*
X165147499Y-73092973D01*
X165146207Y-73101962D01*
X165174897Y-73214928D01*
X165178735Y-73225766D01*
X165262386Y-73407218D01*
X165268137Y-73417179D01*
X165383455Y-73580350D01*
X165390921Y-73589092D01*
X165534047Y-73728520D01*
X165542981Y-73735754D01*
X165709112Y-73846760D01*
X165719224Y-73852251D01*
X165781210Y-73878881D01*
X165835903Y-73924148D01*
X165857441Y-73991799D01*
X165838985Y-74060355D01*
X165784723Y-74108844D01*
X165592152Y-74198642D01*
X165592149Y-74198644D01*
X165587171Y-74200965D01*
X165393599Y-74336505D01*
X165226505Y-74503599D01*
X165098213Y-74686820D01*
X165042756Y-74731149D01*
X164972137Y-74738458D01*
X164908776Y-74706428D01*
X164891787Y-74686820D01*
X164763495Y-74503599D01*
X164596401Y-74336505D01*
X164591893Y-74333348D01*
X164591890Y-74333346D01*
X164407339Y-74204122D01*
X164407336Y-74204120D01*
X164402830Y-74200965D01*
X164397848Y-74198642D01*
X164397843Y-74198639D01*
X164217155Y-74114383D01*
X164209297Y-74110719D01*
X164156012Y-74063802D01*
X164136551Y-73995524D01*
X164157093Y-73927564D01*
X164200981Y-73886589D01*
X164374124Y-73789625D01*
X164383596Y-73783115D01*
X164537219Y-73655348D01*
X164545348Y-73647219D01*
X164673115Y-73493596D01*
X164679625Y-73484124D01*
X164777258Y-73309786D01*
X164781934Y-73299283D01*
X164846160Y-73110081D01*
X164848845Y-73098898D01*
X164877811Y-72899118D01*
X164878441Y-72891736D01*
X164879830Y-72838704D01*
X164879587Y-72831305D01*
X164861117Y-72630285D01*
X164859020Y-72618971D01*
X164804785Y-72426670D01*
X164800663Y-72415931D01*
X164712292Y-72236733D01*
X164706282Y-72226925D01*
X164612913Y-72101889D01*
X164588181Y-72035339D01*
X164603355Y-71965983D01*
X164653617Y-71915841D01*
X164713871Y-71900500D01*
X165277444Y-71900500D01*
X165345565Y-71920502D01*
G37*
%TD.AperFunction*%
%TD*%
%TA.AperFunction,Conductor*%
%TO.N,VDDA*%
G36*
X144956580Y-101670002D02*
G01*
X145003073Y-101723658D01*
X145013177Y-101793932D01*
X145008085Y-101811667D01*
X145008817Y-101811867D01*
X145006325Y-101821007D01*
X145002494Y-101829673D01*
X144999500Y-101855354D01*
X144999500Y-102944646D01*
X145002618Y-102970846D01*
X145048061Y-103073153D01*
X145127287Y-103152241D01*
X145137924Y-103156944D01*
X145137926Y-103156945D01*
X145193776Y-103181636D01*
X145229673Y-103197506D01*
X145255354Y-103200500D01*
X146344646Y-103200500D01*
X146348350Y-103200059D01*
X146348353Y-103200059D01*
X146355746Y-103199179D01*
X146370846Y-103197382D01*
X146389465Y-103189112D01*
X146462518Y-103156663D01*
X146473153Y-103151939D01*
X146552241Y-103072713D01*
X146575237Y-103020699D01*
X146593675Y-102978992D01*
X146597506Y-102970327D01*
X146600500Y-102944646D01*
X146600500Y-101855354D01*
X146597382Y-101829154D01*
X146593544Y-101820513D01*
X146591039Y-101811400D01*
X146594275Y-101810511D01*
X146587118Y-101756772D01*
X146617281Y-101692501D01*
X146677404Y-101654741D01*
X146711642Y-101650000D01*
X147004755Y-101650000D01*
X147064877Y-101665269D01*
X147197651Y-101737360D01*
X147356967Y-101779156D01*
X147444181Y-101780526D01*
X147514057Y-101781624D01*
X147514060Y-101781624D01*
X147521654Y-101781743D01*
X147593858Y-101765206D01*
X147674801Y-101746668D01*
X147674805Y-101746667D01*
X147682204Y-101744972D01*
X147829349Y-101670966D01*
X147830166Y-101670268D01*
X147897298Y-101650000D01*
X154524000Y-101650000D01*
X154592121Y-101670002D01*
X154638614Y-101723658D01*
X154650000Y-101776000D01*
X154650000Y-124224000D01*
X154629998Y-124292121D01*
X154576342Y-124338614D01*
X154524000Y-124350000D01*
X152976000Y-124350000D01*
X152907879Y-124329998D01*
X152861386Y-124276342D01*
X152850000Y-124224000D01*
X152850000Y-123831997D01*
X152857755Y-123791915D01*
X152857341Y-123791804D01*
X152858906Y-123785964D01*
X152859092Y-123785002D01*
X152859307Y-123784467D01*
X152862140Y-123777420D01*
X152885348Y-123614356D01*
X152885498Y-123600000D01*
X152884630Y-123592822D01*
X152866623Y-123444026D01*
X152865711Y-123436486D01*
X152858134Y-123416434D01*
X152850000Y-123371896D01*
X152850000Y-118931997D01*
X152857755Y-118891915D01*
X152857341Y-118891804D01*
X152858906Y-118885964D01*
X152859092Y-118885002D01*
X152859307Y-118884467D01*
X152862140Y-118877420D01*
X152885348Y-118714356D01*
X152885498Y-118700000D01*
X152884630Y-118692822D01*
X152866623Y-118544026D01*
X152865711Y-118536486D01*
X152858134Y-118516434D01*
X152850000Y-118471896D01*
X152850000Y-114031997D01*
X152857755Y-113991915D01*
X152857341Y-113991804D01*
X152858906Y-113985964D01*
X152859092Y-113985002D01*
X152859307Y-113984467D01*
X152862140Y-113977420D01*
X152885348Y-113814356D01*
X152885498Y-113800000D01*
X152884630Y-113792822D01*
X152866623Y-113644026D01*
X152865711Y-113636486D01*
X152858134Y-113616434D01*
X152850000Y-113571896D01*
X152850000Y-109131997D01*
X152857755Y-109091915D01*
X152857341Y-109091804D01*
X152858906Y-109085964D01*
X152859092Y-109085002D01*
X152859307Y-109084467D01*
X152862140Y-109077420D01*
X152885348Y-108914356D01*
X152885498Y-108900000D01*
X152884630Y-108892822D01*
X152866623Y-108744026D01*
X152865711Y-108736486D01*
X152858134Y-108716434D01*
X152850000Y-108671896D01*
X152850000Y-104300000D01*
X144076000Y-104300000D01*
X144007879Y-104279998D01*
X143961386Y-104226342D01*
X143950000Y-104174000D01*
X143950000Y-102846123D01*
X143969791Y-102780572D01*
X143969365Y-102780353D01*
X143970559Y-102778029D01*
X143971053Y-102776395D01*
X143976483Y-102768222D01*
X143991168Y-102729564D01*
X144037757Y-102606919D01*
X144037758Y-102606914D01*
X144040257Y-102600336D01*
X144065251Y-102422493D01*
X144065565Y-102400000D01*
X144045546Y-102221528D01*
X143986485Y-102051927D01*
X143969146Y-102024179D01*
X143950000Y-101957409D01*
X143950000Y-101776000D01*
X143970002Y-101707879D01*
X144023658Y-101661386D01*
X144076000Y-101650000D01*
X144888459Y-101650000D01*
X144956580Y-101670002D01*
G37*
%TD.AperFunction*%
%TD*%
%TA.AperFunction,Conductor*%
%TO.N,VDD*%
G36*
X151092121Y-105170002D02*
G01*
X151138614Y-105223658D01*
X151150000Y-105276000D01*
X151150000Y-124224000D01*
X151129998Y-124292121D01*
X151076342Y-124338614D01*
X151024000Y-124350000D01*
X146876000Y-124350000D01*
X146807879Y-124329998D01*
X146761386Y-124276342D01*
X146750000Y-124224000D01*
X146750000Y-105276000D01*
X146770002Y-105207879D01*
X146823658Y-105161386D01*
X146876000Y-105150000D01*
X151024000Y-105150000D01*
X151092121Y-105170002D01*
G37*
%TD.AperFunction*%
%TD*%
M02*
