%TF.GenerationSoftware,KiCad,Pcbnew,(6.0.5)*%
%TF.CreationDate,2025-06-10T19:53:23+02:00*%
%TF.ProjectId,LandShark_ADC_Bridge,4c616e64-5368-4617-926b-5f4144435f42,rev?*%
%TF.SameCoordinates,Original*%
%TF.FileFunction,Copper,L4,Bot*%
%TF.FilePolarity,Positive*%
%FSLAX46Y46*%
G04 Gerber Fmt 4.6, Leading zero omitted, Abs format (unit mm)*
G04 Created by KiCad (PCBNEW (6.0.5)) date 2025-06-10 19:53:23*
%MOMM*%
%LPD*%
G01*
G04 APERTURE LIST*
%TA.AperFunction,ComponentPad*%
%ADD10R,1.000000X1.000000*%
%TD*%
%TA.AperFunction,ComponentPad*%
%ADD11O,1.000000X1.000000*%
%TD*%
%TA.AperFunction,ComponentPad*%
%ADD12R,1.700000X1.700000*%
%TD*%
%TA.AperFunction,ComponentPad*%
%ADD13O,1.700000X1.700000*%
%TD*%
%TA.AperFunction,ViaPad*%
%ADD14C,0.760000*%
%TD*%
%TA.AperFunction,Conductor*%
%ADD15C,0.400000*%
%TD*%
G04 APERTURE END LIST*
D10*
%TO.P,J3,1,Pin_1*%
%TO.N,+2V5*%
X145800000Y-102400000D03*
D11*
%TO.P,J3,2,Pin_2*%
%TO.N,VDDA*%
X144530000Y-102400000D03*
%TO.P,J3,3,Pin_3*%
%TO.N,+3V3*%
X143260000Y-102400000D03*
%TD*%
D12*
%TO.P,J2,1,Pin_1*%
%TO.N,/VM*%
X163725000Y-126175000D03*
D13*
%TO.P,J2,2,Pin_2*%
%TO.N,GND*%
X166265000Y-126175000D03*
%TO.P,J2,3,Pin_3*%
X163725000Y-123635000D03*
%TO.P,J2,4,Pin_4*%
%TO.N,unconnected-(J2-Pad4)*%
X166265000Y-123635000D03*
%TO.P,J2,5,Pin_5*%
%TO.N,+5V*%
X163725000Y-121095000D03*
%TO.P,J2,6,Pin_6*%
%TO.N,unconnected-(J2-Pad6)*%
X166265000Y-121095000D03*
%TO.P,J2,7,Pin_7*%
%TO.N,/I2C2_SCL*%
X163725000Y-118555000D03*
%TO.P,J2,8,Pin_8*%
%TO.N,unconnected-(J2-Pad8)*%
X166265000Y-118555000D03*
%TO.P,J2,9,Pin_9*%
%TO.N,/ADC8*%
X163725000Y-116015000D03*
%TO.P,J2,10,Pin_10*%
%TO.N,unconnected-(J2-Pad10)*%
X166265000Y-116015000D03*
%TO.P,J2,11,Pin_11*%
%TO.N,/ADC9*%
X163725000Y-113475000D03*
%TO.P,J2,12,Pin_12*%
%TO.N,/I_Y2_SENSE*%
X166265000Y-113475000D03*
%TO.P,J2,13,Pin_13*%
%TO.N,unconnected-(J2-Pad13)*%
X163725000Y-110935000D03*
%TO.P,J2,14,Pin_14*%
%TO.N,/I_X1_SENSE*%
X166265000Y-110935000D03*
%TO.P,J2,15,Pin_15*%
%TO.N,/I_X2_SENSE*%
X163725000Y-108395000D03*
%TO.P,J2,16,Pin_16*%
%TO.N,/I_Y1_SENSE*%
X166265000Y-108395000D03*
%TO.P,J2,17,Pin_17*%
%TO.N,/Y2_H*%
X163725000Y-105855000D03*
%TO.P,J2,18,Pin_18*%
%TO.N,/Y2_L*%
X166265000Y-105855000D03*
%TO.P,J2,19,Pin_19*%
%TO.N,/Y1_H*%
X163725000Y-103315000D03*
%TO.P,J2,20,Pin_20*%
%TO.N,/Y1_L*%
X166265000Y-103315000D03*
%TO.P,J2,21,Pin_21*%
%TO.N,/X2_H*%
X163725000Y-100775000D03*
%TO.P,J2,22,Pin_22*%
%TO.N,/X2_L*%
X166265000Y-100775000D03*
%TO.P,J2,23,Pin_23*%
%TO.N,/X1_H*%
X163725000Y-98235000D03*
%TO.P,J2,24,Pin_24*%
%TO.N,/SPI2_NCS*%
X166265000Y-98235000D03*
%TO.P,J2,25,Pin_25*%
%TO.N,unconnected-(J2-Pad25)*%
X163725000Y-95695000D03*
%TO.P,J2,26,Pin_26*%
%TO.N,/X1_L*%
X166265000Y-95695000D03*
%TO.P,J2,27,Pin_27*%
%TO.N,/SPI2_SCK*%
X163725000Y-93155000D03*
%TO.P,J2,28,Pin_28*%
%TO.N,/SPI2_MISO*%
X166265000Y-93155000D03*
%TO.P,J2,29,Pin_29*%
%TO.N,/SPI2_MOSI*%
X163725000Y-90615000D03*
%TO.P,J2,30,Pin_30*%
%TO.N,/I_Y2*%
X166265000Y-90615000D03*
%TO.P,J2,31,Pin_31*%
%TO.N,/I_Y1*%
X163725000Y-88075000D03*
%TO.P,J2,32,Pin_32*%
%TO.N,/I_X2*%
X166265000Y-88075000D03*
%TO.P,J2,33,Pin_33*%
%TO.N,/I_X1*%
X163725000Y-85535000D03*
%TO.P,J2,34,Pin_34*%
%TO.N,unconnected-(J2-Pad34)*%
X166265000Y-85535000D03*
%TO.P,J2,35,Pin_35*%
%TO.N,unconnected-(J2-Pad35)*%
X163725000Y-82995000D03*
%TO.P,J2,36,Pin_36*%
%TO.N,unconnected-(J2-Pad36)*%
X166265000Y-82995000D03*
%TO.P,J2,37,Pin_37*%
%TO.N,unconnected-(J2-Pad37)*%
X163725000Y-80455000D03*
%TO.P,J2,38,Pin_38*%
%TO.N,/I_Y2*%
X166265000Y-80455000D03*
%TO.P,J2,39,Pin_39*%
%TO.N,unconnected-(J2-Pad39)*%
X163725000Y-77915000D03*
%TO.P,J2,40,Pin_40*%
%TO.N,/I2C2_SDA*%
X166265000Y-77915000D03*
%TO.P,J2,41,Pin_41*%
%TO.N,unconnected-(J2-Pad41)*%
X163725000Y-75375000D03*
%TO.P,J2,42,Pin_42*%
%TO.N,+5V*%
X166265000Y-75375000D03*
%TO.P,J2,43,Pin_43*%
%TO.N,GND*%
X163725000Y-72835000D03*
%TO.P,J2,44,Pin_44*%
X166265000Y-72835000D03*
%TD*%
D12*
%TO.P,J1,1,Pin_1*%
%TO.N,GND*%
X135730000Y-75370000D03*
D13*
%TO.P,J1,2,Pin_2*%
X138270000Y-75370000D03*
%TO.P,J1,3,Pin_3*%
%TO.N,+5V*%
X135730000Y-77910000D03*
%TO.P,J1,4,Pin_4*%
X138270000Y-77910000D03*
%TO.P,J1,5,Pin_5*%
%TO.N,/X1_H*%
X135730000Y-80450000D03*
%TO.P,J1,6,Pin_6*%
%TO.N,/X1_L*%
X138270000Y-80450000D03*
%TO.P,J1,7,Pin_7*%
%TO.N,/X2_H*%
X135730000Y-82990000D03*
%TO.P,J1,8,Pin_8*%
%TO.N,/X2_L*%
X138270000Y-82990000D03*
%TO.P,J1,9,Pin_9*%
%TO.N,/Y1_H*%
X135730000Y-85530000D03*
%TO.P,J1,10,Pin_10*%
%TO.N,/Y1_L*%
X138270000Y-85530000D03*
%TO.P,J1,11,Pin_11*%
%TO.N,/Y2_H*%
X135730000Y-88070000D03*
%TO.P,J1,12,Pin_12*%
%TO.N,/Y2_L*%
X138270000Y-88070000D03*
%TO.P,J1,13,Pin_13*%
%TO.N,/SPI2_MOSI*%
X135730000Y-90610000D03*
%TO.P,J1,14,Pin_14*%
%TO.N,/SPI2_MISO*%
X138270000Y-90610000D03*
%TO.P,J1,15,Pin_15*%
%TO.N,/SPI2_SCK*%
X135730000Y-93150000D03*
%TO.P,J1,16,Pin_16*%
%TO.N,/SPI2_NCS*%
X138270000Y-93150000D03*
%TO.P,J1,17,Pin_17*%
%TO.N,/I2C2_SDA*%
X135730000Y-95690000D03*
%TO.P,J1,18,Pin_18*%
%TO.N,/I2C2_SCL*%
X138270000Y-95690000D03*
%TO.P,J1,19,Pin_19*%
%TO.N,GND*%
X135730000Y-98230000D03*
%TO.P,J1,20,Pin_20*%
X138270000Y-98230000D03*
%TO.P,J1,21,Pin_21*%
%TO.N,/I_X1*%
X135730000Y-100770000D03*
%TO.P,J1,22,Pin_22*%
%TO.N,/I_X2*%
X138270000Y-100770000D03*
%TO.P,J1,23,Pin_23*%
%TO.N,/I_Y1*%
X135730000Y-103310000D03*
%TO.P,J1,24,Pin_24*%
%TO.N,/I_Y2*%
X138270000Y-103310000D03*
%TO.P,J1,25,Pin_25*%
%TO.N,/V_X1*%
X135730000Y-105850000D03*
%TO.P,J1,26,Pin_26*%
%TO.N,/V_X2*%
X138270000Y-105850000D03*
%TO.P,J1,27,Pin_27*%
%TO.N,/V_Y1*%
X135730000Y-108390000D03*
%TO.P,J1,28,Pin_28*%
%TO.N,/V_Y2*%
X138270000Y-108390000D03*
%TO.P,J1,29,Pin_29*%
%TO.N,/ADC8*%
X135730000Y-110930000D03*
%TO.P,J1,30,Pin_30*%
%TO.N,/ADC9*%
X138270000Y-110930000D03*
%TO.P,J1,31,Pin_31*%
%TO.N,/PS_GPIO0*%
X135730000Y-113470000D03*
%TO.P,J1,32,Pin_32*%
%TO.N,/PS_GPIO1*%
X138270000Y-113470000D03*
%TO.P,J1,33,Pin_33*%
%TO.N,/PS_GPIO2*%
X135730000Y-116010000D03*
%TO.P,J1,34,Pin_34*%
%TO.N,/PS_GPIO3*%
X138270000Y-116010000D03*
%TO.P,J1,35,Pin_35*%
%TO.N,/PS_GPIO4*%
X135730000Y-118550000D03*
%TO.P,J1,36,Pin_36*%
%TO.N,/PS_GPIO5*%
X138270000Y-118550000D03*
%TO.P,J1,37,Pin_37*%
%TO.N,GND*%
X135730000Y-121090000D03*
%TO.P,J1,38,Pin_38*%
X138270000Y-121090000D03*
%TO.P,J1,39,Pin_39*%
%TO.N,/VM*%
X135730000Y-123630000D03*
%TO.P,J1,40,Pin_40*%
X138270000Y-123630000D03*
%TD*%
D14*
%TO.N,GND*%
X156400000Y-113400000D03*
X156400000Y-118300000D03*
X152200000Y-123600000D03*
X149750000Y-77300000D03*
X146250000Y-74250000D03*
X146250000Y-83750000D03*
X141650000Y-101100000D03*
X151350000Y-83750000D03*
X152200000Y-118700000D03*
X152200000Y-108900000D03*
X156400000Y-109450000D03*
X151850000Y-105850000D03*
X147450000Y-101100000D03*
X156400000Y-123200000D03*
X152200000Y-113800000D03*
X144650000Y-77300000D03*
%TO.N,/I_X1*%
X155700000Y-95600000D03*
%TO.N,/I_X2*%
X157300000Y-95600000D03*
%TO.N,/I_Y1*%
X158900000Y-95600000D03*
%TO.N,/I_Y2*%
X160550000Y-95600000D03*
%TO.N,/V_Y1*%
X145500000Y-108550000D03*
X145500000Y-113400000D03*
%TO.N,/PS_GPIO3*%
X145500000Y-123300000D03*
X145500000Y-118300000D03*
%TO.N,+3V3*%
X148050000Y-85200000D03*
X143550000Y-98550000D03*
%TO.N,+2V5*%
X153250000Y-85200000D03*
X145550000Y-98550000D03*
%TO.N,VDDA*%
X153500000Y-118600000D03*
X153500000Y-123500000D03*
X153500000Y-113700000D03*
X153500000Y-108800000D03*
X147400000Y-103700000D03*
%TO.N,VDD*%
X148650000Y-110150000D03*
X148650000Y-115050000D03*
X148650000Y-119950000D03*
X150550000Y-123750000D03*
X147450000Y-105700000D03*
%TD*%
D15*
%TO.N,/SPI2_MOSI*%
X140100000Y-89350000D02*
X136990000Y-89350000D01*
X141365000Y-90615000D02*
X140100000Y-89350000D01*
X163725000Y-90615000D02*
X141365000Y-90615000D01*
X136990000Y-89350000D02*
X135730000Y-90610000D01*
%TO.N,/SPI2_MISO*%
X164974511Y-91864511D02*
X166265000Y-93155000D01*
X141114511Y-91864511D02*
X164974511Y-91864511D01*
X139860000Y-90610000D02*
X141114511Y-91864511D01*
X138270000Y-90610000D02*
X139860000Y-90610000D01*
%TO.N,/SPI2_SCK*%
X139650489Y-91900489D02*
X140905000Y-93155000D01*
X135730000Y-93150000D02*
X136979511Y-91900489D01*
X140905000Y-93155000D02*
X163725000Y-93155000D01*
X136979511Y-91900489D02*
X139650489Y-91900489D01*
%TO.N,/SPI2_NCS*%
X139524511Y-94404511D02*
X164242565Y-94404511D01*
X138270000Y-93150000D02*
X139524511Y-94404511D01*
X164242565Y-94404511D02*
X165015489Y-95177435D01*
X165015489Y-95177435D02*
X165015489Y-96985489D01*
X165015489Y-96985489D02*
X166265000Y-98235000D01*
%TO.N,/I2C2_SDA*%
X134885489Y-79164511D02*
X165015489Y-79164511D01*
X165015489Y-79164511D02*
X166265000Y-77915000D01*
X134100000Y-79950000D02*
X134885489Y-79164511D01*
X135730000Y-95690000D02*
X134100000Y-94060000D01*
X134100000Y-94060000D02*
X134100000Y-79950000D01*
%TO.N,/I2C2_SCL*%
X138270000Y-95690000D02*
X137010000Y-96950000D01*
X144650000Y-124700000D02*
X157580000Y-124700000D01*
X135100000Y-96950000D02*
X134100000Y-97950000D01*
X135090489Y-119840489D02*
X139790489Y-119840489D01*
X139790489Y-119840489D02*
X144650000Y-124700000D01*
X134100000Y-118850000D02*
X135090489Y-119840489D01*
X137010000Y-96950000D02*
X135100000Y-96950000D01*
X157580000Y-124700000D02*
X163725000Y-118555000D01*
X134100000Y-97950000D02*
X134100000Y-118850000D01*
%TO.N,/I_X1*%
X142700000Y-95600000D02*
X155700000Y-95600000D01*
X138779511Y-99520489D02*
X142700000Y-95600000D01*
X136979511Y-99520489D02*
X138779511Y-99520489D01*
X135730000Y-100770000D02*
X136979511Y-99520489D01*
%TO.N,/I_X2*%
X138270000Y-100770000D02*
X138530000Y-100770000D01*
X142850000Y-96450000D02*
X156450000Y-96450000D01*
X138530000Y-100770000D02*
X142850000Y-96450000D01*
X156450000Y-96450000D02*
X157300000Y-95600000D01*
%TO.N,/I_Y1*%
X143100000Y-97200000D02*
X157300000Y-97200000D01*
X139850000Y-100450000D02*
X143100000Y-97200000D01*
X139189511Y-102060489D02*
X139850000Y-101400000D01*
X136979511Y-102060489D02*
X139189511Y-102060489D01*
X139850000Y-101400000D02*
X139850000Y-100450000D01*
X157300000Y-97200000D02*
X158900000Y-95600000D01*
X135730000Y-103310000D02*
X136979511Y-102060489D01*
%TO.N,/I_Y2*%
X141900000Y-99500000D02*
X156650000Y-99500000D01*
X156650000Y-99500000D02*
X160550000Y-95600000D01*
X165015489Y-89365489D02*
X166265000Y-90615000D01*
X138270000Y-103310000D02*
X139440000Y-103310000D01*
X166265000Y-80455000D02*
X165015489Y-81704511D01*
X140650000Y-100750000D02*
X141900000Y-99500000D01*
X165015489Y-81704511D02*
X165015489Y-89365489D01*
X139440000Y-103310000D02*
X140650000Y-102100000D01*
X140650000Y-102100000D02*
X140650000Y-100750000D01*
%TO.N,/V_Y1*%
X142829022Y-108550000D02*
X141739511Y-109639511D01*
X145500000Y-108550000D02*
X142829022Y-108550000D01*
X136979511Y-109639511D02*
X141739511Y-109639511D01*
X141739511Y-109639511D02*
X145500000Y-113400000D01*
X135730000Y-108390000D02*
X136979511Y-109639511D01*
%TO.N,/ADC8*%
X162690000Y-117050000D02*
X143950000Y-117050000D01*
X143950000Y-117050000D02*
X139120489Y-112220489D01*
X139120489Y-112220489D02*
X137020489Y-112220489D01*
X163725000Y-116015000D02*
X162690000Y-117050000D01*
X137020489Y-112220489D02*
X135730000Y-110930000D01*
%TO.N,/ADC9*%
X144250000Y-116000000D02*
X139180000Y-110930000D01*
X139180000Y-110930000D02*
X138270000Y-110930000D01*
X161200000Y-116000000D02*
X144250000Y-116000000D01*
X163725000Y-113475000D02*
X161200000Y-116000000D01*
%TO.N,/PS_GPIO3*%
X142750000Y-118300000D02*
X142750000Y-120550000D01*
X142750000Y-118300000D02*
X145500000Y-118300000D01*
X140460000Y-116010000D02*
X142750000Y-118300000D01*
X138270000Y-116010000D02*
X140460000Y-116010000D01*
X142750000Y-120550000D02*
X145500000Y-123300000D01*
%TD*%
%TA.AperFunction,Conductor*%
%TO.N,GND*%
G36*
X165970643Y-69502000D02*
G01*
X165984952Y-69504228D01*
X165984953Y-69504228D01*
X165993823Y-69505609D01*
X166002725Y-69504445D01*
X166002728Y-69504445D01*
X166012694Y-69503142D01*
X166035210Y-69502230D01*
X166336833Y-69517048D01*
X166349129Y-69518258D01*
X166676603Y-69566835D01*
X166688709Y-69569242D01*
X167009858Y-69649686D01*
X167021684Y-69653274D01*
X167333364Y-69764796D01*
X167344788Y-69769527D01*
X167644059Y-69911071D01*
X167654964Y-69916900D01*
X167938912Y-70087092D01*
X167949193Y-70093962D01*
X168215087Y-70291163D01*
X168224645Y-70299007D01*
X168469933Y-70521323D01*
X168478677Y-70530067D01*
X168700993Y-70775355D01*
X168708837Y-70784913D01*
X168906038Y-71050807D01*
X168912908Y-71061088D01*
X169083100Y-71345036D01*
X169088929Y-71355941D01*
X169230473Y-71655212D01*
X169235204Y-71666636D01*
X169346726Y-71978316D01*
X169350314Y-71990142D01*
X169430758Y-72311291D01*
X169433165Y-72323397D01*
X169477010Y-72618971D01*
X169481741Y-72650866D01*
X169482952Y-72663165D01*
X169494182Y-72891736D01*
X169497413Y-72957507D01*
X169496064Y-72983077D01*
X169494391Y-72993823D01*
X169495555Y-73002725D01*
X169495555Y-73002728D01*
X169498436Y-73024756D01*
X169499500Y-73041093D01*
X169499500Y-125951259D01*
X169498000Y-125970643D01*
X169494391Y-125993823D01*
X169495555Y-126002725D01*
X169495555Y-126002728D01*
X169496858Y-126012694D01*
X169497770Y-126035214D01*
X169482953Y-126336828D01*
X169481742Y-126349129D01*
X169437144Y-126649786D01*
X169433167Y-126676594D01*
X169430758Y-126688709D01*
X169382540Y-126881206D01*
X169350316Y-127009852D01*
X169346726Y-127021684D01*
X169235204Y-127333364D01*
X169230473Y-127344788D01*
X169088929Y-127644059D01*
X169083100Y-127654964D01*
X168912908Y-127938912D01*
X168906038Y-127949193D01*
X168708837Y-128215087D01*
X168700993Y-128224645D01*
X168478677Y-128469933D01*
X168469933Y-128478677D01*
X168224645Y-128700993D01*
X168215087Y-128708837D01*
X167949193Y-128906038D01*
X167938912Y-128912908D01*
X167654964Y-129083100D01*
X167644059Y-129088929D01*
X167344788Y-129230473D01*
X167333364Y-129235204D01*
X167021684Y-129346726D01*
X167009858Y-129350314D01*
X166688709Y-129430758D01*
X166676603Y-129433165D01*
X166349129Y-129481742D01*
X166336835Y-129482952D01*
X166042488Y-129497413D01*
X166016923Y-129496064D01*
X166016307Y-129495968D01*
X166015049Y-129495772D01*
X166015047Y-129495772D01*
X166006177Y-129494391D01*
X165997275Y-129495555D01*
X165997272Y-129495555D01*
X165975244Y-129498436D01*
X165958907Y-129499500D01*
X136048741Y-129499500D01*
X136029357Y-129498000D01*
X136015048Y-129495772D01*
X136015047Y-129495772D01*
X136006177Y-129494391D01*
X135997275Y-129495555D01*
X135997272Y-129495555D01*
X135987306Y-129496858D01*
X135964790Y-129497770D01*
X135663167Y-129482952D01*
X135650871Y-129481742D01*
X135323397Y-129433165D01*
X135311291Y-129430758D01*
X134990142Y-129350314D01*
X134978316Y-129346726D01*
X134666636Y-129235204D01*
X134655212Y-129230473D01*
X134355941Y-129088929D01*
X134345036Y-129083100D01*
X134061088Y-128912908D01*
X134050807Y-128906038D01*
X133784913Y-128708837D01*
X133775355Y-128700993D01*
X133530067Y-128478677D01*
X133521323Y-128469933D01*
X133299007Y-128224645D01*
X133291163Y-128215087D01*
X133093962Y-127949193D01*
X133087092Y-127938912D01*
X132916900Y-127654964D01*
X132911071Y-127644059D01*
X132769527Y-127344788D01*
X132764796Y-127333364D01*
X132653274Y-127021684D01*
X132649684Y-127009852D01*
X132617460Y-126881206D01*
X132569242Y-126688709D01*
X132566833Y-126676594D01*
X132562857Y-126649786D01*
X132518258Y-126349129D01*
X132517047Y-126336828D01*
X132502769Y-126046177D01*
X132504362Y-126019098D01*
X132504689Y-126017156D01*
X132504690Y-126017145D01*
X132505496Y-126012354D01*
X132505647Y-126000000D01*
X132501773Y-125972949D01*
X132500500Y-125955087D01*
X132500500Y-118886930D01*
X133395322Y-118886930D01*
X133396627Y-118894406D01*
X133396627Y-118894409D01*
X133406178Y-118949132D01*
X133407141Y-118955658D01*
X133410254Y-118981378D01*
X133414724Y-119018320D01*
X133417409Y-119025427D01*
X133418218Y-119028720D01*
X133422177Y-119043191D01*
X133423166Y-119046467D01*
X133424473Y-119053954D01*
X133427528Y-119060913D01*
X133427528Y-119060914D01*
X133449847Y-119111760D01*
X133452339Y-119117866D01*
X133468492Y-119160612D01*
X133474655Y-119176923D01*
X133478954Y-119183178D01*
X133480535Y-119186203D01*
X133487825Y-119199299D01*
X133489566Y-119202243D01*
X133492621Y-119209202D01*
X133497246Y-119215230D01*
X133497247Y-119215231D01*
X133531042Y-119259273D01*
X133534919Y-119264609D01*
X133566381Y-119310386D01*
X133566386Y-119310392D01*
X133570688Y-119316651D01*
X133576362Y-119321706D01*
X133616648Y-119357600D01*
X133621925Y-119362581D01*
X134574913Y-120315570D01*
X134580766Y-120321836D01*
X134618320Y-120364885D01*
X134624538Y-120369255D01*
X134669041Y-120400532D01*
X134713273Y-120456066D01*
X134720459Y-120526698D01*
X134708099Y-120562287D01*
X134665677Y-120642917D01*
X134661273Y-120653549D01*
X134609993Y-120818698D01*
X134609774Y-120832799D01*
X134616506Y-120836000D01*
X135858000Y-120836000D01*
X135926121Y-120856002D01*
X135972614Y-120909658D01*
X135984000Y-120962000D01*
X135984000Y-121218000D01*
X135963998Y-121286121D01*
X135910342Y-121332614D01*
X135858000Y-121344000D01*
X134626030Y-121344000D01*
X134612499Y-121347973D01*
X134611207Y-121356962D01*
X134639897Y-121469928D01*
X134643735Y-121480766D01*
X134727386Y-121662218D01*
X134733137Y-121672179D01*
X134848455Y-121835350D01*
X134855921Y-121844092D01*
X134999047Y-121983520D01*
X135007981Y-121990754D01*
X135174112Y-122101760D01*
X135184224Y-122107251D01*
X135246210Y-122133881D01*
X135300903Y-122179148D01*
X135322441Y-122246799D01*
X135303985Y-122315355D01*
X135249723Y-122363844D01*
X135057152Y-122453642D01*
X135057149Y-122453644D01*
X135052171Y-122455965D01*
X134858599Y-122591505D01*
X134691505Y-122758599D01*
X134555965Y-122952171D01*
X134553644Y-122957149D01*
X134553642Y-122957152D01*
X134468427Y-123139896D01*
X134456097Y-123166337D01*
X134454675Y-123171645D01*
X134454674Y-123171647D01*
X134398579Y-123381000D01*
X134394937Y-123394592D01*
X134374341Y-123630000D01*
X134394937Y-123865408D01*
X134396361Y-123870722D01*
X134396361Y-123870723D01*
X134450425Y-124072493D01*
X134456097Y-124093663D01*
X134458419Y-124098643D01*
X134458420Y-124098645D01*
X134540121Y-124273851D01*
X134555965Y-124307829D01*
X134691505Y-124501401D01*
X134858599Y-124668495D01*
X134863107Y-124671652D01*
X134863110Y-124671654D01*
X135021700Y-124782700D01*
X135052170Y-124804035D01*
X135057152Y-124806358D01*
X135057157Y-124806361D01*
X135258844Y-124900409D01*
X135266337Y-124903903D01*
X135271645Y-124905325D01*
X135271647Y-124905326D01*
X135284997Y-124908903D01*
X135494592Y-124965063D01*
X135730000Y-124985659D01*
X135965408Y-124965063D01*
X136175003Y-124908903D01*
X136188353Y-124905326D01*
X136188355Y-124905325D01*
X136193663Y-124903903D01*
X136201156Y-124900409D01*
X136402843Y-124806361D01*
X136402848Y-124806358D01*
X136407830Y-124804035D01*
X136438300Y-124782700D01*
X136596890Y-124671654D01*
X136596893Y-124671652D01*
X136601401Y-124668495D01*
X136768495Y-124501401D01*
X136896787Y-124318180D01*
X136952244Y-124273851D01*
X137022863Y-124266542D01*
X137086224Y-124298572D01*
X137103212Y-124318179D01*
X137231505Y-124501401D01*
X137398599Y-124668495D01*
X137403107Y-124671652D01*
X137403110Y-124671654D01*
X137561700Y-124782700D01*
X137592170Y-124804035D01*
X137597152Y-124806358D01*
X137597157Y-124806361D01*
X137798844Y-124900409D01*
X137806337Y-124903903D01*
X137811645Y-124905325D01*
X137811647Y-124905326D01*
X137824997Y-124908903D01*
X138034592Y-124965063D01*
X138270000Y-124985659D01*
X138505408Y-124965063D01*
X138715003Y-124908903D01*
X138728353Y-124905326D01*
X138728355Y-124905325D01*
X138733663Y-124903903D01*
X138741156Y-124900409D01*
X138942843Y-124806361D01*
X138942848Y-124806358D01*
X138947830Y-124804035D01*
X138978300Y-124782700D01*
X139136890Y-124671654D01*
X139136893Y-124671652D01*
X139141401Y-124668495D01*
X139308495Y-124501401D01*
X139444035Y-124307829D01*
X139459880Y-124273851D01*
X139541580Y-124098645D01*
X139541581Y-124098643D01*
X139543903Y-124093663D01*
X139549576Y-124072493D01*
X139603639Y-123870723D01*
X139603639Y-123870722D01*
X139605063Y-123865408D01*
X139625659Y-123630000D01*
X139605063Y-123394592D01*
X139601421Y-123381000D01*
X139545326Y-123171647D01*
X139545325Y-123171645D01*
X139543903Y-123166337D01*
X139531573Y-123139896D01*
X139446358Y-122957152D01*
X139446356Y-122957149D01*
X139444035Y-122952171D01*
X139308495Y-122758599D01*
X139141401Y-122591505D01*
X139136893Y-122588348D01*
X139136890Y-122588346D01*
X138952339Y-122459122D01*
X138952336Y-122459120D01*
X138947830Y-122455965D01*
X138942848Y-122453642D01*
X138942843Y-122453639D01*
X138754297Y-122365719D01*
X138701012Y-122318802D01*
X138681551Y-122250524D01*
X138702093Y-122182564D01*
X138745981Y-122141589D01*
X138919124Y-122044625D01*
X138928596Y-122038115D01*
X139082219Y-121910348D01*
X139090348Y-121902219D01*
X139218115Y-121748596D01*
X139224625Y-121739124D01*
X139322258Y-121564786D01*
X139326934Y-121554283D01*
X139391160Y-121365078D01*
X139392396Y-121359933D01*
X139390694Y-121347993D01*
X139377126Y-121344000D01*
X137166030Y-121344000D01*
X137152499Y-121347973D01*
X137151207Y-121356962D01*
X137179897Y-121469928D01*
X137183735Y-121480766D01*
X137267386Y-121662218D01*
X137273137Y-121672179D01*
X137388455Y-121835350D01*
X137395921Y-121844092D01*
X137539047Y-121983520D01*
X137547981Y-121990754D01*
X137714112Y-122101760D01*
X137724224Y-122107251D01*
X137786210Y-122133881D01*
X137840903Y-122179148D01*
X137862441Y-122246799D01*
X137843985Y-122315355D01*
X137789723Y-122363844D01*
X137597152Y-122453642D01*
X137597149Y-122453644D01*
X137592171Y-122455965D01*
X137398599Y-122591505D01*
X137231505Y-122758599D01*
X137125026Y-122910667D01*
X137103213Y-122941820D01*
X137047756Y-122986149D01*
X136977137Y-122993458D01*
X136913776Y-122961428D01*
X136896787Y-122941820D01*
X136874974Y-122910667D01*
X136768495Y-122758599D01*
X136601401Y-122591505D01*
X136596893Y-122588348D01*
X136596890Y-122588346D01*
X136412339Y-122459122D01*
X136412336Y-122459120D01*
X136407830Y-122455965D01*
X136402848Y-122453642D01*
X136402843Y-122453639D01*
X136214297Y-122365719D01*
X136161012Y-122318802D01*
X136141551Y-122250524D01*
X136162093Y-122182564D01*
X136205981Y-122141589D01*
X136379124Y-122044625D01*
X136388596Y-122038115D01*
X136542219Y-121910348D01*
X136550348Y-121902219D01*
X136678115Y-121748596D01*
X136684625Y-121739124D01*
X136782258Y-121564786D01*
X136786934Y-121554283D01*
X136851160Y-121365081D01*
X136853845Y-121353898D01*
X136882811Y-121154118D01*
X136883441Y-121146736D01*
X136884830Y-121093704D01*
X136884587Y-121086305D01*
X136866117Y-120885285D01*
X136864020Y-120873971D01*
X136815290Y-120701191D01*
X136816050Y-120630199D01*
X136855071Y-120570887D01*
X136919963Y-120542087D01*
X136936559Y-120540989D01*
X137065165Y-120540989D01*
X137133286Y-120560991D01*
X137179779Y-120614647D01*
X137189883Y-120684921D01*
X137185498Y-120704353D01*
X137149993Y-120818700D01*
X137149774Y-120832799D01*
X137156506Y-120836000D01*
X139375196Y-120836000D01*
X139388727Y-120832027D01*
X139389896Y-120823893D01*
X139366453Y-120740770D01*
X139367213Y-120669777D01*
X139406234Y-120610466D01*
X139471127Y-120581666D01*
X139541288Y-120592521D01*
X139576817Y-120617473D01*
X144134411Y-125175067D01*
X144140264Y-125181332D01*
X144177831Y-125224396D01*
X144184042Y-125228761D01*
X144184045Y-125228764D01*
X144229493Y-125260705D01*
X144234788Y-125264638D01*
X144284457Y-125303583D01*
X144291384Y-125306711D01*
X144294315Y-125308486D01*
X144307318Y-125315903D01*
X144310332Y-125317519D01*
X144316547Y-125321887D01*
X144323623Y-125324646D01*
X144323627Y-125324648D01*
X144375364Y-125344819D01*
X144381445Y-125347375D01*
X144384663Y-125348828D01*
X144438984Y-125373355D01*
X144446450Y-125374739D01*
X144449699Y-125375757D01*
X144464164Y-125379877D01*
X144467437Y-125380717D01*
X144474513Y-125383476D01*
X144519183Y-125389356D01*
X144537106Y-125391716D01*
X144543623Y-125392748D01*
X144585035Y-125400423D01*
X144605692Y-125404252D01*
X144613272Y-125403815D01*
X144613273Y-125403815D01*
X144667138Y-125400709D01*
X144674391Y-125400500D01*
X157551359Y-125400500D01*
X157559929Y-125400792D01*
X157609354Y-125404162D01*
X157609358Y-125404162D01*
X157616930Y-125404678D01*
X157624406Y-125403373D01*
X157624409Y-125403373D01*
X157679132Y-125393822D01*
X157685658Y-125392859D01*
X157726096Y-125387965D01*
X157748320Y-125385276D01*
X157755427Y-125382591D01*
X157758720Y-125381782D01*
X157773191Y-125377823D01*
X157776467Y-125376834D01*
X157783954Y-125375527D01*
X157796019Y-125370231D01*
X157841760Y-125350153D01*
X157847866Y-125347661D01*
X157899818Y-125328030D01*
X157899820Y-125328029D01*
X157906923Y-125325345D01*
X157913178Y-125321046D01*
X157916203Y-125319465D01*
X157929299Y-125312175D01*
X157932243Y-125310434D01*
X157939202Y-125307379D01*
X157973528Y-125281040D01*
X157989273Y-125268958D01*
X157994609Y-125265081D01*
X158040386Y-125233619D01*
X158040392Y-125233614D01*
X158046651Y-125229312D01*
X158087609Y-125183342D01*
X158092589Y-125178067D01*
X162162693Y-121107963D01*
X162225005Y-121073937D01*
X162295820Y-121079002D01*
X162352656Y-121121549D01*
X162377308Y-121186076D01*
X162389456Y-121324916D01*
X162389457Y-121324922D01*
X162389937Y-121330408D01*
X162451097Y-121558663D01*
X162453419Y-121563643D01*
X162453420Y-121563645D01*
X162535121Y-121738851D01*
X162550965Y-121772829D01*
X162686505Y-121966401D01*
X162853599Y-122133495D01*
X162858107Y-122136652D01*
X162858110Y-122136654D01*
X163036820Y-122261788D01*
X163047170Y-122269035D01*
X163052152Y-122271358D01*
X163052157Y-122271361D01*
X163240325Y-122359105D01*
X163293610Y-122406022D01*
X163313071Y-122474300D01*
X163292529Y-122542260D01*
X163238506Y-122588325D01*
X163234612Y-122589912D01*
X163222829Y-122595532D01*
X163051119Y-122697688D01*
X163041807Y-122704453D01*
X162891587Y-122836194D01*
X162883670Y-122844537D01*
X162759975Y-123001443D01*
X162753704Y-123011100D01*
X162660679Y-123187912D01*
X162656273Y-123198549D01*
X162604993Y-123363698D01*
X162604774Y-123377799D01*
X162611506Y-123381000D01*
X163853000Y-123381000D01*
X163921121Y-123401002D01*
X163967614Y-123454658D01*
X163979000Y-123507000D01*
X163979000Y-123763000D01*
X163958998Y-123831121D01*
X163905342Y-123877614D01*
X163853000Y-123889000D01*
X162621030Y-123889000D01*
X162607499Y-123892973D01*
X162606207Y-123901962D01*
X162634897Y-124014928D01*
X162638735Y-124025766D01*
X162722386Y-124207218D01*
X162728137Y-124217179D01*
X162843455Y-124380350D01*
X162850921Y-124389092D01*
X162994047Y-124528520D01*
X163002981Y-124535754D01*
X163089756Y-124593736D01*
X163135284Y-124648213D01*
X163144131Y-124718656D01*
X163113490Y-124782700D01*
X163053088Y-124820012D01*
X163019755Y-124824501D01*
X162827624Y-124824501D01*
X162824230Y-124824870D01*
X162824224Y-124824870D01*
X162774278Y-124830295D01*
X162774274Y-124830296D01*
X162766420Y-124831149D01*
X162632176Y-124881474D01*
X162624997Y-124886854D01*
X162624994Y-124886856D01*
X162546050Y-124946022D01*
X162517454Y-124967454D01*
X162512072Y-124974635D01*
X162436856Y-125074994D01*
X162436854Y-125074997D01*
X162431474Y-125082176D01*
X162381149Y-125216420D01*
X162380296Y-125224270D01*
X162380296Y-125224271D01*
X162375661Y-125266939D01*
X162374500Y-125277623D01*
X162374501Y-127072376D01*
X162381149Y-127133580D01*
X162431474Y-127267824D01*
X162436854Y-127275003D01*
X162436856Y-127275006D01*
X162512072Y-127375365D01*
X162517454Y-127382546D01*
X162524635Y-127387928D01*
X162624994Y-127463144D01*
X162624997Y-127463146D01*
X162632176Y-127468526D01*
X162721561Y-127502034D01*
X162759025Y-127516079D01*
X162759027Y-127516079D01*
X162766420Y-127518851D01*
X162774270Y-127519704D01*
X162774271Y-127519704D01*
X162824217Y-127525130D01*
X162827623Y-127525500D01*
X163724868Y-127525500D01*
X164622376Y-127525499D01*
X164625770Y-127525130D01*
X164625776Y-127525130D01*
X164675722Y-127519705D01*
X164675726Y-127519704D01*
X164683580Y-127518851D01*
X164817824Y-127468526D01*
X164825003Y-127463146D01*
X164825006Y-127463144D01*
X164925365Y-127387928D01*
X164932546Y-127382546D01*
X164937928Y-127375365D01*
X165013144Y-127275006D01*
X165013146Y-127275003D01*
X165018526Y-127267824D01*
X165068851Y-127133580D01*
X165075500Y-127072377D01*
X165075500Y-126881206D01*
X165095502Y-126813085D01*
X165149158Y-126766592D01*
X165219432Y-126756488D01*
X165284012Y-126785982D01*
X165304397Y-126808486D01*
X165383455Y-126920350D01*
X165390921Y-126929092D01*
X165534047Y-127068520D01*
X165542981Y-127075754D01*
X165709112Y-127186760D01*
X165719225Y-127192251D01*
X165902805Y-127271123D01*
X165913738Y-127274675D01*
X165993331Y-127292685D01*
X166007405Y-127291796D01*
X166011000Y-127282397D01*
X166011000Y-127282165D01*
X166519000Y-127282165D01*
X166522966Y-127295671D01*
X166534964Y-127297388D01*
X166540078Y-127296160D01*
X166729283Y-127231934D01*
X166739786Y-127227258D01*
X166914124Y-127129625D01*
X166923596Y-127123115D01*
X167077219Y-126995348D01*
X167085348Y-126987219D01*
X167213115Y-126833596D01*
X167219625Y-126824124D01*
X167317258Y-126649786D01*
X167321934Y-126639283D01*
X167386160Y-126450078D01*
X167387396Y-126444933D01*
X167385694Y-126432993D01*
X167372126Y-126429000D01*
X166537115Y-126429000D01*
X166521876Y-126433475D01*
X166520671Y-126434865D01*
X166519000Y-126442548D01*
X166519000Y-127282165D01*
X166011000Y-127282165D01*
X166011000Y-126047000D01*
X166031002Y-125978879D01*
X166084658Y-125932386D01*
X166137000Y-125921000D01*
X167370196Y-125921000D01*
X167383727Y-125917027D01*
X167384896Y-125908893D01*
X167344785Y-125766670D01*
X167340663Y-125755931D01*
X167252292Y-125576733D01*
X167246282Y-125566925D01*
X167126731Y-125406827D01*
X167119041Y-125398287D01*
X166972315Y-125262654D01*
X166963190Y-125255653D01*
X166794209Y-125149034D01*
X166783965Y-125143814D01*
X166753436Y-125131634D01*
X166697577Y-125087812D01*
X166674277Y-125020748D01*
X166690933Y-124951733D01*
X166746876Y-124900410D01*
X166897238Y-124830295D01*
X166937843Y-124811361D01*
X166937848Y-124811358D01*
X166942830Y-124809035D01*
X166949971Y-124804035D01*
X167131890Y-124676654D01*
X167131893Y-124676652D01*
X167136401Y-124673495D01*
X167303495Y-124506401D01*
X167439035Y-124312829D01*
X167443690Y-124302848D01*
X167536580Y-124103645D01*
X167536581Y-124103643D01*
X167538903Y-124098663D01*
X167558436Y-124025766D01*
X167598639Y-123875723D01*
X167598639Y-123875722D01*
X167600063Y-123870408D01*
X167620659Y-123635000D01*
X167600063Y-123399592D01*
X167556048Y-123235324D01*
X167540326Y-123176647D01*
X167540325Y-123176645D01*
X167538903Y-123171337D01*
X167536580Y-123166355D01*
X167441358Y-122962152D01*
X167441356Y-122962149D01*
X167439035Y-122957171D01*
X167303495Y-122763599D01*
X167136401Y-122596505D01*
X167131893Y-122593348D01*
X167131890Y-122593346D01*
X166961874Y-122474300D01*
X166953181Y-122468213D01*
X166908853Y-122412756D01*
X166901544Y-122342137D01*
X166933575Y-122278776D01*
X166953181Y-122261787D01*
X167131890Y-122136654D01*
X167131893Y-122136652D01*
X167136401Y-122133495D01*
X167303495Y-121966401D01*
X167439035Y-121772829D01*
X167454880Y-121738851D01*
X167536580Y-121563645D01*
X167536581Y-121563643D01*
X167538903Y-121558663D01*
X167600063Y-121330408D01*
X167620659Y-121095000D01*
X167600063Y-120859592D01*
X167590498Y-120823893D01*
X167540326Y-120636647D01*
X167540325Y-120636645D01*
X167538903Y-120631337D01*
X167514663Y-120579354D01*
X167441358Y-120422152D01*
X167441356Y-120422149D01*
X167439035Y-120417171D01*
X167303495Y-120223599D01*
X167136401Y-120056505D01*
X167131893Y-120053348D01*
X167131890Y-120053346D01*
X166974920Y-119943435D01*
X166953181Y-119928213D01*
X166908853Y-119872756D01*
X166901544Y-119802137D01*
X166933575Y-119738776D01*
X166953181Y-119721787D01*
X167131890Y-119596654D01*
X167131893Y-119596652D01*
X167136401Y-119593495D01*
X167303495Y-119426401D01*
X167439035Y-119232829D01*
X167442872Y-119224602D01*
X167536580Y-119023645D01*
X167536581Y-119023643D01*
X167538903Y-119018663D01*
X167548894Y-118981378D01*
X167598639Y-118795723D01*
X167598639Y-118795722D01*
X167600063Y-118790408D01*
X167620659Y-118555000D01*
X167600063Y-118319592D01*
X167597299Y-118309277D01*
X167540326Y-118096647D01*
X167540325Y-118096645D01*
X167538903Y-118091337D01*
X167536580Y-118086355D01*
X167441358Y-117882152D01*
X167441356Y-117882149D01*
X167439035Y-117877171D01*
X167303495Y-117683599D01*
X167136401Y-117516505D01*
X167131893Y-117513348D01*
X167131890Y-117513346D01*
X167004408Y-117424082D01*
X166953181Y-117388213D01*
X166908853Y-117332756D01*
X166901544Y-117262137D01*
X166933575Y-117198776D01*
X166953181Y-117181787D01*
X166960321Y-117176788D01*
X167004408Y-117145918D01*
X167131890Y-117056654D01*
X167131893Y-117056652D01*
X167136401Y-117053495D01*
X167303495Y-116886401D01*
X167439035Y-116692829D01*
X167454880Y-116658851D01*
X167536580Y-116483645D01*
X167536581Y-116483643D01*
X167538903Y-116478663D01*
X167600063Y-116250408D01*
X167620659Y-116015000D01*
X167600063Y-115779592D01*
X167538903Y-115551337D01*
X167535000Y-115542967D01*
X167441358Y-115342152D01*
X167441356Y-115342149D01*
X167439035Y-115337171D01*
X167303495Y-115143599D01*
X167136401Y-114976505D01*
X167131893Y-114973348D01*
X167131890Y-114973346D01*
X166987847Y-114872486D01*
X166953181Y-114848213D01*
X166908853Y-114792756D01*
X166901544Y-114722137D01*
X166933575Y-114658776D01*
X166953181Y-114641787D01*
X166960321Y-114636788D01*
X167040708Y-114580500D01*
X167131890Y-114516654D01*
X167131893Y-114516652D01*
X167136401Y-114513495D01*
X167303495Y-114346401D01*
X167439035Y-114152829D01*
X167443690Y-114142848D01*
X167536580Y-113943645D01*
X167536581Y-113943643D01*
X167538903Y-113938663D01*
X167542483Y-113925304D01*
X167598639Y-113715723D01*
X167598639Y-113715722D01*
X167600063Y-113710408D01*
X167620659Y-113475000D01*
X167600063Y-113239592D01*
X167585522Y-113185324D01*
X167540326Y-113016647D01*
X167540325Y-113016645D01*
X167538903Y-113011337D01*
X167535000Y-113002967D01*
X167441358Y-112802152D01*
X167441356Y-112802149D01*
X167439035Y-112797171D01*
X167303495Y-112603599D01*
X167136401Y-112436505D01*
X167131893Y-112433348D01*
X167131890Y-112433346D01*
X167004408Y-112344082D01*
X166953181Y-112308213D01*
X166908853Y-112252756D01*
X166901544Y-112182137D01*
X166933575Y-112118776D01*
X166953181Y-112101787D01*
X167131890Y-111976654D01*
X167131893Y-111976652D01*
X167136401Y-111973495D01*
X167303495Y-111806401D01*
X167439035Y-111612829D01*
X167454880Y-111578851D01*
X167536580Y-111403645D01*
X167536581Y-111403643D01*
X167538903Y-111398663D01*
X167600063Y-111170408D01*
X167620659Y-110935000D01*
X167600063Y-110699592D01*
X167592240Y-110670396D01*
X167540326Y-110476647D01*
X167540325Y-110476645D01*
X167538903Y-110471337D01*
X167535000Y-110462967D01*
X167441358Y-110262152D01*
X167441356Y-110262149D01*
X167439035Y-110257171D01*
X167303495Y-110063599D01*
X167136401Y-109896505D01*
X167131893Y-109893348D01*
X167131890Y-109893346D01*
X166975977Y-109784175D01*
X166953181Y-109768213D01*
X166908853Y-109712756D01*
X166901544Y-109642137D01*
X166933575Y-109578776D01*
X166953181Y-109561787D01*
X167131890Y-109436654D01*
X167131893Y-109436652D01*
X167136401Y-109433495D01*
X167303495Y-109266401D01*
X167439035Y-109072829D01*
X167454880Y-109038851D01*
X167536580Y-108863645D01*
X167536581Y-108863643D01*
X167538903Y-108858663D01*
X167552863Y-108806565D01*
X167598639Y-108635723D01*
X167598639Y-108635722D01*
X167600063Y-108630408D01*
X167620659Y-108395000D01*
X167600063Y-108159592D01*
X167566214Y-108033264D01*
X167540326Y-107936647D01*
X167540325Y-107936645D01*
X167538903Y-107931337D01*
X167536580Y-107926355D01*
X167441358Y-107722152D01*
X167441356Y-107722149D01*
X167439035Y-107717171D01*
X167303495Y-107523599D01*
X167136401Y-107356505D01*
X167131893Y-107353348D01*
X167131890Y-107353346D01*
X167004408Y-107264082D01*
X166953181Y-107228213D01*
X166908853Y-107172756D01*
X166901544Y-107102137D01*
X166933575Y-107038776D01*
X166953181Y-107021787D01*
X166960321Y-107016788D01*
X167004408Y-106985918D01*
X167131890Y-106896654D01*
X167131893Y-106896652D01*
X167136401Y-106893495D01*
X167303495Y-106726401D01*
X167439035Y-106532829D01*
X167443690Y-106522848D01*
X167536580Y-106323645D01*
X167536581Y-106323643D01*
X167538903Y-106318663D01*
X167600063Y-106090408D01*
X167620659Y-105855000D01*
X167600063Y-105619592D01*
X167538903Y-105391337D01*
X167536580Y-105386355D01*
X167441358Y-105182152D01*
X167441356Y-105182149D01*
X167439035Y-105177171D01*
X167303495Y-104983599D01*
X167136401Y-104816505D01*
X167131893Y-104813348D01*
X167131890Y-104813346D01*
X167004408Y-104724082D01*
X166953181Y-104688213D01*
X166908853Y-104632756D01*
X166901544Y-104562137D01*
X166933575Y-104498776D01*
X166953181Y-104481787D01*
X166960321Y-104476788D01*
X167130049Y-104357943D01*
X167131890Y-104356654D01*
X167131893Y-104356652D01*
X167136401Y-104353495D01*
X167303495Y-104186401D01*
X167439035Y-103992829D01*
X167441370Y-103987823D01*
X167536580Y-103783645D01*
X167536581Y-103783643D01*
X167538903Y-103778663D01*
X167558222Y-103706565D01*
X167598639Y-103555723D01*
X167598639Y-103555722D01*
X167600063Y-103550408D01*
X167620659Y-103315000D01*
X167600063Y-103079592D01*
X167598639Y-103074277D01*
X167540326Y-102856647D01*
X167540325Y-102856645D01*
X167538903Y-102851337D01*
X167458288Y-102678458D01*
X167441358Y-102642152D01*
X167441356Y-102642149D01*
X167439035Y-102637171D01*
X167303495Y-102443599D01*
X167136401Y-102276505D01*
X167131893Y-102273348D01*
X167131890Y-102273346D01*
X166958268Y-102151775D01*
X166953181Y-102148213D01*
X166908853Y-102092756D01*
X166901544Y-102022137D01*
X166933575Y-101958776D01*
X166953181Y-101941787D01*
X167131890Y-101816654D01*
X167131893Y-101816652D01*
X167136401Y-101813495D01*
X167303495Y-101646401D01*
X167439035Y-101452829D01*
X167454880Y-101418851D01*
X167536580Y-101243645D01*
X167536581Y-101243643D01*
X167538903Y-101238663D01*
X167600063Y-101010408D01*
X167620659Y-100775000D01*
X167600063Y-100539592D01*
X167538903Y-100311337D01*
X167487355Y-100200792D01*
X167441358Y-100102152D01*
X167441356Y-100102149D01*
X167439035Y-100097171D01*
X167303495Y-99903599D01*
X167136401Y-99736505D01*
X167131893Y-99733348D01*
X167131890Y-99733346D01*
X166996807Y-99638760D01*
X166953181Y-99608213D01*
X166908853Y-99552756D01*
X166901544Y-99482137D01*
X166933575Y-99418776D01*
X166953181Y-99401787D01*
X167131890Y-99276654D01*
X167131893Y-99276652D01*
X167136401Y-99273495D01*
X167303495Y-99106401D01*
X167439035Y-98912829D01*
X167454880Y-98878851D01*
X167536580Y-98703645D01*
X167536581Y-98703643D01*
X167538903Y-98698663D01*
X167549175Y-98660329D01*
X167598639Y-98475723D01*
X167598639Y-98475722D01*
X167600063Y-98470408D01*
X167620659Y-98235000D01*
X167600063Y-97999592D01*
X167552384Y-97821648D01*
X167540326Y-97776647D01*
X167540325Y-97776645D01*
X167538903Y-97771337D01*
X167535558Y-97764164D01*
X167441358Y-97562152D01*
X167441356Y-97562149D01*
X167439035Y-97557171D01*
X167303495Y-97363599D01*
X167136401Y-97196505D01*
X167131893Y-97193348D01*
X167131890Y-97193346D01*
X166963942Y-97075748D01*
X166953181Y-97068213D01*
X166908853Y-97012756D01*
X166901544Y-96942137D01*
X166933575Y-96878776D01*
X166953181Y-96861787D01*
X167131890Y-96736654D01*
X167131893Y-96736652D01*
X167136401Y-96733495D01*
X167303495Y-96566401D01*
X167439035Y-96372829D01*
X167441877Y-96366736D01*
X167536580Y-96163645D01*
X167536581Y-96163643D01*
X167538903Y-96158663D01*
X167547842Y-96125304D01*
X167598639Y-95935723D01*
X167598639Y-95935722D01*
X167600063Y-95930408D01*
X167620659Y-95695000D01*
X167600063Y-95459592D01*
X167586680Y-95409646D01*
X167540326Y-95236647D01*
X167540325Y-95236645D01*
X167538903Y-95231337D01*
X167536580Y-95226355D01*
X167441358Y-95022152D01*
X167441356Y-95022149D01*
X167439035Y-95017171D01*
X167303495Y-94823599D01*
X167136401Y-94656505D01*
X167131893Y-94653348D01*
X167131890Y-94653346D01*
X166953181Y-94528213D01*
X166908853Y-94472756D01*
X166901544Y-94402137D01*
X166933575Y-94338776D01*
X166953181Y-94321787D01*
X166960321Y-94316788D01*
X167035775Y-94263954D01*
X167131890Y-94196654D01*
X167131893Y-94196652D01*
X167136401Y-94193495D01*
X167303495Y-94026401D01*
X167439035Y-93832829D01*
X167508432Y-93684009D01*
X167536580Y-93623645D01*
X167536581Y-93623643D01*
X167538903Y-93618663D01*
X167600063Y-93390408D01*
X167620659Y-93155000D01*
X167600063Y-92919592D01*
X167598639Y-92914277D01*
X167540326Y-92696647D01*
X167540325Y-92696645D01*
X167538903Y-92691337D01*
X167439035Y-92477171D01*
X167303495Y-92283599D01*
X167136401Y-92116505D01*
X167131893Y-92113348D01*
X167131890Y-92113346D01*
X166953181Y-91988213D01*
X166908853Y-91932756D01*
X166901544Y-91862137D01*
X166933575Y-91798776D01*
X166953181Y-91781787D01*
X167131890Y-91656654D01*
X167131893Y-91656652D01*
X167136401Y-91653495D01*
X167303495Y-91486401D01*
X167439035Y-91292829D01*
X167482328Y-91199989D01*
X167536580Y-91083645D01*
X167536581Y-91083643D01*
X167538903Y-91078663D01*
X167600063Y-90850408D01*
X167620659Y-90615000D01*
X167600063Y-90379592D01*
X167538903Y-90151337D01*
X167439035Y-89937171D01*
X167303495Y-89743599D01*
X167136401Y-89576505D01*
X167131893Y-89573348D01*
X167131890Y-89573346D01*
X167004408Y-89484082D01*
X166953181Y-89448213D01*
X166908853Y-89392756D01*
X166901544Y-89322137D01*
X166933575Y-89258776D01*
X166953181Y-89241787D01*
X167131890Y-89116654D01*
X167131893Y-89116652D01*
X167136401Y-89113495D01*
X167303495Y-88946401D01*
X167439035Y-88752829D01*
X167442026Y-88746416D01*
X167536580Y-88543645D01*
X167536581Y-88543643D01*
X167538903Y-88538663D01*
X167600063Y-88310408D01*
X167620659Y-88075000D01*
X167600063Y-87839592D01*
X167538903Y-87611337D01*
X167536580Y-87606355D01*
X167441358Y-87402152D01*
X167441356Y-87402149D01*
X167439035Y-87397171D01*
X167303495Y-87203599D01*
X167136401Y-87036505D01*
X167131893Y-87033348D01*
X167131890Y-87033346D01*
X167004408Y-86944082D01*
X166953181Y-86908213D01*
X166908853Y-86852756D01*
X166901544Y-86782137D01*
X166933575Y-86718776D01*
X166953181Y-86701787D01*
X166960321Y-86696788D01*
X167004408Y-86665917D01*
X167131890Y-86576654D01*
X167131893Y-86576652D01*
X167136401Y-86573495D01*
X167303495Y-86406401D01*
X167439035Y-86212829D01*
X167443690Y-86202848D01*
X167536580Y-86003645D01*
X167536581Y-86003643D01*
X167538903Y-85998663D01*
X167576609Y-85857943D01*
X167598639Y-85775723D01*
X167598639Y-85775722D01*
X167600063Y-85770408D01*
X167620659Y-85535000D01*
X167600063Y-85299592D01*
X167538903Y-85071337D01*
X167536580Y-85066355D01*
X167441358Y-84862152D01*
X167441356Y-84862149D01*
X167439035Y-84857171D01*
X167303495Y-84663599D01*
X167136401Y-84496505D01*
X167131893Y-84493348D01*
X167131890Y-84493346D01*
X167004408Y-84404082D01*
X166953181Y-84368213D01*
X166908853Y-84312756D01*
X166901544Y-84242137D01*
X166933575Y-84178776D01*
X166953181Y-84161787D01*
X166960321Y-84156788D01*
X167004408Y-84125918D01*
X167131890Y-84036654D01*
X167131893Y-84036652D01*
X167136401Y-84033495D01*
X167303495Y-83866401D01*
X167439035Y-83672829D01*
X167443690Y-83662848D01*
X167536580Y-83463645D01*
X167536581Y-83463643D01*
X167538903Y-83458663D01*
X167600063Y-83230408D01*
X167620659Y-82995000D01*
X167600063Y-82759592D01*
X167538903Y-82531337D01*
X167536580Y-82526355D01*
X167441358Y-82322152D01*
X167441356Y-82322149D01*
X167439035Y-82317171D01*
X167303495Y-82123599D01*
X167136401Y-81956505D01*
X167131893Y-81953348D01*
X167131890Y-81953346D01*
X167004408Y-81864082D01*
X166953181Y-81828213D01*
X166908853Y-81772756D01*
X166901544Y-81702137D01*
X166933575Y-81638776D01*
X166953181Y-81621787D01*
X166960321Y-81616788D01*
X167004408Y-81585918D01*
X167131890Y-81496654D01*
X167131893Y-81496652D01*
X167136401Y-81493495D01*
X167303495Y-81326401D01*
X167439035Y-81132829D01*
X167443690Y-81122848D01*
X167536580Y-80923645D01*
X167536581Y-80923643D01*
X167538903Y-80918663D01*
X167600063Y-80690408D01*
X167620659Y-80455000D01*
X167600063Y-80219592D01*
X167547554Y-80023622D01*
X167540326Y-79996647D01*
X167540325Y-79996645D01*
X167538903Y-79991337D01*
X167536580Y-79986355D01*
X167441358Y-79782152D01*
X167441356Y-79782149D01*
X167439035Y-79777171D01*
X167303495Y-79583599D01*
X167136401Y-79416505D01*
X167131893Y-79413348D01*
X167131890Y-79413346D01*
X166953181Y-79288213D01*
X166908853Y-79232756D01*
X166901544Y-79162137D01*
X166933575Y-79098776D01*
X166953181Y-79081787D01*
X167131890Y-78956654D01*
X167131893Y-78956652D01*
X167136401Y-78953495D01*
X167303495Y-78786401D01*
X167439035Y-78592829D01*
X167455681Y-78557133D01*
X167536580Y-78383645D01*
X167536581Y-78383643D01*
X167538903Y-78378663D01*
X167554601Y-78320079D01*
X167598639Y-78155723D01*
X167598639Y-78155722D01*
X167600063Y-78150408D01*
X167620659Y-77915000D01*
X167600063Y-77679592D01*
X167538903Y-77451337D01*
X167536580Y-77446355D01*
X167441358Y-77242152D01*
X167441356Y-77242149D01*
X167439035Y-77237171D01*
X167303495Y-77043599D01*
X167136401Y-76876505D01*
X167131893Y-76873348D01*
X167131890Y-76873346D01*
X166954609Y-76749213D01*
X166953181Y-76748213D01*
X166908853Y-76692756D01*
X166901544Y-76622137D01*
X166933575Y-76558776D01*
X166953181Y-76541787D01*
X167131890Y-76416654D01*
X167131893Y-76416652D01*
X167136401Y-76413495D01*
X167303495Y-76246401D01*
X167439035Y-76052829D01*
X167454880Y-76018851D01*
X167536580Y-75843645D01*
X167536581Y-75843643D01*
X167538903Y-75838663D01*
X167559775Y-75760769D01*
X167598639Y-75615723D01*
X167598639Y-75615722D01*
X167600063Y-75610408D01*
X167620659Y-75375000D01*
X167600063Y-75139592D01*
X167590498Y-75103893D01*
X167540326Y-74916647D01*
X167540325Y-74916645D01*
X167538903Y-74911337D01*
X167457348Y-74736443D01*
X167441358Y-74702152D01*
X167441356Y-74702149D01*
X167439035Y-74697171D01*
X167303495Y-74503599D01*
X167136401Y-74336505D01*
X167131893Y-74333348D01*
X167131890Y-74333346D01*
X166947339Y-74204122D01*
X166947336Y-74204120D01*
X166942830Y-74200965D01*
X166937848Y-74198642D01*
X166937843Y-74198639D01*
X166749297Y-74110719D01*
X166696012Y-74063802D01*
X166676551Y-73995524D01*
X166697093Y-73927564D01*
X166740981Y-73886589D01*
X166914124Y-73789625D01*
X166923596Y-73783115D01*
X167077219Y-73655348D01*
X167085348Y-73647219D01*
X167213115Y-73493596D01*
X167219625Y-73484124D01*
X167317258Y-73309786D01*
X167321934Y-73299283D01*
X167386160Y-73110078D01*
X167387396Y-73104933D01*
X167385694Y-73092993D01*
X167372126Y-73089000D01*
X165161030Y-73089000D01*
X165147499Y-73092973D01*
X165146207Y-73101962D01*
X165174897Y-73214928D01*
X165178735Y-73225766D01*
X165262386Y-73407218D01*
X165268137Y-73417179D01*
X165383455Y-73580350D01*
X165390921Y-73589092D01*
X165534047Y-73728520D01*
X165542981Y-73735754D01*
X165709112Y-73846760D01*
X165719224Y-73852251D01*
X165781210Y-73878881D01*
X165835903Y-73924148D01*
X165857441Y-73991799D01*
X165838985Y-74060355D01*
X165784723Y-74108844D01*
X165592152Y-74198642D01*
X165592149Y-74198644D01*
X165587171Y-74200965D01*
X165393599Y-74336505D01*
X165226505Y-74503599D01*
X165098213Y-74686820D01*
X165042756Y-74731149D01*
X164972137Y-74738458D01*
X164908776Y-74706428D01*
X164891787Y-74686820D01*
X164763495Y-74503599D01*
X164596401Y-74336505D01*
X164591893Y-74333348D01*
X164591890Y-74333346D01*
X164407339Y-74204122D01*
X164407336Y-74204120D01*
X164402830Y-74200965D01*
X164397848Y-74198642D01*
X164397843Y-74198639D01*
X164209297Y-74110719D01*
X164156012Y-74063802D01*
X164136551Y-73995524D01*
X164157093Y-73927564D01*
X164200981Y-73886589D01*
X164374124Y-73789625D01*
X164383596Y-73783115D01*
X164537219Y-73655348D01*
X164545348Y-73647219D01*
X164673115Y-73493596D01*
X164679625Y-73484124D01*
X164777258Y-73309786D01*
X164781934Y-73299283D01*
X164846160Y-73110081D01*
X164848845Y-73098898D01*
X164877811Y-72899118D01*
X164878441Y-72891736D01*
X164879830Y-72838704D01*
X164879587Y-72831305D01*
X164861117Y-72630285D01*
X164859020Y-72618971D01*
X164847408Y-72577799D01*
X165144774Y-72577799D01*
X165151506Y-72581000D01*
X165992885Y-72581000D01*
X166008124Y-72576525D01*
X166009329Y-72575135D01*
X166011000Y-72567452D01*
X166011000Y-72562885D01*
X166519000Y-72562885D01*
X166523475Y-72578124D01*
X166524865Y-72579329D01*
X166532548Y-72581000D01*
X167370196Y-72581000D01*
X167383727Y-72577027D01*
X167384896Y-72568893D01*
X167344785Y-72426670D01*
X167340663Y-72415931D01*
X167252292Y-72236733D01*
X167246282Y-72226925D01*
X167126731Y-72066827D01*
X167119041Y-72058287D01*
X166972315Y-71922654D01*
X166963190Y-71915653D01*
X166794209Y-71809034D01*
X166783965Y-71803814D01*
X166598377Y-71729772D01*
X166587356Y-71726507D01*
X166536770Y-71716445D01*
X166523894Y-71717597D01*
X166519000Y-71732753D01*
X166519000Y-72562885D01*
X166011000Y-72562885D01*
X166011000Y-71729823D01*
X166007194Y-71716861D01*
X165992278Y-71714925D01*
X165971780Y-71718447D01*
X165960660Y-71721427D01*
X165773207Y-71790582D01*
X165762829Y-71795532D01*
X165591119Y-71897688D01*
X165581807Y-71904453D01*
X165431587Y-72036194D01*
X165423670Y-72044537D01*
X165299975Y-72201443D01*
X165293704Y-72211100D01*
X165200679Y-72387912D01*
X165196273Y-72398549D01*
X165144993Y-72563698D01*
X165144774Y-72577799D01*
X164847408Y-72577799D01*
X164804785Y-72426670D01*
X164800663Y-72415931D01*
X164712292Y-72236733D01*
X164706282Y-72226925D01*
X164586731Y-72066827D01*
X164579041Y-72058287D01*
X164432315Y-71922654D01*
X164423190Y-71915653D01*
X164254209Y-71809034D01*
X164243965Y-71803814D01*
X164058377Y-71729772D01*
X164047356Y-71726507D01*
X163996770Y-71716445D01*
X163983894Y-71717597D01*
X163979000Y-71732753D01*
X163979000Y-72963000D01*
X163958998Y-73031121D01*
X163905342Y-73077614D01*
X163853000Y-73089000D01*
X162621030Y-73089000D01*
X162607499Y-73092973D01*
X162606207Y-73101962D01*
X162634897Y-73214928D01*
X162638735Y-73225766D01*
X162722386Y-73407218D01*
X162728137Y-73417179D01*
X162843455Y-73580350D01*
X162850921Y-73589092D01*
X162994047Y-73728520D01*
X163002981Y-73735754D01*
X163169112Y-73846760D01*
X163179224Y-73852251D01*
X163241210Y-73878881D01*
X163295903Y-73924148D01*
X163317441Y-73991799D01*
X163298985Y-74060355D01*
X163244723Y-74108844D01*
X163052152Y-74198642D01*
X163052149Y-74198644D01*
X163047171Y-74200965D01*
X162853599Y-74336505D01*
X162686505Y-74503599D01*
X162550965Y-74697171D01*
X162548644Y-74702149D01*
X162548642Y-74702152D01*
X162532652Y-74736443D01*
X162451097Y-74911337D01*
X162449675Y-74916645D01*
X162449674Y-74916647D01*
X162399502Y-75103893D01*
X162389937Y-75139592D01*
X162369341Y-75375000D01*
X162389937Y-75610408D01*
X162391361Y-75615722D01*
X162391361Y-75615723D01*
X162430226Y-75760769D01*
X162451097Y-75838663D01*
X162453419Y-75843643D01*
X162453420Y-75843645D01*
X162535121Y-76018851D01*
X162550965Y-76052829D01*
X162686505Y-76246401D01*
X162853599Y-76413495D01*
X162858107Y-76416652D01*
X162858110Y-76416654D01*
X163036820Y-76541788D01*
X163081148Y-76597245D01*
X163088457Y-76667865D01*
X163056426Y-76731225D01*
X163036822Y-76748211D01*
X162853599Y-76876505D01*
X162686505Y-77043599D01*
X162550965Y-77237171D01*
X162548644Y-77242149D01*
X162548642Y-77242152D01*
X162453420Y-77446355D01*
X162451097Y-77451337D01*
X162389937Y-77679592D01*
X162369341Y-77915000D01*
X162389937Y-78150408D01*
X162391361Y-78155723D01*
X162391362Y-78155726D01*
X162431466Y-78305401D01*
X162429776Y-78376377D01*
X162389981Y-78435173D01*
X162324717Y-78463120D01*
X162309759Y-78464011D01*
X139683901Y-78464011D01*
X139615780Y-78444009D01*
X139569287Y-78390353D01*
X139559183Y-78320079D01*
X139562194Y-78305400D01*
X139603639Y-78150723D01*
X139603639Y-78150722D01*
X139605063Y-78145408D01*
X139625659Y-77910000D01*
X139605063Y-77674592D01*
X139543903Y-77446337D01*
X139462211Y-77271149D01*
X139446358Y-77237152D01*
X139446356Y-77237149D01*
X139444035Y-77232171D01*
X139308495Y-77038599D01*
X139141401Y-76871505D01*
X139136893Y-76868348D01*
X139136890Y-76868346D01*
X138952339Y-76739122D01*
X138952336Y-76739120D01*
X138947830Y-76735965D01*
X138942848Y-76733642D01*
X138942843Y-76733639D01*
X138754297Y-76645719D01*
X138701012Y-76598802D01*
X138681551Y-76530524D01*
X138702093Y-76462564D01*
X138745981Y-76421589D01*
X138919124Y-76324625D01*
X138928596Y-76318115D01*
X139082219Y-76190348D01*
X139090348Y-76182219D01*
X139218115Y-76028596D01*
X139224625Y-76019124D01*
X139322258Y-75844786D01*
X139326934Y-75834283D01*
X139391160Y-75645078D01*
X139392396Y-75639933D01*
X139390694Y-75627993D01*
X139377126Y-75624000D01*
X138142000Y-75624000D01*
X138073879Y-75603998D01*
X138027386Y-75550342D01*
X138016000Y-75498000D01*
X138016000Y-75097885D01*
X138524000Y-75097885D01*
X138528475Y-75113124D01*
X138529865Y-75114329D01*
X138537548Y-75116000D01*
X139375196Y-75116000D01*
X139388727Y-75112027D01*
X139389896Y-75103893D01*
X139349785Y-74961670D01*
X139345663Y-74950931D01*
X139257292Y-74771733D01*
X139251282Y-74761925D01*
X139131731Y-74601827D01*
X139124041Y-74593287D01*
X138977315Y-74457654D01*
X138968190Y-74450653D01*
X138799209Y-74344034D01*
X138788965Y-74338814D01*
X138603377Y-74264772D01*
X138592356Y-74261507D01*
X138541770Y-74251445D01*
X138528894Y-74252597D01*
X138524000Y-74267753D01*
X138524000Y-75097885D01*
X138016000Y-75097885D01*
X138016000Y-74264823D01*
X138012194Y-74251861D01*
X137997278Y-74249925D01*
X137976780Y-74253447D01*
X137965660Y-74256427D01*
X137778207Y-74325582D01*
X137767829Y-74330532D01*
X137596119Y-74432688D01*
X137586807Y-74439453D01*
X137436587Y-74571194D01*
X137428670Y-74579537D01*
X137304975Y-74736443D01*
X137298704Y-74746100D01*
X137205679Y-74922912D01*
X137201273Y-74933549D01*
X137142025Y-75124356D01*
X137139632Y-75135614D01*
X137131127Y-75207473D01*
X137103257Y-75272770D01*
X137044508Y-75312634D01*
X136973534Y-75314408D01*
X136912867Y-75277529D01*
X136881770Y-75213706D01*
X136880000Y-75192663D01*
X136880000Y-74479160D01*
X136879558Y-74471714D01*
X136878006Y-74458664D01*
X136873048Y-74440626D01*
X136836245Y-74357769D01*
X136823287Y-74338915D01*
X136760658Y-74276396D01*
X136741788Y-74263475D01*
X136658875Y-74226820D01*
X136640798Y-74221892D01*
X136628213Y-74220424D01*
X136620912Y-74220000D01*
X136002115Y-74220000D01*
X135986876Y-74224475D01*
X135985671Y-74225865D01*
X135984000Y-74233548D01*
X135984000Y-75498000D01*
X135963998Y-75566121D01*
X135910342Y-75612614D01*
X135858000Y-75624000D01*
X134598115Y-75624000D01*
X134582876Y-75628475D01*
X134581671Y-75629865D01*
X134580000Y-75637548D01*
X134580000Y-76260840D01*
X134580442Y-76268286D01*
X134581994Y-76281336D01*
X134586952Y-76299374D01*
X134623755Y-76382231D01*
X134636713Y-76401085D01*
X134699342Y-76463604D01*
X134718212Y-76476525D01*
X134801125Y-76513180D01*
X134819202Y-76518108D01*
X134831787Y-76519576D01*
X134839088Y-76520000D01*
X134960981Y-76520000D01*
X135029102Y-76540002D01*
X135075595Y-76593658D01*
X135085699Y-76663932D01*
X135056205Y-76728512D01*
X135033252Y-76749212D01*
X134858599Y-76871505D01*
X134691505Y-77038599D01*
X134555965Y-77232171D01*
X134553644Y-77237149D01*
X134553642Y-77237152D01*
X134537789Y-77271149D01*
X134456097Y-77446337D01*
X134394937Y-77674592D01*
X134374341Y-77910000D01*
X134394937Y-78145408D01*
X134456097Y-78373663D01*
X134458419Y-78378643D01*
X134458420Y-78378645D01*
X134494332Y-78455658D01*
X134504993Y-78525850D01*
X134476013Y-78590662D01*
X134451505Y-78612747D01*
X134428119Y-78628820D01*
X134418838Y-78635199D01*
X134413786Y-78640869D01*
X134413785Y-78640870D01*
X134377889Y-78681159D01*
X134372908Y-78686436D01*
X133624919Y-79434424D01*
X133618653Y-79440277D01*
X133575604Y-79477831D01*
X133539317Y-79529463D01*
X133535384Y-79534758D01*
X133501105Y-79578476D01*
X133501103Y-79578480D01*
X133496416Y-79584457D01*
X133493290Y-79591380D01*
X133491505Y-79594328D01*
X133484113Y-79607288D01*
X133482480Y-79610334D01*
X133478113Y-79616547D01*
X133475354Y-79623624D01*
X133455180Y-79675366D01*
X133452625Y-79681445D01*
X133426645Y-79738984D01*
X133425260Y-79746455D01*
X133424236Y-79749723D01*
X133420123Y-79764164D01*
X133419283Y-79767437D01*
X133416524Y-79774513D01*
X133410644Y-79819183D01*
X133408284Y-79837106D01*
X133407252Y-79843623D01*
X133395748Y-79905692D01*
X133396185Y-79913272D01*
X133396185Y-79913273D01*
X133399291Y-79967144D01*
X133399500Y-79974396D01*
X133399500Y-94031359D01*
X133399208Y-94039929D01*
X133395322Y-94096930D01*
X133396627Y-94104406D01*
X133396627Y-94104409D01*
X133406178Y-94159132D01*
X133407141Y-94165658D01*
X133414724Y-94228320D01*
X133417409Y-94235427D01*
X133418218Y-94238720D01*
X133422177Y-94253191D01*
X133423166Y-94256467D01*
X133424473Y-94263954D01*
X133427528Y-94270913D01*
X133427528Y-94270914D01*
X133449847Y-94321760D01*
X133452339Y-94327866D01*
X133470998Y-94377244D01*
X133474655Y-94386923D01*
X133478954Y-94393178D01*
X133480535Y-94396203D01*
X133487825Y-94409299D01*
X133489566Y-94412243D01*
X133492621Y-94419202D01*
X133497246Y-94425230D01*
X133497247Y-94425231D01*
X133531042Y-94469273D01*
X133534919Y-94474609D01*
X133566381Y-94520386D01*
X133566386Y-94520392D01*
X133570688Y-94526651D01*
X133612087Y-94563536D01*
X133616657Y-94567608D01*
X133621933Y-94572589D01*
X134366531Y-95317187D01*
X134400557Y-95379499D01*
X134399144Y-95438889D01*
X134396638Y-95448242D01*
X134394937Y-95454592D01*
X134374341Y-95690000D01*
X134394937Y-95925408D01*
X134396361Y-95930722D01*
X134396361Y-95930723D01*
X134445651Y-96114676D01*
X134456097Y-96153663D01*
X134458419Y-96158643D01*
X134458420Y-96158645D01*
X134502438Y-96253040D01*
X134555965Y-96367829D01*
X134557760Y-96370392D01*
X134574327Y-96438675D01*
X134551109Y-96505767D01*
X134537565Y-96521778D01*
X133624925Y-97434418D01*
X133618660Y-97440271D01*
X133575604Y-97477831D01*
X133548119Y-97516939D01*
X133539317Y-97529463D01*
X133535384Y-97534758D01*
X133501105Y-97578476D01*
X133501103Y-97578480D01*
X133496416Y-97584457D01*
X133493290Y-97591380D01*
X133491505Y-97594328D01*
X133484113Y-97607288D01*
X133482480Y-97610334D01*
X133478113Y-97616547D01*
X133475354Y-97623624D01*
X133455180Y-97675366D01*
X133452625Y-97681445D01*
X133426645Y-97738984D01*
X133425260Y-97746455D01*
X133424236Y-97749723D01*
X133420123Y-97764164D01*
X133419283Y-97767437D01*
X133416524Y-97774513D01*
X133415533Y-97782043D01*
X133408284Y-97837106D01*
X133407252Y-97843623D01*
X133395748Y-97905692D01*
X133396185Y-97913272D01*
X133396185Y-97913273D01*
X133399291Y-97967144D01*
X133399500Y-97974396D01*
X133399500Y-118821359D01*
X133399208Y-118829929D01*
X133396042Y-118876372D01*
X133395322Y-118886930D01*
X132500500Y-118886930D01*
X132500500Y-75097885D01*
X134580000Y-75097885D01*
X134584475Y-75113124D01*
X134585865Y-75114329D01*
X134593548Y-75116000D01*
X135457885Y-75116000D01*
X135473124Y-75111525D01*
X135474329Y-75110135D01*
X135476000Y-75102452D01*
X135476000Y-74238115D01*
X135471525Y-74222876D01*
X135470135Y-74221671D01*
X135462452Y-74220000D01*
X134839160Y-74220000D01*
X134831714Y-74220442D01*
X134818664Y-74221994D01*
X134800626Y-74226952D01*
X134717769Y-74263755D01*
X134698915Y-74276713D01*
X134636396Y-74339342D01*
X134623475Y-74358212D01*
X134586820Y-74441125D01*
X134581892Y-74459202D01*
X134580424Y-74471787D01*
X134580000Y-74479088D01*
X134580000Y-75097885D01*
X132500500Y-75097885D01*
X132500500Y-73052576D01*
X132502246Y-73031671D01*
X132504689Y-73017148D01*
X132505496Y-73012354D01*
X132505647Y-73000000D01*
X132504763Y-72993823D01*
X132503529Y-72985208D01*
X132502408Y-72961162D01*
X132508788Y-72831305D01*
X132517048Y-72663167D01*
X132518259Y-72650866D01*
X132522990Y-72618971D01*
X132529097Y-72577799D01*
X162604774Y-72577799D01*
X162611506Y-72581000D01*
X163452885Y-72581000D01*
X163468124Y-72576525D01*
X163469329Y-72575135D01*
X163471000Y-72567452D01*
X163471000Y-71729823D01*
X163467194Y-71716861D01*
X163452278Y-71714925D01*
X163431780Y-71718447D01*
X163420660Y-71721427D01*
X163233207Y-71790582D01*
X163222829Y-71795532D01*
X163051119Y-71897688D01*
X163041807Y-71904453D01*
X162891587Y-72036194D01*
X162883670Y-72044537D01*
X162759975Y-72201443D01*
X162753704Y-72211100D01*
X162660679Y-72387912D01*
X162656273Y-72398549D01*
X162604993Y-72563698D01*
X162604774Y-72577799D01*
X132529097Y-72577799D01*
X132566835Y-72323397D01*
X132569242Y-72311291D01*
X132649686Y-71990142D01*
X132653274Y-71978316D01*
X132764796Y-71666636D01*
X132769527Y-71655212D01*
X132911071Y-71355941D01*
X132916900Y-71345036D01*
X133087092Y-71061088D01*
X133093962Y-71050807D01*
X133291163Y-70784913D01*
X133299007Y-70775355D01*
X133521323Y-70530067D01*
X133530067Y-70521323D01*
X133775355Y-70299007D01*
X133784913Y-70291163D01*
X134050807Y-70093962D01*
X134061088Y-70087092D01*
X134345036Y-69916900D01*
X134355941Y-69911071D01*
X134655212Y-69769527D01*
X134666636Y-69764796D01*
X134978316Y-69653274D01*
X134990142Y-69649686D01*
X135311291Y-69569242D01*
X135323397Y-69566835D01*
X135650871Y-69518258D01*
X135663165Y-69517048D01*
X135957512Y-69502587D01*
X135983077Y-69503936D01*
X135983693Y-69504032D01*
X135984951Y-69504228D01*
X135984953Y-69504228D01*
X135993823Y-69505609D01*
X136002725Y-69504445D01*
X136002728Y-69504445D01*
X136024756Y-69501564D01*
X136041093Y-69500500D01*
X165951259Y-69500500D01*
X165970643Y-69502000D01*
G37*
%TD.AperFunction*%
%TA.AperFunction,Conductor*%
G36*
X152865184Y-117770502D02*
G01*
X152911677Y-117824158D01*
X152921781Y-117894432D01*
X152890699Y-117960811D01*
X152783737Y-118079604D01*
X152780437Y-118085320D01*
X152780434Y-118085324D01*
X152762767Y-118115925D01*
X152691193Y-118239896D01*
X152689153Y-118246176D01*
X152689152Y-118246177D01*
X152669531Y-118306565D01*
X152633997Y-118415925D01*
X152633308Y-118422482D01*
X152633307Y-118422486D01*
X152620481Y-118544525D01*
X152614650Y-118600000D01*
X152633997Y-118784075D01*
X152636036Y-118790349D01*
X152636036Y-118790351D01*
X152687628Y-118949132D01*
X152691193Y-118960104D01*
X152694496Y-118965825D01*
X152780434Y-119114676D01*
X152780437Y-119114680D01*
X152783737Y-119120396D01*
X152788155Y-119125303D01*
X152788156Y-119125304D01*
X152889029Y-119237334D01*
X152907585Y-119257943D01*
X152912924Y-119261822D01*
X152981611Y-119311726D01*
X153057325Y-119366736D01*
X153063353Y-119369420D01*
X153063355Y-119369421D01*
X153211377Y-119435324D01*
X153226412Y-119442018D01*
X153316934Y-119461259D01*
X153400999Y-119479128D01*
X153401003Y-119479128D01*
X153407456Y-119480500D01*
X153592544Y-119480500D01*
X153598997Y-119479128D01*
X153599001Y-119479128D01*
X153683066Y-119461259D01*
X153773588Y-119442018D01*
X153788623Y-119435324D01*
X153936645Y-119369421D01*
X153936647Y-119369420D01*
X153942675Y-119366736D01*
X154018390Y-119311726D01*
X154087076Y-119261822D01*
X154092415Y-119257943D01*
X154110972Y-119237334D01*
X154211844Y-119125304D01*
X154211845Y-119125303D01*
X154216263Y-119120396D01*
X154219563Y-119114680D01*
X154219566Y-119114676D01*
X154305504Y-118965825D01*
X154308807Y-118960104D01*
X154312372Y-118949132D01*
X154363964Y-118790351D01*
X154363964Y-118790349D01*
X154366003Y-118784075D01*
X154385350Y-118600000D01*
X154379519Y-118544525D01*
X154366693Y-118422486D01*
X154366692Y-118422482D01*
X154366003Y-118415925D01*
X154330470Y-118306565D01*
X154310848Y-118246177D01*
X154310847Y-118246176D01*
X154308807Y-118239896D01*
X154237233Y-118115925D01*
X154219566Y-118085324D01*
X154219563Y-118085320D01*
X154216263Y-118079604D01*
X154109301Y-117960811D01*
X154078584Y-117896803D01*
X154087348Y-117826349D01*
X154132810Y-117771818D01*
X154202937Y-117750500D01*
X162412252Y-117750500D01*
X162480373Y-117770502D01*
X162526866Y-117824158D01*
X162536970Y-117894432D01*
X162526447Y-117929750D01*
X162453429Y-118086337D01*
X162451097Y-118091337D01*
X162449675Y-118096645D01*
X162449674Y-118096647D01*
X162392701Y-118309277D01*
X162389937Y-118319592D01*
X162369341Y-118555000D01*
X162389937Y-118790408D01*
X162391360Y-118795719D01*
X162391362Y-118795730D01*
X162394143Y-118806108D01*
X162392452Y-118877084D01*
X162361531Y-118927812D01*
X157326748Y-123962595D01*
X157264436Y-123996621D01*
X157237653Y-123999500D01*
X154436939Y-123999500D01*
X154368818Y-123979498D01*
X154322325Y-123925842D01*
X154312221Y-123855568D01*
X154317106Y-123834564D01*
X154363963Y-123690354D01*
X154363963Y-123690352D01*
X154366003Y-123684075D01*
X154367922Y-123665825D01*
X154384660Y-123506565D01*
X154385350Y-123500000D01*
X154373713Y-123389277D01*
X154366693Y-123322486D01*
X154366692Y-123322482D01*
X154366003Y-123315925D01*
X154358696Y-123293435D01*
X154310848Y-123146177D01*
X154310847Y-123146176D01*
X154308807Y-123139896D01*
X154298755Y-123122486D01*
X154219566Y-122985324D01*
X154219563Y-122985320D01*
X154216263Y-122979604D01*
X154092415Y-122842057D01*
X153990638Y-122768111D01*
X153948017Y-122737145D01*
X153948016Y-122737144D01*
X153942675Y-122733264D01*
X153936647Y-122730580D01*
X153936645Y-122730579D01*
X153779619Y-122660667D01*
X153779618Y-122660667D01*
X153773588Y-122657982D01*
X153680417Y-122638178D01*
X153599001Y-122620872D01*
X153598997Y-122620872D01*
X153592544Y-122619500D01*
X153407456Y-122619500D01*
X153401003Y-122620872D01*
X153400999Y-122620872D01*
X153319583Y-122638178D01*
X153226412Y-122657982D01*
X153220382Y-122660667D01*
X153220381Y-122660667D01*
X153063355Y-122730579D01*
X153063353Y-122730580D01*
X153057325Y-122733264D01*
X153051984Y-122737144D01*
X153051983Y-122737145D01*
X153009362Y-122768111D01*
X152907585Y-122842057D01*
X152783737Y-122979604D01*
X152780437Y-122985320D01*
X152780434Y-122985324D01*
X152701245Y-123122486D01*
X152691193Y-123139896D01*
X152689153Y-123146176D01*
X152689152Y-123146177D01*
X152641305Y-123293435D01*
X152633997Y-123315925D01*
X152633308Y-123322482D01*
X152633307Y-123322486D01*
X152626287Y-123389277D01*
X152614650Y-123500000D01*
X152615340Y-123506565D01*
X152632079Y-123665825D01*
X152633997Y-123684075D01*
X152636037Y-123690352D01*
X152636037Y-123690354D01*
X152682894Y-123834564D01*
X152684922Y-123905531D01*
X152648259Y-123966329D01*
X152584547Y-123997655D01*
X152563061Y-123999500D01*
X151549064Y-123999500D01*
X151480943Y-123979498D01*
X151434450Y-123925842D01*
X151423754Y-123860329D01*
X151434660Y-123756565D01*
X151435350Y-123750000D01*
X151428421Y-123684075D01*
X151416693Y-123572486D01*
X151416692Y-123572482D01*
X151416003Y-123565925D01*
X151394583Y-123500000D01*
X151360848Y-123396177D01*
X151360847Y-123396176D01*
X151358807Y-123389896D01*
X151303116Y-123293435D01*
X151269566Y-123235324D01*
X151269563Y-123235320D01*
X151266263Y-123229604D01*
X151246765Y-123207949D01*
X151146830Y-123096960D01*
X151146828Y-123096959D01*
X151142415Y-123092057D01*
X151120034Y-123075796D01*
X150998017Y-122987145D01*
X150998016Y-122987144D01*
X150992675Y-122983264D01*
X150986647Y-122980580D01*
X150986645Y-122980579D01*
X150829619Y-122910667D01*
X150829618Y-122910667D01*
X150823588Y-122907982D01*
X150733066Y-122888741D01*
X150649001Y-122870872D01*
X150648997Y-122870872D01*
X150642544Y-122869500D01*
X150457456Y-122869500D01*
X150451003Y-122870872D01*
X150450999Y-122870872D01*
X150366934Y-122888741D01*
X150276412Y-122907982D01*
X150270382Y-122910667D01*
X150270381Y-122910667D01*
X150113355Y-122980579D01*
X150113353Y-122980580D01*
X150107325Y-122983264D01*
X150101984Y-122987144D01*
X150101983Y-122987145D01*
X149979966Y-123075796D01*
X149957585Y-123092057D01*
X149953172Y-123096959D01*
X149953170Y-123096960D01*
X149853235Y-123207949D01*
X149833737Y-123229604D01*
X149830437Y-123235320D01*
X149830434Y-123235324D01*
X149796884Y-123293435D01*
X149741193Y-123389896D01*
X149739153Y-123396176D01*
X149739152Y-123396177D01*
X149705418Y-123500000D01*
X149683997Y-123565925D01*
X149683308Y-123572482D01*
X149683307Y-123572486D01*
X149671579Y-123684075D01*
X149664650Y-123750000D01*
X149665340Y-123756565D01*
X149676246Y-123860329D01*
X149663474Y-123930168D01*
X149614972Y-123982015D01*
X149550936Y-123999500D01*
X146331095Y-123999500D01*
X146262974Y-123979498D01*
X146216481Y-123925842D01*
X146206377Y-123855568D01*
X146221976Y-123810500D01*
X146253116Y-123756565D01*
X146308807Y-123660104D01*
X146318743Y-123629525D01*
X146363964Y-123490351D01*
X146363964Y-123490349D01*
X146366003Y-123484075D01*
X146374735Y-123401002D01*
X146384660Y-123306565D01*
X146385350Y-123300000D01*
X146375675Y-123207949D01*
X146366693Y-123122486D01*
X146366692Y-123122482D01*
X146366003Y-123115925D01*
X146356988Y-123088178D01*
X146310848Y-122946177D01*
X146310847Y-122946176D01*
X146308807Y-122939896D01*
X146290382Y-122907982D01*
X146219566Y-122785324D01*
X146219563Y-122785320D01*
X146216263Y-122779604D01*
X146148597Y-122704453D01*
X146096830Y-122646960D01*
X146096828Y-122646959D01*
X146092415Y-122642057D01*
X146070034Y-122625796D01*
X145948017Y-122537145D01*
X145948016Y-122537144D01*
X145942675Y-122533264D01*
X145936647Y-122530580D01*
X145936645Y-122530579D01*
X145779619Y-122460667D01*
X145779618Y-122460667D01*
X145773588Y-122457982D01*
X145651416Y-122432013D01*
X145588519Y-122397862D01*
X143487405Y-120296748D01*
X143453379Y-120234436D01*
X143450500Y-120207653D01*
X143450500Y-119950000D01*
X147764650Y-119950000D01*
X147765340Y-119956565D01*
X147776254Y-120060402D01*
X147783997Y-120134075D01*
X147786036Y-120140349D01*
X147786036Y-120140351D01*
X147824862Y-120259843D01*
X147841193Y-120310104D01*
X147844496Y-120315825D01*
X147930434Y-120464676D01*
X147930437Y-120464680D01*
X147933737Y-120470396D01*
X147938155Y-120475303D01*
X147938156Y-120475304D01*
X148038665Y-120586930D01*
X148057585Y-120607943D01*
X148062924Y-120611822D01*
X148163536Y-120684921D01*
X148207325Y-120716736D01*
X148213353Y-120719420D01*
X148213355Y-120719421D01*
X148370381Y-120789333D01*
X148376412Y-120792018D01*
X148466934Y-120811259D01*
X148550999Y-120829128D01*
X148551003Y-120829128D01*
X148557456Y-120830500D01*
X148742544Y-120830500D01*
X148748997Y-120829128D01*
X148749001Y-120829128D01*
X148833066Y-120811259D01*
X148923588Y-120792018D01*
X148929619Y-120789333D01*
X149086645Y-120719421D01*
X149086647Y-120719420D01*
X149092675Y-120716736D01*
X149136465Y-120684921D01*
X149237076Y-120611822D01*
X149242415Y-120607943D01*
X149261336Y-120586930D01*
X149361844Y-120475304D01*
X149361845Y-120475303D01*
X149366263Y-120470396D01*
X149369563Y-120464680D01*
X149369566Y-120464676D01*
X149455504Y-120315825D01*
X149458807Y-120310104D01*
X149475138Y-120259843D01*
X149513964Y-120140351D01*
X149513964Y-120140349D01*
X149516003Y-120134075D01*
X149523747Y-120060402D01*
X149534660Y-119956565D01*
X149535350Y-119950000D01*
X149531275Y-119911225D01*
X149516693Y-119772486D01*
X149516692Y-119772482D01*
X149516003Y-119765925D01*
X149458807Y-119589896D01*
X149394856Y-119479128D01*
X149369566Y-119435324D01*
X149369563Y-119435320D01*
X149366263Y-119429604D01*
X149361844Y-119424696D01*
X149246830Y-119296960D01*
X149246828Y-119296959D01*
X149242415Y-119292057D01*
X149148154Y-119223572D01*
X149098017Y-119187145D01*
X149098016Y-119187144D01*
X149092675Y-119183264D01*
X149086647Y-119180580D01*
X149086645Y-119180579D01*
X148929619Y-119110667D01*
X148929618Y-119110667D01*
X148923588Y-119107982D01*
X148833066Y-119088741D01*
X148749001Y-119070872D01*
X148748997Y-119070872D01*
X148742544Y-119069500D01*
X148557456Y-119069500D01*
X148551003Y-119070872D01*
X148550999Y-119070872D01*
X148466934Y-119088741D01*
X148376412Y-119107982D01*
X148370382Y-119110667D01*
X148370381Y-119110667D01*
X148213355Y-119180579D01*
X148213353Y-119180580D01*
X148207325Y-119183264D01*
X148201984Y-119187144D01*
X148201983Y-119187145D01*
X148151846Y-119223572D01*
X148057585Y-119292057D01*
X148053172Y-119296959D01*
X148053170Y-119296960D01*
X147938156Y-119424696D01*
X147933737Y-119429604D01*
X147930437Y-119435320D01*
X147930434Y-119435324D01*
X147905144Y-119479128D01*
X147841193Y-119589896D01*
X147783997Y-119765925D01*
X147783308Y-119772482D01*
X147783307Y-119772486D01*
X147768725Y-119911225D01*
X147764650Y-119950000D01*
X143450500Y-119950000D01*
X143450500Y-119126500D01*
X143470502Y-119058379D01*
X143524158Y-119011886D01*
X143576500Y-119000500D01*
X144925219Y-119000500D01*
X144999280Y-119024564D01*
X145049312Y-119060914D01*
X145057325Y-119066736D01*
X145063353Y-119069420D01*
X145063355Y-119069421D01*
X145214409Y-119136674D01*
X145226412Y-119142018D01*
X145313890Y-119160612D01*
X145400999Y-119179128D01*
X145401003Y-119179128D01*
X145407456Y-119180500D01*
X145592544Y-119180500D01*
X145598997Y-119179128D01*
X145599001Y-119179128D01*
X145686110Y-119160612D01*
X145773588Y-119142018D01*
X145785591Y-119136674D01*
X145936645Y-119069421D01*
X145936647Y-119069420D01*
X145942675Y-119066736D01*
X145950689Y-119060914D01*
X146087076Y-118961822D01*
X146092415Y-118957943D01*
X146100349Y-118949132D01*
X146211844Y-118825304D01*
X146211845Y-118825303D01*
X146216263Y-118820396D01*
X146219563Y-118814680D01*
X146219566Y-118814676D01*
X146305504Y-118665825D01*
X146308807Y-118660104D01*
X146328336Y-118600000D01*
X146363964Y-118490351D01*
X146363964Y-118490349D01*
X146366003Y-118484075D01*
X146372477Y-118422486D01*
X146384660Y-118306565D01*
X146385350Y-118300000D01*
X146366003Y-118115925D01*
X146354771Y-118081355D01*
X146310848Y-117946177D01*
X146310847Y-117946176D01*
X146308807Y-117939896D01*
X146305504Y-117934175D01*
X146302820Y-117928147D01*
X146305546Y-117926933D01*
X146291836Y-117870593D01*
X146315009Y-117803485D01*
X146370786Y-117759558D01*
X146417697Y-117750500D01*
X152797063Y-117750500D01*
X152865184Y-117770502D01*
G37*
%TD.AperFunction*%
%TA.AperFunction,Conductor*%
G36*
X162388860Y-95125013D02*
G01*
X162435353Y-95178669D01*
X162445457Y-95248943D01*
X162442446Y-95263622D01*
X162403320Y-95409646D01*
X162389937Y-95459592D01*
X162369341Y-95695000D01*
X162389937Y-95930408D01*
X162391361Y-95935722D01*
X162391361Y-95935723D01*
X162442159Y-96125304D01*
X162451097Y-96158663D01*
X162453419Y-96163643D01*
X162453420Y-96163645D01*
X162548124Y-96366736D01*
X162550965Y-96372829D01*
X162686505Y-96566401D01*
X162853599Y-96733495D01*
X162858107Y-96736652D01*
X162858110Y-96736654D01*
X163036820Y-96861788D01*
X163081148Y-96917245D01*
X163088457Y-96987865D01*
X163056426Y-97051225D01*
X163036822Y-97068211D01*
X162853599Y-97196505D01*
X162686505Y-97363599D01*
X162550965Y-97557171D01*
X162548644Y-97562149D01*
X162548642Y-97562152D01*
X162454442Y-97764164D01*
X162451097Y-97771337D01*
X162449675Y-97776645D01*
X162449674Y-97776647D01*
X162437616Y-97821648D01*
X162389937Y-97999592D01*
X162369341Y-98235000D01*
X162389937Y-98470408D01*
X162391361Y-98475722D01*
X162391361Y-98475723D01*
X162440826Y-98660329D01*
X162451097Y-98698663D01*
X162453419Y-98703643D01*
X162453420Y-98703645D01*
X162535121Y-98878851D01*
X162550965Y-98912829D01*
X162686505Y-99106401D01*
X162853599Y-99273495D01*
X162858107Y-99276652D01*
X162858110Y-99276654D01*
X163036820Y-99401788D01*
X163081148Y-99457245D01*
X163088457Y-99527865D01*
X163056426Y-99591225D01*
X163036822Y-99608211D01*
X162853599Y-99736505D01*
X162686505Y-99903599D01*
X162550965Y-100097171D01*
X162548644Y-100102149D01*
X162548642Y-100102152D01*
X162502645Y-100200792D01*
X162451097Y-100311337D01*
X162389937Y-100539592D01*
X162369341Y-100775000D01*
X162389937Y-101010408D01*
X162451097Y-101238663D01*
X162453419Y-101243643D01*
X162453420Y-101243645D01*
X162535121Y-101418851D01*
X162550965Y-101452829D01*
X162686505Y-101646401D01*
X162853599Y-101813495D01*
X162858107Y-101816652D01*
X162858110Y-101816654D01*
X163036820Y-101941788D01*
X163081148Y-101997245D01*
X163088457Y-102067865D01*
X163056426Y-102131225D01*
X163036822Y-102148211D01*
X162853599Y-102276505D01*
X162686505Y-102443599D01*
X162550965Y-102637171D01*
X162548644Y-102642149D01*
X162548642Y-102642152D01*
X162531712Y-102678458D01*
X162451097Y-102851337D01*
X162449675Y-102856645D01*
X162449674Y-102856647D01*
X162391361Y-103074277D01*
X162389937Y-103079592D01*
X162369341Y-103315000D01*
X162389937Y-103550408D01*
X162391361Y-103555722D01*
X162391361Y-103555723D01*
X162431779Y-103706565D01*
X162451097Y-103778663D01*
X162453419Y-103783643D01*
X162453420Y-103783645D01*
X162548631Y-103987823D01*
X162550965Y-103992829D01*
X162686505Y-104186401D01*
X162853599Y-104353495D01*
X162858107Y-104356652D01*
X162858110Y-104356654D01*
X163036820Y-104481788D01*
X163081148Y-104537245D01*
X163088457Y-104607865D01*
X163056426Y-104671225D01*
X163036822Y-104688211D01*
X162853599Y-104816505D01*
X162686505Y-104983599D01*
X162550965Y-105177171D01*
X162548644Y-105182149D01*
X162548642Y-105182152D01*
X162453420Y-105386355D01*
X162451097Y-105391337D01*
X162389937Y-105619592D01*
X162369341Y-105855000D01*
X162389937Y-106090408D01*
X162451097Y-106318663D01*
X162453419Y-106323643D01*
X162453420Y-106323645D01*
X162546311Y-106522848D01*
X162550965Y-106532829D01*
X162686505Y-106726401D01*
X162853599Y-106893495D01*
X162858107Y-106896652D01*
X162858110Y-106896654D01*
X163036820Y-107021788D01*
X163081148Y-107077245D01*
X163088457Y-107147865D01*
X163056426Y-107211225D01*
X163036822Y-107228211D01*
X162853599Y-107356505D01*
X162686505Y-107523599D01*
X162550965Y-107717171D01*
X162548644Y-107722149D01*
X162548642Y-107722152D01*
X162453420Y-107926355D01*
X162451097Y-107931337D01*
X162449675Y-107936645D01*
X162449674Y-107936647D01*
X162423786Y-108033264D01*
X162389937Y-108159592D01*
X162369341Y-108395000D01*
X162389937Y-108630408D01*
X162391361Y-108635722D01*
X162391361Y-108635723D01*
X162437138Y-108806565D01*
X162451097Y-108858663D01*
X162453419Y-108863643D01*
X162453420Y-108863645D01*
X162535121Y-109038851D01*
X162550965Y-109072829D01*
X162686505Y-109266401D01*
X162853599Y-109433495D01*
X162858107Y-109436652D01*
X162858110Y-109436654D01*
X163036820Y-109561788D01*
X163081148Y-109617245D01*
X163088457Y-109687865D01*
X163056426Y-109751225D01*
X163036822Y-109768211D01*
X162853599Y-109896505D01*
X162686505Y-110063599D01*
X162550965Y-110257171D01*
X162548644Y-110262149D01*
X162548642Y-110262152D01*
X162455000Y-110462967D01*
X162451097Y-110471337D01*
X162449675Y-110476645D01*
X162449674Y-110476647D01*
X162397760Y-110670396D01*
X162389937Y-110699592D01*
X162369341Y-110935000D01*
X162389937Y-111170408D01*
X162451097Y-111398663D01*
X162453419Y-111403643D01*
X162453420Y-111403645D01*
X162535121Y-111578851D01*
X162550965Y-111612829D01*
X162686505Y-111806401D01*
X162853599Y-111973495D01*
X162858107Y-111976652D01*
X162858110Y-111976654D01*
X163036820Y-112101788D01*
X163081148Y-112157245D01*
X163088457Y-112227865D01*
X163056426Y-112291225D01*
X163036822Y-112308211D01*
X162853599Y-112436505D01*
X162686505Y-112603599D01*
X162550965Y-112797171D01*
X162548644Y-112802149D01*
X162548642Y-112802152D01*
X162455000Y-113002967D01*
X162451097Y-113011337D01*
X162449675Y-113016645D01*
X162449674Y-113016647D01*
X162404478Y-113185324D01*
X162389937Y-113239592D01*
X162369341Y-113475000D01*
X162389937Y-113710408D01*
X162391360Y-113715719D01*
X162391362Y-113715730D01*
X162394143Y-113726108D01*
X162392452Y-113797084D01*
X162361531Y-113847812D01*
X160946748Y-115262595D01*
X160884436Y-115296621D01*
X160857653Y-115299500D01*
X149649064Y-115299500D01*
X149580943Y-115279498D01*
X149534450Y-115225842D01*
X149523754Y-115160329D01*
X149534660Y-115056565D01*
X149535350Y-115050000D01*
X149528035Y-114980400D01*
X149516693Y-114872486D01*
X149516692Y-114872482D01*
X149516003Y-114865925D01*
X149508624Y-114843213D01*
X149460848Y-114696177D01*
X149460847Y-114696176D01*
X149458807Y-114689896D01*
X149431032Y-114641788D01*
X149369566Y-114535324D01*
X149369563Y-114535320D01*
X149366263Y-114529604D01*
X149354603Y-114516654D01*
X149246830Y-114396960D01*
X149246828Y-114396959D01*
X149242415Y-114392057D01*
X149092675Y-114283264D01*
X149086647Y-114280580D01*
X149086645Y-114280579D01*
X148929619Y-114210667D01*
X148929618Y-114210667D01*
X148923588Y-114207982D01*
X148833066Y-114188741D01*
X148749001Y-114170872D01*
X148748997Y-114170872D01*
X148742544Y-114169500D01*
X148557456Y-114169500D01*
X148551003Y-114170872D01*
X148550999Y-114170872D01*
X148466934Y-114188741D01*
X148376412Y-114207982D01*
X148370382Y-114210667D01*
X148370381Y-114210667D01*
X148213355Y-114280579D01*
X148213353Y-114280580D01*
X148207325Y-114283264D01*
X148057585Y-114392057D01*
X148053172Y-114396959D01*
X148053170Y-114396960D01*
X147945397Y-114516654D01*
X147933737Y-114529604D01*
X147930437Y-114535320D01*
X147930434Y-114535324D01*
X147868968Y-114641788D01*
X147841193Y-114689896D01*
X147839153Y-114696176D01*
X147839152Y-114696177D01*
X147791377Y-114843213D01*
X147783997Y-114865925D01*
X147783308Y-114872482D01*
X147783307Y-114872486D01*
X147771965Y-114980400D01*
X147764650Y-115050000D01*
X147765340Y-115056565D01*
X147776246Y-115160329D01*
X147763474Y-115230168D01*
X147714972Y-115282015D01*
X147650936Y-115299500D01*
X144592346Y-115299500D01*
X144524225Y-115279498D01*
X144503251Y-115262595D01*
X139795763Y-110555106D01*
X139761737Y-110492794D01*
X139766802Y-110421979D01*
X139809349Y-110365143D01*
X139875869Y-110340332D01*
X139884858Y-110340011D01*
X141397165Y-110340011D01*
X141465286Y-110360013D01*
X141486260Y-110376916D01*
X144595467Y-113486124D01*
X144629493Y-113548436D01*
X144631682Y-113562048D01*
X144633997Y-113584075D01*
X144636036Y-113590349D01*
X144636036Y-113590351D01*
X144676775Y-113715730D01*
X144691193Y-113760104D01*
X144694496Y-113765825D01*
X144780434Y-113914676D01*
X144780437Y-113914680D01*
X144783737Y-113920396D01*
X144788155Y-113925303D01*
X144788156Y-113925304D01*
X144804671Y-113943645D01*
X144907585Y-114057943D01*
X144912924Y-114061822D01*
X145045549Y-114158180D01*
X145057325Y-114166736D01*
X145063353Y-114169420D01*
X145063355Y-114169421D01*
X145220381Y-114239333D01*
X145226412Y-114242018D01*
X145316934Y-114261259D01*
X145400999Y-114279128D01*
X145401003Y-114279128D01*
X145407456Y-114280500D01*
X145592544Y-114280500D01*
X145598997Y-114279128D01*
X145599001Y-114279128D01*
X145683066Y-114261259D01*
X145773588Y-114242018D01*
X145779619Y-114239333D01*
X145936645Y-114169421D01*
X145936647Y-114169420D01*
X145942675Y-114166736D01*
X145954452Y-114158180D01*
X146087076Y-114061822D01*
X146092415Y-114057943D01*
X146195330Y-113943645D01*
X146211844Y-113925304D01*
X146211845Y-113925303D01*
X146216263Y-113920396D01*
X146219563Y-113914680D01*
X146219566Y-113914676D01*
X146305504Y-113765825D01*
X146308807Y-113760104D01*
X146323225Y-113715730D01*
X146328336Y-113700000D01*
X152614650Y-113700000D01*
X152615340Y-113706565D01*
X152630635Y-113852086D01*
X152633997Y-113884075D01*
X152636036Y-113890349D01*
X152636036Y-113890351D01*
X152688898Y-114053040D01*
X152691193Y-114060104D01*
X152694496Y-114065825D01*
X152780434Y-114214676D01*
X152780437Y-114214680D01*
X152783737Y-114220396D01*
X152788155Y-114225303D01*
X152788156Y-114225304D01*
X152900700Y-114350296D01*
X152907585Y-114357943D01*
X153057325Y-114466736D01*
X153063353Y-114469420D01*
X153063355Y-114469421D01*
X153211377Y-114535324D01*
X153226412Y-114542018D01*
X153316934Y-114561259D01*
X153400999Y-114579128D01*
X153401003Y-114579128D01*
X153407456Y-114580500D01*
X153592544Y-114580500D01*
X153598997Y-114579128D01*
X153599001Y-114579128D01*
X153683066Y-114561259D01*
X153773588Y-114542018D01*
X153788623Y-114535324D01*
X153936645Y-114469421D01*
X153936647Y-114469420D01*
X153942675Y-114466736D01*
X154092415Y-114357943D01*
X154099301Y-114350296D01*
X154211844Y-114225304D01*
X154211845Y-114225303D01*
X154216263Y-114220396D01*
X154219563Y-114214680D01*
X154219566Y-114214676D01*
X154305504Y-114065825D01*
X154308807Y-114060104D01*
X154311102Y-114053040D01*
X154363964Y-113890351D01*
X154363964Y-113890349D01*
X154366003Y-113884075D01*
X154369366Y-113852086D01*
X154384660Y-113706565D01*
X154385350Y-113700000D01*
X154384660Y-113693435D01*
X154366693Y-113522486D01*
X154366692Y-113522482D01*
X154366003Y-113515925D01*
X154354485Y-113480475D01*
X154310848Y-113346177D01*
X154310847Y-113346176D01*
X154308807Y-113339896D01*
X154250897Y-113239592D01*
X154219566Y-113185324D01*
X154219563Y-113185320D01*
X154216263Y-113179604D01*
X154092415Y-113042057D01*
X154043276Y-113006355D01*
X153948017Y-112937145D01*
X153948016Y-112937144D01*
X153942675Y-112933264D01*
X153936647Y-112930580D01*
X153936645Y-112930579D01*
X153779619Y-112860667D01*
X153779618Y-112860667D01*
X153773588Y-112857982D01*
X153681735Y-112838458D01*
X153599001Y-112820872D01*
X153598997Y-112820872D01*
X153592544Y-112819500D01*
X153407456Y-112819500D01*
X153401003Y-112820872D01*
X153400999Y-112820872D01*
X153318265Y-112838458D01*
X153226412Y-112857982D01*
X153220382Y-112860667D01*
X153220381Y-112860667D01*
X153063355Y-112930579D01*
X153063353Y-112930580D01*
X153057325Y-112933264D01*
X153051984Y-112937144D01*
X153051983Y-112937145D01*
X152956724Y-113006355D01*
X152907585Y-113042057D01*
X152783737Y-113179604D01*
X152780437Y-113185320D01*
X152780434Y-113185324D01*
X152749103Y-113239592D01*
X152691193Y-113339896D01*
X152689153Y-113346176D01*
X152689152Y-113346177D01*
X152645516Y-113480475D01*
X152633997Y-113515925D01*
X152633308Y-113522482D01*
X152633307Y-113522486D01*
X152615340Y-113693435D01*
X152614650Y-113700000D01*
X146328336Y-113700000D01*
X146363964Y-113590351D01*
X146363964Y-113590349D01*
X146366003Y-113584075D01*
X146372477Y-113522486D01*
X146384660Y-113406565D01*
X146385350Y-113400000D01*
X146378432Y-113334175D01*
X146366693Y-113222486D01*
X146366692Y-113222482D01*
X146366003Y-113215925D01*
X146354202Y-113179604D01*
X146310848Y-113046177D01*
X146310847Y-113046176D01*
X146308807Y-113039896D01*
X146287486Y-113002967D01*
X146219566Y-112885324D01*
X146219563Y-112885320D01*
X146216263Y-112879604D01*
X146199212Y-112860667D01*
X146096830Y-112746960D01*
X146096828Y-112746959D01*
X146092415Y-112742057D01*
X145942675Y-112633264D01*
X145936647Y-112630580D01*
X145936645Y-112630579D01*
X145779619Y-112560667D01*
X145779618Y-112560667D01*
X145773588Y-112557982D01*
X145651416Y-112532013D01*
X145588519Y-112497862D01*
X143240657Y-110150000D01*
X147764650Y-110150000D01*
X147765340Y-110156565D01*
X147780254Y-110298458D01*
X147783997Y-110334075D01*
X147786036Y-110340349D01*
X147786036Y-110340351D01*
X147839152Y-110503823D01*
X147841193Y-110510104D01*
X147844496Y-110515825D01*
X147930434Y-110664676D01*
X147930437Y-110664680D01*
X147933737Y-110670396D01*
X147938155Y-110675303D01*
X147938156Y-110675304D01*
X147955240Y-110694277D01*
X148057585Y-110807943D01*
X148207325Y-110916736D01*
X148213353Y-110919420D01*
X148213355Y-110919421D01*
X148370381Y-110989333D01*
X148376412Y-110992018D01*
X148466934Y-111011259D01*
X148550999Y-111029128D01*
X148551003Y-111029128D01*
X148557456Y-111030500D01*
X148742544Y-111030500D01*
X148748997Y-111029128D01*
X148749001Y-111029128D01*
X148833066Y-111011259D01*
X148923588Y-110992018D01*
X148929619Y-110989333D01*
X149086645Y-110919421D01*
X149086647Y-110919420D01*
X149092675Y-110916736D01*
X149242415Y-110807943D01*
X149344761Y-110694277D01*
X149361844Y-110675304D01*
X149361845Y-110675303D01*
X149366263Y-110670396D01*
X149369563Y-110664680D01*
X149369566Y-110664676D01*
X149455504Y-110515825D01*
X149458807Y-110510104D01*
X149460848Y-110503823D01*
X149513964Y-110340351D01*
X149513964Y-110340349D01*
X149516003Y-110334075D01*
X149519747Y-110298458D01*
X149534660Y-110156565D01*
X149535350Y-110150000D01*
X149516003Y-109965925D01*
X149494713Y-109900400D01*
X149460848Y-109796177D01*
X149460847Y-109796176D01*
X149458807Y-109789896D01*
X149439217Y-109755965D01*
X149369566Y-109635324D01*
X149369563Y-109635320D01*
X149366263Y-109629604D01*
X149312074Y-109569421D01*
X149246830Y-109496960D01*
X149246828Y-109496959D01*
X149242415Y-109492057D01*
X149161812Y-109433495D01*
X149098017Y-109387145D01*
X149098016Y-109387144D01*
X149092675Y-109383264D01*
X149086647Y-109380580D01*
X149086645Y-109380579D01*
X148929619Y-109310667D01*
X148929618Y-109310667D01*
X148923588Y-109307982D01*
X148826781Y-109287405D01*
X148749001Y-109270872D01*
X148748997Y-109270872D01*
X148742544Y-109269500D01*
X148557456Y-109269500D01*
X148551003Y-109270872D01*
X148550999Y-109270872D01*
X148473219Y-109287405D01*
X148376412Y-109307982D01*
X148370382Y-109310667D01*
X148370381Y-109310667D01*
X148213355Y-109380579D01*
X148213353Y-109380580D01*
X148207325Y-109383264D01*
X148201984Y-109387144D01*
X148201983Y-109387145D01*
X148138188Y-109433495D01*
X148057585Y-109492057D01*
X148053172Y-109496959D01*
X148053170Y-109496960D01*
X147987926Y-109569421D01*
X147933737Y-109629604D01*
X147930437Y-109635320D01*
X147930434Y-109635324D01*
X147860783Y-109755965D01*
X147841193Y-109789896D01*
X147839153Y-109796176D01*
X147839152Y-109796177D01*
X147805288Y-109900400D01*
X147783997Y-109965925D01*
X147764650Y-110150000D01*
X143240657Y-110150000D01*
X142819263Y-109728606D01*
X142785237Y-109666294D01*
X142790302Y-109595479D01*
X142819263Y-109550416D01*
X143082274Y-109287405D01*
X143144586Y-109253379D01*
X143171369Y-109250500D01*
X144925219Y-109250500D01*
X144999280Y-109274564D01*
X145048972Y-109310667D01*
X145057325Y-109316736D01*
X145063353Y-109319420D01*
X145063355Y-109319421D01*
X145076569Y-109325304D01*
X145226412Y-109392018D01*
X145316934Y-109411259D01*
X145400999Y-109429128D01*
X145401003Y-109429128D01*
X145407456Y-109430500D01*
X145592544Y-109430500D01*
X145598997Y-109429128D01*
X145599001Y-109429128D01*
X145683066Y-109411259D01*
X145773588Y-109392018D01*
X145923431Y-109325304D01*
X145936645Y-109319421D01*
X145936647Y-109319420D01*
X145942675Y-109316736D01*
X145951029Y-109310667D01*
X146087076Y-109211822D01*
X146092415Y-109207943D01*
X146130339Y-109165825D01*
X146211844Y-109075304D01*
X146211845Y-109075303D01*
X146216263Y-109070396D01*
X146219563Y-109064680D01*
X146219566Y-109064676D01*
X146305504Y-108915825D01*
X146308807Y-108910104D01*
X146323903Y-108863645D01*
X146344583Y-108800000D01*
X152614650Y-108800000D01*
X152615340Y-108806565D01*
X152629261Y-108939011D01*
X152633997Y-108984075D01*
X152636036Y-108990349D01*
X152636036Y-108990351D01*
X152689152Y-109153823D01*
X152691193Y-109160104D01*
X152694496Y-109165825D01*
X152780434Y-109314676D01*
X152780437Y-109314680D01*
X152783737Y-109320396D01*
X152788155Y-109325303D01*
X152788156Y-109325304D01*
X152840344Y-109383264D01*
X152907585Y-109457943D01*
X152912924Y-109461822D01*
X153050515Y-109561788D01*
X153057325Y-109566736D01*
X153063353Y-109569420D01*
X153063355Y-109569421D01*
X153211377Y-109635324D01*
X153226412Y-109642018D01*
X153311011Y-109660000D01*
X153400999Y-109679128D01*
X153401003Y-109679128D01*
X153407456Y-109680500D01*
X153592544Y-109680500D01*
X153598997Y-109679128D01*
X153599001Y-109679128D01*
X153688989Y-109660000D01*
X153773588Y-109642018D01*
X153788623Y-109635324D01*
X153936645Y-109569421D01*
X153936647Y-109569420D01*
X153942675Y-109566736D01*
X153949486Y-109561788D01*
X154087076Y-109461822D01*
X154092415Y-109457943D01*
X154159657Y-109383264D01*
X154211844Y-109325304D01*
X154211845Y-109325303D01*
X154216263Y-109320396D01*
X154219563Y-109314680D01*
X154219566Y-109314676D01*
X154305504Y-109165825D01*
X154308807Y-109160104D01*
X154310848Y-109153823D01*
X154363964Y-108990351D01*
X154363964Y-108990349D01*
X154366003Y-108984075D01*
X154370740Y-108939011D01*
X154384660Y-108806565D01*
X154385350Y-108800000D01*
X154378421Y-108734075D01*
X154366693Y-108622486D01*
X154366692Y-108622482D01*
X154366003Y-108615925D01*
X154344583Y-108550000D01*
X154310848Y-108446177D01*
X154310847Y-108446176D01*
X154308807Y-108439896D01*
X154305271Y-108433772D01*
X154219566Y-108285324D01*
X154219563Y-108285320D01*
X154216263Y-108279604D01*
X154141145Y-108196177D01*
X154096830Y-108146960D01*
X154096828Y-108146959D01*
X154092415Y-108142057D01*
X153995886Y-108071924D01*
X153948017Y-108037145D01*
X153948016Y-108037144D01*
X153942675Y-108033264D01*
X153936647Y-108030580D01*
X153936645Y-108030579D01*
X153779619Y-107960667D01*
X153779618Y-107960667D01*
X153773588Y-107957982D01*
X153678719Y-107937817D01*
X153599001Y-107920872D01*
X153598997Y-107920872D01*
X153592544Y-107919500D01*
X153407456Y-107919500D01*
X153401003Y-107920872D01*
X153400999Y-107920872D01*
X153321281Y-107937817D01*
X153226412Y-107957982D01*
X153220382Y-107960667D01*
X153220381Y-107960667D01*
X153063355Y-108030579D01*
X153063353Y-108030580D01*
X153057325Y-108033264D01*
X153051984Y-108037144D01*
X153051983Y-108037145D01*
X153004114Y-108071924D01*
X152907585Y-108142057D01*
X152903172Y-108146959D01*
X152903170Y-108146960D01*
X152858855Y-108196177D01*
X152783737Y-108279604D01*
X152780437Y-108285320D01*
X152780434Y-108285324D01*
X152694729Y-108433772D01*
X152691193Y-108439896D01*
X152689153Y-108446176D01*
X152689152Y-108446177D01*
X152655418Y-108550000D01*
X152633997Y-108615925D01*
X152633308Y-108622482D01*
X152633307Y-108622486D01*
X152621579Y-108734075D01*
X152614650Y-108800000D01*
X146344583Y-108800000D01*
X146363964Y-108740351D01*
X146363964Y-108740349D01*
X146366003Y-108734075D01*
X146376866Y-108630726D01*
X146384660Y-108556565D01*
X146385350Y-108550000D01*
X146373778Y-108439896D01*
X146366693Y-108372486D01*
X146366692Y-108372482D01*
X146366003Y-108365925D01*
X146308807Y-108189896D01*
X146278948Y-108138178D01*
X146219566Y-108035324D01*
X146219563Y-108035320D01*
X146216263Y-108029604D01*
X146204360Y-108016384D01*
X146096830Y-107896960D01*
X146096828Y-107896959D01*
X146092415Y-107892057D01*
X146053538Y-107863811D01*
X145948017Y-107787145D01*
X145948016Y-107787144D01*
X145942675Y-107783264D01*
X145936647Y-107780580D01*
X145936645Y-107780579D01*
X145779619Y-107710667D01*
X145779618Y-107710667D01*
X145773588Y-107707982D01*
X145683066Y-107688741D01*
X145599001Y-107670872D01*
X145598997Y-107670872D01*
X145592544Y-107669500D01*
X145407456Y-107669500D01*
X145401003Y-107670872D01*
X145400999Y-107670872D01*
X145316934Y-107688741D01*
X145226412Y-107707982D01*
X145220382Y-107710667D01*
X145220381Y-107710667D01*
X145063355Y-107780579D01*
X145063353Y-107780580D01*
X145057325Y-107783264D01*
X145051984Y-107787144D01*
X145051983Y-107787145D01*
X144999280Y-107825436D01*
X144925219Y-107849500D01*
X142857663Y-107849500D01*
X142849093Y-107849208D01*
X142799668Y-107845838D01*
X142799664Y-107845838D01*
X142792092Y-107845322D01*
X142784616Y-107846627D01*
X142784613Y-107846627D01*
X142729890Y-107856178D01*
X142723364Y-107857141D01*
X142682926Y-107862035D01*
X142660702Y-107864724D01*
X142653595Y-107867409D01*
X142650302Y-107868218D01*
X142635831Y-107872177D01*
X142632555Y-107873166D01*
X142625068Y-107874473D01*
X142618110Y-107877528D01*
X142618108Y-107877528D01*
X142567264Y-107899846D01*
X142561159Y-107902338D01*
X142550148Y-107906499D01*
X142502099Y-107924655D01*
X142495846Y-107928953D01*
X142492815Y-107930537D01*
X142479738Y-107937817D01*
X142476779Y-107939567D01*
X142469819Y-107942622D01*
X142463792Y-107947247D01*
X142463788Y-107947249D01*
X142419722Y-107981062D01*
X142414403Y-107984927D01*
X142362371Y-108020688D01*
X142351166Y-108033264D01*
X142321422Y-108066648D01*
X142316441Y-108071924D01*
X141486259Y-108902106D01*
X141423947Y-108936132D01*
X141397164Y-108939011D01*
X139685241Y-108939011D01*
X139617120Y-108919009D01*
X139570627Y-108865353D01*
X139560523Y-108795079D01*
X139563534Y-108780401D01*
X139603638Y-108630726D01*
X139605063Y-108625408D01*
X139625659Y-108390000D01*
X139605063Y-108154592D01*
X139600665Y-108138178D01*
X139545326Y-107931647D01*
X139545325Y-107931645D01*
X139543903Y-107926337D01*
X139518231Y-107871283D01*
X139446358Y-107717152D01*
X139446356Y-107717149D01*
X139444035Y-107712171D01*
X139308495Y-107518599D01*
X139141401Y-107351505D01*
X139136893Y-107348348D01*
X139136890Y-107348346D01*
X138965322Y-107228213D01*
X138958181Y-107223213D01*
X138913853Y-107167756D01*
X138906544Y-107097137D01*
X138938575Y-107033776D01*
X138958181Y-107016787D01*
X139136890Y-106891654D01*
X139136893Y-106891652D01*
X139141401Y-106888495D01*
X139308495Y-106721401D01*
X139444035Y-106527829D01*
X139459880Y-106493851D01*
X139541580Y-106318645D01*
X139541581Y-106318643D01*
X139543903Y-106313663D01*
X139567579Y-106225304D01*
X139603639Y-106090723D01*
X139603639Y-106090722D01*
X139605063Y-106085408D01*
X139625659Y-105850000D01*
X139605063Y-105614592D01*
X139543903Y-105386337D01*
X139462211Y-105211149D01*
X139446358Y-105177152D01*
X139446356Y-105177149D01*
X139444035Y-105172171D01*
X139308495Y-104978599D01*
X139141401Y-104811505D01*
X139136893Y-104808348D01*
X139136890Y-104808346D01*
X138965322Y-104688213D01*
X138958181Y-104683213D01*
X138913853Y-104627756D01*
X138906544Y-104557137D01*
X138938575Y-104493776D01*
X138958181Y-104476787D01*
X138972536Y-104466736D01*
X139009408Y-104440918D01*
X139136890Y-104351654D01*
X139136893Y-104351652D01*
X139141401Y-104348495D01*
X139308495Y-104181401D01*
X139388681Y-104066883D01*
X139444138Y-104022554D01*
X139477019Y-104015183D01*
X139476931Y-104014678D01*
X139539132Y-104003822D01*
X139545658Y-104002859D01*
X139591313Y-103997334D01*
X139608320Y-103995276D01*
X139615427Y-103992591D01*
X139618720Y-103991782D01*
X139633191Y-103987823D01*
X139636467Y-103986834D01*
X139643954Y-103985527D01*
X139650914Y-103982472D01*
X139701760Y-103960153D01*
X139707866Y-103957661D01*
X139759818Y-103938030D01*
X139759820Y-103938029D01*
X139766923Y-103935345D01*
X139773178Y-103931046D01*
X139776203Y-103929465D01*
X139789299Y-103922175D01*
X139792243Y-103920434D01*
X139799202Y-103917379D01*
X139834426Y-103890351D01*
X139849273Y-103878958D01*
X139854609Y-103875081D01*
X139900386Y-103843619D01*
X139900392Y-103843614D01*
X139906651Y-103839312D01*
X139947609Y-103793342D01*
X139952589Y-103788067D01*
X141125067Y-102615589D01*
X141131333Y-102609735D01*
X141168671Y-102577163D01*
X141174396Y-102572169D01*
X141178761Y-102565958D01*
X141178764Y-102565955D01*
X141210705Y-102520507D01*
X141214638Y-102515212D01*
X141248896Y-102471521D01*
X141248897Y-102471519D01*
X141253583Y-102465543D01*
X141256708Y-102458621D01*
X141258481Y-102455694D01*
X141265906Y-102442675D01*
X141267517Y-102439671D01*
X141271887Y-102433453D01*
X141290403Y-102385963D01*
X142254757Y-102385963D01*
X142271175Y-102581483D01*
X142325258Y-102770091D01*
X142328076Y-102775574D01*
X142412123Y-102939113D01*
X142412126Y-102939117D01*
X142414944Y-102944601D01*
X142536818Y-103098369D01*
X142686238Y-103225535D01*
X142691616Y-103228541D01*
X142691618Y-103228542D01*
X142721140Y-103245041D01*
X142857513Y-103321257D01*
X143044118Y-103381889D01*
X143238946Y-103405121D01*
X143245081Y-103404649D01*
X143245083Y-103404649D01*
X143428434Y-103390541D01*
X143428438Y-103390540D01*
X143434576Y-103390068D01*
X143623556Y-103337303D01*
X143798689Y-103248837D01*
X143815939Y-103235360D01*
X143881934Y-103209183D01*
X143951604Y-103222841D01*
X143956195Y-103225612D01*
X143956238Y-103225535D01*
X144127513Y-103321257D01*
X144314118Y-103381889D01*
X144508946Y-103405121D01*
X144515081Y-103404649D01*
X144515083Y-103404649D01*
X144698434Y-103390541D01*
X144698438Y-103390540D01*
X144704576Y-103390068D01*
X144893556Y-103337303D01*
X144899054Y-103334526D01*
X144899056Y-103334525D01*
X144916536Y-103325695D01*
X144986358Y-103312833D01*
X145041738Y-103334524D01*
X145042117Y-103333831D01*
X145047516Y-103336787D01*
X145048913Y-103337334D01*
X145049990Y-103338141D01*
X145049993Y-103338143D01*
X145057176Y-103343526D01*
X145065580Y-103346676D01*
X145065581Y-103346677D01*
X145184025Y-103391079D01*
X145184027Y-103391079D01*
X145191420Y-103393851D01*
X145199270Y-103394704D01*
X145199271Y-103394704D01*
X145206810Y-103395523D01*
X145252623Y-103400500D01*
X145799919Y-103400500D01*
X146347376Y-103400499D01*
X146350770Y-103400130D01*
X146350776Y-103400130D01*
X146382690Y-103396663D01*
X146393186Y-103395523D01*
X146463068Y-103408052D01*
X146515083Y-103456373D01*
X146532717Y-103525145D01*
X146532102Y-103533950D01*
X146514650Y-103700000D01*
X146515340Y-103706565D01*
X146533052Y-103875081D01*
X146533997Y-103884075D01*
X146536036Y-103890349D01*
X146536036Y-103890351D01*
X146575340Y-104011314D01*
X146591193Y-104060104D01*
X146594496Y-104065825D01*
X146680434Y-104214676D01*
X146680437Y-104214680D01*
X146683737Y-104220396D01*
X146807585Y-104357943D01*
X146957325Y-104466736D01*
X146963353Y-104469420D01*
X146963355Y-104469421D01*
X147120381Y-104539333D01*
X147126412Y-104542018D01*
X147306078Y-104580207D01*
X147307456Y-104580500D01*
X147307402Y-104580752D01*
X147369953Y-104606488D01*
X147410582Y-104664709D01*
X147413285Y-104735654D01*
X147377203Y-104796798D01*
X147317323Y-104828031D01*
X147176412Y-104857982D01*
X147170382Y-104860667D01*
X147170381Y-104860667D01*
X147013355Y-104930579D01*
X147013353Y-104930580D01*
X147007325Y-104933264D01*
X146857585Y-105042057D01*
X146733737Y-105179604D01*
X146730437Y-105185320D01*
X146730434Y-105185324D01*
X146644729Y-105333772D01*
X146641193Y-105339896D01*
X146639153Y-105346176D01*
X146639152Y-105346177D01*
X146624479Y-105391337D01*
X146583997Y-105515925D01*
X146564650Y-105700000D01*
X146565340Y-105706565D01*
X146581517Y-105860475D01*
X146583997Y-105884075D01*
X146641193Y-106060104D01*
X146644496Y-106065825D01*
X146730434Y-106214676D01*
X146730437Y-106214680D01*
X146733737Y-106220396D01*
X146857585Y-106357943D01*
X147007325Y-106466736D01*
X147013353Y-106469420D01*
X147013355Y-106469421D01*
X147170381Y-106539333D01*
X147176412Y-106542018D01*
X147266934Y-106561259D01*
X147350999Y-106579128D01*
X147351003Y-106579128D01*
X147357456Y-106580500D01*
X147542544Y-106580500D01*
X147548997Y-106579128D01*
X147549001Y-106579128D01*
X147633066Y-106561259D01*
X147723588Y-106542018D01*
X147729619Y-106539333D01*
X147886645Y-106469421D01*
X147886647Y-106469420D01*
X147892675Y-106466736D01*
X148042415Y-106357943D01*
X148166263Y-106220396D01*
X148169563Y-106214680D01*
X148169566Y-106214676D01*
X148255504Y-106065825D01*
X148258807Y-106060104D01*
X148316003Y-105884075D01*
X148318484Y-105860475D01*
X148334660Y-105706565D01*
X148335350Y-105700000D01*
X148316003Y-105515925D01*
X148275522Y-105391337D01*
X148260848Y-105346177D01*
X148260847Y-105346176D01*
X148258807Y-105339896D01*
X148255271Y-105333772D01*
X148169566Y-105185324D01*
X148169563Y-105185320D01*
X148166263Y-105179604D01*
X148042415Y-105042057D01*
X147892675Y-104933264D01*
X147886647Y-104930580D01*
X147886645Y-104930579D01*
X147729619Y-104860667D01*
X147729618Y-104860667D01*
X147723588Y-104857982D01*
X147542544Y-104819500D01*
X147542598Y-104819248D01*
X147480047Y-104793512D01*
X147439418Y-104735291D01*
X147436715Y-104664346D01*
X147472797Y-104603202D01*
X147532677Y-104571969D01*
X147673588Y-104542018D01*
X147679619Y-104539333D01*
X147836645Y-104469421D01*
X147836647Y-104469420D01*
X147842675Y-104466736D01*
X147992415Y-104357943D01*
X148116263Y-104220396D01*
X148119563Y-104214680D01*
X148119566Y-104214676D01*
X148205504Y-104065825D01*
X148208807Y-104060104D01*
X148224660Y-104011314D01*
X148263964Y-103890351D01*
X148263964Y-103890349D01*
X148266003Y-103884075D01*
X148266949Y-103875081D01*
X148284660Y-103706565D01*
X148285350Y-103700000D01*
X148270186Y-103555723D01*
X148266693Y-103522486D01*
X148266692Y-103522482D01*
X148266003Y-103515925D01*
X148228499Y-103400499D01*
X148210848Y-103346177D01*
X148210847Y-103346176D01*
X148208807Y-103339896D01*
X148193182Y-103312833D01*
X148119566Y-103185324D01*
X148119563Y-103185320D01*
X148116263Y-103179604D01*
X147992415Y-103042057D01*
X147858279Y-102944601D01*
X147848017Y-102937145D01*
X147848016Y-102937144D01*
X147842675Y-102933264D01*
X147836647Y-102930580D01*
X147836645Y-102930579D01*
X147679619Y-102860667D01*
X147679618Y-102860667D01*
X147673588Y-102857982D01*
X147583066Y-102838741D01*
X147499001Y-102820872D01*
X147498997Y-102820872D01*
X147492544Y-102819500D01*
X147307456Y-102819500D01*
X147301003Y-102820872D01*
X147300999Y-102820872D01*
X147216934Y-102838741D01*
X147126412Y-102857982D01*
X146977748Y-102924171D01*
X146907382Y-102933605D01*
X146843085Y-102903499D01*
X146805271Y-102843410D01*
X146800500Y-102809064D01*
X146800499Y-101856042D01*
X146800499Y-101852624D01*
X146793851Y-101791420D01*
X146743526Y-101657176D01*
X146738146Y-101649997D01*
X146738144Y-101649994D01*
X146662928Y-101549635D01*
X146657546Y-101542454D01*
X146650365Y-101537072D01*
X146550006Y-101461856D01*
X146550003Y-101461854D01*
X146542824Y-101456474D01*
X146437566Y-101417015D01*
X146415975Y-101408921D01*
X146415973Y-101408921D01*
X146408580Y-101406149D01*
X146400730Y-101405296D01*
X146400729Y-101405296D01*
X146350774Y-101399869D01*
X146350773Y-101399869D01*
X146347377Y-101399500D01*
X145800081Y-101399500D01*
X145252624Y-101399501D01*
X145249230Y-101399870D01*
X145249224Y-101399870D01*
X145199278Y-101405295D01*
X145199274Y-101405296D01*
X145191420Y-101406149D01*
X145057176Y-101456474D01*
X145049995Y-101461856D01*
X145042117Y-101466169D01*
X145041379Y-101464821D01*
X144984163Y-101486198D01*
X144926276Y-101476678D01*
X144925006Y-101476144D01*
X144919585Y-101473213D01*
X144892475Y-101464821D01*
X144738039Y-101417015D01*
X144738036Y-101417014D01*
X144732152Y-101415193D01*
X144726027Y-101414549D01*
X144726026Y-101414549D01*
X144543147Y-101395327D01*
X144543146Y-101395327D01*
X144537019Y-101394683D01*
X144420414Y-101405295D01*
X144347759Y-101411907D01*
X144347758Y-101411907D01*
X144341618Y-101412466D01*
X144335704Y-101414207D01*
X144335702Y-101414207D01*
X144221401Y-101447848D01*
X144153393Y-101467864D01*
X144147928Y-101470721D01*
X143984972Y-101555912D01*
X143984968Y-101555915D01*
X143979512Y-101558767D01*
X143974712Y-101562627D01*
X143974711Y-101562627D01*
X143974389Y-101562886D01*
X143974189Y-101562968D01*
X143969552Y-101566003D01*
X143968975Y-101565121D01*
X143908767Y-101589982D01*
X143838912Y-101577299D01*
X143826205Y-101569865D01*
X143822180Y-101566535D01*
X143815432Y-101562886D01*
X143716539Y-101509415D01*
X143649585Y-101473213D01*
X143553830Y-101443572D01*
X143468039Y-101417015D01*
X143468036Y-101417014D01*
X143462152Y-101415193D01*
X143456027Y-101414549D01*
X143456026Y-101414549D01*
X143273147Y-101395327D01*
X143273146Y-101395327D01*
X143267019Y-101394683D01*
X143150414Y-101405295D01*
X143077759Y-101411907D01*
X143077758Y-101411907D01*
X143071618Y-101412466D01*
X143065704Y-101414207D01*
X143065702Y-101414207D01*
X142951401Y-101447848D01*
X142883393Y-101467864D01*
X142877928Y-101470721D01*
X142714972Y-101555912D01*
X142714968Y-101555915D01*
X142709512Y-101558767D01*
X142704712Y-101562627D01*
X142704711Y-101562627D01*
X142696602Y-101569147D01*
X142556600Y-101681711D01*
X142430480Y-101832016D01*
X142427516Y-101837408D01*
X142427513Y-101837412D01*
X142370133Y-101941787D01*
X142335956Y-102003954D01*
X142334095Y-102009821D01*
X142334094Y-102009823D01*
X142312075Y-102079237D01*
X142276628Y-102190978D01*
X142254757Y-102385963D01*
X141290403Y-102385963D01*
X141294820Y-102374633D01*
X141297375Y-102368555D01*
X141320228Y-102317943D01*
X141320229Y-102317941D01*
X141323355Y-102311017D01*
X141324740Y-102303545D01*
X141325767Y-102300267D01*
X141329863Y-102285886D01*
X141330715Y-102282570D01*
X141333476Y-102275487D01*
X141341717Y-102212889D01*
X141342748Y-102206377D01*
X141352868Y-102151775D01*
X141354252Y-102144308D01*
X141350709Y-102082861D01*
X141350500Y-102075609D01*
X141350500Y-101092347D01*
X141370502Y-101024226D01*
X141387405Y-101003251D01*
X142153253Y-100237404D01*
X142215565Y-100203379D01*
X142242348Y-100200500D01*
X156621359Y-100200500D01*
X156629929Y-100200792D01*
X156679354Y-100204162D01*
X156679358Y-100204162D01*
X156686930Y-100204678D01*
X156694406Y-100203373D01*
X156694409Y-100203373D01*
X156749132Y-100193822D01*
X156755658Y-100192859D01*
X156796096Y-100187965D01*
X156818320Y-100185276D01*
X156825427Y-100182591D01*
X156828720Y-100181782D01*
X156843191Y-100177823D01*
X156846467Y-100176834D01*
X156853954Y-100175527D01*
X156860914Y-100172472D01*
X156911760Y-100150153D01*
X156917866Y-100147661D01*
X156969818Y-100128030D01*
X156969820Y-100128029D01*
X156976923Y-100125345D01*
X156983178Y-100121046D01*
X156986203Y-100119465D01*
X156999299Y-100112175D01*
X157002243Y-100110434D01*
X157009202Y-100107379D01*
X157022506Y-100097171D01*
X157059273Y-100068958D01*
X157064609Y-100065081D01*
X157110386Y-100033619D01*
X157110392Y-100033614D01*
X157116651Y-100029312D01*
X157157609Y-99983342D01*
X157162589Y-99978067D01*
X160638519Y-96502138D01*
X160701416Y-96467987D01*
X160823588Y-96442018D01*
X160831097Y-96438675D01*
X160986645Y-96369421D01*
X160986647Y-96369420D01*
X160992675Y-96366736D01*
X160998027Y-96362848D01*
X161137076Y-96261822D01*
X161142415Y-96257943D01*
X161227322Y-96163645D01*
X161261844Y-96125304D01*
X161261845Y-96125303D01*
X161266263Y-96120396D01*
X161269563Y-96114680D01*
X161269566Y-96114676D01*
X161355504Y-95965825D01*
X161358807Y-95960104D01*
X161416003Y-95784075D01*
X161435350Y-95600000D01*
X161420034Y-95454277D01*
X161416693Y-95422486D01*
X161416692Y-95422482D01*
X161416003Y-95415925D01*
X161413963Y-95409646D01*
X161368572Y-95269947D01*
X161366544Y-95198980D01*
X161403207Y-95138182D01*
X161466919Y-95106856D01*
X161488405Y-95105011D01*
X162320739Y-95105011D01*
X162388860Y-95125013D01*
G37*
%TD.AperFunction*%
%TA.AperFunction,Conductor*%
G36*
X136989929Y-97650792D02*
G01*
X137039354Y-97654162D01*
X137039358Y-97654162D01*
X137046930Y-97654678D01*
X137054406Y-97653373D01*
X137062002Y-97652975D01*
X137062096Y-97654775D01*
X137123114Y-97661692D01*
X137178136Y-97706559D01*
X137200167Y-97774051D01*
X137194555Y-97815185D01*
X137149993Y-97958698D01*
X137149774Y-97972799D01*
X137156506Y-97976000D01*
X138398000Y-97976000D01*
X138466121Y-97996002D01*
X138512614Y-98049658D01*
X138524000Y-98102000D01*
X138524000Y-98358000D01*
X138503998Y-98426121D01*
X138450342Y-98472614D01*
X138398000Y-98484000D01*
X137166030Y-98484000D01*
X137152499Y-98487973D01*
X137151207Y-98496962D01*
X137179897Y-98609928D01*
X137183733Y-98620761D01*
X137193173Y-98641237D01*
X137203528Y-98711474D01*
X137174266Y-98776160D01*
X137114678Y-98814757D01*
X137078747Y-98819989D01*
X137008148Y-98819989D01*
X136999577Y-98819697D01*
X136942581Y-98815811D01*
X136935102Y-98817116D01*
X136927509Y-98817514D01*
X136927343Y-98814337D01*
X136870670Y-98807260D01*
X136816160Y-98761772D01*
X136794896Y-98694034D01*
X136801561Y-98651192D01*
X136851161Y-98505077D01*
X136853845Y-98493898D01*
X136882811Y-98294118D01*
X136883441Y-98286736D01*
X136884830Y-98233704D01*
X136884587Y-98226305D01*
X136866117Y-98025285D01*
X136864020Y-98013971D01*
X136809783Y-97821664D01*
X136809777Y-97821648D01*
X136809776Y-97821640D01*
X136808217Y-97816111D01*
X136809303Y-97815805D01*
X136804041Y-97750884D01*
X136837475Y-97688252D01*
X136899462Y-97653639D01*
X136927410Y-97650500D01*
X136981359Y-97650500D01*
X136989929Y-97650792D01*
G37*
%TD.AperFunction*%
%TA.AperFunction,Conductor*%
G36*
X162388860Y-79885013D02*
G01*
X162435353Y-79938669D01*
X162445457Y-80008943D01*
X162442446Y-80023622D01*
X162389937Y-80219592D01*
X162369341Y-80455000D01*
X162389937Y-80690408D01*
X162451097Y-80918663D01*
X162453419Y-80923643D01*
X162453420Y-80923645D01*
X162546311Y-81122848D01*
X162550965Y-81132829D01*
X162686505Y-81326401D01*
X162853599Y-81493495D01*
X162858107Y-81496652D01*
X162858110Y-81496654D01*
X163036820Y-81621788D01*
X163081148Y-81677245D01*
X163088457Y-81747865D01*
X163056426Y-81811225D01*
X163036822Y-81828211D01*
X162853599Y-81956505D01*
X162686505Y-82123599D01*
X162550965Y-82317171D01*
X162548644Y-82322149D01*
X162548642Y-82322152D01*
X162453420Y-82526355D01*
X162451097Y-82531337D01*
X162389937Y-82759592D01*
X162369341Y-82995000D01*
X162389937Y-83230408D01*
X162451097Y-83458663D01*
X162453419Y-83463643D01*
X162453420Y-83463645D01*
X162546311Y-83662848D01*
X162550965Y-83672829D01*
X162686505Y-83866401D01*
X162853599Y-84033495D01*
X162858107Y-84036652D01*
X162858110Y-84036654D01*
X163036820Y-84161788D01*
X163081148Y-84217245D01*
X163088457Y-84287865D01*
X163056426Y-84351225D01*
X163036822Y-84368211D01*
X162853599Y-84496505D01*
X162686505Y-84663599D01*
X162550965Y-84857171D01*
X162548644Y-84862149D01*
X162548642Y-84862152D01*
X162453420Y-85066355D01*
X162451097Y-85071337D01*
X162389937Y-85299592D01*
X162369341Y-85535000D01*
X162389937Y-85770408D01*
X162391361Y-85775722D01*
X162391361Y-85775723D01*
X162413392Y-85857943D01*
X162451097Y-85998663D01*
X162453419Y-86003643D01*
X162453420Y-86003645D01*
X162546311Y-86202848D01*
X162550965Y-86212829D01*
X162686505Y-86406401D01*
X162853599Y-86573495D01*
X162858107Y-86576652D01*
X162858110Y-86576654D01*
X163036820Y-86701788D01*
X163081148Y-86757245D01*
X163088457Y-86827865D01*
X163056426Y-86891225D01*
X163036822Y-86908211D01*
X162853599Y-87036505D01*
X162686505Y-87203599D01*
X162550965Y-87397171D01*
X162548644Y-87402149D01*
X162548642Y-87402152D01*
X162453420Y-87606355D01*
X162451097Y-87611337D01*
X162389937Y-87839592D01*
X162369341Y-88075000D01*
X162389937Y-88310408D01*
X162451097Y-88538663D01*
X162453419Y-88543643D01*
X162453420Y-88543645D01*
X162547975Y-88746416D01*
X162550965Y-88752829D01*
X162686505Y-88946401D01*
X162853599Y-89113495D01*
X162858107Y-89116652D01*
X162858110Y-89116654D01*
X163036820Y-89241788D01*
X163081148Y-89297245D01*
X163088457Y-89367865D01*
X163056426Y-89431225D01*
X163036822Y-89448211D01*
X162853599Y-89576505D01*
X162686505Y-89743599D01*
X162683348Y-89748107D01*
X162683346Y-89748110D01*
X162604460Y-89860771D01*
X162549003Y-89905099D01*
X162501247Y-89914500D01*
X141707346Y-89914500D01*
X141639225Y-89894498D01*
X141618251Y-89877595D01*
X141133413Y-89392756D01*
X140615583Y-88874926D01*
X140609729Y-88868660D01*
X140577165Y-88831331D01*
X140572169Y-88825604D01*
X140520527Y-88789310D01*
X140515242Y-88785384D01*
X140471524Y-88751105D01*
X140471520Y-88751103D01*
X140465543Y-88746416D01*
X140458620Y-88743290D01*
X140455672Y-88741505D01*
X140442712Y-88734113D01*
X140439666Y-88732480D01*
X140433453Y-88728113D01*
X140374633Y-88705180D01*
X140368554Y-88702624D01*
X140311016Y-88676645D01*
X140303545Y-88675260D01*
X140300277Y-88674236D01*
X140285836Y-88670123D01*
X140282563Y-88669283D01*
X140275487Y-88666524D01*
X140230817Y-88660644D01*
X140212894Y-88658284D01*
X140206377Y-88657252D01*
X140151775Y-88647132D01*
X140144308Y-88645748D01*
X140136728Y-88646185D01*
X140136727Y-88646185D01*
X140082856Y-88649291D01*
X140075604Y-88649500D01*
X139677071Y-88649500D01*
X139608950Y-88629498D01*
X139562457Y-88575842D01*
X139552353Y-88505568D01*
X139555364Y-88490889D01*
X139603639Y-88310723D01*
X139603639Y-88310722D01*
X139605063Y-88305408D01*
X139625659Y-88070000D01*
X139605063Y-87834592D01*
X139543903Y-87606337D01*
X139463288Y-87433458D01*
X139446358Y-87397152D01*
X139446356Y-87397149D01*
X139444035Y-87392171D01*
X139308495Y-87198599D01*
X139141401Y-87031505D01*
X139136893Y-87028348D01*
X139136890Y-87028346D01*
X138965322Y-86908213D01*
X138958181Y-86903213D01*
X138913853Y-86847756D01*
X138906544Y-86777137D01*
X138938575Y-86713776D01*
X138958181Y-86696787D01*
X139136890Y-86571654D01*
X139136893Y-86571652D01*
X139141401Y-86568495D01*
X139308495Y-86401401D01*
X139444035Y-86207829D01*
X139459880Y-86173851D01*
X139541580Y-85998645D01*
X139541581Y-85998643D01*
X139543903Y-85993663D01*
X139581583Y-85853040D01*
X139603639Y-85770723D01*
X139603639Y-85770722D01*
X139605063Y-85765408D01*
X139625659Y-85530000D01*
X139605063Y-85294592D01*
X139581477Y-85206565D01*
X139579718Y-85200000D01*
X147164650Y-85200000D01*
X147165340Y-85206565D01*
X147175118Y-85299592D01*
X147183997Y-85384075D01*
X147186036Y-85390349D01*
X147186036Y-85390351D01*
X147231257Y-85529525D01*
X147241193Y-85560104D01*
X147244496Y-85565825D01*
X147330434Y-85714676D01*
X147330437Y-85714680D01*
X147333737Y-85720396D01*
X147338155Y-85725303D01*
X147338156Y-85725304D01*
X147383554Y-85775723D01*
X147457585Y-85857943D01*
X147607325Y-85966736D01*
X147613353Y-85969420D01*
X147613355Y-85969421D01*
X147690224Y-86003645D01*
X147776412Y-86042018D01*
X147866934Y-86061259D01*
X147950999Y-86079128D01*
X147951003Y-86079128D01*
X147957456Y-86080500D01*
X148142544Y-86080500D01*
X148148997Y-86079128D01*
X148149001Y-86079128D01*
X148233066Y-86061259D01*
X148323588Y-86042018D01*
X148409776Y-86003645D01*
X148486645Y-85969421D01*
X148486647Y-85969420D01*
X148492675Y-85966736D01*
X148642415Y-85857943D01*
X148716447Y-85775723D01*
X148761844Y-85725304D01*
X148761845Y-85725303D01*
X148766263Y-85720396D01*
X148769563Y-85714680D01*
X148769566Y-85714676D01*
X148855504Y-85565825D01*
X148858807Y-85560104D01*
X148868743Y-85529525D01*
X148913964Y-85390351D01*
X148913964Y-85390349D01*
X148916003Y-85384075D01*
X148924883Y-85299592D01*
X148934660Y-85206565D01*
X148935350Y-85200000D01*
X152364650Y-85200000D01*
X152365340Y-85206565D01*
X152375118Y-85299592D01*
X152383997Y-85384075D01*
X152386036Y-85390349D01*
X152386036Y-85390351D01*
X152431257Y-85529525D01*
X152441193Y-85560104D01*
X152444496Y-85565825D01*
X152530434Y-85714676D01*
X152530437Y-85714680D01*
X152533737Y-85720396D01*
X152538155Y-85725303D01*
X152538156Y-85725304D01*
X152583554Y-85775723D01*
X152657585Y-85857943D01*
X152807325Y-85966736D01*
X152813353Y-85969420D01*
X152813355Y-85969421D01*
X152890224Y-86003645D01*
X152976412Y-86042018D01*
X153066934Y-86061259D01*
X153150999Y-86079128D01*
X153151003Y-86079128D01*
X153157456Y-86080500D01*
X153342544Y-86080500D01*
X153348997Y-86079128D01*
X153349001Y-86079128D01*
X153433066Y-86061259D01*
X153523588Y-86042018D01*
X153609776Y-86003645D01*
X153686645Y-85969421D01*
X153686647Y-85969420D01*
X153692675Y-85966736D01*
X153842415Y-85857943D01*
X153916447Y-85775723D01*
X153961844Y-85725304D01*
X153961845Y-85725303D01*
X153966263Y-85720396D01*
X153969563Y-85714680D01*
X153969566Y-85714676D01*
X154055504Y-85565825D01*
X154058807Y-85560104D01*
X154068743Y-85529525D01*
X154113964Y-85390351D01*
X154113964Y-85390349D01*
X154116003Y-85384075D01*
X154124883Y-85299592D01*
X154134660Y-85206565D01*
X154135350Y-85200000D01*
X154121827Y-85071337D01*
X154116693Y-85022486D01*
X154116692Y-85022482D01*
X154116003Y-85015925D01*
X154062796Y-84852171D01*
X154060848Y-84846177D01*
X154060847Y-84846176D01*
X154058807Y-84839896D01*
X154055271Y-84833772D01*
X153969566Y-84685324D01*
X153969563Y-84685320D01*
X153966263Y-84679604D01*
X153943843Y-84654704D01*
X153846830Y-84546960D01*
X153846828Y-84546959D01*
X153842415Y-84542057D01*
X153778200Y-84495402D01*
X153698017Y-84437145D01*
X153698016Y-84437144D01*
X153692675Y-84433264D01*
X153686647Y-84430580D01*
X153686645Y-84430579D01*
X153529619Y-84360667D01*
X153529618Y-84360667D01*
X153523588Y-84357982D01*
X153433066Y-84338741D01*
X153349001Y-84320872D01*
X153348997Y-84320872D01*
X153342544Y-84319500D01*
X153157456Y-84319500D01*
X153151003Y-84320872D01*
X153150999Y-84320872D01*
X153066934Y-84338741D01*
X152976412Y-84357982D01*
X152970382Y-84360667D01*
X152970381Y-84360667D01*
X152813355Y-84430579D01*
X152813353Y-84430580D01*
X152807325Y-84433264D01*
X152801984Y-84437144D01*
X152801983Y-84437145D01*
X152721800Y-84495402D01*
X152657585Y-84542057D01*
X152653172Y-84546959D01*
X152653170Y-84546960D01*
X152556157Y-84654704D01*
X152533737Y-84679604D01*
X152530437Y-84685320D01*
X152530434Y-84685324D01*
X152444729Y-84833772D01*
X152441193Y-84839896D01*
X152439153Y-84846176D01*
X152439152Y-84846177D01*
X152437205Y-84852171D01*
X152383997Y-85015925D01*
X152383308Y-85022482D01*
X152383307Y-85022486D01*
X152378173Y-85071337D01*
X152364650Y-85200000D01*
X148935350Y-85200000D01*
X148921827Y-85071337D01*
X148916693Y-85022486D01*
X148916692Y-85022482D01*
X148916003Y-85015925D01*
X148862796Y-84852171D01*
X148860848Y-84846177D01*
X148860847Y-84846176D01*
X148858807Y-84839896D01*
X148855271Y-84833772D01*
X148769566Y-84685324D01*
X148769563Y-84685320D01*
X148766263Y-84679604D01*
X148743843Y-84654704D01*
X148646830Y-84546960D01*
X148646828Y-84546959D01*
X148642415Y-84542057D01*
X148578200Y-84495402D01*
X148498017Y-84437145D01*
X148498016Y-84437144D01*
X148492675Y-84433264D01*
X148486647Y-84430580D01*
X148486645Y-84430579D01*
X148329619Y-84360667D01*
X148329618Y-84360667D01*
X148323588Y-84357982D01*
X148233066Y-84338741D01*
X148149001Y-84320872D01*
X148148997Y-84320872D01*
X148142544Y-84319500D01*
X147957456Y-84319500D01*
X147951003Y-84320872D01*
X147950999Y-84320872D01*
X147866934Y-84338741D01*
X147776412Y-84357982D01*
X147770382Y-84360667D01*
X147770381Y-84360667D01*
X147613355Y-84430579D01*
X147613353Y-84430580D01*
X147607325Y-84433264D01*
X147601984Y-84437144D01*
X147601983Y-84437145D01*
X147521800Y-84495402D01*
X147457585Y-84542057D01*
X147453172Y-84546959D01*
X147453170Y-84546960D01*
X147356157Y-84654704D01*
X147333737Y-84679604D01*
X147330437Y-84685320D01*
X147330434Y-84685324D01*
X147244729Y-84833772D01*
X147241193Y-84839896D01*
X147239153Y-84846176D01*
X147239152Y-84846177D01*
X147237205Y-84852171D01*
X147183997Y-85015925D01*
X147183308Y-85022482D01*
X147183307Y-85022486D01*
X147178173Y-85071337D01*
X147164650Y-85200000D01*
X139579718Y-85200000D01*
X139545326Y-85071647D01*
X139545325Y-85071645D01*
X139543903Y-85066337D01*
X139523455Y-85022486D01*
X139446358Y-84857152D01*
X139446356Y-84857149D01*
X139444035Y-84852171D01*
X139308495Y-84658599D01*
X139141401Y-84491505D01*
X139136893Y-84488348D01*
X139136890Y-84488346D01*
X138965322Y-84368213D01*
X138958181Y-84363213D01*
X138913853Y-84307756D01*
X138906544Y-84237137D01*
X138938575Y-84173776D01*
X138958181Y-84156787D01*
X139136890Y-84031654D01*
X139136893Y-84031652D01*
X139141401Y-84028495D01*
X139308495Y-83861401D01*
X139444035Y-83667829D01*
X139459880Y-83633851D01*
X139541580Y-83458645D01*
X139541581Y-83458643D01*
X139543903Y-83453663D01*
X139605063Y-83225408D01*
X139625659Y-82990000D01*
X139605063Y-82754592D01*
X139543903Y-82526337D01*
X139463288Y-82353458D01*
X139446358Y-82317152D01*
X139446356Y-82317149D01*
X139444035Y-82312171D01*
X139308495Y-82118599D01*
X139141401Y-81951505D01*
X139136893Y-81948348D01*
X139136890Y-81948346D01*
X138965322Y-81828213D01*
X138958181Y-81823213D01*
X138913853Y-81767756D01*
X138906544Y-81697137D01*
X138938575Y-81633776D01*
X138958181Y-81616787D01*
X139136890Y-81491654D01*
X139136893Y-81491652D01*
X139141401Y-81488495D01*
X139308495Y-81321401D01*
X139444035Y-81127829D01*
X139459880Y-81093851D01*
X139541580Y-80918645D01*
X139541581Y-80918643D01*
X139543903Y-80913663D01*
X139605063Y-80685408D01*
X139625659Y-80450000D01*
X139605063Y-80214592D01*
X139553893Y-80023621D01*
X139555583Y-79952646D01*
X139595377Y-79893850D01*
X139660642Y-79865902D01*
X139675600Y-79865011D01*
X162320739Y-79865011D01*
X162388860Y-79885013D01*
G37*
%TD.AperFunction*%
%TD*%
M02*
