%FSLAX45Y45*%
G04 Gerber Fmt 4.5, Leading zero omitted, Abs format (unit mm)*
G04 Created by KiCad (PCBNEW (6.0.5)) date 2025-06-10 19:54:22*
%MOMM*%
%LPD*%
G01*
G04 APERTURE LIST*
%TA.AperFunction,Profile*%
%ADD10C,0.100000*%
%TD*%
%ADD11C,0.200000*%
G04 APERTURE END LIST*
D10*
X13600000Y-6900000D02*
G75*
G03*
X13200000Y-7300000I0J-400000D01*
G01*
X16600000Y-13000000D02*
G75*
G03*
X17000000Y-12600000I0J400000D01*
G01*
X17000000Y-7300000D02*
X17000000Y-12600000D01*
X13200000Y-12600000D02*
X13200000Y-7300000D01*
X16600000Y-13000000D02*
X13600000Y-13000000D01*
X17000000Y-7300000D02*
G75*
G03*
X16600000Y-6900000I-400000J0D01*
G01*
X13600000Y-6900000D02*
X16600000Y-6900000D01*
X13200000Y-12600000D02*
G75*
G03*
X13600000Y-13000000I400000J0D01*
G01*
D11*
X13452619Y-13315476D02*
X13452619Y-13115476D01*
X13500238Y-13115476D01*
X13528809Y-13125000D01*
X13547857Y-13144048D01*
X13557381Y-13163095D01*
X13566905Y-13201190D01*
X13566905Y-13229762D01*
X13557381Y-13267857D01*
X13547857Y-13286905D01*
X13528809Y-13305952D01*
X13500238Y-13315476D01*
X13452619Y-13315476D01*
X13652619Y-13315476D02*
X13652619Y-13182143D01*
X13652619Y-13220238D02*
X13662143Y-13201190D01*
X13671667Y-13191667D01*
X13690714Y-13182143D01*
X13709762Y-13182143D01*
X13776428Y-13315476D02*
X13776428Y-13182143D01*
X13776428Y-13115476D02*
X13766905Y-13125000D01*
X13776428Y-13134524D01*
X13785952Y-13125000D01*
X13776428Y-13115476D01*
X13776428Y-13134524D01*
X13900238Y-13315476D02*
X13881190Y-13305952D01*
X13871667Y-13286905D01*
X13871667Y-13115476D01*
X14005000Y-13315476D02*
X13985952Y-13305952D01*
X13976428Y-13286905D01*
X13976428Y-13115476D01*
X14233571Y-13315476D02*
X14233571Y-13115476D01*
X14300238Y-13258333D01*
X14366905Y-13115476D01*
X14366905Y-13315476D01*
X14547857Y-13315476D02*
X14547857Y-13210714D01*
X14538333Y-13191667D01*
X14519286Y-13182143D01*
X14481190Y-13182143D01*
X14462143Y-13191667D01*
X14547857Y-13305952D02*
X14528809Y-13315476D01*
X14481190Y-13315476D01*
X14462143Y-13305952D01*
X14452619Y-13286905D01*
X14452619Y-13267857D01*
X14462143Y-13248809D01*
X14481190Y-13239286D01*
X14528809Y-13239286D01*
X14547857Y-13229762D01*
X14643095Y-13182143D02*
X14643095Y-13382143D01*
X14643095Y-13191667D02*
X14662143Y-13182143D01*
X14700238Y-13182143D01*
X14719286Y-13191667D01*
X14728809Y-13201190D01*
X14738333Y-13220238D01*
X14738333Y-13277381D01*
X14728809Y-13296428D01*
X14719286Y-13305952D01*
X14700238Y-13315476D01*
X14662143Y-13315476D01*
X14643095Y-13305952D01*
X14824048Y-13296428D02*
X14833571Y-13305952D01*
X14824048Y-13315476D01*
X14814524Y-13305952D01*
X14824048Y-13296428D01*
X14824048Y-13315476D01*
X14824048Y-13191667D02*
X14833571Y-13201190D01*
X14824048Y-13210714D01*
X14814524Y-13201190D01*
X14824048Y-13191667D01*
X14824048Y-13210714D01*
M02*
