%TF.GenerationSoftware,KiCad,Pcbnew,(6.0.5)*%
%TF.CreationDate,2025-06-10T19:53:23+02:00*%
%TF.ProjectId,LandShark_ADC_Bridge,4c616e64-5368-4617-926b-5f4144435f42,rev?*%
%TF.SameCoordinates,Original*%
%TF.FileFunction,Legend,Bot*%
%TF.FilePolarity,Positive*%
%FSLAX46Y46*%
G04 Gerber Fmt 4.6, Leading zero omitted, Abs format (unit mm)*
G04 Created by KiCad (PCBNEW (6.0.5)) date 2025-06-10 19:53:23*
%MOMM*%
%LPD*%
G01*
G04 APERTURE LIST*
%ADD10C,0.150000*%
%ADD11C,0.120000*%
%ADD12R,1.000000X1.000000*%
%ADD13O,1.000000X1.000000*%
%ADD14R,1.700000X1.700000*%
%ADD15O,1.700000X1.700000*%
G04 APERTURE END LIST*
D10*
%TO.C,J2*%
X165328333Y-127957380D02*
X165328333Y-128671666D01*
X165375952Y-128814523D01*
X165471190Y-128909761D01*
X165614047Y-128957380D01*
X165709285Y-128957380D01*
X164899761Y-128052619D02*
X164852142Y-128005000D01*
X164756904Y-127957380D01*
X164518809Y-127957380D01*
X164423571Y-128005000D01*
X164375952Y-128052619D01*
X164328333Y-128147857D01*
X164328333Y-128243095D01*
X164375952Y-128385952D01*
X164947380Y-128957380D01*
X164328333Y-128957380D01*
%TO.C,J1*%
X137333333Y-72282380D02*
X137333333Y-72996666D01*
X137380952Y-73139523D01*
X137476190Y-73234761D01*
X137619047Y-73282380D01*
X137714285Y-73282380D01*
X136333333Y-73282380D02*
X136904761Y-73282380D01*
X136619047Y-73282380D02*
X136619047Y-72282380D01*
X136714285Y-72425238D01*
X136809523Y-72520476D01*
X136904761Y-72568095D01*
D11*
%TO.C,J2*%
X162395000Y-124905000D02*
X164995000Y-124905000D01*
X164995000Y-124905000D02*
X164995000Y-127505000D01*
X164995000Y-127505000D02*
X167595000Y-127505000D01*
X162395000Y-124905000D02*
X162395000Y-71505000D01*
X162395000Y-126175000D02*
X162395000Y-127505000D01*
X162395000Y-71505000D02*
X167595000Y-71505000D01*
X167595000Y-127505000D02*
X167595000Y-71505000D01*
X162395000Y-127505000D02*
X163725000Y-127505000D01*
%TO.C,J1*%
X125640000Y-74632380D02*
X134270000Y-74632380D01*
X136780000Y-78270000D02*
X137220000Y-78270000D01*
X125640000Y-76640000D02*
X134270000Y-76640000D01*
X125640000Y-122360000D02*
X134270000Y-122360000D01*
X125640000Y-76403805D02*
X134270000Y-76403805D01*
X125640000Y-76049520D02*
X134270000Y-76049520D01*
X139380000Y-74040000D02*
X139380000Y-75370000D01*
X136780000Y-115650000D02*
X137220000Y-115650000D01*
X134270000Y-113110000D02*
X134680000Y-113110000D01*
X125640000Y-74040000D02*
X134270000Y-74040000D01*
X125640000Y-74868570D02*
X134270000Y-74868570D01*
X136780000Y-110570000D02*
X137220000Y-110570000D01*
X125640000Y-74278095D02*
X134270000Y-74278095D01*
X134270000Y-101130000D02*
X134680000Y-101130000D01*
X136780000Y-103670000D02*
X137220000Y-103670000D01*
X136780000Y-113110000D02*
X137220000Y-113110000D01*
X125640000Y-75104760D02*
X134270000Y-75104760D01*
X125640000Y-74160000D02*
X134270000Y-74160000D01*
X125640000Y-75931425D02*
X134270000Y-75931425D01*
X136780000Y-118190000D02*
X137220000Y-118190000D01*
X125640000Y-119820000D02*
X134270000Y-119820000D01*
X136780000Y-75010000D02*
X137160000Y-75010000D01*
X136780000Y-92790000D02*
X137220000Y-92790000D01*
X136780000Y-102950000D02*
X137220000Y-102950000D01*
X134270000Y-113830000D02*
X134680000Y-113830000D01*
X134270000Y-106210000D02*
X134680000Y-106210000D01*
X125640000Y-74750475D02*
X134270000Y-74750475D01*
X134270000Y-96050000D02*
X134680000Y-96050000D01*
X136780000Y-116370000D02*
X137220000Y-116370000D01*
X125640000Y-94420000D02*
X134270000Y-94420000D01*
X125640000Y-109660000D02*
X134270000Y-109660000D01*
X134270000Y-85170000D02*
X134680000Y-85170000D01*
X125640000Y-96960000D02*
X134270000Y-96960000D01*
X136780000Y-83350000D02*
X137220000Y-83350000D01*
X134270000Y-111290000D02*
X134680000Y-111290000D01*
X134270000Y-75010000D02*
X134680000Y-75010000D01*
X134270000Y-77550000D02*
X134680000Y-77550000D01*
X136780000Y-120730000D02*
X137220000Y-120730000D01*
X125640000Y-74040000D02*
X125640000Y-124960000D01*
X125640000Y-86800000D02*
X134270000Y-86800000D01*
X136780000Y-90970000D02*
X137220000Y-90970000D01*
X134270000Y-82630000D02*
X134680000Y-82630000D01*
X125640000Y-84260000D02*
X134270000Y-84260000D01*
X125640000Y-76167615D02*
X134270000Y-76167615D01*
X134270000Y-74040000D02*
X134270000Y-124960000D01*
X134270000Y-75730000D02*
X134680000Y-75730000D01*
X136780000Y-111290000D02*
X137220000Y-111290000D01*
X134270000Y-100410000D02*
X134680000Y-100410000D01*
X134270000Y-90250000D02*
X134680000Y-90250000D01*
X136780000Y-75730000D02*
X137160000Y-75730000D01*
X125640000Y-107120000D02*
X134270000Y-107120000D01*
X125640000Y-74986665D02*
X134270000Y-74986665D01*
X136780000Y-106210000D02*
X137220000Y-106210000D01*
X136780000Y-95330000D02*
X137220000Y-95330000D01*
X125640000Y-76521900D02*
X134270000Y-76521900D01*
X134270000Y-98590000D02*
X134680000Y-98590000D01*
X134270000Y-92790000D02*
X134680000Y-92790000D01*
X134270000Y-121450000D02*
X134680000Y-121450000D01*
X125640000Y-79180000D02*
X134270000Y-79180000D01*
X125640000Y-114740000D02*
X134270000Y-114740000D01*
X134270000Y-120730000D02*
X134680000Y-120730000D01*
X134270000Y-87710000D02*
X134680000Y-87710000D01*
X136780000Y-93510000D02*
X137220000Y-93510000D01*
X134270000Y-118910000D02*
X134680000Y-118910000D01*
X136780000Y-88430000D02*
X137220000Y-88430000D01*
X125640000Y-75459045D02*
X134270000Y-75459045D01*
X134270000Y-83350000D02*
X134680000Y-83350000D01*
X136780000Y-121450000D02*
X137220000Y-121450000D01*
X136780000Y-123270000D02*
X137220000Y-123270000D01*
X134270000Y-118190000D02*
X134680000Y-118190000D01*
X134270000Y-105490000D02*
X134680000Y-105490000D01*
X136780000Y-90250000D02*
X137220000Y-90250000D01*
X134270000Y-93510000D02*
X134680000Y-93510000D01*
X136780000Y-87710000D02*
X137220000Y-87710000D01*
X125640000Y-75340950D02*
X134270000Y-75340950D01*
X136780000Y-101130000D02*
X137220000Y-101130000D01*
X134270000Y-123270000D02*
X134680000Y-123270000D01*
X125640000Y-74396190D02*
X134270000Y-74396190D01*
X125640000Y-75577140D02*
X134270000Y-75577140D01*
X125640000Y-81720000D02*
X134270000Y-81720000D01*
X136780000Y-82630000D02*
X137220000Y-82630000D01*
X134270000Y-80090000D02*
X134680000Y-80090000D01*
X136780000Y-85170000D02*
X137220000Y-85170000D01*
X136780000Y-123990000D02*
X137220000Y-123990000D01*
X125640000Y-75222855D02*
X134270000Y-75222855D01*
X125640000Y-74514285D02*
X134270000Y-74514285D01*
X125640000Y-124960000D02*
X134270000Y-124960000D01*
X134270000Y-90970000D02*
X134680000Y-90970000D01*
X136780000Y-118910000D02*
X137220000Y-118910000D01*
X134270000Y-108030000D02*
X134680000Y-108030000D01*
X134270000Y-115650000D02*
X134680000Y-115650000D01*
X125640000Y-104580000D02*
X134270000Y-104580000D01*
X134270000Y-80810000D02*
X134680000Y-80810000D01*
X136780000Y-77550000D02*
X137220000Y-77550000D01*
X136780000Y-85890000D02*
X137220000Y-85890000D01*
X136780000Y-113830000D02*
X137220000Y-113830000D01*
X134270000Y-108750000D02*
X134680000Y-108750000D01*
X125640000Y-112200000D02*
X134270000Y-112200000D01*
X136780000Y-108750000D02*
X137220000Y-108750000D01*
X134270000Y-116370000D02*
X134680000Y-116370000D01*
X134270000Y-123990000D02*
X134680000Y-123990000D01*
X136780000Y-97870000D02*
X137220000Y-97870000D01*
X125640000Y-89340000D02*
X134270000Y-89340000D01*
X136780000Y-80810000D02*
X137220000Y-80810000D01*
X136780000Y-100410000D02*
X137220000Y-100410000D01*
X125640000Y-102040000D02*
X134270000Y-102040000D01*
X125640000Y-91880000D02*
X134270000Y-91880000D01*
X136780000Y-98590000D02*
X137220000Y-98590000D01*
X134270000Y-110570000D02*
X134680000Y-110570000D01*
X125640000Y-99500000D02*
X134270000Y-99500000D01*
X134270000Y-97870000D02*
X134680000Y-97870000D01*
X136780000Y-80090000D02*
X137220000Y-80090000D01*
X134270000Y-102950000D02*
X134680000Y-102950000D01*
X125640000Y-76285710D02*
X134270000Y-76285710D01*
X134270000Y-103670000D02*
X134680000Y-103670000D01*
X125640000Y-75813330D02*
X134270000Y-75813330D01*
X136780000Y-105490000D02*
X137220000Y-105490000D01*
X138270000Y-74040000D02*
X139380000Y-74040000D01*
X125640000Y-117280000D02*
X134270000Y-117280000D01*
X134270000Y-78270000D02*
X134680000Y-78270000D01*
X134270000Y-88430000D02*
X134680000Y-88430000D01*
X134270000Y-85890000D02*
X134680000Y-85890000D01*
X125640000Y-75695235D02*
X134270000Y-75695235D01*
X136780000Y-108030000D02*
X137220000Y-108030000D01*
X134270000Y-95330000D02*
X134680000Y-95330000D01*
X136780000Y-96050000D02*
X137220000Y-96050000D01*
%TD*%
%LPC*%
D12*
%TO.C,J3*%
X145800000Y-102400000D03*
D13*
X144530000Y-102400000D03*
X143260000Y-102400000D03*
%TD*%
D14*
%TO.C,J2*%
X163725000Y-126175000D03*
D15*
X166265000Y-126175000D03*
X163725000Y-123635000D03*
X166265000Y-123635000D03*
X163725000Y-121095000D03*
X166265000Y-121095000D03*
X163725000Y-118555000D03*
X166265000Y-118555000D03*
X163725000Y-116015000D03*
X166265000Y-116015000D03*
X163725000Y-113475000D03*
X166265000Y-113475000D03*
X163725000Y-110935000D03*
X166265000Y-110935000D03*
X163725000Y-108395000D03*
X166265000Y-108395000D03*
X163725000Y-105855000D03*
X166265000Y-105855000D03*
X163725000Y-103315000D03*
X166265000Y-103315000D03*
X163725000Y-100775000D03*
X166265000Y-100775000D03*
X163725000Y-98235000D03*
X166265000Y-98235000D03*
X163725000Y-95695000D03*
X166265000Y-95695000D03*
X163725000Y-93155000D03*
X166265000Y-93155000D03*
X163725000Y-90615000D03*
X166265000Y-90615000D03*
X163725000Y-88075000D03*
X166265000Y-88075000D03*
X163725000Y-85535000D03*
X166265000Y-85535000D03*
X163725000Y-82995000D03*
X166265000Y-82995000D03*
X163725000Y-80455000D03*
X166265000Y-80455000D03*
X163725000Y-77915000D03*
X166265000Y-77915000D03*
X163725000Y-75375000D03*
X166265000Y-75375000D03*
X163725000Y-72835000D03*
X166265000Y-72835000D03*
%TD*%
D14*
%TO.C,J1*%
X135730000Y-75370000D03*
D15*
X138270000Y-75370000D03*
X135730000Y-77910000D03*
X138270000Y-77910000D03*
X135730000Y-80450000D03*
X138270000Y-80450000D03*
X135730000Y-82990000D03*
X138270000Y-82990000D03*
X135730000Y-85530000D03*
X138270000Y-85530000D03*
X135730000Y-88070000D03*
X138270000Y-88070000D03*
X135730000Y-90610000D03*
X138270000Y-90610000D03*
X135730000Y-93150000D03*
X138270000Y-93150000D03*
X135730000Y-95690000D03*
X138270000Y-95690000D03*
X135730000Y-98230000D03*
X138270000Y-98230000D03*
X135730000Y-100770000D03*
X138270000Y-100770000D03*
X135730000Y-103310000D03*
X138270000Y-103310000D03*
X135730000Y-105850000D03*
X138270000Y-105850000D03*
X135730000Y-108390000D03*
X138270000Y-108390000D03*
X135730000Y-110930000D03*
X138270000Y-110930000D03*
X135730000Y-113470000D03*
X138270000Y-113470000D03*
X135730000Y-116010000D03*
X138270000Y-116010000D03*
X135730000Y-118550000D03*
X138270000Y-118550000D03*
X135730000Y-121090000D03*
X138270000Y-121090000D03*
X135730000Y-123630000D03*
X138270000Y-123630000D03*
%TD*%
M02*
