M48
; DRILL file {KiCad (6.0.5)} date Tue Jun 10 19:54:21 2025
; FORMAT={-:-/ absolute / metric / decimal}
; #@! TF.CreationDate,2025-06-10T19:54:21+02:00
; #@! TF.GenerationSoftware,Kicad,Pcbnew,(6.0.5)
; #@! TF.FileFunction,Plated,1,4,PTH
FMAT,2
METRIC
; #@! TA.AperFunction,Plated,PTH,ViaDrill
T1C0.500
; #@! TA.AperFunction,Plated,PTH,ComponentDrill
T2C0.650
; #@! TA.AperFunction,Plated,PTH,ComponentDrill
T3C1.000
%
G90
G05
T1
X141.65Y-101.1
X143.55Y-98.55
X144.65Y-77.3
X145.5Y-108.55
X145.5Y-113.4
X145.5Y-118.3
X145.5Y-123.3
X145.55Y-98.55
X146.25Y-74.25
X146.25Y-83.75
X147.4Y-103.7
X147.45Y-101.1
X147.45Y-105.7
X148.05Y-85.2
X148.65Y-110.15
X148.65Y-115.05
X148.65Y-119.95
X149.75Y-77.3
X150.55Y-123.75
X151.35Y-83.75
X151.85Y-105.85
X152.2Y-108.9
X152.2Y-113.8
X152.2Y-118.7
X152.2Y-123.6
X153.25Y-85.2
X153.5Y-108.8
X153.5Y-113.7
X153.5Y-118.6
X153.5Y-123.5
X155.7Y-95.6
X156.4Y-109.45
X156.4Y-113.4
X156.4Y-118.3
X156.4Y-123.2
X157.3Y-95.6
X158.9Y-95.6
X160.55Y-95.6
T2
X143.26Y-102.4
X144.53Y-102.4
X145.8Y-102.4
T3
X135.73Y-75.37
X135.73Y-77.91
X135.73Y-80.45
X135.73Y-82.99
X135.73Y-85.53
X135.73Y-88.07
X135.73Y-90.61
X135.73Y-93.15
X135.73Y-95.69
X135.73Y-98.23
X135.73Y-100.77
X135.73Y-103.31
X135.73Y-105.85
X135.73Y-108.39
X135.73Y-110.93
X135.73Y-113.47
X135.73Y-116.01
X135.73Y-118.55
X135.73Y-121.09
X135.73Y-123.63
X138.27Y-75.37
X138.27Y-77.91
X138.27Y-80.45
X138.27Y-82.99
X138.27Y-85.53
X138.27Y-88.07
X138.27Y-90.61
X138.27Y-93.15
X138.27Y-95.69
X138.27Y-98.23
X138.27Y-100.77
X138.27Y-103.31
X138.27Y-105.85
X138.27Y-108.39
X138.27Y-110.93
X138.27Y-113.47
X138.27Y-116.01
X138.27Y-118.55
X138.27Y-121.09
X138.27Y-123.63
X163.725Y-72.835
X163.725Y-75.375
X163.725Y-77.915
X163.725Y-80.455
X163.725Y-82.995
X163.725Y-85.535
X163.725Y-88.075
X163.725Y-90.615
X163.725Y-93.155
X163.725Y-95.695
X163.725Y-98.235
X163.725Y-100.775
X163.725Y-103.315
X163.725Y-105.855
X163.725Y-108.395
X163.725Y-110.935
X163.725Y-113.475
X163.725Y-116.015
X163.725Y-118.555
X163.725Y-121.095
X163.725Y-123.635
X163.725Y-126.175
X166.265Y-72.835
X166.265Y-75.375
X166.265Y-77.915
X166.265Y-80.455
X166.265Y-82.995
X166.265Y-85.535
X166.265Y-88.075
X166.265Y-90.615
X166.265Y-93.155
X166.265Y-95.695
X166.265Y-98.235
X166.265Y-100.775
X166.265Y-103.315
X166.265Y-105.855
X166.265Y-108.395
X166.265Y-110.935
X166.265Y-113.475
X166.265Y-116.015
X166.265Y-118.555
X166.265Y-121.095
X166.265Y-123.635
X166.265Y-126.175
T0
M30
