%TF.GenerationSoftware,KiCad,Pcbnew,(6.0.5)*%
%TF.CreationDate,2025-06-10T19:53:23+02:00*%
%TF.ProjectId,LandShark_ADC_Bridge,4c616e64-5368-4617-926b-5f4144435f42,rev?*%
%TF.SameCoordinates,Original*%
%TF.FileFunction,Soldermask,Bot*%
%TF.FilePolarity,Negative*%
%FSLAX46Y46*%
G04 Gerber Fmt 4.6, Leading zero omitted, Abs format (unit mm)*
G04 Created by KiCad (PCBNEW (6.0.5)) date 2025-06-10 19:53:23*
%MOMM*%
%LPD*%
G01*
G04 APERTURE LIST*
%ADD10R,1.000000X1.000000*%
%ADD11O,1.000000X1.000000*%
%ADD12R,1.700000X1.700000*%
%ADD13O,1.700000X1.700000*%
G04 APERTURE END LIST*
D10*
%TO.C,J3*%
X145800000Y-102400000D03*
D11*
X144530000Y-102400000D03*
X143260000Y-102400000D03*
%TD*%
D12*
%TO.C,J2*%
X163725000Y-126175000D03*
D13*
X166265000Y-126175000D03*
X163725000Y-123635000D03*
X166265000Y-123635000D03*
X163725000Y-121095000D03*
X166265000Y-121095000D03*
X163725000Y-118555000D03*
X166265000Y-118555000D03*
X163725000Y-116015000D03*
X166265000Y-116015000D03*
X163725000Y-113475000D03*
X166265000Y-113475000D03*
X163725000Y-110935000D03*
X166265000Y-110935000D03*
X163725000Y-108395000D03*
X166265000Y-108395000D03*
X163725000Y-105855000D03*
X166265000Y-105855000D03*
X163725000Y-103315000D03*
X166265000Y-103315000D03*
X163725000Y-100775000D03*
X166265000Y-100775000D03*
X163725000Y-98235000D03*
X166265000Y-98235000D03*
X163725000Y-95695000D03*
X166265000Y-95695000D03*
X163725000Y-93155000D03*
X166265000Y-93155000D03*
X163725000Y-90615000D03*
X166265000Y-90615000D03*
X163725000Y-88075000D03*
X166265000Y-88075000D03*
X163725000Y-85535000D03*
X166265000Y-85535000D03*
X163725000Y-82995000D03*
X166265000Y-82995000D03*
X163725000Y-80455000D03*
X166265000Y-80455000D03*
X163725000Y-77915000D03*
X166265000Y-77915000D03*
X163725000Y-75375000D03*
X166265000Y-75375000D03*
X163725000Y-72835000D03*
X166265000Y-72835000D03*
%TD*%
D12*
%TO.C,J1*%
X135730000Y-75370000D03*
D13*
X138270000Y-75370000D03*
X135730000Y-77910000D03*
X138270000Y-77910000D03*
X135730000Y-80450000D03*
X138270000Y-80450000D03*
X135730000Y-82990000D03*
X138270000Y-82990000D03*
X135730000Y-85530000D03*
X138270000Y-85530000D03*
X135730000Y-88070000D03*
X138270000Y-88070000D03*
X135730000Y-90610000D03*
X138270000Y-90610000D03*
X135730000Y-93150000D03*
X138270000Y-93150000D03*
X135730000Y-95690000D03*
X138270000Y-95690000D03*
X135730000Y-98230000D03*
X138270000Y-98230000D03*
X135730000Y-100770000D03*
X138270000Y-100770000D03*
X135730000Y-103310000D03*
X138270000Y-103310000D03*
X135730000Y-105850000D03*
X138270000Y-105850000D03*
X135730000Y-108390000D03*
X138270000Y-108390000D03*
X135730000Y-110930000D03*
X138270000Y-110930000D03*
X135730000Y-113470000D03*
X138270000Y-113470000D03*
X135730000Y-116010000D03*
X138270000Y-116010000D03*
X135730000Y-118550000D03*
X138270000Y-118550000D03*
X135730000Y-121090000D03*
X138270000Y-121090000D03*
X135730000Y-123630000D03*
X138270000Y-123630000D03*
%TD*%
M02*
