%TF.GenerationSoftware,KiCad,Pcbnew,(6.0.5)*%
%TF.CreationDate,2025-06-10T19:53:23+02:00*%
%TF.ProjectId,LandShark_ADC_Bridge,4c616e64-5368-4617-926b-5f4144435f42,rev?*%
%TF.SameCoordinates,Original*%
%TF.FileFunction,Soldermask,Top*%
%TF.FilePolarity,Negative*%
%FSLAX46Y46*%
G04 Gerber Fmt 4.6, Leading zero omitted, Abs format (unit mm)*
G04 Created by KiCad (PCBNEW (6.0.5)) date 2025-06-10 19:53:23*
%MOMM*%
%LPD*%
G01*
G04 APERTURE LIST*
G04 Aperture macros list*
%AMRoundRect*
0 Rectangle with rounded corners*
0 $1 Rounding radius*
0 $2 $3 $4 $5 $6 $7 $8 $9 X,Y pos of 4 corners*
0 Add a 4 corners polygon primitive as box body*
4,1,4,$2,$3,$4,$5,$6,$7,$8,$9,$2,$3,0*
0 Add four circle primitives for the rounded corners*
1,1,$1+$1,$2,$3*
1,1,$1+$1,$4,$5*
1,1,$1+$1,$6,$7*
1,1,$1+$1,$8,$9*
0 Add four rect primitives between the rounded corners*
20,1,$1+$1,$2,$3,$4,$5,0*
20,1,$1+$1,$4,$5,$6,$7,0*
20,1,$1+$1,$6,$7,$8,$9,0*
20,1,$1+$1,$8,$9,$2,$3,0*%
G04 Aperture macros list end*
%ADD10RoundRect,0.200000X0.200000X0.275000X-0.200000X0.275000X-0.200000X-0.275000X0.200000X-0.275000X0*%
%ADD11RoundRect,0.250000X-0.250000X-0.475000X0.250000X-0.475000X0.250000X0.475000X-0.250000X0.475000X0*%
%ADD12RoundRect,0.225000X0.250000X-0.225000X0.250000X0.225000X-0.250000X0.225000X-0.250000X-0.225000X0*%
%ADD13R,1.000000X1.000000*%
%ADD14O,1.000000X1.000000*%
%ADD15RoundRect,0.250000X-0.475000X0.250000X-0.475000X-0.250000X0.475000X-0.250000X0.475000X0.250000X0*%
%ADD16R,0.580000X0.300000*%
%ADD17R,0.580000X0.250000*%
%ADD18R,0.350000X0.630000*%
%ADD19RoundRect,0.250000X0.325000X0.650000X-0.325000X0.650000X-0.325000X-0.650000X0.325000X-0.650000X0*%
%ADD20RoundRect,0.250000X0.250000X0.475000X-0.250000X0.475000X-0.250000X-0.475000X0.250000X-0.475000X0*%
%ADD21RoundRect,0.150000X-0.150000X0.512500X-0.150000X-0.512500X0.150000X-0.512500X0.150000X0.512500X0*%
%ADD22RoundRect,0.218750X-0.218750X-0.381250X0.218750X-0.381250X0.218750X0.381250X-0.218750X0.381250X0*%
%ADD23R,1.700000X1.700000*%
%ADD24O,1.700000X1.700000*%
G04 APERTURE END LIST*
D10*
%TO.C,R2*%
X158375000Y-107950000D03*
X156725000Y-107950000D03*
%TD*%
D11*
%TO.C,C11*%
X149750000Y-124850000D03*
X151650000Y-124850000D03*
%TD*%
D12*
%TO.C,C13*%
X155250000Y-109475000D03*
X155250000Y-107925000D03*
%TD*%
D13*
%TO.C,J3*%
X145800000Y-102400000D03*
D14*
X144530000Y-102400000D03*
X143260000Y-102400000D03*
%TD*%
D15*
%TO.C,C19*%
X153450000Y-120550000D03*
X153450000Y-122450000D03*
%TD*%
D16*
%TO.C,U2*%
X150200000Y-107215000D03*
D17*
X150200000Y-107715000D03*
D16*
X150200000Y-108215000D03*
D18*
X150835000Y-108150000D03*
D16*
X151470000Y-108215000D03*
D17*
X151470000Y-107715000D03*
D16*
X151470000Y-107215000D03*
D18*
X150835000Y-107280000D03*
%TD*%
D16*
%TO.C,U4*%
X150202500Y-121900000D03*
D17*
X150202500Y-122400000D03*
D16*
X150202500Y-122900000D03*
D18*
X150837500Y-122835000D03*
D16*
X151472500Y-122900000D03*
D17*
X151472500Y-122400000D03*
D16*
X151472500Y-121900000D03*
D18*
X150837500Y-121965000D03*
%TD*%
D15*
%TO.C,C16*%
X153450000Y-115650000D03*
X153450000Y-117550000D03*
%TD*%
D11*
%TO.C,C9*%
X149750000Y-110150000D03*
X151650000Y-110150000D03*
%TD*%
D19*
%TO.C,C1*%
X148125000Y-75100000D03*
X145175000Y-75100000D03*
%TD*%
D20*
%TO.C,C6*%
X143550000Y-99825000D03*
X141650000Y-99825000D03*
%TD*%
D10*
%TO.C,R3*%
X158375000Y-111850000D03*
X156725000Y-111850000D03*
%TD*%
D15*
%TO.C,C18*%
X153450000Y-110750000D03*
X153450000Y-112650000D03*
%TD*%
D10*
%TO.C,R1*%
X158375000Y-116750000D03*
X156725000Y-116750000D03*
%TD*%
D12*
%TO.C,C15*%
X155250000Y-123175000D03*
X155250000Y-121625000D03*
%TD*%
D20*
%TO.C,C3*%
X152700000Y-77300000D03*
X150800000Y-77300000D03*
%TD*%
D11*
%TO.C,C10*%
X149750000Y-115050000D03*
X151650000Y-115050000D03*
%TD*%
D21*
%TO.C,U5*%
X147550000Y-79262500D03*
X146600000Y-79262500D03*
X145650000Y-79262500D03*
X145650000Y-81537500D03*
X147550000Y-81537500D03*
%TD*%
D11*
%TO.C,C7*%
X145550000Y-99825000D03*
X147450000Y-99825000D03*
%TD*%
D16*
%TO.C,U3*%
X150202500Y-112100000D03*
D17*
X150202500Y-112600000D03*
D16*
X150202500Y-113100000D03*
D18*
X150837500Y-113035000D03*
D16*
X151472500Y-113100000D03*
D17*
X151472500Y-112600000D03*
D16*
X151472500Y-112100000D03*
D18*
X150837500Y-112165000D03*
%TD*%
D11*
%TO.C,C8*%
X149750000Y-119950000D03*
X151650000Y-119950000D03*
%TD*%
D21*
%TO.C,U6*%
X152700000Y-79262500D03*
X151750000Y-79262500D03*
X150800000Y-79262500D03*
X150800000Y-81537500D03*
X152700000Y-81537500D03*
%TD*%
D15*
%TO.C,C17*%
X153450000Y-105850000D03*
X153450000Y-107750000D03*
%TD*%
D16*
%TO.C,U1*%
X150202500Y-117000000D03*
D17*
X150202500Y-117500000D03*
D16*
X150202500Y-118000000D03*
D18*
X150837500Y-117935000D03*
D16*
X151472500Y-118000000D03*
D17*
X151472500Y-117500000D03*
D16*
X151472500Y-117000000D03*
D18*
X150837500Y-117065000D03*
%TD*%
D19*
%TO.C,C4*%
X148075000Y-83750000D03*
X145125000Y-83750000D03*
%TD*%
D10*
%TO.C,R4*%
X158375000Y-121650000D03*
X156725000Y-121650000D03*
%TD*%
D22*
%TO.C,L1*%
X143287500Y-104900000D03*
X145412500Y-104900000D03*
%TD*%
D12*
%TO.C,C12*%
X155250000Y-118275000D03*
X155250000Y-116725000D03*
%TD*%
%TO.C,C14*%
X155250000Y-113375000D03*
X155250000Y-111825000D03*
%TD*%
D20*
%TO.C,C2*%
X147600000Y-77300000D03*
X145700000Y-77300000D03*
%TD*%
D19*
%TO.C,C5*%
X153225000Y-83750000D03*
X150275000Y-83750000D03*
%TD*%
D23*
%TO.C,J2*%
X163725000Y-126175000D03*
D24*
X166265000Y-126175000D03*
X163725000Y-123635000D03*
X166265000Y-123635000D03*
X163725000Y-121095000D03*
X166265000Y-121095000D03*
X163725000Y-118555000D03*
X166265000Y-118555000D03*
X163725000Y-116015000D03*
X166265000Y-116015000D03*
X163725000Y-113475000D03*
X166265000Y-113475000D03*
X163725000Y-110935000D03*
X166265000Y-110935000D03*
X163725000Y-108395000D03*
X166265000Y-108395000D03*
X163725000Y-105855000D03*
X166265000Y-105855000D03*
X163725000Y-103315000D03*
X166265000Y-103315000D03*
X163725000Y-100775000D03*
X166265000Y-100775000D03*
X163725000Y-98235000D03*
X166265000Y-98235000D03*
X163725000Y-95695000D03*
X166265000Y-95695000D03*
X163725000Y-93155000D03*
X166265000Y-93155000D03*
X163725000Y-90615000D03*
X166265000Y-90615000D03*
X163725000Y-88075000D03*
X166265000Y-88075000D03*
X163725000Y-85535000D03*
X166265000Y-85535000D03*
X163725000Y-82995000D03*
X166265000Y-82995000D03*
X163725000Y-80455000D03*
X166265000Y-80455000D03*
X163725000Y-77915000D03*
X166265000Y-77915000D03*
X163725000Y-75375000D03*
X166265000Y-75375000D03*
X163725000Y-72835000D03*
X166265000Y-72835000D03*
%TD*%
D23*
%TO.C,J1*%
X135730000Y-75370000D03*
D24*
X138270000Y-75370000D03*
X135730000Y-77910000D03*
X138270000Y-77910000D03*
X135730000Y-80450000D03*
X138270000Y-80450000D03*
X135730000Y-82990000D03*
X138270000Y-82990000D03*
X135730000Y-85530000D03*
X138270000Y-85530000D03*
X135730000Y-88070000D03*
X138270000Y-88070000D03*
X135730000Y-90610000D03*
X138270000Y-90610000D03*
X135730000Y-93150000D03*
X138270000Y-93150000D03*
X135730000Y-95690000D03*
X138270000Y-95690000D03*
X135730000Y-98230000D03*
X138270000Y-98230000D03*
X135730000Y-100770000D03*
X138270000Y-100770000D03*
X135730000Y-103310000D03*
X138270000Y-103310000D03*
X135730000Y-105850000D03*
X138270000Y-105850000D03*
X135730000Y-108390000D03*
X138270000Y-108390000D03*
X135730000Y-110930000D03*
X138270000Y-110930000D03*
X135730000Y-113470000D03*
X138270000Y-113470000D03*
X135730000Y-116010000D03*
X138270000Y-116010000D03*
X135730000Y-118550000D03*
X138270000Y-118550000D03*
X135730000Y-121090000D03*
X138270000Y-121090000D03*
X135730000Y-123630000D03*
X138270000Y-123630000D03*
%TD*%
M02*
